ISO-10303-21;
HEADER;
FILE_DESCRIPTION (( 'STEP AP203' ),
    '1' );
FILE_NAME ('MKH-008_forearm_link.STEP',
    '2026-07-28T17:12:54',
    ( '' ),
    ( '' ),
    'SwSTEP 2.0',
    'SolidWorks 2023',
    '' );
FILE_SCHEMA (( 'CONFIG_CONTROL_DESIGN' ));
ENDSEC;

DATA;
#1 = EDGE_LOOP ( 'NONE', ( #134, #567 ) ) ;
#2 = DIRECTION ( 'NONE',  ( -0.000000000000000000, 1.000000000000000000, -0.000000000000000000 ) ) ;
#3 = ADVANCED_BREP_SHAPE_REPRESENTATION ( 'MKH-008_forearm_link', ( #169, #983 ), #384 ) ;
#4 = DIRECTION ( 'NONE',  ( -0.000000000000000000, -1.000000000000000000, -0.000000000000000000 ) ) ;
#5 = EDGE_LOOP ( 'NONE', ( #220, #363, #767, #470 ) ) ;
#6 = DIRECTION ( 'NONE',  ( 0.000000000000000000, 1.000000000000000000, 0.000000000000000000 ) ) ;
#7 = ORIENTED_EDGE ( 'NONE', *, *, #256, .F. ) ;
#8 = FACE_OUTER_BOUND ( 'NONE', #277, .T. ) ;
#9 = AXIS2_PLACEMENT_3D ( 'NONE', #299, #536, #866 ) ;
#10 = EDGE_CURVE ( 'NONE', #508, #129, #915, .T. ) ;
#11 = AXIS2_PLACEMENT_3D ( 'NONE', #82, #903, #330 ) ;
#12 = ORIENTED_EDGE ( 'NONE', *, *, #715, .T. ) ;
#13 = DIRECTION ( 'NONE',  ( 0.000000000000000000, -1.000000000000000000, 0.000000000000000000 ) ) ;
#14 = LINE ( 'NONE', #913, #488 ) ;
#15 = ORIENTED_EDGE ( 'NONE', *, *, #507, .T. ) ;
#16 = APPROVAL_STATUS ( 'not_yet_approved' ) ;
#17 = FACE_BOUND ( 'NONE', #1, .T. ) ;
#18 = DIRECTION ( 'NONE',  ( 0.000000000000000000, 1.000000000000000000, 0.000000000000000000 ) ) ;
#19 = VERTEX_POINT ( 'NONE', #529 ) ;
#20 = DIRECTION ( 'NONE',  ( 1.000000000000000000, 0.000000000000000000, 0.000000000000000000 ) ) ;
#21 = LINE ( 'NONE', #907, #213 ) ;
#22 = EDGE_CURVE ( 'NONE', #1016, #385, #860, .T. ) ;
#23 = CC_DESIGN_PERSON_AND_ORGANIZATION_ASSIGNMENT ( #459, #635, ( #745 ) ) ;
#24 = CARTESIAN_POINT ( 'NONE',  ( -245.0000000000000000, 20.00000000000000000, -64.00000000000000000 ) ) ;
#25 = EDGE_CURVE ( 'NONE', #75, #452, #758, .T. ) ;
#26 = ORIENTED_EDGE ( 'NONE', *, *, #410, .F. ) ;
#27 = AXIS2_PLACEMENT_3D ( 'NONE', #402, #240, #566 ) ;
#28 = CARTESIAN_POINT ( 'NONE',  ( 245.0000000000000000, 0.000000000000000000, 64.00000000000000000 ) ) ;
#29 = CIRCLE ( 'NONE', #964, 57.99999999999999289 ) ;
#30 = DIRECTION ( 'NONE',  ( 0.000000000000000000, -0.000000000000000000, -1.000000000000000000 ) ) ;
#31 = APPROVAL_PERSON_ORGANIZATION ( #906, #99, #956 ) ;
#32 = CARTESIAN_POINT ( 'NONE',  ( -117.5000000000000000, 0.000000000000000000, 11.00000000000000000 ) ) ;
#33 = PERSON_AND_ORGANIZATION ( #447, #576 ) ;
#34 = FACE_OUTER_BOUND ( 'NONE', #77, .T. ) ;
#35 = DIRECTION ( 'NONE',  ( -0.000000000000000000, -1.000000000000000000, -0.000000000000000000 ) ) ;
#36 = EDGE_CURVE ( 'NONE', #652, #794, #1005, .T. ) ;
#37 = EDGE_CURVE ( 'NONE', #389, #748, #838, .T. ) ;
#38 = CARTESIAN_POINT ( 'NONE',  ( -135.0000000000000000, 0.000000000000000000, -11.00000000000000000 ) ) ;
#39 = LINE ( 'NONE', #126, #573 ) ;
#40 = CARTESIAN_POINT ( 'NONE',  ( -135.0000000000000000, 31.00000000000000000, 11.00000000000000000 ) ) ;
#41 = VERTEX_POINT ( 'NONE', #273 ) ;
#42 = VERTEX_POINT ( 'NONE', #32 ) ;
#43 = EDGE_CURVE ( 'NONE', #801, #19, #591, .T. ) ;
#44 = CARTESIAN_POINT ( 'NONE',  ( 196.0000000000000000, 20.00000000000000000, 43.99999999999997158 ) ) ;
#45 = LINE ( 'NONE', #532, #588 ) ;
#46 = ORIENTED_EDGE ( 'NONE', *, *, #97, .F. ) ;
#47 = CARTESIAN_POINT ( 'NONE',  ( 245.0000000000000000, 20.00000000000000000, 64.00000000000000000 ) ) ;
#48 = FACE_OUTER_BOUND ( 'NONE', #690, .T. ) ;
#49 = CARTESIAN_POINT ( 'NONE',  ( 135.0000000000000000, 31.00000000000000000, 11.00000000000000000 ) ) ;
#50 = VERTEX_POINT ( 'NONE', #28 ) ;
#51 = FACE_OUTER_BOUND ( 'NONE', #738, .T. ) ;
#52 = PLANE ( 'NONE',  #647 ) ;
#53 = VERTEX_POINT ( 'NONE', #1010 ) ;
#54 = DIRECTION ( 'NONE',  ( -1.000000000000000000, 0.000000000000000000, 0.000000000000000000 ) ) ;
#55 = EDGE_LOOP ( 'NONE', ( #740, #317, #285, #863 ) ) ;
#56 = AXIS2_PLACEMENT_3D ( 'NONE', #612, #1006, #30 ) ;
#57 = DIRECTION ( 'NONE',  ( 0.000000000000000000, 0.000000000000000000, 1.000000000000000000 ) ) ;
#58 = AXIS2_PLACEMENT_3D ( 'NONE', #580, #87, #405 ) ;
#59 = DIRECTION ( 'NONE',  ( 0.000000000000000000, 1.000000000000000000, 0.000000000000000000 ) ) ;
#60 = CYLINDRICAL_SURFACE ( 'NONE', #741, 43.99999999999997158 ) ;
#61 = CARTESIAN_POINT ( 'NONE',  ( -117.5000000000000000, 20.00000000000000000, 24.00000000000000000 ) ) ;
#62 = EDGE_CURVE ( 'NONE', #53, #686, #924, .T. ) ;
#63 = ADVANCED_FACE ( 'NONE', ( #920 ), #773, .T. ) ;
#64 = LINE ( 'NONE', #468, #571 ) ;
#65 = EDGE_CURVE ( 'NONE', #599, #345, #64, .T. ) ;
#66 = ORIENTED_EDGE ( 'NONE', *, *, #671, .T. ) ;
#67 = PRODUCT ( 'MKH-008_forearm_link', 'MKH-008_forearm_link', '', ( #360 ) ) ;
#68 = FACE_OUTER_BOUND ( 'NONE', #449, .T. ) ;
#69 = DIRECTION ( 'NONE',  ( 0.000000000000000000, 0.000000000000000000, -1.000000000000000000 ) ) ;
#70 = CARTESIAN_POINT ( 'NONE',  ( -196.0000000000000000, 34.00000000000000000, 57.99999999999999289 ) ) ;
#71 = VERTEX_POINT ( 'NONE', #799 ) ;
#72 = DIRECTION ( 'NONE',  ( -1.000000000000000000, 0.000000000000000000, 0.000000000000000000 ) ) ;
#73 = AXIS2_PLACEMENT_3D ( 'NONE', #968, #638, #1048 ) ;
#74 = CARTESIAN_POINT ( 'NONE',  ( 245.0000000000000000, 0.000000000000000000, 64.00000000000000000 ) ) ;
#75 = VERTEX_POINT ( 'NONE', #960 ) ;
#76 = DIRECTION ( 'NONE',  ( -0.000000000000000000, -1.000000000000000000, -0.000000000000000000 ) ) ;
#77 = EDGE_LOOP ( 'NONE', ( #359, #933, #533, #162 ) ) ;
#78 = LINE ( 'NONE', #237, #608 ) ;
#79 = DIRECTION ( 'NONE',  ( -0.000000000000000000, -1.000000000000000000, -0.000000000000000000 ) ) ;
#80 = EDGE_LOOP ( 'NONE', ( #673, #482, #518, #145 ) ) ;
#81 = DIRECTION ( 'NONE',  ( 0.000000000000000000, -0.000000000000000000, -1.000000000000000000 ) ) ;
#82 = CARTESIAN_POINT ( 'NONE',  ( 196.0000000000000000, 34.00000000000000000, 0.000000000000000000 ) ) ;
#83 = APPROVAL ( #945, '未' ) ;
#84 = EDGE_CURVE ( 'NONE', #753, #297, #89, .T. ) ;
#85 = FACE_OUTER_BOUND ( 'NONE', #55, .T. ) ;
#86 = EDGE_LOOP ( 'NONE', ( #600, #852, #140, #540 ) ) ;
#87 = DIRECTION ( 'NONE',  ( -0.000000000000000000, -1.000000000000000000, -0.000000000000000000 ) ) ;
#88 = EDGE_CURVE ( 'NONE', #636, #572, #634, .T. ) ;
#89 = CIRCLE ( 'NONE', #106, 43.99999999999997158 ) ;
#90 = AXIS2_PLACEMENT_3D ( 'NONE', #109, #688, #434 ) ;
#91 = CIRCLE ( 'NONE', #586, 43.99999999999997158 ) ;
#92 = ORIENTED_EDGE ( 'NONE', *, *, #135, .T. ) ;
#93 = DATE_AND_TIME ( #911, #431 ) ;
#94 = CIRCLE ( 'NONE', #215, 57.99999999999999289 ) ;
#95 = FACE_BOUND ( 'NONE', #982, .T. ) ;
#96 = CARTESIAN_POINT ( 'NONE',  ( 196.0000000000000000, 34.00000000000000000, 0.000000000000000000 ) ) ;
#97 = EDGE_CURVE ( 'NONE', #542, #71, #955, .T. ) ;
#98 = ORIENTED_EDGE ( 'NONE', *, *, #579, .F. ) ;
#99 = APPROVAL ( #16, '未' ) ;
#100 = EDGE_CURVE ( 'NONE', #1008, #345, #387, .T. ) ;
#101 = CYLINDRICAL_SURFACE ( 'NONE', #11, 57.99999999999999289 ) ;
#102 = ORIENTED_EDGE ( 'NONE', *, *, #474, .F. ) ;
#103 = ORIENTED_EDGE ( 'NONE', *, *, #984, .T. ) ;
#104 = LINE ( 'NONE', #201, #318 ) ;
#105 = CARTESIAN_POINT ( 'NONE',  ( 245.0000000000000000, 20.00000000000000000, -64.00000000000000000 ) ) ;
#106 = AXIS2_PLACEMENT_3D ( 'NONE', #234, #59, #138 ) ;
#107 = AXIS2_PLACEMENT_3D ( 'NONE', #760, #288, #526 ) ;
#108 = DIRECTION ( 'NONE',  ( -1.000000000000000000, 0.000000000000000000, -0.000000000000000000 ) ) ;
#109 = CARTESIAN_POINT ( 'NONE',  ( -196.0000000000000000, 20.00000000000000000, 0.000000000000000000 ) ) ;
#110 = VECTOR ( 'NONE', #295, 1000.000000000000000 ) ;
#111 = DIRECTION ( 'NONE',  ( 1.000000000000000000, -0.000000000000000000, 0.000000000000000000 ) ) ;
#112 = ADVANCED_FACE ( 'NONE', ( #717 ), #217, .T. ) ;
#113 = EDGE_CURVE ( 'NONE', #599, #160, #552, .T. ) ;
#114 = ORIENTED_EDGE ( 'NONE', *, *, #624, .F. ) ;
#115 = ORIENTED_EDGE ( 'NONE', *, *, #338, .T. ) ;
#116 = APPROVAL_ROLE ( '' ) ;
#117 = CYLINDRICAL_SURFACE ( 'NONE', #90, 43.99999999999997158 ) ;
#118 = DIRECTION ( 'NONE',  ( 0.000000000000000000, 0.000000000000000000, -1.000000000000000000 ) ) ;
#119 = EDGE_LOOP ( 'NONE', ( #1034, #992, #1018, #790 ) ) ;
#120 = CARTESIAN_POINT ( 'NONE',  ( -117.5000000000000000, 0.000000000000000000, 24.00000000000000000 ) ) ;
#121 = CARTESIAN_POINT ( 'NONE',  ( -196.0000000000000000, 34.00000000000000000, 0.000000000000000000 ) ) ;
#122 = LINE ( 'NONE', #762, #110 ) ;
#123 = ORIENTED_EDGE ( 'NONE', *, *, #364, .F. ) ;
#124 = CARTESIAN_POINT ( 'NONE',  ( -196.0000000000000000, 34.00000000000000000, -57.99999999999999289 ) ) ;
#125 = SECURITY_CLASSIFICATION_LEVEL ( 'unclassified' ) ;
#126 = CARTESIAN_POINT ( 'NONE',  ( -245.0000000000000000, 20.00000000000000000, 64.00000000000000000 ) ) ;
#127 = AXIS2_PLACEMENT_3D ( 'NONE', #979, #570, #159 ) ;
#128 = CARTESIAN_POINT ( 'NONE',  ( -196.0000000000000000, 34.00000000000000000, 43.99999999999997158 ) ) ;
#129 = VERTEX_POINT ( 'NONE', #392 ) ;
#130 = CARTESIAN_POINT ( 'NONE',  ( 245.0000000000000000, 20.00000000000000000, 64.00000000000000000 ) ) ;
#131 = APPROVAL_DATE_TIME ( #200, #83 ) ;
#132 = EDGE_CURVE ( 'NONE', #508, #686, #886, .T. ) ;
#133 = CYLINDRICAL_SURFACE ( 'NONE', #192, 43.99999999999997158 ) ;
#134 = ORIENTED_EDGE ( 'NONE', *, *, #850, .T. ) ;
#135 = EDGE_CURVE ( 'NONE', #184, #75, #927, .T. ) ;
#136 = CARTESIAN_POINT ( 'NONE',  ( -196.0000000000000000, 20.00000000000000000, 0.000000000000000000 ) ) ;
#137 = ORIENTED_EDGE ( 'NONE', *, *, #1046, .T. ) ;
#138 = DIRECTION ( 'NONE',  ( 0.000000000000000000, 0.000000000000000000, 1.000000000000000000 ) ) ;
#139 = COORDINATED_UNIVERSAL_TIME_OFFSET ( 8, 0, .AHEAD. ) ;
#140 = ORIENTED_EDGE ( 'NONE', *, *, #904, .T. ) ;
#141 = LINE ( 'NONE', #466, #266 ) ;
#142 = CARTESIAN_POINT ( 'NONE',  ( 245.0000000000000000, 20.00000000000000000, 64.00000000000000000 ) ) ;
#143 = VERTEX_POINT ( 'NONE', #877 ) ;
#144 = ADVANCED_FACE ( 'NONE', ( #881 ), #312, .F. ) ;
#145 = ORIENTED_EDGE ( 'NONE', *, *, #226, .T. ) ;
#146 = VECTOR ( 'NONE', #694, 1000.000000000000000 ) ;
#147 = LINE ( 'NONE', #723, #625 ) ;
#148 = VECTOR ( 'NONE', #499, 1000.000000000000000 ) ;
#149 = EDGE_CURVE ( 'NONE', #606, #614, #787, .T. ) ;
#150 = VECTOR ( 'NONE', #929, 1000.000000000000000 ) ;
#151 = ADVANCED_FACE ( 'NONE', ( #541 ), #793, .F. ) ;
#152 = DIRECTION ( 'NONE',  ( -0.000000000000000000, -1.000000000000000000, -0.000000000000000000 ) ) ;
#153 = FACE_OUTER_BOUND ( 'NONE', #86, .T. ) ;
#154 = CARTESIAN_POINT ( 'NONE',  ( -245.0000000000000000, 20.00000000000000000, 64.00000000000000000 ) ) ;
#155 = DIRECTION ( 'NONE',  ( 0.000000000000000000, 1.000000000000000000, 0.000000000000000000 ) ) ;
#156 = DIRECTION ( 'NONE',  ( -1.000000000000000000, 0.000000000000000000, 0.000000000000000000 ) ) ;
#157 = DIRECTION ( 'NONE',  ( -0.000000000000000000, -1.000000000000000000, -0.000000000000000000 ) ) ;
#158 = PLANE ( 'NONE',  #844 ) ;
#159 = DIRECTION ( 'NONE',  ( 0.000000000000000000, 0.000000000000000000, -1.000000000000000000 ) ) ;
#160 = VERTEX_POINT ( 'NONE', #804 ) ;
#161 = CARTESIAN_POINT ( 'NONE',  ( -245.0000000000000000, 0.000000000000000000, -31.03224129836581469 ) ) ;
#162 = ORIENTED_EDGE ( 'NONE', *, *, #549, .F. ) ;
#163 = CARTESIAN_POINT ( 'NONE',  ( 117.5000000000000000, 20.00000000000000000, 24.00000000000000000 ) ) ;
#164 = VECTOR ( 'NONE', #270, 1000.000000000000000 ) ;
#165 = CARTESIAN_POINT ( 'NONE',  ( -196.0000000000000000, 0.000000000000000000, 43.99999999999997158 ) ) ;
#166 = LOCAL_TIME ( 1, 12, 54.00000000000000000, #873 ) ;
#167 = EDGE_LOOP ( 'NONE', ( #291, #993, #355, #725 ) ) ;
#168 = DIRECTION ( 'NONE',  ( 1.000000000000000000, 0.000000000000000000, 0.000000000000000000 ) ) ;
#169 = MANIFOLD_SOLID_BREP ( '03_Center_Rib', #645 ) ;
#170 = LINE ( 'NONE', #105, #517 ) ;
#171 = LINE ( 'NONE', #730, #864 ) ;
#172 = ORIENTED_EDGE ( 'NONE', *, *, #969, .F. ) ;
#173 = CARTESIAN_POINT ( 'NONE',  ( 245.0000000000000000, 0.000000000000000000, -31.03224129836582179 ) ) ;
#174 = EDGE_LOOP ( 'NONE', ( #895, #718, #722, #961, #199, #227, #528, #731 ) ) ;
#175 = DIRECTION ( 'NONE',  ( 0.000000000000000000, 1.000000000000000000, 0.000000000000000000 ) ) ;
#176 = EDGE_CURVE ( 'NONE', #19, #160, #376, .T. ) ;
#177 = EDGE_CURVE ( 'NONE', #42, #71, #1041, .T. ) ;
#178 = VECTOR ( 'NONE', #76, 1000.000000000000000 ) ;
#179 = ADVANCED_FACE ( 'NONE', ( #51 ), #303, .F. ) ;
#180 = VECTOR ( 'NONE', #974, 1000.000000000000000 ) ;
#181 = AXIS2_PLACEMENT_3D ( 'NONE', #163, #644, #806 ) ;
#182 = ORIENTED_EDGE ( 'NONE', *, *, #809, .T. ) ;
#183 = DIRECTION ( 'NONE',  ( 0.000000000000000000, 0.000000000000000000, -1.000000000000000000 ) ) ;
#184 = VERTEX_POINT ( 'NONE', #70 ) ;
#185 = CARTESIAN_POINT ( 'NONE',  ( 245.0000000000000000, 0.000000000000000000, 31.03224129836581469 ) ) ;
#186 = CARTESIAN_POINT ( 'NONE',  ( -245.0000000000000000, 20.00000000000000000, 64.00000000000000000 ) ) ;
#187 = CARTESIAN_POINT ( 'NONE',  ( -117.5000000000000000, 20.00000000000000000, 24.00000000000000000 ) ) ;
#188 = DIRECTION ( 'NONE',  ( 0.000000000000000000, 1.000000000000000000, 0.000000000000000000 ) ) ;
#189 = DIRECTION ( 'NONE',  ( -0.000000000000000000, 1.000000000000000000, -0.000000000000000000 ) ) ;
#190 = ORIENTED_EDGE ( 'NONE', *, *, #149, .T. ) ;
#191 = AXIS2_PLACEMENT_3D ( 'NONE', #619, #1037, #310 ) ;
#192 = AXIS2_PLACEMENT_3D ( 'NONE', #946, #331, #69 ) ;
#193 = ORIENTED_EDGE ( 'NONE', *, *, #859, .T. ) ;
#194 = CIRCLE ( 'NONE', #247, 43.99999999999997158 ) ;
#195 = DIRECTION ( 'NONE',  ( -1.000000000000000000, -0.000000000000000000, -0.000000000000000000 ) ) ;
#196 = CARTESIAN_POINT ( 'NONE',  ( -245.0000000000000000, 20.00000000000000000, -31.03224129836582179 ) ) ;
#197 = ADVANCED_FACE ( 'NONE', ( #1022, #396 ), #949, .F. ) ;
#198 = ORIENTED_EDGE ( 'NONE', *, *, #442, .T. ) ;
#199 = ORIENTED_EDGE ( 'NONE', *, *, #474, .T. ) ;
#200 = DATE_AND_TIME ( #211, #711 ) ;
#201 = CARTESIAN_POINT ( 'NONE',  ( 245.0000000000000000, 0.000000000000000000, 64.00000000000000000 ) ) ;
#202 = DIRECTION ( 'NONE',  ( 0.000000000000000000, 1.000000000000000000, 0.000000000000000000 ) ) ;
#203 = CARTESIAN_POINT ( 'NONE',  ( -117.5000000000000000, 20.00000000000000000, 24.00000000000000000 ) ) ;
#204 = LINE ( 'NONE', #510, #164 ) ;
#205 = DIRECTION ( 'NONE',  ( 0.000000000000000000, 0.000000000000000000, 1.000000000000000000 ) ) ;
#206 = ORIENTED_EDGE ( 'NONE', *, *, #750, .T. ) ;
#207 = ADVANCED_FACE ( 'NONE', ( #1052 ), #60, .F. ) ;
#208 = ADVANCED_FACE ( 'NONE', ( #153 ), #810, .T. ) ;
#209 = CARTESIAN_POINT ( 'NONE',  ( -117.5000000000000000, 20.00000000000000000, -24.00000000000000000 ) ) ;
#210 = VECTOR ( 'NONE', #679, 1000.000000000000000 ) ;
#211 = CALENDAR_DATE ( 2026, 29, 7 ) ;
#212 = LINE ( 'NONE', #491, #1049 ) ;
#213 = VECTOR ( 'NONE', #346, 1000.000000000000000 ) ;
#214 = CIRCLE ( 'NONE', #471, 43.99999999999997158 ) ;
#215 = AXIS2_PLACEMENT_3D ( 'NONE', #290, #189, #118 ) ;
#216 = VERTEX_POINT ( 'NONE', #1039 ) ;
#217 = CYLINDRICAL_SURFACE ( 'NONE', #191, 57.99999999999999289 ) ;
#218 = VERTEX_POINT ( 'NONE', #219 ) ;
#219 = CARTESIAN_POINT ( 'NONE',  ( -245.0000000000000000, 0.000000000000000000, 31.03224129836581469 ) ) ;
#220 = ORIENTED_EDGE ( 'NONE', *, *, #747, .T. ) ;
#221 = CARTESIAN_POINT ( 'NONE',  ( -245.0000000000000000, 0.000000000000000000, -64.00000000000000000 ) ) ;
#222 = CARTESIAN_POINT ( 'NONE',  ( 135.0000000000000000, 31.00000000000000000, 11.00000000000000000 ) ) ;
#223 = CALENDAR_DATE ( 2026, 29, 7 ) ;
#224 = EDGE_CURVE ( 'NONE', #748, #253, #306, .T. ) ;
#225 = EDGE_LOOP ( 'NONE', ( #898, #674, #856, #878, #412, #550, #264, #1053, #407, #564, #46, #7 ) ) ;
#226 = EDGE_CURVE ( 'NONE', #623, #53, #631, .T. ) ;
#227 = ORIENTED_EDGE ( 'NONE', *, *, #97, .T. ) ;
#228 = CARTESIAN_POINT ( 'NONE',  ( -117.5000000000000000, 0.000000000000000000, -24.00000000000000000 ) ) ;
#229 = DIRECTION ( 'NONE',  ( -0.000000000000000000, -1.000000000000000000, -0.000000000000000000 ) ) ;
#230 = ORIENTED_EDGE ( 'NONE', *, *, #549, .T. ) ;
#231 = VECTOR ( 'NONE', #603, 1000.000000000000000 ) ;
#232 = DIRECTION ( 'NONE',  ( 0.000000000000000000, 0.000000000000000000, -1.000000000000000000 ) ) ;
#233 = CARTESIAN_POINT ( 'NONE',  ( 196.0000000000000000, 0.000000000000000000, 0.000000000000000000 ) ) ;
#234 = CARTESIAN_POINT ( 'NONE',  ( 196.0000000000000000, 0.000000000000000000, 0.000000000000000000 ) ) ;
#235 = ORIENTED_EDGE ( 'NONE', *, *, #560, .T. ) ;
#236 = ORIENTED_EDGE ( 'NONE', *, *, #716, .F. ) ;
#237 = CARTESIAN_POINT ( 'NONE',  ( -245.0000000000000000, 0.000000000000000000, 64.00000000000000000 ) ) ;
#238 = DIRECTION ( 'NONE',  ( 0.000000000000000000, 0.000000000000000000, -1.000000000000000000 ) ) ;
#239 = CARTESIAN_POINT ( 'NONE',  ( 0.000000000000000000, 20.00000000000000000, -11.00000000000000000 ) ) ;
#240 = DIRECTION ( 'NONE',  ( -1.000000000000000000, 0.000000000000000000, 0.000000000000000000 ) ) ;
#241 = CC_DESIGN_DATE_AND_TIME_ASSIGNMENT ( #453, #950, ( #267 ) ) ;
#242 = ORIENTED_EDGE ( 'NONE', *, *, #604, .F. ) ;
#243 = LINE ( 'NONE', #574, #382 ) ;
#244 = VECTOR ( 'NONE', #563, 1000.000000000000000 ) ;
#245 = DIRECTION ( 'NONE',  ( -1.000000000000000000, -0.000000000000000000, -0.000000000000000000 ) ) ;
#246 = VECTOR ( 'NONE', #861, 1000.000000000000000 ) ;
#247 = AXIS2_PLACEMENT_3D ( 'NONE', #973, #888, #706 ) ;
#248 = LINE ( 'NONE', #538, #430 ) ;
#249 = AXIS2_PLACEMENT_3D ( 'NONE', #771, #362, #370 ) ;
#250 = VERTEX_POINT ( 'NONE', #498 ) ;
#251 = CARTESIAN_POINT ( 'NONE',  ( 196.0000000000000000, 0.000000000000000000, 43.99999999999997158 ) ) ;
#252 = LINE ( 'NONE', #994, #451 ) ;
#253 = VERTEX_POINT ( 'NONE', #161 ) ;
#254 = CARTESIAN_POINT ( 'NONE',  ( -117.5000000000000000, 20.00000000000000000, 24.00000000000000000 ) ) ;
#255 = ORIENTED_EDGE ( 'NONE', *, *, #602, .F. ) ;
#256 = EDGE_CURVE ( 'NONE', #632, #542, #487, .T. ) ;
#257 = FACE_OUTER_BOUND ( 'NONE', #1038, .T. ) ;
#258 = ADVANCED_FACE ( 'NONE', ( #95, #985, #257, #976, #17 ), #742, .T. ) ;
#259 = FACE_OUTER_BOUND ( 'NONE', #630, .T. ) ;
#260 = EDGE_CURVE ( 'NONE', #657, #41, #422, .T. ) ;
#261 = ORIENTED_EDGE ( 'NONE', *, *, #36, .T. ) ;
#262 = DIRECTION ( 'NONE',  ( 0.000000000000000000, 0.000000000000000000, 1.000000000000000000 ) ) ;
#263 = DIRECTION ( 'NONE',  ( 0.000000000000000000, -0.000000000000000000, 1.000000000000000000 ) ) ;
#264 = ORIENTED_EDGE ( 'NONE', *, *, #65, .F. ) ;
#265 = AXIS2_PLACEMENT_3D ( 'NONE', #818, #79, #377 ) ;
#266 = VECTOR ( 'NONE', #6, 1000.000000000000000 ) ;
#267 = SECURITY_CLASSIFICATION ( '', '', #125 ) ;
#268 = CARTESIAN_POINT ( 'NONE',  ( -245.0000000000000000, 20.00000000000000000, -64.00000000000000000 ) ) ;
#269 = COORDINATED_UNIVERSAL_TIME_OFFSET ( 8, 0, .AHEAD. ) ;
#270 = DIRECTION ( 'NONE',  ( -1.000000000000000000, -0.000000000000000000, -0.000000000000000000 ) ) ;
#271 = DIRECTION ( 'NONE',  ( 1.000000000000000000, 0.000000000000000000, 0.000000000000000000 ) ) ;
#272 = ORIENTED_EDGE ( 'NONE', *, *, #797, .T. ) ;
#273 = CARTESIAN_POINT ( 'NONE',  ( -245.0000000000000000, 0.000000000000000000, 64.00000000000000000 ) ) ;
#274 = FACE_OUTER_BOUND ( 'NONE', #814, .T. ) ;
#275 = CARTESIAN_POINT ( 'NONE',  ( 245.0000000000000000, 34.00000000000000000, -31.03224129836581469 ) ) ;
#276 = ORIENTED_EDGE ( 'NONE', *, *, #1046, .F. ) ;
#277 = EDGE_LOOP ( 'NONE', ( #581, #805, #123, #544, #595, #206, #975, #332 ) ) ;
#278 = APPROVAL ( #764, '未' ) ;
#279 = APPLICATION_PROTOCOL_DEFINITION ( 'international standard', 'config_control_design', 1994, #870 ) ;
#280 = PLANE ( 'NONE',  #691 ) ;
#281 = DIRECTION ( 'NONE',  ( 1.000000000000000000, 0.000000000000000000, 0.000000000000000000 ) ) ;
#282 = ORIENTED_EDGE ( 'NONE', *, *, #479, .F. ) ;
#283 = VECTOR ( 'NONE', #372, 1000.000000000000000 ) ;
#284 = VECTOR ( 'NONE', #378, 1000.000000000000000 ) ;
#285 = ORIENTED_EDGE ( 'NONE', *, *, #368, .F. ) ;
#286 = PERSON_AND_ORGANIZATION_ROLE ( 'design_owner' ) ;
#287 = VECTOR ( 'NONE', #271, 1000.000000000000000 ) ;
#288 = DIRECTION ( 'NONE',  ( 0.000000000000000000, 1.000000000000000000, 0.000000000000000000 ) ) ;
#289 = CC_DESIGN_APPROVAL ( #83, ( #267 ) ) ;
#290 = CARTESIAN_POINT ( 'NONE',  ( -196.0000000000000000, 20.00000000000000000, 0.000000000000000000 ) ) ;
#291 = ORIENTED_EDGE ( 'NONE', *, *, #135, .F. ) ;
#292 = ORIENTED_EDGE ( 'NONE', *, *, #935, .F. ) ;
#293 = CARTESIAN_POINT ( 'NONE',  ( -117.5000000000000000, 0.000000000000000000, -11.00000000000000000 ) ) ;
#294 = EDGE_CURVE ( 'NONE', #184, #436, #21, .T. ) ;
#295 = DIRECTION ( 'NONE',  ( -0.000000000000000000, -1.000000000000000000, -0.000000000000000000 ) ) ;
#296 = EDGE_CURVE ( 'NONE', #71, #636, #404, .T. ) ;
#297 = VERTEX_POINT ( 'NONE', #251 ) ;
#298 = EDGE_CURVE ( 'NONE', #42, #160, #243, .T. ) ;
#299 = CARTESIAN_POINT ( 'NONE',  ( -196.0000000000000000, 34.00000000000000000, 0.000000000000000000 ) ) ;
#300 = DIRECTION ( 'NONE',  ( 0.000000000000000000, 0.000000000000000000, -1.000000000000000000 ) ) ;
#301 = DIRECTION ( 'NONE',  ( -0.000000000000000000, -0.000000000000000000, 1.000000000000000000 ) ) ;
#302 = ORIENTED_EDGE ( 'NONE', *, *, #970, .F. ) ;
#303 = PLANE ( 'NONE',  #708 ) ;
#304 = CARTESIAN_POINT ( 'NONE',  ( 117.5000000000000000, 20.00000000000000000, -24.00000000000000000 ) ) ;
#305 = CIRCLE ( 'NONE', #841, 57.99999999999999289 ) ;
#306 = LINE ( 'NONE', #791, #284 ) ;
#307 = VECTOR ( 'NONE', #301, 1000.000000000000000 ) ;
#308 = EDGE_LOOP ( 'NONE', ( #26, #323 ) ) ;
#309 = CARTESIAN_POINT ( 'NONE',  ( -196.0000000000000000, 34.00000000000000000, -43.99999999999997158 ) ) ;
#310 = DIRECTION ( 'NONE',  ( 0.000000000000000000, 0.000000000000000000, -1.000000000000000000 ) ) ;
#311 = PLANE ( 'NONE',  #73 ) ;
#312 = PLANE ( 'NONE',  #779 ) ;
#313 = EDGE_LOOP ( 'NONE', ( #236, #780 ) ) ;
#314 = ORIENTED_EDGE ( 'NONE', *, *, #84, .T. ) ;
#315 = PLANE ( 'NONE',  #181 ) ;
#316 = CARTESIAN_POINT ( 'NONE',  ( -117.5000000000000000, 20.00000000000000000, 11.00000000000000000 ) ) ;
#317 = ORIENTED_EDGE ( 'NONE', *, *, #560, .F. ) ;
#318 = VECTOR ( 'NONE', #455, 1000.000000000000000 ) ;
#319 = ORIENTED_EDGE ( 'NONE', *, *, #921, .F. ) ;
#320 = AXIS2_PLACEMENT_3D ( 'NONE', #954, #650, #729 ) ;
#321 = PLANE ( 'NONE',  #320 ) ;
#322 = DIRECTION ( 'NONE',  ( -0.000000000000000000, -1.000000000000000000, -0.000000000000000000 ) ) ;
#323 = ORIENTED_EDGE ( 'NONE', *, *, #715, .F. ) ;
#324 = DIRECTION ( 'NONE',  ( 0.000000000000000000, 0.000000000000000000, -1.000000000000000000 ) ) ;
#325 = ORIENTED_EDGE ( 'NONE', *, *, #1001, .T. ) ;
#326 = DIRECTION ( 'NONE',  ( 0.000000000000000000, 1.000000000000000000, 0.000000000000000000 ) ) ;
#327 = ADVANCED_FACE ( 'NONE', ( #751 ), #1019, .F. ) ;
#328 = DIRECTION ( 'NONE',  ( 0.000000000000000000, 0.000000000000000000, -1.000000000000000000 ) ) ;
#329 = ORIENTED_EDGE ( 'NONE', *, *, #825, .T. ) ;
#330 = DIRECTION ( 'NONE',  ( 0.000000000000000000, 0.000000000000000000, -1.000000000000000000 ) ) ;
#331 = DIRECTION ( 'NONE',  ( -0.000000000000000000, -1.000000000000000000, -0.000000000000000000 ) ) ;
#332 = ORIENTED_EDGE ( 'NONE', *, *, #477, .F. ) ;
#333 = VECTOR ( 'NONE', #965, 1000.000000000000000 ) ;
#334 = DIRECTION ( 'NONE',  ( 0.000000000000000000, 1.000000000000000000, 0.000000000000000000 ) ) ;
#335 = AXIS2_PLACEMENT_3D ( 'NONE', #142, #54, #475 ) ;
#336 = VECTOR ( 'NONE', #72, 1000.000000000000000 ) ;
#337 = DIRECTION ( 'NONE',  ( 0.000000000000000000, 0.000000000000000000, 1.000000000000000000 ) ) ;
#338 = EDGE_CURVE ( 'NONE', #1051, #748, #204, .T. ) ;
#339 = CIRCLE ( 'NONE', #664, 57.99999999999999289 ) ;
#340 = ORIENTED_EDGE ( 'NONE', *, *, #444, .F. ) ;
#341 = PLANE ( 'NONE',  #880 ) ;
#342 = ORIENTED_EDGE ( 'NONE', *, *, #1009, .F. ) ;
#343 = DIRECTION ( 'NONE',  ( 0.000000000000000000, 0.000000000000000000, 1.000000000000000000 ) ) ;
#344 = VERTEX_POINT ( 'NONE', #369 ) ;
#345 = VERTEX_POINT ( 'NONE', #836 ) ;
#346 = DIRECTION ( 'NONE',  ( -0.000000000000000000, -1.000000000000000000, -0.000000000000000000 ) ) ;
#347 = FACE_OUTER_BOUND ( 'NONE', #883, .T. ) ;
#348 = VECTOR ( 'NONE', #808, 1000.000000000000000 ) ;
#349 = CIRCLE ( 'NONE', #743, 43.99999999999997158 ) ;
#350 = CC_DESIGN_APPROVAL ( #278, ( #783 ) ) ;
#351 = ORIENTED_EDGE ( 'NONE', *, *, #784, .F. ) ;
#352 = CARTESIAN_POINT ( 'NONE',  ( 135.0000000000000000, 20.00000000000000000, 0.000000000000000000 ) ) ;
#353 =( NAMED_UNIT ( * ) PLANE_ANGLE_UNIT ( ) SI_UNIT ( $, .RADIAN. ) );
#354 = CC_DESIGN_PERSON_AND_ORGANIZATION_ASSIGNMENT ( #867, #788, ( #267 ) ) ;
#355 = ORIENTED_EDGE ( 'NONE', *, *, #727, .T. ) ;
#356 = DIRECTION ( 'NONE',  ( 0.000000000000000000, 0.000000000000000000, -1.000000000000000000 ) ) ;
#357 = LINE ( 'NONE', #1020, #417 ) ;
#358 = ORIENTED_EDGE ( 'NONE', *, *, #543, .F. ) ;
#359 = ORIENTED_EDGE ( 'NONE', *, *, #410, .T. ) ;
#360 = MECHANICAL_CONTEXT ( 'NONE', #870, 'mechanical' ) ;
#361 = LINE ( 'NONE', #839, #146 ) ;
#362 = DIRECTION ( 'NONE',  ( 0.000000000000000000, 1.000000000000000000, 0.000000000000000000 ) ) ;
#363 = ORIENTED_EDGE ( 'NONE', *, *, #477, .T. ) ;
#364 = EDGE_CURVE ( 'NONE', #1016, #472, #361, .T. ) ;
#365 = AXIS2_PLACEMENT_3D ( 'NONE', #380, #1033, #721 ) ;
#366 = EDGE_LOOP ( 'NONE', ( #953, #938, #319, #462 ) ) ;
#367 = VECTOR ( 'NONE', #811, 1000.000000000000000 ) ;
#368 = EDGE_CURVE ( 'NONE', #657, #344, #39, .T. ) ;
#369 = CARTESIAN_POINT ( 'NONE',  ( 245.0000000000000000, 20.00000000000000000, 64.00000000000000000 ) ) ;
#370 = DIRECTION ( 'NONE',  ( 0.000000000000000000, 0.000000000000000000, 1.000000000000000000 ) ) ;
#371 = EDGE_LOOP ( 'NONE', ( #772, #693, #485, #1045, #996, #325, #910, #618 ) ) ;
#372 = DIRECTION ( 'NONE',  ( 0.000000000000000000, 0.000000000000000000, -1.000000000000000000 ) ) ;
#373 = LINE ( 'NONE', #44, #829 ) ;
#374 = CARTESIAN_POINT ( 'NONE',  ( 245.0000000000000000, 0.000000000000000000, -64.00000000000000000 ) ) ;
#375 = ORIENTED_EDGE ( 'NONE', *, *, #747, .F. ) ;
#376 = LINE ( 'NONE', #702, #761 ) ;
#377 = DIRECTION ( 'NONE',  ( 0.000000000000000000, 0.000000000000000000, -1.000000000000000000 ) ) ;
#378 = DIRECTION ( 'NONE',  ( -0.000000000000000000, -0.000000000000000000, 1.000000000000000000 ) ) ;
#379 = ORIENTED_EDGE ( 'NONE', *, *, #22, .F. ) ;
#380 = CARTESIAN_POINT ( 'NONE',  ( 0.000000000000000000, 20.00000000000000000, 0.000000000000000000 ) ) ;
#381 = VECTOR ( 'NONE', #437, 1000.000000000000000 ) ;
#382 = VECTOR ( 'NONE', #168, 1000.000000000000000 ) ;
#383 = ORIENTED_EDGE ( 'NONE', *, *, #809, .F. ) ;
#384 =( GEOMETRIC_REPRESENTATION_CONTEXT ( 3 ) GLOBAL_UNCERTAINTY_ASSIGNED_CONTEXT ( ( #977 ) ) GLOBAL_UNIT_ASSIGNED_CONTEXT ( ( #947, #353, #754 ) ) REPRESENTATION_CONTEXT ( 'NONE', 'WORKASPACE' ) );
#385 = VERTEX_POINT ( 'NONE', #293 ) ;
#386 = DIRECTION ( 'NONE',  ( -0.000000000000000000, 1.000000000000000000, -0.000000000000000000 ) ) ;
#387 = LINE ( 'NONE', #222, #840 ) ;
#388 = DATE_AND_TIME ( #223, #537 ) ;
#389 = VERTEX_POINT ( 'NONE', #616 ) ;
#390 = DESIGN_CONTEXT ( 'detailed design', #919, 'design' ) ;
#391 = CARTESIAN_POINT ( 'NONE',  ( 196.0000000000000000, 34.00000000000000000, 0.000000000000000000 ) ) ;
#392 = CARTESIAN_POINT ( 'NONE',  ( -117.5000000000000000, 20.00000000000000000, -11.00000000000000355 ) ) ;
#393 = ORIENTED_EDGE ( 'NONE', *, *, #604, .T. ) ;
#394 = CARTESIAN_POINT ( 'NONE',  ( 196.0000000000000000, 0.000000000000000000, -43.99999999999997158 ) ) ;
#395 = CARTESIAN_POINT ( 'NONE',  ( 196.0000000000000000, 34.00000000000000000, -43.99999999999997158 ) ) ;
#396 = FACE_BOUND ( 'NONE', #225, .T. ) ;
#397 = ORIENTED_EDGE ( 'NONE', *, *, #556, .F. ) ;
#398 = EDGE_CURVE ( 'NONE', #345, #216, #593, .T. ) ;
#399 = CIRCLE ( 'NONE', #127, 57.99999999999999289 ) ;
#400 = CIRCLE ( 'NONE', #997, 57.99999999999999289 ) ;
#401 = DIRECTION ( 'NONE',  ( -0.000000000000000000, -1.000000000000000000, -0.000000000000000000 ) ) ;
#402 = CARTESIAN_POINT ( 'NONE',  ( 117.5000000000000000, 20.00000000000000000, 24.00000000000000000 ) ) ;
#403 = VERTEX_POINT ( 'NONE', #185 ) ;
#404 = LINE ( 'NONE', #493, #607 ) ;
#405 = DIRECTION ( 'NONE',  ( 0.000000000000000000, 0.000000000000000000, -1.000000000000000000 ) ) ;
#406 = CARTESIAN_POINT ( 'NONE',  ( 117.5000000000000000, 20.00000000000000000, 11.00000000000000000 ) ) ;
#407 = ORIENTED_EDGE ( 'NONE', *, *, #88, .F. ) ;
#408 = FACE_OUTER_BOUND ( 'NONE', #661, .T. ) ;
#409 = ADVANCED_FACE ( 'NONE', ( #274 ), #280, .T. ) ;
#410 = EDGE_CURVE ( 'NONE', #705, #923, #486, .T. ) ;
#411 = CARTESIAN_POINT ( 'NONE',  ( -245.0000000000000000, 34.00000000000000000, -31.03224129836581469 ) ) ;
#412 = ORIENTED_EDGE ( 'NONE', *, *, #768, .F. ) ;
#413 = DIRECTION ( 'NONE',  ( 0.000000000000000000, 0.000000000000000000, 1.000000000000000000 ) ) ;
#414 = CARTESIAN_POINT ( 'NONE',  ( -135.0000000000000000, 31.00000000000000000, 11.00000000000000000 ) ) ;
#415 = CIRCLE ( 'NONE', #107, 43.99999999999997158 ) ;
#416 = AXIS2_PLACEMENT_3D ( 'NONE', #186, #511, #831 ) ;
#417 = VECTOR ( 'NONE', #685, 1000.000000000000000 ) ;
#418 = VERTEX_POINT ( 'NONE', #446 ) ;
#419 = CARTESIAN_POINT ( 'NONE',  ( -245.0000000000000000, 20.00000000000000000, 64.00000000000000000 ) ) ;
#420 = CARTESIAN_POINT ( 'NONE',  ( 117.5000000000000000, 20.00000000000000000, 24.00000000000000000 ) ) ;
#421 = ORIENTED_EDGE ( 'NONE', *, *, #781, .T. ) ;
#422 = LINE ( 'NONE', #419, #584 ) ;
#423 = DIRECTION ( 'NONE',  ( 0.000000000000000000, 1.000000000000000000, 0.000000000000000000 ) ) ;
#424 = ORIENTED_EDGE ( 'NONE', *, *, #643, .F. ) ;
#425 = ORIENTED_EDGE ( 'NONE', *, *, #62, .T. ) ;
#426 = CARTESIAN_POINT ( 'NONE',  ( -135.0000000000000000, 31.00000000000000000, 11.00000000000000000 ) ) ;
#427 = DIRECTION ( 'NONE',  ( 0.000000000000000000, 0.000000000000000000, -1.000000000000000000 ) ) ;
#428 = ADVANCED_FACE ( 'NONE', ( #34 ), #117, .F. ) ;
#429 = VECTOR ( 'NONE', #432, 1000.000000000000000 ) ;
#430 = VECTOR ( 'NONE', #300, 1000.000000000000000 ) ;
#431 = LOCAL_TIME ( 1, 12, 54.00000000000000000, #269 ) ;
#432 = DIRECTION ( 'NONE',  ( -0.000000000000000000, -1.000000000000000000, -0.000000000000000000 ) ) ;
#433 = PERSON_AND_ORGANIZATION ( #447, #576 ) ;
#434 = DIRECTION ( 'NONE',  ( 0.000000000000000000, 0.000000000000000000, -1.000000000000000000 ) ) ;
#435 = CARTESIAN_POINT ( 'NONE',  ( 196.0000000000000000, 20.00000000000000000, 0.000000000000000000 ) ) ;
#436 = VERTEX_POINT ( 'NONE', #1003 ) ;
#437 = DIRECTION ( 'NONE',  ( -0.000000000000000000, -0.000000000000000000, 1.000000000000000000 ) ) ;
#438 = DATE_TIME_ROLE ( 'creation_date' ) ;
#439 = LINE ( 'NONE', #770, #909 ) ;
#440 = DIRECTION ( 'NONE',  ( 0.000000000000000000, 0.000000000000000000, -1.000000000000000000 ) ) ;
#441 = ORIENTED_EDGE ( 'NONE', *, *, #176, .T. ) ;
#442 = EDGE_CURVE ( 'NONE', #606, #418, #503, .T. ) ;
#443 = EDGE_CURVE ( 'NONE', #50, #403, #104, .T. ) ;
#444 = EDGE_CURVE ( 'NONE', #143, #869, #941, .T. ) ;
#445 = ORIENTED_EDGE ( 'NONE', *, *, #443, .F. ) ;
#446 = CARTESIAN_POINT ( 'NONE',  ( 196.0000000000000000, 34.00000000000000000, 57.99999999999999289 ) ) ;
#447 = PERSON ( '未', '未', '未', ('未'), ('未'), ('未') ) ;
#448 = PLANE ( 'NONE',  #815 ) ;
#449 = EDGE_LOOP ( 'NONE', ( #1035, #792, #713, #1043 ) ) ;
#450 = VECTOR ( 'NONE', #496, 1000.000000000000000 ) ;
#451 = VECTOR ( 'NONE', #744, 1000.000000000000000 ) ;
#452 = VERTEX_POINT ( 'NONE', #782 ) ;
#453 = DATE_AND_TIME ( #530, #166 ) ;
#454 = CIRCLE ( 'NONE', #998, 57.99999999999999289 ) ;
#455 = DIRECTION ( 'NONE',  ( 0.000000000000000000, 0.000000000000000000, -1.000000000000000000 ) ) ;
#456 = CARTESIAN_POINT ( 'NONE',  ( -196.0000000000000000, 0.000000000000000000, -43.99999999999997158 ) ) ;
#457 = EDGE_LOOP ( 'NONE', ( #687, #523, #505, #441 ) ) ;
#458 = CARTESIAN_POINT ( 'NONE',  ( 196.0000000000000000, 34.00000000000000000, -57.99999999999999289 ) ) ;
#459 = PERSON_AND_ORGANIZATION ( #447, #576 ) ;
#460 = CARTESIAN_POINT ( 'NONE',  ( 117.5000000000000000, 20.00000000000000000, 24.00000000000000000 ) ) ;
#461 = DIRECTION ( 'NONE',  ( 1.000000000000000000, 0.000000000000000000, -0.000000000000000000 ) ) ;
#462 = ORIENTED_EDGE ( 'NONE', *, *, #36, .F. ) ;
#463 = CARTESIAN_POINT ( 'NONE',  ( 117.5000000000000000, 20.00000000000000000, 11.00000000000000000 ) ) ;
#464 = PERSON_AND_ORGANIZATION ( #447, #576 ) ;
#465 = ORIENTED_EDGE ( 'NONE', *, *, #149, .F. ) ;
#466 = CARTESIAN_POINT ( 'NONE',  ( -245.0000000000000000, 34.00000000000000000, 31.03224129836581469 ) ) ;
#467 = ADVANCED_FACE ( 'NONE', ( #48 ), #848, .T. ) ;
#468 = CARTESIAN_POINT ( 'NONE',  ( 0.000000000000000000, 20.00000000000000000, 11.00000000000000000 ) ) ;
#469 = AXIS2_PLACEMENT_3D ( 'NONE', #653, #548, #461 ) ;
#470 = ORIENTED_EDGE ( 'NONE', *, *, #981, .T. ) ;
#471 = AXIS2_PLACEMENT_3D ( 'NONE', #824, #423, #756 ) ;
#472 = VERTEX_POINT ( 'NONE', #519 ) ;
#473 = FACE_OUTER_BOUND ( 'NONE', #712, .T. ) ;
#474 = EDGE_CURVE ( 'NONE', #869, #542, #684, .T. ) ;
#475 = DIRECTION ( 'NONE',  ( 0.000000000000000000, 0.000000000000000000, 1.000000000000000000 ) ) ;
#476 = FACE_OUTER_BOUND ( 'NONE', #174, .T. ) ;
#477 = EDGE_CURVE ( 'NONE', #697, #143, #439, .T. ) ;
#478 = DIRECTION ( 'NONE',  ( 0.000000000000000000, 0.000000000000000000, 1.000000000000000000 ) ) ;
#479 = EDGE_CURVE ( 'NONE', #297, #753, #415, .T. ) ;
#480 = DIRECTION ( 'NONE',  ( 0.000000000000000000, 0.000000000000000000, 1.000000000000000000 ) ) ;
#481 = EDGE_LOOP ( 'NONE', ( #610, #302, #952, #637 ) ) ;
#482 = ORIENTED_EDGE ( 'NONE', *, *, #364, .T. ) ;
#483 = CARTESIAN_POINT ( 'NONE',  ( -117.5000000000000000, 20.00000000000000000, 24.00000000000000000 ) ) ;
#484 = DIRECTION ( 'NONE',  ( 0.000000000000000000, 0.000000000000000000, 1.000000000000000000 ) ) ;
#485 = ORIENTED_EDGE ( 'NONE', *, *, #25, .T. ) ;
#486 = CIRCLE ( 'NONE', #516, 43.99999999999997158 ) ;
#487 = LINE ( 'NONE', #823, #980 ) ;
#488 = VECTOR ( 'NONE', #506, 1000.000000000000000 ) ;
#489 = DIRECTION ( 'NONE',  ( 0.000000000000000000, 0.000000000000000000, -1.000000000000000000 ) ) ;
#490 = LOCAL_TIME ( 1, 12, 54.00000000000000000, #683 ) ;
#491 = CARTESIAN_POINT ( 'NONE',  ( 245.0000000000000000, 20.00000000000000000, 64.00000000000000000 ) ) ;
#492 = ORIENTED_EDGE ( 'NONE', *, *, #443, .T. ) ;
#493 = CARTESIAN_POINT ( 'NONE',  ( -117.5000000000000000, 20.00000000000000000, 24.00000000000000000 ) ) ;
#494 = EDGE_CURVE ( 'NONE', #1002, #297, #373, .T. ) ;
#495 = CARTESIAN_POINT ( 'NONE',  ( -196.0000000000000000, 34.00000000000000000, 0.000000000000000000 ) ) ;
#496 = DIRECTION ( 'NONE',  ( 0.000000000000000000, 0.000000000000000000, -1.000000000000000000 ) ) ;
#497 = ORIENTED_EDGE ( 'NONE', *, *, #556, .T. ) ;
#498 = CARTESIAN_POINT ( 'NONE',  ( 245.0000000000000000, 20.00000000000000000, 31.03224129836581469 ) ) ;
#499 = DIRECTION ( 'NONE',  ( -1.000000000000000000, -0.000000000000000000, -0.000000000000000000 ) ) ;
#500 = VERTEX_POINT ( 'NONE', #395 ) ;
#501 = ORIENTED_EDGE ( 'NONE', *, *, #937, .T. ) ;
#502 = CARTESIAN_POINT ( 'NONE',  ( 196.0000000000000000, 20.00000000000000000, 0.000000000000000000 ) ) ;
#503 = CIRCLE ( 'NONE', #778, 57.99999999999999289 ) ;
#504 = EDGE_LOOP ( 'NONE', ( #421, #989, #900, #547 ) ) ;
#505 = ORIENTED_EDGE ( 'NONE', *, *, #43, .T. ) ;
#506 = DIRECTION ( 'NONE',  ( -0.000000000000000000, -1.000000000000000000, -0.000000000000000000 ) ) ;
#507 = EDGE_CURVE ( 'NONE', #403, #822, #305, .T. ) ;
#508 = VERTEX_POINT ( 'NONE', #651 ) ;
#509 = CC_DESIGN_DATE_AND_TIME_ASSIGNMENT ( #759, #438, ( #783 ) ) ;
#510 = CARTESIAN_POINT ( 'NONE',  ( -245.0000000000000000, 0.000000000000000000, -64.00000000000000000 ) ) ;
#511 = DIRECTION ( 'NONE',  ( 1.000000000000000000, -0.000000000000000000, 0.000000000000000000 ) ) ;
#512 = DIRECTION ( 'NONE',  ( 0.000000000000000000, 0.000000000000000000, -1.000000000000000000 ) ) ;
#513 = DIRECTION ( 'NONE',  ( 0.000000000000000000, 0.000000000000000000, 1.000000000000000000 ) ) ;
#514 = CARTESIAN_POINT ( 'NONE',  ( -117.5000000000000000, 0.000000000000000000, 24.00000000000000000 ) ) ;
#515 = EDGE_LOOP ( 'NONE', ( #649, #914, #182, #282 ) ) ;
#516 = AXIS2_PLACEMENT_3D ( 'NONE', #121, #774, #680 ) ;
#517 = VECTOR ( 'NONE', #35, 1000.000000000000000 ) ;
#518 = ORIENTED_EDGE ( 'NONE', *, *, #589, .T. ) ;
#519 = CARTESIAN_POINT ( 'NONE',  ( 117.5000000000000000, 20.00000000000000000, -11.00000000000000355 ) ) ;
#520 = EDGE_CURVE ( 'NONE', #966, #253, #1055, .T. ) ;
#521 = LINE ( 'NONE', #842, #846 ) ;
#522 = ADVANCED_FACE ( 'NONE', ( #85 ), #52, .F. ) ;
#523 = ORIENTED_EDGE ( 'NONE', *, *, #990, .T. ) ;
#524 = ADVANCED_FACE ( 'NONE', ( #562 ), #133, .F. ) ;
#525 = ORIENTED_EDGE ( 'NONE', *, *, #260, .F. ) ;
#526 = DIRECTION ( 'NONE',  ( 0.000000000000000000, 0.000000000000000000, 1.000000000000000000 ) ) ;
#527 = CARTESIAN_POINT ( 'NONE',  ( 117.5000000000000000, 0.000000000000000000, -10.99999999999999645 ) ) ;
#528 = ORIENTED_EDGE ( 'NONE', *, *, #177, .F. ) ;
#529 = CARTESIAN_POINT ( 'NONE',  ( 117.5000000000000000, 0.000000000000000000, 24.00000000000000000 ) ) ;
#530 = CALENDAR_DATE ( 2026, 29, 7 ) ;
#531 = CARTESIAN_POINT ( 'NONE',  ( 196.0000000000000000, 34.00000000000000000, 0.000000000000000000 ) ) ;
#532 = CARTESIAN_POINT ( 'NONE',  ( -117.5000000000000000, 0.000000000000000000, 24.00000000000000000 ) ) ;
#533 = ORIENTED_EDGE ( 'NONE', *, *, #850, .F. ) ;
#534 = AXIS2_PLACEMENT_3D ( 'NONE', #951, #155, #478 ) ;
#535 = VECTOR ( 'NONE', #633, 1000.000000000000000 ) ;
#536 = DIRECTION ( 'NONE',  ( 0.000000000000000000, 1.000000000000000000, 0.000000000000000000 ) ) ;
#537 = LOCAL_TIME ( 1, 12, 54.00000000000000000, #139 ) ;
#538 = CARTESIAN_POINT ( 'NONE',  ( 117.5000000000000000, 20.00000000000000000, 24.00000000000000000 ) ) ;
#539 = DIRECTION ( 'NONE',  ( -0.000000000000000000, 1.000000000000000000, -0.000000000000000000 ) ) ;
#540 = ORIENTED_EDGE ( 'NONE', *, *, #132, .T. ) ;
#541 = FACE_OUTER_BOUND ( 'NONE', #819, .T. ) ;
#542 = VERTEX_POINT ( 'NONE', #1023 ) ;
#543 = EDGE_CURVE ( 'NONE', #822, #1051, #821, .T. ) ;
#544 = ORIENTED_EDGE ( 'NONE', *, *, #22, .T. ) ;
#545 = CARTESIAN_POINT ( 'NONE',  ( 117.5000000000000000, 20.00000000000000000, 24.00000000000000000 ) ) ;
#546 = DIRECTION ( 'NONE',  ( 0.000000000000000000, -1.000000000000000000, 0.000000000000000000 ) ) ;
#547 = ORIENTED_EDGE ( 'NONE', *, *, #826, .F. ) ;
#548 = DIRECTION ( 'NONE',  ( 0.000000000000000000, 0.000000000000000000, 1.000000000000000000 ) ) ;
#549 = EDGE_CURVE ( 'NONE', #705, #1021, #629, .T. ) ;
#550 = ORIENTED_EDGE ( 'NONE', *, *, #398, .F. ) ;
#551 = PLANE ( 'NONE',  #813 ) ;
#552 = LINE ( 'NONE', #463, #660 ) ;
#553 = AXIS2_PLACEMENT_3D ( 'NONE', #676, #13, #81 ) ;
#554 = VECTOR ( 'NONE', #876, 1000.000000000000000 ) ;
#555 = PRODUCT_DEFINITION_SHAPE ( 'NONE', 'NONE',  #783 ) ;
#556 = EDGE_CURVE ( 'NONE', #344, #250, #889, .T. ) ;
#557 = VECTOR ( 'NONE', #202, 1000.000000000000000 ) ;
#558 = ORIENTED_EDGE ( 'NONE', *, *, #859, .F. ) ;
#559 = LINE ( 'NONE', #61, #535 ) ;
#560 = EDGE_CURVE ( 'NONE', #344, #50, #212, .T. ) ;
#561 = ADVANCED_FACE ( 'NONE', ( #971 ), #735, .T. ) ;
#562 = FACE_OUTER_BOUND ( 'NONE', #654, .T. ) ;
#563 = DIRECTION ( 'NONE',  ( 1.000000000000000000, 0.000000000000000000, 0.000000000000000000 ) ) ;
#564 = ORIENTED_EDGE ( 'NONE', *, *, #296, .F. ) ;
#565 = DIRECTION ( 'NONE',  ( -0.000000000000000000, -0.000000000000000000, 1.000000000000000000 ) ) ;
#566 = DIRECTION ( 'NONE',  ( 0.000000000000000000, 0.000000000000000000, 1.000000000000000000 ) ) ;
#567 = ORIENTED_EDGE ( 'NONE', *, *, #624, .T. ) ;
#568 = ORIENTED_EDGE ( 'NONE', *, *, #256, .T. ) ;
#569 = CARTESIAN_POINT ( 'NONE',  ( 0.000000000000000000, 20.00000000000000000, -11.00000000000000000 ) ) ;
#570 = DIRECTION ( 'NONE',  ( -0.000000000000000000, 1.000000000000000000, -0.000000000000000000 ) ) ;
#571 = VECTOR ( 'NONE', #709, 1000.000000000000000 ) ;
#572 = VERTEX_POINT ( 'NONE', #460 ) ;
#573 = VECTOR ( 'NONE', #916, 1000.000000000000000 ) ;
#574 = CARTESIAN_POINT ( 'NONE',  ( -135.0000000000000000, 0.000000000000000000, 11.00000000000000000 ) ) ;
#575 = CARTESIAN_POINT ( 'NONE',  ( -117.5000000000000000, 20.00000000000000000, -24.00000000000000000 ) ) ;
#576 = ORGANIZATION ( '未', '未', '' ) ;
#577 = CARTESIAN_POINT ( 'NONE',  ( -196.0000000000000000, 20.00000000000000000, -43.99999999999997158 ) ) ;
#578 = ORIENTED_EDGE ( 'NONE', *, *, #10, .T. ) ;
#579 = EDGE_CURVE ( 'NONE', #918, #436, #399, .T. ) ;
#580 = CARTESIAN_POINT ( 'NONE',  ( 196.0000000000000000, 20.00000000000000000, 0.000000000000000000 ) ) ;
#581 = ORIENTED_EDGE ( 'NONE', *, *, #1044, .T. ) ;
#582 = DIRECTION ( 'NONE',  ( 0.000000000000000000, 0.000000000000000000, -1.000000000000000000 ) ) ;
#583 = ORIENTED_EDGE ( 'NONE', *, *, #1001, .F. ) ;
#584 = VECTOR ( 'NONE', #755, 1000.000000000000000 ) ;
#585 = DIRECTION ( 'NONE',  ( -0.000000000000000000, -1.000000000000000000, -0.000000000000000000 ) ) ;
#586 = AXIS2_PLACEMENT_3D ( 'NONE', #391, #326, #57 ) ;
#587 = VERTEX_POINT ( 'NONE', #165 ) ;
#588 = VECTOR ( 'NONE', #862, 1000.000000000000000 ) ;
#589 = EDGE_CURVE ( 'NONE', #472, #623, #248, .T. ) ;
#590 = ADVANCED_FACE ( 'NONE', ( #899 ), #885, .T. ) ;
#591 = LINE ( 'NONE', #120, #210 ) ;
#592 = PERSON_AND_ORGANIZATION_ROLE ( 'creator' ) ;
#593 = LINE ( 'NONE', #352, #963 ) ;
#594 = LINE ( 'NONE', #420, #692 ) ;
#595 = ORIENTED_EDGE ( 'NONE', *, *, #797, .F. ) ;
#596 = DIRECTION ( 'NONE',  ( -1.000000000000000000, -0.000000000000000000, -0.000000000000000000 ) ) ;
#597 = PERSON_AND_ORGANIZATION ( #447, #576 ) ;
#598 = CARTESIAN_POINT ( 'NONE',  ( 196.0000000000000000, 34.00000000000000000, 0.000000000000000000 ) ) ;
#599 = VERTEX_POINT ( 'NONE', #406 ) ;
#600 = ORIENTED_EDGE ( 'NONE', *, *, #62, .F. ) ;
#601 = CALENDAR_DATE ( 2026, 29, 7 ) ;
#602 = EDGE_CURVE ( 'NONE', #250, #403, #171, .T. ) ;
#603 = DIRECTION ( 'NONE',  ( -0.000000000000000000, -1.000000000000000000, -0.000000000000000000 ) ) ;
#604 = EDGE_CURVE ( 'NONE', #418, #892, #659, .T. ) ;
#605 = LINE ( 'NONE', #514, #150 ) ;
#606 = VERTEX_POINT ( 'NONE', #724 ) ;
#607 = VECTOR ( 'NONE', #732, 1000.000000000000000 ) ;
#608 = VECTOR ( 'NONE', #565, 1000.000000000000000 ) ;
#609 = APPROVAL_PERSON_ORGANIZATION ( #433, #278, #116 ) ;
#610 = ORIENTED_EDGE ( 'NONE', *, *, #520, .F. ) ;
#611 = SHAPE_DEFINITION_REPRESENTATION ( #555, #3 ) ;
#612 = CARTESIAN_POINT ( 'NONE',  ( 0.000000000000000000, 31.00000000000000000, 0.000000000000000000 ) ) ;
#613 = CARTESIAN_POINT ( 'NONE',  ( -245.0000000000000000, 20.00000000000000000, 64.00000000000000000 ) ) ;
#614 = VERTEX_POINT ( 'NONE', #1026 ) ;
#615 = ORIENTED_EDGE ( 'NONE', *, *, #921, .T. ) ;
#616 = CARTESIAN_POINT ( 'NONE',  ( -245.0000000000000000, 20.00000000000000000, -64.00000000000000000 ) ) ;
#617 = LINE ( 'NONE', #613, #307 ) ;
#618 = ORIENTED_EDGE ( 'NONE', *, *, #579, .T. ) ;
#619 = CARTESIAN_POINT ( 'NONE',  ( -196.0000000000000000, 34.00000000000000000, 0.000000000000000000 ) ) ;
#620 = APPROVAL_ROLE ( '' ) ;
#621 = DIRECTION ( 'NONE',  ( 0.000000000000000000, 1.000000000000000000, 0.000000000000000000 ) ) ;
#622 = FACE_OUTER_BOUND ( 'NONE', #481, .T. ) ;
#623 = VERTEX_POINT ( 'NONE', #304 ) ;
#624 = EDGE_CURVE ( 'NONE', #587, #1021, #677, .T. ) ;
#625 = VECTOR ( 'NONE', #401, 1000.000000000000000 ) ;
#626 = ADVANCED_FACE ( 'NONE', ( #807 ), #1050, .F. ) ;
#627 = DIRECTION ( 'NONE',  ( 1.000000000000000000, 0.000000000000000000, 0.000000000000000000 ) ) ;
#628 = AXIS2_PLACEMENT_3D ( 'NONE', #1015, #785, #205 ) ;
#629 = LINE ( 'NONE', #577, #180 ) ;
#630 = EDGE_LOOP ( 'NONE', ( #501, #568, #102, #340 ) ) ;
#631 = LINE ( 'NONE', #874, #178 ) ;
#632 = VERTEX_POINT ( 'NONE', #988 ) ;
#633 = DIRECTION ( 'NONE',  ( -0.000000000000000000, -1.000000000000000000, -0.000000000000000000 ) ) ;
#634 = LINE ( 'NONE', #944, #707 ) ;
#635 = PERSON_AND_ORGANIZATION_ROLE ( 'design_supplier' ) ;
#636 = VERTEX_POINT ( 'NONE', #254 ) ;
#637 = ORIENTED_EDGE ( 'NONE', *, *, #224, .T. ) ;
#638 = DIRECTION ( 'NONE',  ( 0.000000000000000000, 0.000000000000000000, 1.000000000000000000 ) ) ;
#639 = DIRECTION ( 'NONE',  ( -1.000000000000000000, 0.000000000000000000, 0.000000000000000000 ) ) ;
#640 = ADVANCED_FACE ( 'NONE', ( #8 ), #311, .F. ) ;
#641 = EDGE_LOOP ( 'NONE', ( #424, #12, #230, #114 ) ) ;
#642 = ADVANCED_FACE ( 'NONE', ( #476 ), #551, .F. ) ;
#643 = EDGE_CURVE ( 'NONE', #923, #587, #147, .T. ) ;
#644 = DIRECTION ( 'NONE',  ( -1.000000000000000000, 0.000000000000000000, 0.000000000000000000 ) ) ;
#645 = CLOSED_SHELL ( 'NONE', ( #827, #112, #524, #428, #197, #561, #699, #409, #746, #144, #151, #901, #1032, #258, #626, #522, #207, #902, #208, #63, #590, #670, #467, #803, #179, #858, #640, #642, #327 ) ) ;
#646 = CARTESIAN_POINT ( 'NONE',  ( 135.0000000000000000, 31.00000000000000000, 11.00000000000000000 ) ) ;
#647 = AXIS2_PLACEMENT_3D ( 'NONE', #812, #328, #868 ) ;
#648 = ORIENTED_EDGE ( 'NONE', *, *, #398, .T. ) ;
#649 = ORIENTED_EDGE ( 'NONE', *, *, #494, .F. ) ;
#650 = DIRECTION ( 'NONE',  ( 0.000000000000000000, 1.000000000000000000, 0.000000000000000000 ) ) ;
#651 = CARTESIAN_POINT ( 'NONE',  ( -117.5000000000000000, 20.00000000000000000, -24.00000000000000000 ) ) ;
#652 = VERTEX_POINT ( 'NONE', #959 ) ;
#653 = CARTESIAN_POINT ( 'NONE',  ( -117.5000000000000000, 20.00000000000000000, -24.00000000000000000 ) ) ;
#654 = EDGE_LOOP ( 'NONE', ( #871, #931, #700, #383 ) ) ;
#655 = FACE_BOUND ( 'NONE', #308, .T. ) ;
#656 = DIRECTION ( 'NONE',  ( -0.000000000000000000, -1.000000000000000000, -0.000000000000000000 ) ) ;
#657 = VERTEX_POINT ( 'NONE', #154 ) ;
#658 = LINE ( 'NONE', #24, #148 ) ;
#659 = LINE ( 'NONE', #789, #995 ) ;
#660 = VECTOR ( 'NONE', #546, 1000.000000000000000 ) ;
#661 = EDGE_LOOP ( 'NONE', ( #351, #66, #525, #292 ) ) ;
#662 = VECTOR ( 'NONE', #656, 1000.000000000000000 ) ;
#663 = CYLINDRICAL_SURFACE ( 'NONE', #58, 43.99999999999997158 ) ;
#664 = AXIS2_PLACEMENT_3D ( 'NONE', #435, #539, #689 ) ;
#665 = ORIENTED_EDGE ( 'NONE', *, *, #442, .F. ) ;
#666 = DIRECTION ( 'NONE',  ( 1.000000000000000000, 0.000000000000000000, -0.000000000000000000 ) ) ;
#667 = ORIENTED_EDGE ( 'NONE', *, *, #479, .T. ) ;
#668 = PLANE ( 'NONE',  #930 ) ;
#669 = ORIENTED_EDGE ( 'NONE', *, *, #602, .T. ) ;
#670 = ADVANCED_FACE ( 'NONE', ( #473, #655 ), #321, .T. ) ;
#671 = EDGE_CURVE ( 'NONE', #218, #41, #78, .T. ) ;
#672 = FACE_BOUND ( 'NONE', #313, .T. ) ;
#673 = ORIENTED_EDGE ( 'NONE', *, *, #957, .F. ) ;
#674 = ORIENTED_EDGE ( 'NONE', *, *, #10, .F. ) ;
#675 = APPLICATION_PROTOCOL_DEFINITION ( 'international standard', 'config_control_design', 1994, #919 ) ;
#676 = CARTESIAN_POINT ( 'NONE',  ( 0.000000000000000000, 0.000000000000000000, 0.000000000000000000 ) ) ;
#677 = CIRCLE ( 'NONE', #534, 43.99999999999997158 ) ;
#678 = CARTESIAN_POINT ( 'NONE',  ( -135.0000000000000000, 31.00000000000000000, 11.00000000000000000 ) ) ;
#679 = DIRECTION ( 'NONE',  ( 1.000000000000000000, 0.000000000000000000, 0.000000000000000000 ) ) ;
#680 = DIRECTION ( 'NONE',  ( 0.000000000000000000, 0.000000000000000000, 1.000000000000000000 ) ) ;
#681 = CARTESIAN_POINT ( 'NONE',  ( -245.0000000000000000, 20.00000000000000000, 64.00000000000000000 ) ) ;
#682 = ORIENTED_EDGE ( 'NONE', *, *, #957, .T. ) ;
#683 = COORDINATED_UNIVERSAL_TIME_OFFSET ( 8, 0, .AHEAD. ) ;
#684 = LINE ( 'NONE', #922, #231 ) ;
#685 = DIRECTION ( 'NONE',  ( -0.000000000000000000, -0.000000000000000000, 1.000000000000000000 ) ) ;
#686 = VERTEX_POINT ( 'NONE', #228 ) ;
#687 = ORIENTED_EDGE ( 'NONE', *, *, #298, .F. ) ;
#688 = DIRECTION ( 'NONE',  ( -0.000000000000000000, -1.000000000000000000, -0.000000000000000000 ) ) ;
#689 = DIRECTION ( 'NONE',  ( 9.570888143320315888E-16, 0.000000000000000000, -1.000000000000000000 ) ) ;
#690 = EDGE_LOOP ( 'NONE', ( #242, #665, #190, #832 ) ) ;
#691 = AXIS2_PLACEMENT_3D ( 'NONE', #854, #926, #1012 ) ;
#692 = VECTOR ( 'NONE', #585, 1000.000000000000000 ) ;
#693 = ORIENTED_EDGE ( 'NONE', *, *, #857, .F. ) ;
#694 = DIRECTION ( 'NONE',  ( 0.000000000000000000, 1.000000000000000000, -0.000000000000000000 ) ) ;
#695 = LINE ( 'NONE', #275, #557 ) ;
#696 = ORIENTED_EDGE ( 'NONE', *, *, #671, .F. ) ;
#697 = VERTEX_POINT ( 'NONE', #1054 ) ;
#698 = DIRECTION ( 'NONE',  ( -0.000000000000000000, -1.000000000000000000, -0.000000000000000000 ) ) ;
#699 = ADVANCED_FACE ( 'NONE', ( #802 ), #315, .T. ) ;
#700 = ORIENTED_EDGE ( 'NONE', *, *, #84, .F. ) ;
#701 = EDGE_CURVE ( 'NONE', #636, #801, #559, .T. ) ;
#702 = CARTESIAN_POINT ( 'NONE',  ( 117.5000000000000000, 0.000000000000000000, 24.00000000000000000 ) ) ;
#703 = APPROVAL_DATE_TIME ( #388, #99 ) ;
#704 = DIRECTION ( 'NONE',  ( -0.000000000000000000, -1.000000000000000000, -0.000000000000000000 ) ) ;
#705 = VERTEX_POINT ( 'NONE', #309 ) ;
#706 = DIRECTION ( 'NONE',  ( 0.000000000000000000, 0.000000000000000000, 1.000000000000000000 ) ) ;
#707 = VECTOR ( 'NONE', #627, 1000.000000000000000 ) ;
#708 = AXIS2_PLACEMENT_3D ( 'NONE', #646, #156, #480 ) ;
#709 = DIRECTION ( 'NONE',  ( 1.000000000000000000, 0.000000000000000000, 0.000000000000000000 ) ) ;
#710 = PERSON_AND_ORGANIZATION_ROLE ( 'creator' ) ;
#711 = LOCAL_TIME ( 1, 12, 54.00000000000000000, #940 ) ;
#712 = EDGE_LOOP ( 'NONE', ( #828, #92 ) ) ;
#713 = ORIENTED_EDGE ( 'NONE', *, *, #296, .T. ) ;
#714 = LINE ( 'NONE', #569, #336 ) ;
#715 = EDGE_CURVE ( 'NONE', #923, #705, #194, .T. ) ;
#716 = EDGE_CURVE ( 'NONE', #500, #1002, #91, .T. ) ;
#717 = FACE_OUTER_BOUND ( 'NONE', #167, .T. ) ;
#718 = ORIENTED_EDGE ( 'NONE', *, *, #65, .T. ) ;
#719 = LINE ( 'NONE', #817, #912 ) ;
#720 = DIRECTION ( 'NONE',  ( 0.000000000000000000, 0.000000000000000000, 1.000000000000000000 ) ) ;
#721 = DIRECTION ( 'NONE',  ( 0.000000000000000000, -0.000000000000000000, -1.000000000000000000 ) ) ;
#722 = ORIENTED_EDGE ( 'NONE', *, *, #100, .F. ) ;
#723 = CARTESIAN_POINT ( 'NONE',  ( -196.0000000000000000, 20.00000000000000000, 43.99999999999997158 ) ) ;
#724 = CARTESIAN_POINT ( 'NONE',  ( 196.0000000000000000, 34.00000000000000000, -57.99999999999999289 ) ) ;
#725 = ORIENTED_EDGE ( 'NONE', *, *, #25, .F. ) ;
#726 = CC_DESIGN_APPROVAL ( #99, ( #745 ) ) ;
#727 = EDGE_CURVE ( 'NONE', #436, #452, #29, .T. ) ;
#728 = ORIENTED_EDGE ( 'NONE', *, *, #969, .T. ) ;
#729 = DIRECTION ( 'NONE',  ( 0.000000000000000000, -0.000000000000000000, 1.000000000000000000 ) ) ;
#730 = CARTESIAN_POINT ( 'NONE',  ( 245.0000000000000000, 34.00000000000000000, 31.03224129836581469 ) ) ;
#731 = ORIENTED_EDGE ( 'NONE', *, *, #298, .T. ) ;
#732 = DIRECTION ( 'NONE',  ( -0.000000000000000000, -0.000000000000000000, 1.000000000000000000 ) ) ;
#733 = LINE ( 'NONE', #575, #1017 ) ;
#734 = PRODUCT_RELATED_PRODUCT_CATEGORY ( 'detail', '', ( #67 ) ) ;
#735 = PLANE ( 'NONE',  #27 ) ;
#736 = ORIENTED_EDGE ( 'NONE', *, *, #935, .T. ) ;
#737 = DIRECTION ( 'NONE',  ( 1.000000000000000000, -0.000000000000000000, 0.000000000000000000 ) ) ;
#738 = EDGE_LOOP ( 'NONE', ( #967, #648, #835, #375 ) ) ;
#739 = CARTESIAN_POINT ( 'NONE',  ( -245.0000000000000000, 20.00000000000000000, -64.00000000000000000 ) ) ;
#740 = ORIENTED_EDGE ( 'NONE', *, *, #890, .T. ) ;
#741 = AXIS2_PLACEMENT_3D ( 'NONE', #136, #157, #324 ) ;
#742 = PLANE ( 'NONE',  #553 ) ;
#743 = AXIS2_PLACEMENT_3D ( 'NONE', #991, #18, #752 ) ;
#744 = DIRECTION ( 'NONE',  ( -0.000000000000000000, -1.000000000000000000, 0.000000000000000000 ) ) ;
#745 = PRODUCT_DEFINITION_FORMATION_WITH_SPECIFIED_SOURCE ( '�', '', #67, .NOT_KNOWN. ) ;
#746 = ADVANCED_FACE ( 'NONE', ( #68 ), #158, .T. ) ;
#747 = EDGE_CURVE ( 'NONE', #1008, #697, #719, .T. ) ;
#748 = VERTEX_POINT ( 'NONE', #221 ) ;
#749 = APPROVAL_DATE_TIME ( #93, #278 ) ;
#750 = EDGE_CURVE ( 'NONE', #129, #632, #884, .T. ) ;
#751 = FACE_OUTER_BOUND ( 'NONE', #5, .T. ) ;
#752 = DIRECTION ( 'NONE',  ( 0.000000000000000000, 0.000000000000000000, 1.000000000000000000 ) ) ;
#753 = VERTEX_POINT ( 'NONE', #394 ) ;
#754 =( NAMED_UNIT ( * ) SI_UNIT ( $, .STERADIAN. ) SOLID_ANGLE_UNIT ( ) );
#755 = DIRECTION ( 'NONE',  ( -0.000000000000000000, -1.000000000000000000, -0.000000000000000000 ) ) ;
#756 = DIRECTION ( 'NONE',  ( 0.000000000000000000, 0.000000000000000000, 1.000000000000000000 ) ) ;
#757 = ORIENTED_EDGE ( 'NONE', *, *, #727, .F. ) ;
#758 = LINE ( 'NONE', #124, #429 ) ;
#759 = DATE_AND_TIME ( #601, #490 ) ;
#760 = CARTESIAN_POINT ( 'NONE',  ( 196.0000000000000000, 0.000000000000000000, 0.000000000000000000 ) ) ;
#761 = VECTOR ( 'NONE', #1025, 1000.000000000000000 ) ;
#762 = CARTESIAN_POINT ( 'NONE',  ( 135.0000000000000000, 31.00000000000000000, -11.00000000000000000 ) ) ;
#763 = CARTESIAN_POINT ( 'NONE',  ( -117.5000000000000000, 0.000000000000000000, -24.00000000000000000 ) ) ;
#764 = APPROVAL_STATUS ( 'not_yet_approved' ) ;
#765 = DIRECTION ( 'NONE',  ( -0.000000000000000000, -1.000000000000000000, -0.000000000000000000 ) ) ;
#766 = LINE ( 'NONE', #1007, #800 ) ;
#767 = ORIENTED_EDGE ( 'NONE', *, *, #444, .T. ) ;
#768 = EDGE_CURVE ( 'NONE', #216, #472, #714, .T. ) ;
#769 = DIRECTION ( 'NONE',  ( -0.000000000000000000, -1.000000000000000000, -0.000000000000000000 ) ) ;
#770 = CARTESIAN_POINT ( 'NONE',  ( -135.0000000000000000, 31.00000000000000000, -11.00000000000000000 ) ) ;
#771 = CARTESIAN_POINT ( 'NONE',  ( 196.0000000000000000, 34.00000000000000000, 0.000000000000000000 ) ) ;
#772 = ORIENTED_EDGE ( 'NONE', *, *, #294, .F. ) ;
#773 = PLANE ( 'NONE',  #775 ) ;
#774 = DIRECTION ( 'NONE',  ( 0.000000000000000000, 1.000000000000000000, 0.000000000000000000 ) ) ;
#775 = AXIS2_PLACEMENT_3D ( 'NONE', #187, #512, #108 ) ;
#776 = DIRECTION ( 'NONE',  ( -0.000000000000000000, 1.000000000000000000, -0.000000000000000000 ) ) ;
#777 = EDGE_LOOP ( 'NONE', ( #845, #393, #329, #669, #15, #103, #728, #465 ) ) ;
#778 = AXIS2_PLACEMENT_3D ( 'NONE', #531, #188, #513 ) ;
#779 = AXIS2_PLACEMENT_3D ( 'NONE', #130, #639, #720 ) ;
#780 = ORIENTED_EDGE ( 'NONE', *, *, #843, .F. ) ;
#781 = EDGE_CURVE ( 'NONE', #572, #599, #893, .T. ) ;
#782 = CARTESIAN_POINT ( 'NONE',  ( -196.0000000000000000, 20.00000000000000000, -57.99999999999999289 ) ) ;
#783 = PRODUCT_DEFINITION ( '�', '', #745, #390 ) ;
#784 = EDGE_CURVE ( 'NONE', #218, #918, #141, .T. ) ;
#785 = DIRECTION ( 'NONE',  ( 0.000000000000000000, 1.000000000000000000, 0.000000000000000000 ) ) ;
#786 = ORIENTED_EDGE ( 'NONE', *, *, #368, .T. ) ;
#787 = LINE ( 'NONE', #458, #798 ) ;
#788 = PERSON_AND_ORGANIZATION_ROLE ( 'classification_officer' ) ;
#789 = CARTESIAN_POINT ( 'NONE',  ( 196.0000000000000000, 34.00000000000000000, 57.99999999999999289 ) ) ;
#790 = ORIENTED_EDGE ( 'NONE', *, *, #826, .T. ) ;
#791 = CARTESIAN_POINT ( 'NONE',  ( -245.0000000000000000, 0.000000000000000000, 64.00000000000000000 ) ) ;
#792 = ORIENTED_EDGE ( 'NONE', *, *, #177, .T. ) ;
#793 = PLANE ( 'NONE',  #335 ) ;
#794 = VERTEX_POINT ( 'NONE', #986 ) ;
#795 = ORIENTED_EDGE ( 'NONE', *, *, #890, .F. ) ;
#796 = DIRECTION ( 'NONE',  ( -1.000000000000000000, 0.000000000000000000, -0.000000000000000000 ) ) ;
#797 = EDGE_CURVE ( 'NONE', #129, #385, #252, .T. ) ;
#798 = VECTOR ( 'NONE', #152, 1000.000000000000000 ) ;
#799 = CARTESIAN_POINT ( 'NONE',  ( -117.5000000000000000, 20.00000000000000000, 11.00000000000000000 ) ) ;
#800 = VECTOR ( 'NONE', #440, 1000.000000000000000 ) ;
#801 = VERTEX_POINT ( 'NONE', #820 ) ;
#802 = FACE_OUTER_BOUND ( 'NONE', #504, .T. ) ;
#803 = ADVANCED_FACE ( 'NONE', ( #347, #672 ), #668, .T. ) ;
#804 = CARTESIAN_POINT ( 'NONE',  ( 117.5000000000000000, 0.000000000000000000, 11.00000000000000000 ) ) ;
#805 = ORIENTED_EDGE ( 'NONE', *, *, #768, .T. ) ;
#806 = DIRECTION ( 'NONE',  ( 0.000000000000000000, 0.000000000000000000, 1.000000000000000000 ) ) ;
#807 = FACE_OUTER_BOUND ( 'NONE', #1024, .T. ) ;
#808 = DIRECTION ( 'NONE',  ( 0.000000000000000000, 1.000000000000000000, 0.000000000000000000 ) ) ;
#809 = EDGE_CURVE ( 'NONE', #500, #753, #14, .T. ) ;
#810 = PLANE ( 'NONE',  #469 ) ;
#811 = DIRECTION ( 'NONE',  ( -1.000000000000000000, 0.000000000000000000, 0.000000000000000000 ) ) ;
#812 = CARTESIAN_POINT ( 'NONE',  ( -245.0000000000000000, 20.00000000000000000, 64.00000000000000000 ) ) ;
#813 = AXIS2_PLACEMENT_3D ( 'NONE', #879, #1040, #796 ) ;
#814 = EDGE_LOOP ( 'NONE', ( #578, #272, #276, #943 ) ) ;
#815 = AXIS2_PLACEMENT_3D ( 'NONE', #681, #111, #855 ) ;
#816 = CC_DESIGN_PERSON_AND_ORGANIZATION_ASSIGNMENT ( #853, #710, ( #745 ) ) ;
#817 = CARTESIAN_POINT ( 'NONE',  ( 135.0000000000000000, 31.00000000000000000, 11.00000000000000000 ) ) ;
#818 = CARTESIAN_POINT ( 'NONE',  ( -196.0000000000000000, 34.00000000000000000, 0.000000000000000000 ) ) ;
#819 = EDGE_LOOP ( 'NONE', ( #255, #397, #235, #492 ) ) ;
#820 = CARTESIAN_POINT ( 'NONE',  ( -117.5000000000000000, 0.000000000000000000, 24.00000000000000000 ) ) ;
#821 = LINE ( 'NONE', #74, #450 ) ;
#822 = VERTEX_POINT ( 'NONE', #173 ) ;
#823 = CARTESIAN_POINT ( 'NONE',  ( -135.0000000000000000, 20.00000000000000000, 0.000000000000000000 ) ) ;
#824 = CARTESIAN_POINT ( 'NONE',  ( 196.0000000000000000, 34.00000000000000000, 0.000000000000000000 ) ) ;
#825 = EDGE_CURVE ( 'NONE', #892, #250, #830, .T. ) ;
#826 = EDGE_CURVE ( 'NONE', #572, #19, #594, .T. ) ;
#827 = ADVANCED_FACE ( 'NONE', ( #834 ), #101, .T. ) ;
#828 = ORIENTED_EDGE ( 'NONE', *, *, #857, .T. ) ;
#829 = VECTOR ( 'NONE', #698, 1000.000000000000000 ) ;
#830 = CIRCLE ( 'NONE', #865, 57.99999999999999289 ) ;
#831 = DIRECTION ( 'NONE',  ( 0.000000000000000000, 0.000000000000000000, -1.000000000000000000 ) ) ;
#832 = ORIENTED_EDGE ( 'NONE', *, *, #1042, .T. ) ;
#833 = EDGE_LOOP ( 'NONE', ( #314, #667 ) ) ;
#834 = FACE_OUTER_BOUND ( 'NONE', #777, .T. ) ;
#835 = ORIENTED_EDGE ( 'NONE', *, *, #1044, .F. ) ;
#836 = CARTESIAN_POINT ( 'NONE',  ( 135.0000000000000000, 20.00000000000000000, 11.00000000000000000 ) ) ;
#837 = FACE_OUTER_BOUND ( 'NONE', #515, .T. ) ;
#838 = LINE ( 'NONE', #268, #1013 ) ;
#839 = CARTESIAN_POINT ( 'NONE',  ( 117.5000000000000000, 20.00000000000000000, -11.00000000000000355 ) ) ;
#840 = VECTOR ( 'NONE', #229, 1000.000000000000000 ) ;
#841 = AXIS2_PLACEMENT_3D ( 'NONE', #233, #621, #484 ) ;
#842 = CARTESIAN_POINT ( 'NONE',  ( -135.0000000000000000, 31.00000000000000000, -11.00000000000000000 ) ) ;
#843 = EDGE_CURVE ( 'NONE', #1002, #500, #214, .T. ) ;
#844 = AXIS2_PLACEMENT_3D ( 'NONE', #483, #1036, #1029 ) ;
#845 = ORIENTED_EDGE ( 'NONE', *, *, #1011, .F. ) ;
#846 = VECTOR ( 'NONE', #942, 1000.000000000000000 ) ;
#847 = DIRECTION ( 'NONE',  ( -1.000000000000000000, -0.000000000000000000, -0.000000000000000000 ) ) ;
#848 = CYLINDRICAL_SURFACE ( 'NONE', #928, 57.99999999999999289 ) ;
#849 = CARTESIAN_POINT ( 'NONE',  ( 196.0000000000000000, 34.00000000000000000, 43.99999999999997158 ) ) ;
#850 = EDGE_CURVE ( 'NONE', #1021, #587, #349, .T. ) ;
#851 = ORIENTED_EDGE ( 'NONE', *, *, #1042, .F. ) ;
#852 = ORIENTED_EDGE ( 'NONE', *, *, #226, .F. ) ;
#853 = PERSON_AND_ORGANIZATION ( #447, #576 ) ;
#854 = CARTESIAN_POINT ( 'NONE',  ( -117.5000000000000000, 20.00000000000000000, 24.00000000000000000 ) ) ;
#855 = DIRECTION ( 'NONE',  ( 0.000000000000000000, 0.000000000000000000, -1.000000000000000000 ) ) ;
#856 = ORIENTED_EDGE ( 'NONE', *, *, #904, .F. ) ;
#857 = EDGE_CURVE ( 'NONE', #75, #184, #400, .T. ) ;
#858 = ADVANCED_FACE ( 'NONE', ( #259 ), #341, .F. ) ;
#859 = EDGE_CURVE ( 'NONE', #794, #389, #658, .T. ) ;
#860 = LINE ( 'NONE', #38, #1047 ) ;
#861 = DIRECTION ( 'NONE',  ( -0.000000000000000000, -0.000000000000000000, 1.000000000000000000 ) ) ;
#862 = DIRECTION ( 'NONE',  ( -0.000000000000000000, -0.000000000000000000, 1.000000000000000000 ) ) ;
#863 = ORIENTED_EDGE ( 'NONE', *, *, #260, .T. ) ;
#864 = VECTOR ( 'NONE', #4, 1000.000000000000000 ) ;
#865 = AXIS2_PLACEMENT_3D ( 'NONE', #502, #2, #183 ) ;
#866 = DIRECTION ( 'NONE',  ( 0.000000000000000000, 0.000000000000000000, 1.000000000000000000 ) ) ;
#867 = PERSON_AND_ORGANIZATION ( #447, #576 ) ;
#868 = DIRECTION ( 'NONE',  ( -1.000000000000000000, 0.000000000000000000, -0.000000000000000000 ) ) ;
#869 = VERTEX_POINT ( 'NONE', #678 ) ;
#870 = APPLICATION_CONTEXT ( 'configuration controlled 3d designs of mechanical parts and assemblies' ) ;
#871 = ORIENTED_EDGE ( 'NONE', *, *, #716, .T. ) ;
#872 = CARTESIAN_POINT ( 'NONE',  ( 0.000000000000000000, 20.00000000000000000, 11.00000000000000000 ) ) ;
#873 = COORDINATED_UNIVERSAL_TIME_OFFSET ( 8, 0, .AHEAD. ) ;
#874 = CARTESIAN_POINT ( 'NONE',  ( 117.5000000000000000, 20.00000000000000000, -24.00000000000000000 ) ) ;
#875 = ORIENTED_EDGE ( 'NONE', *, *, #825, .F. ) ;
#876 = DIRECTION ( 'NONE',  ( 0.000000000000000000, 0.000000000000000000, -1.000000000000000000 ) ) ;
#877 = CARTESIAN_POINT ( 'NONE',  ( -135.0000000000000000, 31.00000000000000000, -11.00000000000000000 ) ) ;
#878 = ORIENTED_EDGE ( 'NONE', *, *, #589, .F. ) ;
#879 = CARTESIAN_POINT ( 'NONE',  ( -135.0000000000000000, 31.00000000000000000, 11.00000000000000000 ) ) ;
#880 = AXIS2_PLACEMENT_3D ( 'NONE', #414, #737, #582 ) ;
#881 = FACE_OUTER_BOUND ( 'NONE', #366, .T. ) ;
#882 = CC_DESIGN_SECURITY_CLASSIFICATION ( #267, ( #745 ) ) ;
#883 = EDGE_LOOP ( 'NONE', ( #198, #958 ) ) ;
#884 = LINE ( 'NONE', #239, #367 ) ;
#885 = CYLINDRICAL_SURFACE ( 'NONE', #265, 57.99999999999999289 ) ;
#886 = LINE ( 'NONE', #209, #333 ) ;
#887 = ORIENTED_EDGE ( 'NONE', *, *, #338, .F. ) ;
#888 = DIRECTION ( 'NONE',  ( 0.000000000000000000, 1.000000000000000000, 0.000000000000000000 ) ) ;
#889 = LINE ( 'NONE', #894, #1014 ) ;
#890 = EDGE_CURVE ( 'NONE', #41, #50, #999, .T. ) ;
#891 = EDGE_LOOP ( 'NONE', ( #172, #261, #193, #905, #342, #757, #98, #736, #786, #497, #875, #851 ) ) ;
#892 = VERTEX_POINT ( 'NONE', #908 ) ;
#893 = LINE ( 'NONE', #545, #554 ) ;
#894 = CARTESIAN_POINT ( 'NONE',  ( 245.0000000000000000, 20.00000000000000000, 64.00000000000000000 ) ) ;
#895 = ORIENTED_EDGE ( 'NONE', *, *, #113, .F. ) ;
#896 = CIRCLE ( 'NONE', #628, 57.99999999999999289 ) ;
#897 = CARTESIAN_POINT ( 'NONE',  ( -245.0000000000000000, 20.00000000000000000, 31.03224129836581469 ) ) ;
#898 = ORIENTED_EDGE ( 'NONE', *, *, #750, .F. ) ;
#899 = FACE_OUTER_BOUND ( 'NONE', #371, .T. ) ;
#900 = ORIENTED_EDGE ( 'NONE', *, *, #176, .F. ) ;
#901 = ADVANCED_FACE ( 'NONE', ( #408 ), #917, .F. ) ;
#902 = ADVANCED_FACE ( 'NONE', ( #837 ), #663, .F. ) ;
#903 = DIRECTION ( 'NONE',  ( -0.000000000000000000, -1.000000000000000000, -0.000000000000000000 ) ) ;
#904 = EDGE_CURVE ( 'NONE', #623, #508, #733, .T. ) ;
#905 = ORIENTED_EDGE ( 'NONE', *, *, #970, .T. ) ;
#906 = PERSON_AND_ORGANIZATION ( #447, #576 ) ;
#907 = CARTESIAN_POINT ( 'NONE',  ( -196.0000000000000000, 34.00000000000000000, 57.99999999999999289 ) ) ;
#908 = CARTESIAN_POINT ( 'NONE',  ( 196.0000000000000000, 20.00000000000000000, 57.99999999999999289 ) ) ;
#909 = VECTOR ( 'NONE', #195, 1000.000000000000000 ) ;
#910 = ORIENTED_EDGE ( 'NONE', *, *, #784, .T. ) ;
#911 = CALENDAR_DATE ( 2026, 29, 7 ) ;
#912 = VECTOR ( 'NONE', #232, 1000.000000000000000 ) ;
#913 = CARTESIAN_POINT ( 'NONE',  ( 196.0000000000000000, 20.00000000000000000, -43.99999999999997158 ) ) ;
#914 = ORIENTED_EDGE ( 'NONE', *, *, #843, .T. ) ;
#915 = LINE ( 'NONE', #203, #381 ) ;
#916 = DIRECTION ( 'NONE',  ( 1.000000000000000000, 0.000000000000000000, 0.000000000000000000 ) ) ;
#917 = PLANE ( 'NONE',  #416 ) ;
#918 = VERTEX_POINT ( 'NONE', #897 ) ;
#919 = APPLICATION_CONTEXT ( 'configuration controlled 3d designs of mechanical parts and assemblies' ) ;
#920 = FACE_OUTER_BOUND ( 'NONE', #119, .T. ) ;
#921 = EDGE_CURVE ( 'NONE', #794, #1051, #170, .T. ) ;
#922 = CARTESIAN_POINT ( 'NONE',  ( -135.0000000000000000, 31.00000000000000000, 11.00000000000000000 ) ) ;
#923 = VERTEX_POINT ( 'NONE', #128 ) ;
#924 = LINE ( 'NONE', #763, #1027 ) ;
#925 = CARTESIAN_POINT ( 'NONE',  ( 0.000000000000000000, 0.000000000000000000, 0.000000000000000000 ) ) ;
#926 = DIRECTION ( 'NONE',  ( 1.000000000000000000, -0.000000000000000000, 0.000000000000000000 ) ) ;
#927 = CIRCLE ( 'NONE', #9, 57.99999999999999289 ) ;
#928 = AXIS2_PLACEMENT_3D ( 'NONE', #598, #765, #356 ) ;
#929 = DIRECTION ( 'NONE',  ( -0.000000000000000000, -0.000000000000000000, 1.000000000000000000 ) ) ;
#930 = AXIS2_PLACEMENT_3D ( 'NONE', #96, #334, #263 ) ;
#931 = ORIENTED_EDGE ( 'NONE', *, *, #494, .T. ) ;
#932 = VECTOR ( 'NONE', #281, 1000.000000000000000 ) ;
#933 = ORIENTED_EDGE ( 'NONE', *, *, #643, .T. ) ;
#934 = DIRECTION ( 'NONE',  ( 0.000000000000000000, 0.000000000000000000, -1.000000000000000000 ) ) ;
#935 = EDGE_CURVE ( 'NONE', #918, #657, #617, .T. ) ;
#936 = LINE ( 'NONE', #40, #932 ) ;
#937 = EDGE_CURVE ( 'NONE', #143, #632, #521, .T. ) ;
#938 = ORIENTED_EDGE ( 'NONE', *, *, #543, .T. ) ;
#939 = ORIENTED_EDGE ( 'NONE', *, *, #224, .F. ) ;
#940 = COORDINATED_UNIVERSAL_TIME_OFFSET ( 8, 0, .AHEAD. ) ;
#941 = LINE ( 'NONE', #426, #246 ) ;
#942 = DIRECTION ( 'NONE',  ( -0.000000000000000000, -1.000000000000000000, -0.000000000000000000 ) ) ;
#943 = ORIENTED_EDGE ( 'NONE', *, *, #132, .F. ) ;
#944 = CARTESIAN_POINT ( 'NONE',  ( -117.5000000000000000, 20.00000000000000000, 24.00000000000000000 ) ) ;
#945 = APPROVAL_STATUS ( 'not_yet_approved' ) ;
#946 = CARTESIAN_POINT ( 'NONE',  ( 196.0000000000000000, 20.00000000000000000, 0.000000000000000000 ) ) ;
#947 =( LENGTH_UNIT ( ) NAMED_UNIT ( * ) SI_UNIT ( .MILLI., .METRE. ) );
#948 = CIRCLE ( 'NONE', #249, 57.99999999999999289 ) ;
#949 = PLANE ( 'NONE',  #365 ) ;
#950 = DATE_TIME_ROLE ( 'classification_date' ) ;
#951 = CARTESIAN_POINT ( 'NONE',  ( -196.0000000000000000, 0.000000000000000000, 0.000000000000000000 ) ) ;
#952 = ORIENTED_EDGE ( 'NONE', *, *, #37, .T. ) ;
#953 = ORIENTED_EDGE ( 'NONE', *, *, #984, .F. ) ;
#954 = CARTESIAN_POINT ( 'NONE',  ( -196.0000000000000000, 34.00000000000000000, 0.000000000000000000 ) ) ;
#955 = LINE ( 'NONE', #872, #244 ) ;
#956 = APPROVAL_ROLE ( '' ) ;
#957 = EDGE_CURVE ( 'NONE', #1016, #53, #766, .T. ) ;
#958 = ORIENTED_EDGE ( 'NONE', *, *, #1011, .T. ) ;
#959 = CARTESIAN_POINT ( 'NONE',  ( 245.0000000000000000, 20.00000000000000000, -31.03224129836582179 ) ) ;
#960 = CARTESIAN_POINT ( 'NONE',  ( -196.0000000000000000, 34.00000000000000000, -57.99999999999999289 ) ) ;
#961 = ORIENTED_EDGE ( 'NONE', *, *, #981, .F. ) ;
#962 = CARTESIAN_POINT ( 'NONE',  ( -196.0000000000000000, 20.00000000000000000, 0.000000000000000000 ) ) ;
#963 = VECTOR ( 'NONE', #934, 1000.000000000000000 ) ;
#964 = AXIS2_PLACEMENT_3D ( 'NONE', #962, #386, #489 ) ;
#965 = DIRECTION ( 'NONE',  ( -0.000000000000000000, -1.000000000000000000, -0.000000000000000000 ) ) ;
#966 = VERTEX_POINT ( 'NONE', #196 ) ;
#967 = ORIENTED_EDGE ( 'NONE', *, *, #100, .T. ) ;
#968 = CARTESIAN_POINT ( 'NONE',  ( -135.0000000000000000, 31.00000000000000000, -11.00000000000000000 ) ) ;
#969 = EDGE_CURVE ( 'NONE', #652, #614, #339, .T. ) ;
#970 = EDGE_CURVE ( 'NONE', #389, #966, #357, .T. ) ;
#971 = FACE_OUTER_BOUND ( 'NONE', #80, .T. ) ;
#972 = ORIENTED_EDGE ( 'NONE', *, *, #507, .F. ) ;
#973 = CARTESIAN_POINT ( 'NONE',  ( -196.0000000000000000, 34.00000000000000000, 0.000000000000000000 ) ) ;
#974 = DIRECTION ( 'NONE',  ( -0.000000000000000000, -1.000000000000000000, -0.000000000000000000 ) ) ;
#975 = ORIENTED_EDGE ( 'NONE', *, *, #937, .F. ) ;
#976 = FACE_BOUND ( 'NONE', #833, .T. ) ;
#977 = UNCERTAINTY_MEASURE_WITH_UNIT (LENGTH_MEASURE( 1.000000000000000082E-05 ), #947, 'distance_accuracy_value', 'NONE');
#978 = CARTESIAN_POINT ( 'NONE',  ( -245.0000000000000000, 0.000000000000000000, 64.00000000000000000 ) ) ;
#979 = CARTESIAN_POINT ( 'NONE',  ( -196.0000000000000000, 20.00000000000000000, 0.000000000000000000 ) ) ;
#980 = VECTOR ( 'NONE', #413, 1000.000000000000000 ) ;
#981 = EDGE_CURVE ( 'NONE', #869, #1008, #936, .T. ) ;
#982 = EDGE_LOOP ( 'NONE', ( #379, #682, #425, #137 ) ) ;
#983 = AXIS2_PLACEMENT_3D ( 'NONE', #925, #262, #20 ) ;
#984 = EDGE_CURVE ( 'NONE', #822, #652, #695, .T. ) ;
#985 = FACE_BOUND ( 'NONE', #457, .T. ) ;
#986 = CARTESIAN_POINT ( 'NONE',  ( 245.0000000000000000, 20.00000000000000000, -64.00000000000000000 ) ) ;
#987 = ORIENTED_EDGE ( 'NONE', *, *, #37, .F. ) ;
#988 = CARTESIAN_POINT ( 'NONE',  ( -135.0000000000000000, 20.00000000000000000, -11.00000000000000000 ) ) ;
#989 = ORIENTED_EDGE ( 'NONE', *, *, #113, .T. ) ;
#990 = EDGE_CURVE ( 'NONE', #42, #801, #605, .T. ) ;
#991 = CARTESIAN_POINT ( 'NONE',  ( -196.0000000000000000, 0.000000000000000000, 0.000000000000000000 ) ) ;
#992 = ORIENTED_EDGE ( 'NONE', *, *, #701, .F. ) ;
#993 = ORIENTED_EDGE ( 'NONE', *, *, #294, .T. ) ;
#994 = CARTESIAN_POINT ( 'NONE',  ( -117.5000000000000000, 20.00000000000000000, -11.00000000000000355 ) ) ;
#995 = VECTOR ( 'NONE', #704, 1000.000000000000000 ) ;
#996 = ORIENTED_EDGE ( 'NONE', *, *, #520, .T. ) ;
#997 = AXIS2_PLACEMENT_3D ( 'NONE', #495, #175, #343 ) ;
#998 = AXIS2_PLACEMENT_3D ( 'NONE', #1004, #776, #427 ) ;
#999 = LINE ( 'NONE', #978, #287 ) ;
#1000 = CC_DESIGN_PERSON_AND_ORGANIZATION_ASSIGNMENT ( #597, #286, ( #67 ) ) ;
#1001 = EDGE_CURVE ( 'NONE', #253, #218, #896, .T. ) ;
#1002 = VERTEX_POINT ( 'NONE', #849 ) ;
#1003 = CARTESIAN_POINT ( 'NONE',  ( -196.0000000000000000, 20.00000000000000000, 57.99999999999999289 ) ) ;
#1004 = CARTESIAN_POINT ( 'NONE',  ( 196.0000000000000000, 20.00000000000000000, 0.000000000000000000 ) ) ;
#1005 = LINE ( 'NONE', #47, #283 ) ;
#1006 = DIRECTION ( 'NONE',  ( 0.000000000000000000, -1.000000000000000000, 0.000000000000000000 ) ) ;
#1007 = CARTESIAN_POINT ( 'NONE',  ( 117.5000000000000000, 0.000000000000000000, 24.00000000000000000 ) ) ;
#1008 = VERTEX_POINT ( 'NONE', #49 ) ;
#1009 = EDGE_CURVE ( 'NONE', #452, #966, #94, .T. ) ;
#1010 = CARTESIAN_POINT ( 'NONE',  ( 117.5000000000000000, 0.000000000000000000, -24.00000000000000000 ) ) ;
#1011 = EDGE_CURVE ( 'NONE', #418, #606, #948, .T. ) ;
#1012 = DIRECTION ( 'NONE',  ( 0.000000000000000000, 0.000000000000000000, -1.000000000000000000 ) ) ;
#1013 = VECTOR ( 'NONE', #769, 1000.000000000000000 ) ;
#1014 = VECTOR ( 'NONE', #238, 1000.000000000000000 ) ;
#1015 = CARTESIAN_POINT ( 'NONE',  ( -196.0000000000000000, 0.000000000000000000, 0.000000000000000000 ) ) ;
#1016 = VERTEX_POINT ( 'NONE', #527 ) ;
#1017 = VECTOR ( 'NONE', #245, 1000.000000000000000 ) ;
#1018 = ORIENTED_EDGE ( 'NONE', *, *, #88, .T. ) ;
#1019 = PLANE ( 'NONE',  #56 ) ;
#1020 = CARTESIAN_POINT ( 'NONE',  ( -245.0000000000000000, 20.00000000000000000, 64.00000000000000000 ) ) ;
#1021 = VERTEX_POINT ( 'NONE', #456 ) ;
#1022 = FACE_OUTER_BOUND ( 'NONE', #891, .T. ) ;
#1023 = CARTESIAN_POINT ( 'NONE',  ( -135.0000000000000000, 20.00000000000000000, 11.00000000000000000 ) ) ;
#1024 = EDGE_LOOP ( 'NONE', ( #115, #987, #558, #615 ) ) ;
#1025 = DIRECTION ( 'NONE',  ( 0.000000000000000000, 0.000000000000000000, -1.000000000000000000 ) ) ;
#1026 = CARTESIAN_POINT ( 'NONE',  ( 196.0000000000000000, 20.00000000000000000, -57.99999999999999289 ) ) ;
#1027 = VECTOR ( 'NONE', #596, 1000.000000000000000 ) ;
#1028 = AXIS2_PLACEMENT_3D ( 'NONE', #739, #337, #666 ) ;
#1029 = DIRECTION ( 'NONE',  ( 0.000000000000000000, 0.000000000000000000, -1.000000000000000000 ) ) ;
#1030 = APPROVAL_PERSON_ORGANIZATION ( #464, #83, #620 ) ;
#1031 = CC_DESIGN_PERSON_AND_ORGANIZATION_ASSIGNMENT ( #33, #592, ( #783 ) ) ;
#1032 = ADVANCED_FACE ( 'NONE', ( #622 ), #448, .F. ) ;
#1033 = DIRECTION ( 'NONE',  ( 0.000000000000000000, -1.000000000000000000, 0.000000000000000000 ) ) ;
#1034 = ORIENTED_EDGE ( 'NONE', *, *, #43, .F. ) ;
#1035 = ORIENTED_EDGE ( 'NONE', *, *, #990, .F. ) ;
#1036 = DIRECTION ( 'NONE',  ( 1.000000000000000000, -0.000000000000000000, 0.000000000000000000 ) ) ;
#1037 = DIRECTION ( 'NONE',  ( -0.000000000000000000, -1.000000000000000000, -0.000000000000000000 ) ) ;
#1038 = EDGE_LOOP ( 'NONE', ( #972, #445, #795, #696, #583, #939, #887, #358 ) ) ;
#1039 = CARTESIAN_POINT ( 'NONE',  ( 135.0000000000000000, 20.00000000000000000, -11.00000000000000000 ) ) ;
#1040 = DIRECTION ( 'NONE',  ( 0.000000000000000000, 0.000000000000000000, -1.000000000000000000 ) ) ;
#1041 = LINE ( 'NONE', #316, #348 ) ;
#1042 = EDGE_CURVE ( 'NONE', #614, #892, #454, .T. ) ;
#1043 = ORIENTED_EDGE ( 'NONE', *, *, #701, .T. ) ;
#1044 = EDGE_CURVE ( 'NONE', #697, #216, #122, .T. ) ;
#1045 = ORIENTED_EDGE ( 'NONE', *, *, #1009, .T. ) ;
#1046 = EDGE_CURVE ( 'NONE', #686, #385, #45, .T. ) ;
#1047 = VECTOR ( 'NONE', #847, 1000.000000000000000 ) ;
#1048 = DIRECTION ( 'NONE',  ( 1.000000000000000000, 0.000000000000000000, -0.000000000000000000 ) ) ;
#1049 = VECTOR ( 'NONE', #322, 1000.000000000000000 ) ;
#1050 = PLANE ( 'NONE',  #1028 ) ;
#1051 = VERTEX_POINT ( 'NONE', #374 ) ;
#1052 = FACE_OUTER_BOUND ( 'NONE', #641, .T. ) ;
#1053 = ORIENTED_EDGE ( 'NONE', *, *, #781, .F. ) ;
#1054 = CARTESIAN_POINT ( 'NONE',  ( 135.0000000000000000, 31.00000000000000000, -11.00000000000000000 ) ) ;
#1055 = LINE ( 'NONE', #411, #662 ) ;
ENDSEC;
END-ISO-10303-21;
