ISO-10303-21;
HEADER;
FILE_DESCRIPTION (( 'STEP AP203' ),
    '1' );
FILE_NAME ('MKH-006_upper_arm_link.STEP',
    '2026-07-28T15:22:52',
    ( '' ),
    ( '' ),
    'SwSTEP 2.0',
    'SolidWorks 2023',
    '' );
FILE_SCHEMA (( 'CONFIG_CONTROL_DESIGN' ));
ENDSEC;

DATA;
#1 = DIRECTION ( 'NONE',  ( 0.000000000000000000, 0.000000000000000000, 1.000000000000000000 ) ) ;
#2 = CYLINDRICAL_SURFACE ( 'NONE', #904, 52.49999999999997868 ) ;
#3 = CIRCLE ( 'NONE', #377, 68.99999999999998579 ) ;
#4 = VECTOR ( 'NONE', #739, 1000.000000000000000 ) ;
#5 = AXIS2_PLACEMENT_3D ( 'NONE', #391, #168, #69 ) ;
#6 = FACE_OUTER_BOUND ( 'NONE', #523, .T. ) ;
#7 = EDGE_CURVE ( 'NONE', #912, #851, #378, .T. ) ;
#8 = MANIFOLD_SOLID_BREP ( '03_Center_Rib', #718 ) ;
#9 = ADVANCED_FACE ( 'NONE', ( #66 ), #394, .F. ) ;
#10 = EDGE_CURVE ( 'NONE', #668, #453, #690, .T. ) ;
#11 = LINE ( 'NONE', #259, #920 ) ;
#12 = CARTESIAN_POINT ( 'NONE',  ( -272.5000000000000000, 22.00000000000000000, -68.99999999999998579 ) ) ;
#13 = LINE ( 'NONE', #186, #413 ) ;
#14 = CARTESIAN_POINT ( 'NONE',  ( 330.0000000000000000, 0.000000000000000000, 75.00000000000000000 ) ) ;
#15 = ORIENTED_EDGE ( 'NONE', *, *, #464, .F. ) ;
#16 = DIRECTION ( 'NONE',  ( 1.000000000000000000, -0.000000000000000000, 0.000000000000000000 ) ) ;
#17 = VECTOR ( 'NONE', #638, 1000.000000000000000 ) ;
#18 = EDGE_CURVE ( 'NONE', #382, #931, #927, .T. ) ;
#19 = CIRCLE ( 'NONE', #332, 68.99999999999998579 ) ;
#20 = CARTESIAN_POINT ( 'NONE',  ( -180.0000000000000000, 34.00000000000000000, 12.00000000000000000 ) ) ;
#21 = ORIENTED_EDGE ( 'NONE', *, *, #572, .T. ) ;
#22 = CARTESIAN_POINT ( 'NONE',  ( -272.5000000000000000, 0.000000000000000000, 52.49999999999997868 ) ) ;
#23 = EDGE_CURVE ( 'NONE', #625, #1035, #858, .T. ) ;
#24 = CARTESIAN_POINT ( 'NONE',  ( 165.0000000000000000, 22.00000000000000000, 12.00000000000000000 ) ) ;
#25 = ORIENTED_EDGE ( 'NONE', *, *, #260, .T. ) ;
#26 = ORIENTED_EDGE ( 'NONE', *, *, #37, .T. ) ;
#27 = PLANE ( 'NONE',  #1006 ) ;
#28 = CARTESIAN_POINT ( 'NONE',  ( -330.0000000000000000, 22.00000000000000000, 75.00000000000000000 ) ) ;
#29 = FACE_OUTER_BOUND ( 'NONE', #180, .T. ) ;
#30 = ORIENTED_EDGE ( 'NONE', *, *, #728, .F. ) ;
#31 = DIRECTION ( 'NONE',  ( 0.000000000000000000, 1.000000000000000000, 0.000000000000000000 ) ) ;
#32 = VECTOR ( 'NONE', #944, 1000.000000000000000 ) ;
#33 = DIRECTION ( 'NONE',  ( 0.000000000000000000, 1.000000000000000000, 0.000000000000000000 ) ) ;
#34 = AXIS2_PLACEMENT_3D ( 'NONE', #220, #963, #64 ) ;
#35 = CARTESIAN_POINT ( 'NONE',  ( -180.0000000000000000, 34.00000000000000000, 12.00000000000000000 ) ) ;
#36 = ORIENTED_EDGE ( 'NONE', *, *, #165, .T. ) ;
#37 = EDGE_CURVE ( 'NONE', #308, #688, #921, .T. ) ;
#38 = CC_DESIGN_PERSON_AND_ORGANIZATION_ASSIGNMENT ( #554, #97, ( #733 ) ) ;
#39 = CARTESIAN_POINT ( 'NONE',  ( 180.0000000000000000, 34.00000000000000000, 12.00000000000000000 ) ) ;
#40 = LINE ( 'NONE', #686, #123 ) ;
#41 = ORIENTED_EDGE ( 'NONE', *, *, #673, .F. ) ;
#42 = VERTEX_POINT ( 'NONE', #302 ) ;
#43 = DIRECTION ( 'NONE',  ( -0.000000000000000000, -1.000000000000000000, -0.000000000000000000 ) ) ;
#44 = CARTESIAN_POINT ( 'NONE',  ( -272.5000000000000000, 22.00000000000000000, 0.000000000000000000 ) ) ;
#45 = EDGE_LOOP ( 'NONE', ( #467, #751, #784, #368, #1041, #932, #21, #108 ) ) ;
#46 = EDGE_LOOP ( 'NONE', ( #439, #1022, #209, #487 ) ) ;
#47 = DIRECTION ( 'NONE',  ( -0.000000000000000000, -1.000000000000000000, -0.000000000000000000 ) ) ;
#48 = ADVANCED_FACE ( 'NONE', ( #671 ), #536, .F. ) ;
#49 = EDGE_CURVE ( 'NONE', #552, #263, #549, .T. ) ;
#50 = ADVANCED_FACE ( 'NONE', ( #29 ), #447, .T. ) ;
#51 = AXIS2_PLACEMENT_3D ( 'NONE', #907, #183, #517 ) ;
#52 = DIRECTION ( 'NONE',  ( -0.000000000000000000, -1.000000000000000000, -0.000000000000000000 ) ) ;
#53 = AXIS2_PLACEMENT_3D ( 'NONE', #515, #431, #749 ) ;
#54 = VERTEX_POINT ( 'NONE', #358 ) ;
#55 = VERTEX_POINT ( 'NONE', #466 ) ;
#56 = CARTESIAN_POINT ( 'NONE',  ( -180.0000000000000000, 34.00000000000000000, 12.00000000000000000 ) ) ;
#57 = CARTESIAN_POINT ( 'NONE',  ( 272.5000000000000000, 38.00000000000000000, 0.000000000000000000 ) ) ;
#58 = DIRECTION ( 'NONE',  ( 0.000000000000000000, 0.000000000000000000, 1.000000000000000000 ) ) ;
#59 = ORIENTED_EDGE ( 'NONE', *, *, #951, .F. ) ;
#60 = ORIENTED_EDGE ( 'NONE', *, *, #951, .T. ) ;
#61 =( LENGTH_UNIT ( ) NAMED_UNIT ( * ) SI_UNIT ( .MILLI., .METRE. ) );
#62 = CARTESIAN_POINT ( 'NONE',  ( 330.0000000000000000, 22.00000000000000000, -38.14118508908706673 ) ) ;
#63 = PLANE ( 'NONE',  #632 ) ;
#64 = DIRECTION ( 'NONE',  ( 0.000000000000000000, -0.000000000000000000, -1.000000000000000000 ) ) ;
#65 = ORIENTED_EDGE ( 'NONE', *, *, #1034, .F. ) ;
#66 = FACE_OUTER_BOUND ( 'NONE', #458, .T. ) ;
#67 = EDGE_CURVE ( 'NONE', #120, #450, #930, .T. ) ;
#68 = CARTESIAN_POINT ( 'NONE',  ( -330.0000000000000000, 0.000000000000000000, -38.14118508908709515 ) ) ;
#69 = DIRECTION ( 'NONE',  ( 0.000000000000000000, 0.000000000000000000, 1.000000000000000000 ) ) ;
#70 = DIRECTION ( 'NONE',  ( 0.000000000000000000, 1.000000000000000000, 0.000000000000000000 ) ) ;
#71 = ORIENTED_EDGE ( 'NONE', *, *, #387, .T. ) ;
#72 = AXIS2_PLACEMENT_3D ( 'NONE', #215, #854, #533 ) ;
#73 = EDGE_CURVE ( 'NONE', #916, #791, #764, .T. ) ;
#74 = VECTOR ( 'NONE', #239, 1000.000000000000000 ) ;
#75 = DIRECTION ( 'NONE',  ( 0.000000000000000000, 0.000000000000000000, -1.000000000000000000 ) ) ;
#76 = PLANE ( 'NONE',  #993 ) ;
#77 = ORIENTED_EDGE ( 'NONE', *, *, #49, .T. ) ;
#78 = DIRECTION ( 'NONE',  ( -1.000000000000000000, -0.000000000000000000, -0.000000000000000000 ) ) ;
#79 = LINE ( 'NONE', #246, #74 ) ;
#80 = DIRECTION ( 'NONE',  ( -0.000000000000000000, -1.000000000000000000, -0.000000000000000000 ) ) ;
#81 = VERTEX_POINT ( 'NONE', #125 ) ;
#82 =( NAMED_UNIT ( * ) PLANE_ANGLE_UNIT ( ) SI_UNIT ( $, .RADIAN. ) );
#83 = CARTESIAN_POINT ( 'NONE',  ( -165.0000000000000000, 22.00000000000000000, 29.00000000000000000 ) ) ;
#84 = EDGE_CURVE ( 'NONE', #453, #916, #283, .T. ) ;
#85 = EDGE_CURVE ( 'NONE', #916, #234, #946, .T. ) ;
#86 = DIRECTION ( 'NONE',  ( 0.000000000000000000, 0.000000000000000000, -1.000000000000000000 ) ) ;
#87 = ORIENTED_EDGE ( 'NONE', *, *, #950, .F. ) ;
#88 = CIRCLE ( 'NONE', #972, 52.49999999999997868 ) ;
#89 = ORIENTED_EDGE ( 'NONE', *, *, #228, .T. ) ;
#90 = APPROVAL_STATUS ( 'not_yet_approved' ) ;
#91 = DIRECTION ( 'NONE',  ( 0.000000000000000000, 0.000000000000000000, -1.000000000000000000 ) ) ;
#92 = AXIS2_PLACEMENT_3D ( 'NONE', #505, #827, #86 ) ;
#93 = CYLINDRICAL_SURFACE ( 'NONE', #379, 52.49999999999997868 ) ;
#94 = LINE ( 'NONE', #423, #4 ) ;
#95 = CARTESIAN_POINT ( 'NONE',  ( -330.0000000000000000, 0.000000000000000000, 75.00000000000000000 ) ) ;
#96 = ORIENTED_EDGE ( 'NONE', *, *, #884, .F. ) ;
#97 = PERSON_AND_ORGANIZATION_ROLE ( 'creator' ) ;
#98 = EDGE_CURVE ( 'NONE', #688, #553, #40, .T. ) ;
#99 = DIRECTION ( 'NONE',  ( -0.000000000000000000, -1.000000000000000000, -0.000000000000000000 ) ) ;
#100 = LINE ( 'NONE', #95, #432 ) ;
#101 = VERTEX_POINT ( 'NONE', #1021 ) ;
#102 = CC_DESIGN_PERSON_AND_ORGANIZATION_ASSIGNMENT ( #151, #478, ( #714 ) ) ;
#103 = DIRECTION ( 'NONE',  ( 0.000000000000000000, 0.000000000000000000, 1.000000000000000000 ) ) ;
#104 = LOCAL_TIME ( 23, 22, 52.00000000000000000, #961 ) ;
#105 = FACE_OUTER_BOUND ( 'NONE', #1040, .T. ) ;
#106 = AXIS2_PLACEMENT_3D ( 'NONE', #878, #564, #709 ) ;
#107 = EDGE_LOOP ( 'NONE', ( #837, #1018, #964, #528, #659, #704, #405, #284, #454, #792, #15, #923 ) ) ;
#108 = ORIENTED_EDGE ( 'NONE', *, *, #525, .F. ) ;
#109 = CARTESIAN_POINT ( 'NONE',  ( 330.0000000000000000, 22.00000000000000000, 75.00000000000000000 ) ) ;
#110 = CARTESIAN_POINT ( 'NONE',  ( 0.000000000000000000, 22.00000000000000000, 12.00000000000000000 ) ) ;
#111 = ORIENTED_EDGE ( 'NONE', *, *, #189, .F. ) ;
#112 = ORIENTED_EDGE ( 'NONE', *, *, #804, .T. ) ;
#113 = LINE ( 'NONE', #56, #817 ) ;
#114 = ADVANCED_FACE ( 'NONE', ( #290 ), #935, .T. ) ;
#115 = CARTESIAN_POINT ( 'NONE',  ( -165.0000000000000000, 22.00000000000000000, -29.00000000000000000 ) ) ;
#116 = EDGE_CURVE ( 'NONE', #602, #1017, #129, .T. ) ;
#117 = EDGE_CURVE ( 'NONE', #438, #506, #1025, .T. ) ;
#118 = DIRECTION ( 'NONE',  ( 0.000000000000000000, 1.000000000000000000, 0.000000000000000000 ) ) ;
#119 = ORIENTED_EDGE ( 'NONE', *, *, #997, .T. ) ;
#120 = VERTEX_POINT ( 'NONE', #863 ) ;
#121 = LINE ( 'NONE', #445, #231 ) ;
#122 = AXIS2_PLACEMENT_3D ( 'NONE', #339, #172, #91 ) ;
#123 = VECTOR ( 'NONE', #134, 1000.000000000000000 ) ;
#124 = AXIS2_PLACEMENT_3D ( 'NONE', #808, #477, #408 ) ;
#125 = CARTESIAN_POINT ( 'NONE',  ( 272.5000000000000000, 22.00000000000000000, -68.99999999999997158 ) ) ;
#126 = ORIENTED_EDGE ( 'NONE', *, *, #85, .T. ) ;
#127 = ORIENTED_EDGE ( 'NONE', *, *, #23, .F. ) ;
#128 = CARTESIAN_POINT ( 'NONE',  ( 272.5000000000000000, 38.00000000000000000, 0.000000000000000000 ) ) ;
#129 = LINE ( 'NONE', #774, #499 ) ;
#130 = ORIENTED_EDGE ( 'NONE', *, *, #997, .F. ) ;
#131 = EDGE_LOOP ( 'NONE', ( #474, #425, #1027, #591 ) ) ;
#132 = CARTESIAN_POINT ( 'NONE',  ( -272.5000000000000000, 0.000000000000000000, -52.49999999999997868 ) ) ;
#133 = ADVANCED_FACE ( 'NONE', ( #456, #617 ), #941, .F. ) ;
#134 = DIRECTION ( 'NONE',  ( -0.000000000000000000, -1.000000000000000000, -0.000000000000000000 ) ) ;
#135 = ORIENTED_EDGE ( 'NONE', *, *, #312, .T. ) ;
#136 = ORIENTED_EDGE ( 'NONE', *, *, #366, .F. ) ;
#137 = LINE ( 'NONE', #383, #886 ) ;
#138 = CARTESIAN_POINT ( 'NONE',  ( 165.0000000000000000, 22.00000000000000000, 29.00000000000000000 ) ) ;
#139 = APPROVAL_PERSON_ORGANIZATION ( #876, #266, #971 ) ;
#140 = DIRECTION ( 'NONE',  ( -0.000000000000000000, -1.000000000000000000, -0.000000000000000000 ) ) ;
#141 = VECTOR ( 'NONE', #208, 1000.000000000000000 ) ;
#142 = ORIENTED_EDGE ( 'NONE', *, *, #67, .F. ) ;
#143 = VERTEX_POINT ( 'NONE', #321 ) ;
#144 = AXIS2_PLACEMENT_3D ( 'NONE', #959, #962, #1 ) ;
#145 = APPLICATION_PROTOCOL_DEFINITION ( 'international standard', 'config_control_design', 1994, #823 ) ;
#146 = LINE ( 'NONE', #952, #975 ) ;
#147 = CARTESIAN_POINT ( 'NONE',  ( -272.5000000000000000, 22.00000000000000000, 68.99999999999998579 ) ) ;
#148 = FACE_OUTER_BOUND ( 'NONE', #498, .T. ) ;
#149 = ORIENTED_EDGE ( 'NONE', *, *, #484, .F. ) ;
#150 = ORIENTED_EDGE ( 'NONE', *, *, #248, .F. ) ;
#151 = PERSON_AND_ORGANIZATION ( #702, #480 ) ;
#152 = CARTESIAN_POINT ( 'NONE',  ( 272.5000000000000000, 38.00000000000000000, -68.99999999999997158 ) ) ;
#153 = DIRECTION ( 'NONE',  ( 0.000000000000000000, 0.000000000000000000, 1.000000000000000000 ) ) ;
#154 = CC_DESIGN_PERSON_AND_ORGANIZATION_ASSIGNMENT ( #895, #349, ( #733 ) ) ;
#155 = ORIENTED_EDGE ( 'NONE', *, *, #1014, .F. ) ;
#156 = CARTESIAN_POINT ( 'NONE',  ( -165.0000000000000000, 22.00000000000000000, 29.00000000000000000 ) ) ;
#157 = DIRECTION ( 'NONE',  ( -1.000000000000000000, 0.000000000000000000, 0.000000000000000000 ) ) ;
#158 = ORIENTED_EDGE ( 'NONE', *, *, #849, .T. ) ;
#159 = APPROVAL_PERSON_ORGANIZATION ( #732, #1020, #229 ) ;
#160 = DATE_AND_TIME ( #1042, #1026 ) ;
#161 = VECTOR ( 'NONE', #472, 1000.000000000000000 ) ;
#162 = CARTESIAN_POINT ( 'NONE',  ( 165.0000000000000000, 0.000000000000000000, -29.00000000000000000 ) ) ;
#163 = CARTESIAN_POINT ( 'NONE',  ( -272.5000000000000000, 38.00000000000000000, -52.49999999999997868 ) ) ;
#164 = ORIENTED_EDGE ( 'NONE', *, *, #463, .T. ) ;
#165 = EDGE_CURVE ( 'NONE', #553, #602, #800, .T. ) ;
#166 = DATE_TIME_ROLE ( 'creation_date' ) ;
#167 = EDGE_CURVE ( 'NONE', #587, #457, #796, .T. ) ;
#168 = DIRECTION ( 'NONE',  ( -1.000000000000000000, 0.000000000000000000, 0.000000000000000000 ) ) ;
#169 = FACE_BOUND ( 'NONE', #255, .T. ) ;
#170 = ORIENTED_EDGE ( 'NONE', *, *, #648, .T. ) ;
#171 = COORDINATED_UNIVERSAL_TIME_OFFSET ( 8, 0, .AHEAD. ) ;
#172 = DIRECTION ( 'NONE',  ( 1.000000000000000000, -0.000000000000000000, 0.000000000000000000 ) ) ;
#173 = LINE ( 'NONE', #812, #482 ) ;
#174 = EDGE_LOOP ( 'NONE', ( #1028, #956 ) ) ;
#175 = AXIS2_PLACEMENT_3D ( 'NONE', #128, #31, #370 ) ;
#176 = LOCAL_TIME ( 23, 22, 52.00000000000000000, #171 ) ;
#177 = FACE_OUTER_BOUND ( 'NONE', #131, .T. ) ;
#178 = AXIS2_PLACEMENT_3D ( 'NONE', #730, #242, #58 ) ;
#179 = LINE ( 'NONE', #20, #580 ) ;
#180 = EDGE_LOOP ( 'NONE', ( #743, #586, #288, #429 ) ) ;
#181 = ORIENTED_EDGE ( 'NONE', *, *, #240, .F. ) ;
#182 = DIRECTION ( 'NONE',  ( 0.000000000000000000, -0.000000000000000000, 1.000000000000000000 ) ) ;
#183 = DIRECTION ( 'NONE',  ( 0.000000000000000000, 0.000000000000000000, -1.000000000000000000 ) ) ;
#184 = ORIENTED_EDGE ( 'NONE', *, *, #7, .F. ) ;
#185 = CALENDAR_DATE ( 2026, 28, 7 ) ;
#186 = CARTESIAN_POINT ( 'NONE',  ( -165.0000000000000000, 0.000000000000000000, 29.00000000000000000 ) ) ;
#187 = LINE ( 'NONE', #334, #376 ) ;
#188 = ORIENTED_EDGE ( 'NONE', *, *, #571, .T. ) ;
#189 = EDGE_CURVE ( 'NONE', #765, #783, #19, .T. ) ;
#190 = EDGE_LOOP ( 'NONE', ( #130, #298, #41, #181, #608, #988, #96, #87, #127, #699, #675, #448 ) ) ;
#191 = AXIS2_PLACEMENT_3D ( 'NONE', #390, #357, #600 ) ;
#192 = CARTESIAN_POINT ( 'NONE',  ( 165.0000000000000000, 0.000000000000000000, 29.00000000000000000 ) ) ;
#193 = VECTOR ( 'NONE', #99, 1000.000000000000000 ) ;
#194 = VECTOR ( 'NONE', #682, 1000.000000000000000 ) ;
#195 = PLANE ( 'NONE',  #719 ) ;
#196 = VECTOR ( 'NONE', #470, 1000.000000000000000 ) ;
#197 = ORIENTED_EDGE ( 'NONE', *, *, #662, .T. ) ;
#198 = ORIENTED_EDGE ( 'NONE', *, *, #950, .T. ) ;
#199 = ADVANCED_FACE ( 'NONE', ( #566 ), #2, .F. ) ;
#200 = CARTESIAN_POINT ( 'NONE',  ( 180.0000000000000000, 22.00000000000000000, 12.00000000000000000 ) ) ;
#201 = EDGE_CURVE ( 'NONE', #995, #687, #328, .T. ) ;
#202 = ADVANCED_FACE ( 'NONE', ( #148 ), #570, .F. ) ;
#203 = CARTESIAN_POINT ( 'NONE',  ( 330.0000000000000000, 22.00000000000000000, -75.00000000000000000 ) ) ;
#204 = CARTESIAN_POINT ( 'NONE',  ( 272.5000000000000000, 0.000000000000000000, 0.000000000000000000 ) ) ;
#205 = ORIENTED_EDGE ( 'NONE', *, *, #655, .F. ) ;
#206 = VERTEX_POINT ( 'NONE', #404 ) ;
#207 = DIRECTION ( 'NONE',  ( -1.000000000000000000, 0.000000000000000000, 0.000000000000000000 ) ) ;
#208 = DIRECTION ( 'NONE',  ( -1.000000000000000000, -0.000000000000000000, -0.000000000000000000 ) ) ;
#209 = ORIENTED_EDGE ( 'NONE', *, *, #421, .T. ) ;
#210 = ORIENTED_EDGE ( 'NONE', *, *, #353, .T. ) ;
#211 = LINE ( 'NONE', #39, #462 ) ;
#212 = AXIS2_PLACEMENT_3D ( 'NONE', #219, #535, #679 ) ;
#213 = AXIS2_PLACEMENT_3D ( 'NONE', #44, #1016, #769 ) ;
#214 = CIRCLE ( 'NONE', #658, 68.99999999999998579 ) ;
#215 = CARTESIAN_POINT ( 'NONE',  ( 272.5000000000000000, 38.00000000000000000, 0.000000000000000000 ) ) ;
#216 = ADVANCED_FACE ( 'NONE', ( #398 ), #710, .F. ) ;
#217 = EDGE_LOOP ( 'NONE', ( #809, #947, #287, #1010 ) ) ;
#218 = VERTEX_POINT ( 'NONE', #316 ) ;
#219 = CARTESIAN_POINT ( 'NONE',  ( -330.0000000000000000, 22.00000000000000000, -75.00000000000000000 ) ) ;
#220 = CARTESIAN_POINT ( 'NONE',  ( 0.000000000000000000, 22.00000000000000000, 0.000000000000000000 ) ) ;
#221 = EDGE_LOOP ( 'NONE', ( #369, #135, #243, #348 ) ) ;
#222 = ORIENTED_EDGE ( 'NONE', *, *, #420, .T. ) ;
#223 = CARTESIAN_POINT ( 'NONE',  ( 330.0000000000000000, 22.00000000000000000, 75.00000000000000000 ) ) ;
#224 = CARTESIAN_POINT ( 'NONE',  ( 330.0000000000000000, 22.00000000000000000, 75.00000000000000000 ) ) ;
#225 = DIRECTION ( 'NONE',  ( 0.000000000000000000, 0.000000000000000000, -1.000000000000000000 ) ) ;
#226 = ORIENTED_EDGE ( 'NONE', *, *, #371, .F. ) ;
#227 = VERTEX_POINT ( 'NONE', #163 ) ;
#228 = EDGE_CURVE ( 'NONE', #905, #518, #720, .T. ) ;
#229 = APPROVAL_ROLE ( '' ) ;
#230 = PLANE ( 'NONE',  #696 ) ;
#231 = VECTOR ( 'NONE', #925, 1000.000000000000000 ) ;
#232 = FACE_BOUND ( 'NONE', #46, .T. ) ;
#233 = AXIS2_PLACEMENT_3D ( 'NONE', #204, #118, #442 ) ;
#234 = VERTEX_POINT ( 'NONE', #960 ) ;
#235 = EDGE_LOOP ( 'NONE', ( #359, #409, #539, #612 ) ) ;
#236 = APPROVAL_DATE_TIME ( #160, #1020 ) ;
#237 = DIRECTION ( 'NONE',  ( 0.000000000000000000, 0.000000000000000000, 1.000000000000000000 ) ) ;
#238 = ADVANCED_FACE ( 'NONE', ( #1052 ), #637, .T. ) ;
#239 = DIRECTION ( 'NONE',  ( 1.000000000000000000, 0.000000000000000000, 0.000000000000000000 ) ) ;
#240 = EDGE_CURVE ( 'NONE', #101, #731, #254, .T. ) ;
#241 = ADVANCED_FACE ( 'NONE', ( #245, #232, #893, #561, #169 ), #1039, .T. ) ;
#242 = DIRECTION ( 'NONE',  ( 0.000000000000000000, 1.000000000000000000, 0.000000000000000000 ) ) ;
#243 = ORIENTED_EDGE ( 'NONE', *, *, #240, .T. ) ;
#244 = DIRECTION ( 'NONE',  ( -1.000000000000000000, -0.000000000000000000, -0.000000000000000000 ) ) ;
#245 = FACE_BOUND ( 'NONE', #899, .T. ) ;
#246 = CARTESIAN_POINT ( 'NONE',  ( -180.0000000000000000, 0.000000000000000000, 12.00000000000000000 ) ) ;
#247 = CARTESIAN_POINT ( 'NONE',  ( 0.000000000000000000, 0.000000000000000000, 0.000000000000000000 ) ) ;
#248 = EDGE_CURVE ( 'NONE', #506, #42, #307, .T. ) ;
#249 = ORIENTED_EDGE ( 'NONE', *, *, #1050, .T. ) ;
#250 = AXIS2_PLACEMENT_3D ( 'NONE', #583, #16, #344 ) ;
#251 = ADVANCED_FACE ( 'NONE', ( #788, #481 ), #76, .T. ) ;
#252 = VECTOR ( 'NONE', #1007, 1000.000000000000000 ) ;
#253 = CARTESIAN_POINT ( 'NONE',  ( -330.0000000000000000, 22.00000000000000000, -38.14118508908709515 ) ) ;
#254 = LINE ( 'NONE', #967, #831 ) ;
#255 = EDGE_LOOP ( 'NONE', ( #426, #624 ) ) ;
#256 = DATE_TIME_ROLE ( 'classification_date' ) ;
#257 = LINE ( 'NONE', #892, #532 ) ;
#258 = LINE ( 'NONE', #819, #871 ) ;
#259 = CARTESIAN_POINT ( 'NONE',  ( -272.5000000000000000, 38.00000000000000000, -68.99999999999998579 ) ) ;
#260 = EDGE_CURVE ( 'NONE', #721, #665, #640, .T. ) ;
#261 = CARTESIAN_POINT ( 'NONE',  ( -165.0000000000000000, 0.000000000000000000, 29.00000000000000000 ) ) ;
#262 = VECTOR ( 'NONE', #757, 1000.000000000000000 ) ;
#263 = VERTEX_POINT ( 'NONE', #832 ) ;
#264 = FACE_OUTER_BOUND ( 'NONE', #235, .T. ) ;
#265 = AXIS2_PLACEMENT_3D ( 'NONE', #57, #384, #306 ) ;
#266 = APPROVAL ( #569, '未' ) ;
#267 = FACE_OUTER_BOUND ( 'NONE', #856, .T. ) ;
#268 = EDGE_LOOP ( 'NONE', ( #942, #364, #928, #620 ) ) ;
#269 = PRODUCT_DEFINITION_SHAPE ( 'NONE', 'NONE',  #714 ) ;
#270 = ORIENTED_EDGE ( 'NONE', *, *, #676, .T. ) ;
#271 = CARTESIAN_POINT ( 'NONE',  ( -272.5000000000000000, 38.00000000000000000, 0.000000000000000000 ) ) ;
#272 = DIRECTION ( 'NONE',  ( 0.000000000000000000, 0.000000000000000000, -1.000000000000000000 ) ) ;
#273 = ORIENTED_EDGE ( 'NONE', *, *, #673, .T. ) ;
#274 = SHAPE_DEFINITION_REPRESENTATION ( #269, #883 ) ;
#275 = DIRECTION ( 'NONE',  ( -0.000000000000000000, -1.000000000000000000, -0.000000000000000000 ) ) ;
#276 = LINE ( 'NONE', #992, #918 ) ;
#277 = ORIENTED_EDGE ( 'NONE', *, *, #484, .T. ) ;
#278 = ADVANCED_FACE ( 'NONE', ( #105 ), #667, .F. ) ;
#279 = EDGE_CURVE ( 'NONE', #602, #803, #100, .T. ) ;
#280 = VECTOR ( 'NONE', #1005, 1000.000000000000000 ) ;
#281 = CARTESIAN_POINT ( 'NONE',  ( -330.0000000000000000, 0.000000000000000000, -75.00000000000000000 ) ) ;
#282 = VECTOR ( 'NONE', #244, 1000.000000000000000 ) ;
#283 = LINE ( 'NONE', #610, #141 ) ;
#284 = ORIENTED_EDGE ( 'NONE', *, *, #915, .T. ) ;
#285 = FACE_OUTER_BOUND ( 'NONE', #607, .T. ) ;
#286 = CARTESIAN_POINT ( 'NONE',  ( -272.5000000000000000, 38.00000000000000000, 0.000000000000000000 ) ) ;
#287 = ORIENTED_EDGE ( 'NONE', *, *, #23, .T. ) ;
#288 = ORIENTED_EDGE ( 'NONE', *, *, #982, .T. ) ;
#289 = CARTESIAN_POINT ( 'NONE',  ( 180.0000000000000000, 34.00000000000000000, 12.00000000000000000 ) ) ;
#290 = FACE_OUTER_BOUND ( 'NONE', #797, .T. ) ;
#291 = ORIENTED_EDGE ( 'NONE', *, *, #571, .F. ) ;
#292 = ORIENTED_EDGE ( 'NONE', *, *, #655, .T. ) ;
#293 = LINE ( 'NONE', #767, #848 ) ;
#294 = CIRCLE ( 'NONE', #716, 52.49999999999997868 ) ;
#295 = CC_DESIGN_PERSON_AND_ORGANIZATION_ASSIGNMENT ( #1053, #965, ( #813 ) ) ;
#296 = VECTOR ( 'NONE', #958, 1000.000000000000000 ) ;
#297 = DIRECTION ( 'NONE',  ( -0.000000000000000000, -0.000000000000000000, 1.000000000000000000 ) ) ;
#298 = ORIENTED_EDGE ( 'NONE', *, *, #117, .F. ) ;
#299 = ORIENTED_EDGE ( 'NONE', *, *, #870, .F. ) ;
#300 = LINE ( 'NONE', #621, #32 ) ;
#301 = LINE ( 'NONE', #631, #296 ) ;
#302 = CARTESIAN_POINT ( 'NONE',  ( -165.0000000000000000, 0.000000000000000000, -12.00000000000000000 ) ) ;
#303 = ORIENTED_EDGE ( 'NONE', *, *, #309, .T. ) ;
#304 = ORIENTED_EDGE ( 'NONE', *, *, #897, .T. ) ;
#305 = CARTESIAN_POINT ( 'NONE',  ( 0.000000000000000000, 0.000000000000000000, 0.000000000000000000 ) ) ;
#306 = DIRECTION ( 'NONE',  ( 0.000000000000000000, 0.000000000000000000, 1.000000000000000000 ) ) ;
#307 = LINE ( 'NONE', #882, #161 ) ;
#308 = VERTEX_POINT ( 'NONE', #12 ) ;
#309 = EDGE_CURVE ( 'NONE', #54, #55, #663, .T. ) ;
#310 = ORIENTED_EDGE ( 'NONE', *, *, #1033, .T. ) ;
#311 = CALENDAR_DATE ( 2026, 28, 7 ) ;
#312 = EDGE_CURVE ( 'NONE', #721, #101, #258, .T. ) ;
#313 = DIRECTION ( 'NONE',  ( -0.000000000000000000, 1.000000000000000000, -0.000000000000000000 ) ) ;
#314 = DIRECTION ( 'NONE',  ( 0.000000000000000000, 0.000000000000000000, -1.000000000000000000 ) ) ;
#315 = VECTOR ( 'NONE', #785, 1000.000000000000000 ) ;
#316 = CARTESIAN_POINT ( 'NONE',  ( 330.0000000000000000, 0.000000000000000000, 38.14118508908706673 ) ) ;
#317 = LOCAL_TIME ( 23, 22, 52.00000000000000000, #1000 ) ;
#318 = EDGE_LOOP ( 'NONE', ( #937, #1023, #126, #388 ) ) ;
#319 = CARTESIAN_POINT ( 'NONE',  ( 165.0000000000000000, 22.00000000000000000, 12.00000000000000000 ) ) ;
#320 = CARTESIAN_POINT ( 'NONE',  ( -165.0000000000000000, 22.00000000000000000, 12.00000000000000000 ) ) ;
#321 = CARTESIAN_POINT ( 'NONE',  ( -180.0000000000000000, 22.00000000000000000, 12.00000000000000000 ) ) ;
#322 = ORIENTED_EDGE ( 'NONE', *, *, #117, .T. ) ;
#323 = FACE_OUTER_BOUND ( 'NONE', #45, .T. ) ;
#324 = DIRECTION ( 'NONE',  ( -0.000000000000000000, -1.000000000000000000, -0.000000000000000000 ) ) ;
#325 = ADVANCED_FACE ( 'NONE', ( #6 ), #750, .F. ) ;
#326 = DIRECTION ( 'NONE',  ( 0.000000000000000000, -0.000000000000000000, 1.000000000000000000 ) ) ;
#327 = LINE ( 'NONE', #356, #280 ) ;
#328 = LINE ( 'NONE', #386, #345 ) ;
#329 = AXIS2_PLACEMENT_3D ( 'NONE', #1015, #862, #622 ) ;
#330 = VECTOR ( 'NONE', #601, 1000.000000000000000 ) ;
#331 = VERTEX_POINT ( 'NONE', #910 ) ;
#332 = AXIS2_PLACEMENT_3D ( 'NONE', #802, #70, #392 ) ;
#333 = CARTESIAN_POINT ( 'NONE',  ( -165.0000000000000000, 22.00000000000000000, -29.00000000000000000 ) ) ;
#334 = CARTESIAN_POINT ( 'NONE',  ( 330.0000000000000000, 38.00000000000000000, 38.14118508908706673 ) ) ;
#335 = FACE_BOUND ( 'NONE', #527, .T. ) ;
#336 = CARTESIAN_POINT ( 'NONE',  ( 0.000000000000000000, 22.00000000000000000, -12.00000000000000000 ) ) ;
#337 = DATE_AND_TIME ( #507, #317 ) ;
#338 = EDGE_CURVE ( 'NONE', #534, #218, #187, .T. ) ;
#339 = CARTESIAN_POINT ( 'NONE',  ( -330.0000000000000000, 22.00000000000000000, 75.00000000000000000 ) ) ;
#340 = DIRECTION ( 'NONE',  ( -1.000000000000000000, -0.000000000000000000, -0.000000000000000000 ) ) ;
#341 = LOCAL_TIME ( 23, 22, 52.00000000000000000, #798 ) ;
#342 = VERTEX_POINT ( 'NONE', #998 ) ;
#343 = ORIENTED_EDGE ( 'NONE', *, *, #18, .F. ) ;
#344 = DIRECTION ( 'NONE',  ( 0.000000000000000000, 0.000000000000000000, -1.000000000000000000 ) ) ;
#345 = VECTOR ( 'NONE', #80, 1000.000000000000000 ) ;
#346 = DIRECTION ( 'NONE',  ( -0.000000000000000000, -1.000000000000000000, -0.000000000000000000 ) ) ;
#347 = DESIGN_CONTEXT ( 'detailed design', #991, 'design' ) ;
#348 = ORIENTED_EDGE ( 'NONE', *, *, #385, .T. ) ;
#349 = PERSON_AND_ORGANIZATION_ROLE ( 'design_supplier' ) ;
#350 = CARTESIAN_POINT ( 'NONE',  ( -272.5000000000000000, 38.00000000000000000, 52.49999999999997868 ) ) ;
#351 = EDGE_CURVE ( 'NONE', #342, #705, #173, .T. ) ;
#352 = CARTESIAN_POINT ( 'NONE',  ( -165.0000000000000000, 0.000000000000000000, 29.00000000000000000 ) ) ;
#353 = EDGE_CURVE ( 'NONE', #791, #143, #276, .T. ) ;
#354 = EDGE_LOOP ( 'NONE', ( #158, #77 ) ) ;
#355 = VERTEX_POINT ( 'NONE', #24 ) ;
#356 = CARTESIAN_POINT ( 'NONE',  ( -330.0000000000000000, 0.000000000000000000, 75.00000000000000000 ) ) ;
#357 = DIRECTION ( 'NONE',  ( 0.000000000000000000, 1.000000000000000000, 0.000000000000000000 ) ) ;
#358 = CARTESIAN_POINT ( 'NONE',  ( 330.0000000000000000, 0.000000000000000000, -38.14118508908706673 ) ) ;
#359 = ORIENTED_EDGE ( 'NONE', *, *, #98, .F. ) ;
#360 = CARTESIAN_POINT ( 'NONE',  ( 272.5000000000000000, 22.00000000000000000, 0.000000000000000000 ) ) ;
#361 = CARTESIAN_POINT ( 'NONE',  ( -272.5000000000000000, 38.00000000000000000, 0.000000000000000000 ) ) ;
#362 = CARTESIAN_POINT ( 'NONE',  ( 180.0000000000000000, 34.00000000000000000, 12.00000000000000000 ) ) ;
#363 = VERTEX_POINT ( 'NONE', #352 ) ;
#364 = ORIENTED_EDGE ( 'NONE', *, *, #67, .T. ) ;
#365 = DIRECTION ( 'NONE',  ( 0.000000000000000000, 0.000000000000000000, -1.000000000000000000 ) ) ;
#366 = EDGE_CURVE ( 'NONE', #457, #382, #428, .T. ) ;
#367 = DIRECTION ( 'NONE',  ( 1.000000000000000000, 0.000000000000000000, 0.000000000000000000 ) ) ;
#368 = ORIENTED_EDGE ( 'NONE', *, *, #338, .T. ) ;
#369 = ORIENTED_EDGE ( 'NONE', *, *, #260, .F. ) ;
#370 = DIRECTION ( 'NONE',  ( 0.000000000000000000, 0.000000000000000000, 1.000000000000000000 ) ) ;
#371 = EDGE_CURVE ( 'NONE', #234, #143, #179, .T. ) ;
#372 = DIRECTION ( 'NONE',  ( -1.000000000000000000, 0.000000000000000000, -0.000000000000000000 ) ) ;
#373 = ORIENTED_EDGE ( 'NONE', *, *, #98, .T. ) ;
#374 = EDGE_LOOP ( 'NONE', ( #999, #890, #270, #581 ) ) ;
#375 = PLANE ( 'NONE',  #212 ) ;
#376 = VECTOR ( 'NONE', #491, 1000.000000000000000 ) ;
#377 = AXIS2_PLACEMENT_3D ( 'NONE', #694, #459, #861 ) ;
#378 = CIRCLE ( 'NONE', #399, 52.49999999999997868 ) ;
#379 = AXIS2_PLACEMENT_3D ( 'NONE', #419, #742, #656 ) ;
#380 = CARTESIAN_POINT ( 'NONE',  ( -330.0000000000000000, 22.00000000000000000, -75.00000000000000000 ) ) ;
#381 = EDGE_LOOP ( 'NONE', ( #771, #299, #619, #908 ) ) ;
#382 = VERTEX_POINT ( 'NONE', #650 ) ;
#383 = CARTESIAN_POINT ( 'NONE',  ( -330.0000000000000000, 22.00000000000000000, 75.00000000000000000 ) ) ;
#384 = DIRECTION ( 'NONE',  ( 0.000000000000000000, 1.000000000000000000, 0.000000000000000000 ) ) ;
#385 = EDGE_CURVE ( 'NONE', #731, #665, #980, .T. ) ;
#386 = CARTESIAN_POINT ( 'NONE',  ( 330.0000000000000000, 22.00000000000000000, 75.00000000000000000 ) ) ;
#387 = EDGE_CURVE ( 'NONE', #721, #42, #822, .T. ) ;
#388 = ORIENTED_EDGE ( 'NONE', *, *, #978, .T. ) ;
#389 = ORIENTED_EDGE ( 'NONE', *, *, #978, .F. ) ;
#390 = CARTESIAN_POINT ( 'NONE',  ( 272.5000000000000000, 38.00000000000000000, 0.000000000000000000 ) ) ;
#391 = CARTESIAN_POINT ( 'NONE',  ( 165.0000000000000000, 22.00000000000000000, 29.00000000000000000 ) ) ;
#392 = DIRECTION ( 'NONE',  ( 0.000000000000000000, 0.000000000000000000, 1.000000000000000000 ) ) ;
#393 = ADVANCED_FACE ( 'NONE', ( #496 ), #93, .F. ) ;
#394 = CYLINDRICAL_SURFACE ( 'NONE', #974, 52.49999999999997868 ) ;
#395 = DIRECTION ( 'NONE',  ( -0.000000000000000000, -1.000000000000000000, -0.000000000000000000 ) ) ;
#396 = DIRECTION ( 'NONE',  ( -0.000000000000000000, -1.000000000000000000, -0.000000000000000000 ) ) ;
#397 = CIRCLE ( 'NONE', #595, 68.99999999999997158 ) ;
#398 = FACE_OUTER_BOUND ( 'NONE', #318, .T. ) ;
#399 = AXIS2_PLACEMENT_3D ( 'NONE', #711, #634, #1047 ) ;
#400 = AXIS2_PLACEMENT_3D ( 'NONE', #644, #157, #153 ) ;
#401 = ORIENTED_EDGE ( 'NONE', *, *, #729, .F. ) ;
#402 = APPLICATION_PROTOCOL_DEFINITION ( 'international standard', 'config_control_design', 1994, #991 ) ;
#403 = CARTESIAN_POINT ( 'NONE',  ( -165.0000000000000000, 22.00000000000000000, -29.00000000000000000 ) ) ;
#404 = CARTESIAN_POINT ( 'NONE',  ( 272.5000000000000000, 38.00000000000000000, -52.49999999999997868 ) ) ;
#405 = ORIENTED_EDGE ( 'NONE', *, *, #648, .F. ) ;
#406 =( NAMED_UNIT ( * ) SI_UNIT ( $, .STERADIAN. ) SOLID_ANGLE_UNIT ( ) );
#407 = PLANE ( 'NONE',  #461 ) ;
#408 = DIRECTION ( 'NONE',  ( 0.000000000000000000, 0.000000000000000000, -1.000000000000000000 ) ) ;
#409 = ORIENTED_EDGE ( 'NONE', *, *, #1011, .F. ) ;
#410 = MECHANICAL_CONTEXT ( 'NONE', #823, 'mechanical' ) ;
#411 = CARTESIAN_POINT ( 'NONE',  ( -330.0000000000000000, 0.000000000000000000, 38.14118508908709515 ) ) ;
#412 = CARTESIAN_POINT ( 'NONE',  ( 272.5000000000000000, 22.00000000000000000, 0.000000000000000000 ) ) ;
#413 = VECTOR ( 'NONE', #917, 1000.000000000000000 ) ;
#414 = CC_DESIGN_APPROVAL ( #968, ( #867 ) ) ;
#415 = VECTOR ( 'NONE', #52, 1000.000000000000000 ) ;
#416 = APPROVAL_ROLE ( '' ) ;
#417 = VECTOR ( 'NONE', #653, 1000.000000000000000 ) ;
#418 = CARTESIAN_POINT ( 'NONE',  ( -272.5000000000000000, 38.00000000000000000, 68.99999999999998579 ) ) ;
#419 = CARTESIAN_POINT ( 'NONE',  ( 272.5000000000000000, 22.00000000000000000, 0.000000000000000000 ) ) ;
#420 = EDGE_CURVE ( 'NONE', #518, #101, #740, .T. ) ;
#421 = EDGE_CURVE ( 'NONE', #363, #825, #986, .T. ) ;
#422 = ADVANCED_FACE ( 'NONE', ( #267 ), #584, .F. ) ;
#423 = CARTESIAN_POINT ( 'NONE',  ( -330.0000000000000000, 0.000000000000000000, 75.00000000000000000 ) ) ;
#424 = DIRECTION ( 'NONE',  ( -0.000000000000000000, -1.000000000000000000, -0.000000000000000000 ) ) ;
#425 = ORIENTED_EDGE ( 'NONE', *, *, #279, .T. ) ;
#426 = ORIENTED_EDGE ( 'NONE', *, *, #7, .T. ) ;
#427 = PLANE ( 'NONE',  #122 ) ;
#428 = LINE ( 'NONE', #745, #512 ) ;
#429 = ORIENTED_EDGE ( 'NONE', *, *, #755, .F. ) ;
#430 = ADVANCED_FACE ( 'NONE', ( #670 ), #230, .T. ) ;
#431 = DIRECTION ( 'NONE',  ( 0.000000000000000000, 1.000000000000000000, 0.000000000000000000 ) ) ;
#432 = VECTOR ( 'NONE', #898, 1000.000000000000000 ) ;
#433 = DIRECTION ( 'NONE',  ( -0.000000000000000000, -1.000000000000000000, -0.000000000000000000 ) ) ;
#434 = ORIENTED_EDGE ( 'NONE', *, *, #385, .F. ) ;
#435 = ORIENTED_EDGE ( 'NONE', *, *, #901, .T. ) ;
#436 = DIRECTION ( 'NONE',  ( 0.000000000000000000, 0.000000000000000000, -1.000000000000000000 ) ) ;
#437 = LINE ( 'NONE', #521, #645 ) ;
#438 = VERTEX_POINT ( 'NONE', #701 ) ;
#439 = ORIENTED_EDGE ( 'NONE', *, *, #618, .F. ) ;
#440 = PLANE ( 'NONE',  #513 ) ;
#441 = CARTESIAN_POINT ( 'NONE',  ( 272.5000000000000000, 22.00000000000000000, 52.49999999999997868 ) ) ;
#442 = DIRECTION ( 'NONE',  ( 0.000000000000000000, 0.000000000000000000, 1.000000000000000000 ) ) ;
#443 = ORIENTED_EDGE ( 'NONE', *, *, #804, .F. ) ;
#444 = CIRCLE ( 'NONE', #53, 52.49999999999997868 ) ;
#445 = CARTESIAN_POINT ( 'NONE',  ( 165.0000000000000000, 22.00000000000000000, 29.00000000000000000 ) ) ;
#446 = VECTOR ( 'NONE', #903, 1000.000000000000000 ) ;
#447 = CYLINDRICAL_SURFACE ( 'NONE', #531, 68.99999999999998579 ) ;
#448 = ORIENTED_EDGE ( 'NONE', *, *, #353, .F. ) ;
#449 = EDGE_CURVE ( 'NONE', #342, #597, #642, .T. ) ;
#450 = VERTEX_POINT ( 'NONE', #320 ) ;
#451 = LINE ( 'NONE', #763, #529 ) ;
#452 = DIRECTION ( 'NONE',  ( 0.000000000000000000, 1.000000000000000000, 0.000000000000000000 ) ) ;
#453 = VERTEX_POINT ( 'NONE', #1043 ) ;
#454 = ORIENTED_EDGE ( 'NONE', *, *, #902, .T. ) ;
#455 = CARTESIAN_POINT ( 'NONE',  ( -180.0000000000000000, 34.00000000000000000, -12.00000000000000000 ) ) ;
#456 = FACE_OUTER_BOUND ( 'NONE', #107, .T. ) ;
#457 = VERTEX_POINT ( 'NONE', #203 ) ;
#458 = EDGE_LOOP ( 'NONE', ( #112, #164, #184, #401 ) ) ;
#459 = DIRECTION ( 'NONE',  ( -0.000000000000000000, 1.000000000000000000, -0.000000000000000000 ) ) ;
#460 = DIRECTION ( 'NONE',  ( -1.000000000000000000, 0.000000000000000000, 0.000000000000000000 ) ) ;
#461 = AXIS2_PLACEMENT_3D ( 'NONE', #795, #556, #966 ) ;
#462 = VECTOR ( 'NONE', #43, 1000.000000000000000 ) ;
#463 = EDGE_CURVE ( 'NONE', #860, #851, #146, .T. ) ;
#464 = EDGE_CURVE ( 'NONE', #705, #534, #939, .T. ) ;
#465 = AXIS2_PLACEMENT_3D ( 'NONE', #627, #313, #945 ) ;
#466 = CARTESIAN_POINT ( 'NONE',  ( 330.0000000000000000, 0.000000000000000000, -75.00000000000000000 ) ) ;
#467 = ORIENTED_EDGE ( 'NONE', *, *, #449, .F. ) ;
#468 = ORIENTED_EDGE ( 'NONE', *, *, #727, .F. ) ;
#469 = CARTESIAN_POINT ( 'NONE',  ( 272.5000000000000000, 38.00000000000000000, 0.000000000000000000 ) ) ;
#470 = DIRECTION ( 'NONE',  ( -0.000000000000000000, -1.000000000000000000, -0.000000000000000000 ) ) ;
#471 = CARTESIAN_POINT ( 'NONE',  ( 330.0000000000000000, 0.000000000000000000, 75.00000000000000000 ) ) ;
#472 = DIRECTION ( 'NONE',  ( -0.000000000000000000, -1.000000000000000000, 0.000000000000000000 ) ) ;
#473 = ORIENTED_EDGE ( 'NONE', *, *, #165, .F. ) ;
#474 = ORIENTED_EDGE ( 'NONE', *, *, #116, .F. ) ;
#475 = LINE ( 'NONE', #712, #990 ) ;
#476 = FACE_OUTER_BOUND ( 'NONE', #381, .T. ) ;
#477 = DIRECTION ( 'NONE',  ( 1.000000000000000000, -0.000000000000000000, 0.000000000000000000 ) ) ;
#478 = PERSON_AND_ORGANIZATION_ROLE ( 'creator' ) ;
#479 = FACE_OUTER_BOUND ( 'NONE', #268, .T. ) ;
#480 = ORGANIZATION ( '未', '未', '' ) ;
#481 = FACE_BOUND ( 'NONE', #766, .T. ) ;
#482 = VECTOR ( 'NONE', #433, 1000.000000000000000 ) ;
#483 = DIRECTION ( 'NONE',  ( -0.000000000000000000, -1.000000000000000000, -0.000000000000000000 ) ) ;
#484 = EDGE_CURVE ( 'NONE', #943, #42, #301, .T. ) ;
#485 = DIRECTION ( 'NONE',  ( 0.000000000000000000, 0.000000000000000000, 1.000000000000000000 ) ) ;
#486 = CARTESIAN_POINT ( 'NONE',  ( 180.0000000000000000, 22.00000000000000000, 0.000000000000000000 ) ) ;
#487 = ORIENTED_EDGE ( 'NONE', *, *, #647, .T. ) ;
#488 = UNCERTAINTY_MEASURE_WITH_UNIT (LENGTH_MEASURE( 1.000000000000000082E-05 ), #61, 'distance_accuracy_value', 'NONE');
#489 = CARTESIAN_POINT ( 'NONE',  ( -330.0000000000000000, 22.00000000000000000, 75.00000000000000000 ) ) ;
#490 = CARTESIAN_POINT ( 'NONE',  ( 180.0000000000000000, 34.00000000000000000, 12.00000000000000000 ) ) ;
#491 = DIRECTION ( 'NONE',  ( -0.000000000000000000, -1.000000000000000000, -0.000000000000000000 ) ) ;
#492 = ORIENTED_EDGE ( 'NONE', *, *, #116, .T. ) ;
#493 = PERSON_AND_ORGANIZATION_ROLE ( 'classification_officer' ) ;
#494 = CARTESIAN_POINT ( 'NONE',  ( -272.5000000000000000, 0.000000000000000000, 0.000000000000000000 ) ) ;
#495 = EDGE_CURVE ( 'NONE', #457, #55, #437, .T. ) ;
#496 = FACE_OUTER_BOUND ( 'NONE', #374, .T. ) ;
#497 = VECTOR ( 'NONE', #436, 1000.000000000000000 ) ;
#498 = EDGE_LOOP ( 'NONE', ( #1012, #303, #509, #748 ) ) ;
#499 = VECTOR ( 'NONE', #452, 1000.000000000000000 ) ;
#500 = CARTESIAN_POINT ( 'NONE',  ( 165.0000000000000000, 22.00000000000000000, -29.00000000000000000 ) ) ;
#501 = DIRECTION ( 'NONE',  ( 0.000000000000000000, 0.000000000000000000, -1.000000000000000000 ) ) ;
#502 = ORIENTED_EDGE ( 'NONE', *, *, #312, .F. ) ;
#503 = ORIENTED_EDGE ( 'NONE', *, *, #201, .F. ) ;
#504 = CARTESIAN_POINT ( 'NONE',  ( 330.0000000000000000, 0.000000000000000000, 75.00000000000000000 ) ) ;
#505 = CARTESIAN_POINT ( 'NONE',  ( -180.0000000000000000, 34.00000000000000000, 12.00000000000000000 ) ) ;
#506 = VERTEX_POINT ( 'NONE', #635 ) ;
#507 = CALENDAR_DATE ( 2026, 28, 7 ) ;
#508 = EDGE_CURVE ( 'NONE', #783, #765, #214, .T. ) ;
#509 = ORIENTED_EDGE ( 'NONE', *, *, #495, .F. ) ;
#510 = LINE ( 'NONE', #504, #578 ) ;
#511 = DIRECTION ( 'NONE',  ( 0.000000000000000000, 0.000000000000000000, 1.000000000000000000 ) ) ;
#512 = VECTOR ( 'NONE', #735, 1000.000000000000000 ) ;
#513 = AXIS2_PLACEMENT_3D ( 'NONE', #455, #1030, #778 ) ;
#514 = ORIENTED_EDGE ( 'NONE', *, *, #541, .T. ) ;
#515 = CARTESIAN_POINT ( 'NONE',  ( 272.5000000000000000, 0.000000000000000000, 0.000000000000000000 ) ) ;
#516 = CIRCLE ( 'NONE', #144, 68.99999999999997158 ) ;
#517 = DIRECTION ( 'NONE',  ( -1.000000000000000000, 0.000000000000000000, -0.000000000000000000 ) ) ;
#518 = VERTEX_POINT ( 'NONE', #555 ) ;
#519 = ORIENTED_EDGE ( 'NONE', *, *, #753, .F. ) ;
#520 = CARTESIAN_POINT ( 'NONE',  ( -272.5000000000000000, 38.00000000000000000, 68.99999999999998579 ) ) ;
#521 = CARTESIAN_POINT ( 'NONE',  ( 330.0000000000000000, 22.00000000000000000, -75.00000000000000000 ) ) ;
#522 = DIRECTION ( 'NONE',  ( -0.000000000000000000, -1.000000000000000000, -0.000000000000000000 ) ) ;
#523 = EDGE_LOOP ( 'NONE', ( #304, #845, #954, #629 ) ) ;
#524 = CARTESIAN_POINT ( 'NONE',  ( -180.0000000000000000, 34.00000000000000000, -12.00000000000000000 ) ) ;
#525 = EDGE_CURVE ( 'NONE', #597, #81, #758, .T. ) ;
#526 = CARTESIAN_POINT ( 'NONE',  ( -330.0000000000000000, 22.00000000000000000, 75.00000000000000000 ) ) ;
#527 = EDGE_LOOP ( 'NONE', ( #875, #582 ) ) ;
#528 = ORIENTED_EDGE ( 'NONE', *, *, #1011, .T. ) ;
#529 = VECTOR ( 'NONE', #772, 1000.000000000000000 ) ;
#530 = DIRECTION ( 'NONE',  ( -0.000000000000000000, 1.000000000000000000, -0.000000000000000000 ) ) ;
#531 = AXIS2_PLACEMENT_3D ( 'NONE', #286, #140, #606 ) ;
#532 = VECTOR ( 'NONE', #324, 1000.000000000000000 ) ;
#533 = DIRECTION ( 'NONE',  ( 0.000000000000000000, 0.000000000000000000, -1.000000000000000000 ) ) ;
#534 = VERTEX_POINT ( 'NONE', #754 ) ;
#535 = DIRECTION ( 'NONE',  ( 0.000000000000000000, 0.000000000000000000, 1.000000000000000000 ) ) ;
#536 = PLANE ( 'NONE',  #678 ) ;
#537 = EDGE_LOOP ( 'NONE', ( #155, #111, #698, #26, #373, #36, #492, #170 ) ) ;
#538 = ADVANCED_FACE ( 'NONE', ( #476 ), #195, .F. ) ;
#539 = ORIENTED_EDGE ( 'NONE', *, *, #18, .T. ) ;
#540 = LINE ( 'NONE', #604, #613 ) ;
#541 = EDGE_CURVE ( 'NONE', #143, #450, #794, .T. ) ;
#542 = CARTESIAN_POINT ( 'NONE',  ( 272.5000000000000000, 0.000000000000000000, 52.49999999999997868 ) ) ;
#543 = DIRECTION ( 'NONE',  ( 0.000000000000000000, 0.000000000000000000, -1.000000000000000000 ) ) ;
#544 = ORIENTED_EDGE ( 'NONE', *, *, #753, .T. ) ;
#545 = ORIENTED_EDGE ( 'NONE', *, *, #662, .F. ) ;
#546 = DIRECTION ( 'NONE',  ( 0.000000000000000000, 0.000000000000000000, -1.000000000000000000 ) ) ;
#547 = DIRECTION ( 'NONE',  ( -1.000000000000000000, 0.000000000000000000, 0.000000000000000000 ) ) ;
#548 = AXIS2_PLACEMENT_3D ( 'NONE', #639, #887, #485 ) ;
#549 = CIRCLE ( 'NONE', #233, 52.49999999999997868 ) ;
#550 = AXIS2_PLACEMENT_3D ( 'NONE', #247, #551, #873 ) ;
#551 = DIRECTION ( 'NONE',  ( 0.000000000000000000, -1.000000000000000000, 0.000000000000000000 ) ) ;
#552 = VERTEX_POINT ( 'NONE', #542 ) ;
#553 = VERTEX_POINT ( 'NONE', #68 ) ;
#554 = PERSON_AND_ORGANIZATION ( #702, #480 ) ;
#555 = CARTESIAN_POINT ( 'NONE',  ( 180.0000000000000000, 22.00000000000000000, -12.00000000000000000 ) ) ;
#556 = DIRECTION ( 'NONE',  ( 0.000000000000000000, 0.000000000000000000, -1.000000000000000000 ) ) ;
#557 = EDGE_CURVE ( 'NONE', #770, #552, #843, .T. ) ;
#558 = DIRECTION ( 'NONE',  ( 0.000000000000000000, -1.000000000000000000, 0.000000000000000000 ) ) ;
#559 = DIRECTION ( 'NONE',  ( 0.000000000000000000, 0.000000000000000000, 1.000000000000000000 ) ) ;
#560 = DIRECTION ( 'NONE',  ( -0.000000000000000000, -1.000000000000000000, -0.000000000000000000 ) ) ;
#561 = FACE_BOUND ( 'NONE', #354, .T. ) ;
#562 = CC_DESIGN_DATE_AND_TIME_ASSIGNMENT ( #722, #166, ( #714 ) ) ;
#563 = APPROVAL_DATE_TIME ( #891, #266 ) ;
#564 = DIRECTION ( 'NONE',  ( -0.000000000000000000, 1.000000000000000000, -0.000000000000000000 ) ) ;
#565 = CC_DESIGN_APPROVAL ( #1020, ( #733 ) ) ;
#566 = FACE_OUTER_BOUND ( 'NONE', #981, .T. ) ;
#567 = CIRCLE ( 'NONE', #265, 52.49999999999997868 ) ;
#568 = VERTEX_POINT ( 'NONE', #28 ) ;
#569 = APPROVAL_STATUS ( 'not_yet_approved' ) ;
#570 = PLANE ( 'NONE',  #400 ) ;
#571 = EDGE_CURVE ( 'NONE', #860, #227, #599, .T. ) ;
#572 = EDGE_CURVE ( 'NONE', #587, #81, #801, .T. ) ;
#573 = ADVANCED_FACE ( 'NONE', ( #1049 ), #786, .T. ) ;
#574 = CARTESIAN_POINT ( 'NONE',  ( 272.5000000000000000, 22.00000000000000000, -52.49999999999997868 ) ) ;
#575 = CARTESIAN_POINT ( 'NONE',  ( -180.0000000000000000, 0.000000000000000000, -12.00000000000000000 ) ) ;
#576 = DIRECTION ( 'NONE',  ( 0.000000000000000000, 0.000000000000000000, -1.000000000000000000 ) ) ;
#577 = DIRECTION ( 'NONE',  ( 1.000000000000000000, 0.000000000000000000, 0.000000000000000000 ) ) ;
#578 = VECTOR ( 'NONE', #576, 1000.000000000000000 ) ;
#579 = VECTOR ( 'NONE', #1008, 1000.000000000000000 ) ;
#580 = VECTOR ( 'NONE', #424, 1000.000000000000000 ) ;
#581 = ORIENTED_EDGE ( 'NONE', *, *, #49, .F. ) ;
#582 = ORIENTED_EDGE ( 'NONE', *, *, #585, .F. ) ;
#583 = CARTESIAN_POINT ( 'NONE',  ( -330.0000000000000000, 22.00000000000000000, 75.00000000000000000 ) ) ;
#584 = PLANE ( 'NONE',  #51 ) ;
#585 = EDGE_CURVE ( 'NONE', #770, #206, #567, .T. ) ;
#586 = ORIENTED_EDGE ( 'NONE', *, *, #1014, .T. ) ;
#587 = VERTEX_POINT ( 'NONE', #62 ) ;
#588 = DIRECTION ( 'NONE',  ( -0.000000000000000000, -1.000000000000000000, -0.000000000000000000 ) ) ;
#589 = CARTESIAN_POINT ( 'NONE',  ( 165.0000000000000000, 0.000000000000000000, 29.00000000000000000 ) ) ;
#590 = ADVANCED_FACE ( 'NONE', ( #1051 ), #407, .T. ) ;
#591 = ORIENTED_EDGE ( 'NONE', *, *, #915, .F. ) ;
#592 = CARTESIAN_POINT ( 'NONE',  ( -180.0000000000000000, 22.00000000000000000, -12.00000000000000000 ) ) ;
#593 = CARTESIAN_POINT ( 'NONE',  ( 165.0000000000000000, 22.00000000000000000, -29.00000000000000000 ) ) ;
#594 = AXIS2_PLACEMENT_3D ( 'NONE', #305, #559, #880 ) ;
#595 = AXIS2_PLACEMENT_3D ( 'NONE', #360, #530, #365 ) ;
#596 = VERTEX_POINT ( 'NONE', #147 ) ;
#597 = VERTEX_POINT ( 'NONE', #979 ) ;
#598 = DIRECTION ( 'NONE',  ( -1.000000000000000000, 0.000000000000000000, 0.000000000000000000 ) ) ;
#599 = CIRCLE ( 'NONE', #780, 52.49999999999997868 ) ;
#600 = DIRECTION ( 'NONE',  ( 0.000000000000000000, 0.000000000000000000, 1.000000000000000000 ) ) ;
#601 = DIRECTION ( 'NONE',  ( 0.000000000000000000, 1.000000000000000000, 0.000000000000000000 ) ) ;
#602 = VERTEX_POINT ( 'NONE', #411 ) ;
#603 = EDGE_CURVE ( 'NONE', #450, #625, #636, .T. ) ;
#604 = CARTESIAN_POINT ( 'NONE',  ( 0.000000000000000000, 22.00000000000000000, -12.00000000000000000 ) ) ;
#605 = EDGE_CURVE ( 'NONE', #625, #363, #257, .T. ) ;
#606 = DIRECTION ( 'NONE',  ( 0.000000000000000000, 0.000000000000000000, -1.000000000000000000 ) ) ;
#607 = EDGE_LOOP ( 'NONE', ( #60, #222, #502, #71, #150, #119, #924, #820 ) ) ;
#608 = ORIENTED_EDGE ( 'NONE', *, *, #420, .F. ) ;
#609 = DIRECTION ( 'NONE',  ( 0.000000000000000000, 0.000000000000000000, 1.000000000000000000 ) ) ;
#610 = CARTESIAN_POINT ( 'NONE',  ( -180.0000000000000000, 34.00000000000000000, -12.00000000000000000 ) ) ;
#611 = EDGE_LOOP ( 'NONE', ( #322, #1004, #149, #545 ) ) ;
#612 = ORIENTED_EDGE ( 'NONE', *, *, #727, .T. ) ;
#613 = VECTOR ( 'NONE', #207, 1000.000000000000000 ) ;
#614 = CARTESIAN_POINT ( 'NONE',  ( -165.0000000000000000, 0.000000000000000000, -29.00000000000000000 ) ) ;
#615 = VECTOR ( 'NONE', #75, 1000.000000000000000 ) ;
#616 = ADVANCED_FACE ( 'NONE', ( #807 ), #649, .T. ) ;
#617 = FACE_BOUND ( 'NONE', #190, .T. ) ;
#618 = EDGE_CURVE ( 'NONE', #120, #331, #79, .T. ) ;
#619 = ORIENTED_EDGE ( 'NONE', *, *, #201, .T. ) ;
#620 = ORIENTED_EDGE ( 'NONE', *, *, #605, .T. ) ;
#621 = CARTESIAN_POINT ( 'NONE',  ( 330.0000000000000000, 38.00000000000000000, -38.14118508908706673 ) ) ;
#622 = DIRECTION ( 'NONE',  ( -1.609018876268343450E-15, 0.000000000000000000, -1.000000000000000000 ) ) ;
#623 = CARTESIAN_POINT ( 'NONE',  ( -165.0000000000000000, 22.00000000000000000, 12.00000000000000000 ) ) ;
#624 = ORIENTED_EDGE ( 'NONE', *, *, #728, .T. ) ;
#625 = VERTEX_POINT ( 'NONE', #156 ) ;
#626 = CALENDAR_DATE ( 2026, 28, 7 ) ;
#627 = CARTESIAN_POINT ( 'NONE',  ( 272.5000000000000000, 22.00000000000000000, 0.000000000000000000 ) ) ;
#628 = DIRECTION ( 'NONE',  ( -0.000000000000000000, -1.000000000000000000, -0.000000000000000000 ) ) ;
#629 = ORIENTED_EDGE ( 'NONE', *, *, #676, .F. ) ;
#630 = ORIENTED_EDGE ( 'NONE', *, *, #911, .T. ) ;
#631 = CARTESIAN_POINT ( 'NONE',  ( -165.0000000000000000, 0.000000000000000000, 29.00000000000000000 ) ) ;
#632 = AXIS2_PLACEMENT_3D ( 'NONE', #723, #1054, #314 ) ;
#633 = DIRECTION ( 'NONE',  ( 0.000000000000000000, 0.000000000000000000, -1.000000000000000000 ) ) ;
#634 = DIRECTION ( 'NONE',  ( 0.000000000000000000, 1.000000000000000000, 0.000000000000000000 ) ) ;
#635 = CARTESIAN_POINT ( 'NONE',  ( -165.0000000000000000, 22.00000000000000000, -12.00000000000000000 ) ) ;
#636 = LINE ( 'NONE', #83, #852 ) ;
#637 = PLANE ( 'NONE',  #124 ) ;
#638 = DIRECTION ( 'NONE',  ( -0.000000000000000000, -1.000000000000000000, -0.000000000000000000 ) ) ;
#639 = CARTESIAN_POINT ( 'NONE',  ( 272.5000000000000000, 0.000000000000000000, 0.000000000000000000 ) ) ;
#640 = LINE ( 'NONE', #589, #446 ) ;
#641 = LINE ( 'NONE', #403, #282 ) ;
#642 = CIRCLE ( 'NONE', #191, 68.99999999999997158 ) ;
#643 = AXIS2_PLACEMENT_3D ( 'NONE', #816, #821, #182 ) ;
#644 = CARTESIAN_POINT ( 'NONE',  ( 330.0000000000000000, 22.00000000000000000, 75.00000000000000000 ) ) ;
#645 = VECTOR ( 'NONE', #395, 1000.000000000000000 ) ;
#646 = EDGE_LOOP ( 'NONE', ( #544, #343, #136, #777 ) ) ;
#647 = EDGE_CURVE ( 'NONE', #825, #331, #881, .T. ) ;
#648 = EDGE_CURVE ( 'NONE', #1017, #596, #888, .T. ) ;
#649 = PLANE ( 'NONE',  #5 ) ;
#650 = CARTESIAN_POINT ( 'NONE',  ( -330.0000000000000000, 22.00000000000000000, -75.00000000000000000 ) ) ;
#651 = DATE_AND_TIME ( #185, #176 ) ;
#652 = FACE_OUTER_BOUND ( 'NONE', #828, .T. ) ;
#653 = DIRECTION ( 'NONE',  ( -1.000000000000000000, 0.000000000000000000, 0.000000000000000000 ) ) ;
#654 = DIRECTION ( 'NONE',  ( 0.000000000000000000, 1.000000000000000000, 0.000000000000000000 ) ) ;
#655 = EDGE_CURVE ( 'NONE', #597, #342, #516, .T. ) ;
#656 = DIRECTION ( 'NONE',  ( 0.000000000000000000, 0.000000000000000000, -1.000000000000000000 ) ) ;
#657 =( GEOMETRIC_REPRESENTATION_CONTEXT ( 3 ) GLOBAL_UNCERTAINTY_ASSIGNED_CONTEXT ( ( #488 ) ) GLOBAL_UNIT_ASSIGNED_CONTEXT ( ( #61, #82, #406 ) ) REPRESENTATION_CONTEXT ( 'NONE', 'WORKASPACE' ) );
#658 = AXIS2_PLACEMENT_3D ( 'NONE', #361, #840, #237 ) ;
#659 = ORIENTED_EDGE ( 'NONE', *, *, #37, .F. ) ;
#660 = EDGE_LOOP ( 'NONE', ( #65, #434, #273, #197 ) ) ;
#661 = FACE_OUTER_BOUND ( 'NONE', #537, .T. ) ;
#662 = EDGE_CURVE ( 'NONE', #438, #943, #1044, .T. ) ;
#663 = LINE ( 'NONE', #14, #747 ) ;
#664 = ORIENTED_EDGE ( 'NONE', *, *, #309, .F. ) ;
#665 = VERTEX_POINT ( 'NONE', #162 ) ;
#666 = LINE ( 'NONE', #109, #497 ) ;
#667 = PLANE ( 'NONE',  #92 ) ;
#668 = VERTEX_POINT ( 'NONE', #490 ) ;
#669 = CARTESIAN_POINT ( 'NONE',  ( -272.5000000000000000, 22.00000000000000000, -52.49999999999997868 ) ) ;
#670 = FACE_OUTER_BOUND ( 'NONE', #660, .T. ) ;
#671 = FACE_OUTER_BOUND ( 'NONE', #756, .T. ) ;
#672 = CIRCLE ( 'NONE', #175, 52.49999999999997868 ) ;
#673 = EDGE_CURVE ( 'NONE', #731, #438, #641, .T. ) ;
#674 = APPROVAL_PERSON_ORGANIZATION ( #815, #968, #416 ) ;
#675 = ORIENTED_EDGE ( 'NONE', *, *, #541, .F. ) ;
#676 = EDGE_CURVE ( 'NONE', #206, #263, #717, .T. ) ;
#677 = EDGE_LOOP ( 'NONE', ( #835, #866, #994, #864, #473, #468, #519, #664 ) ) ;
#678 = AXIS2_PLACEMENT_3D ( 'NONE', #526, #543, #372 ) ;
#679 = DIRECTION ( 'NONE',  ( 1.000000000000000000, 0.000000000000000000, -0.000000000000000000 ) ) ;
#680 = VECTOR ( 'NONE', #340, 1000.000000000000000 ) ;
#681 = DIRECTION ( 'NONE',  ( 0.000000000000000000, 0.000000000000000000, 1.000000000000000000 ) ) ;
#682 = DIRECTION ( 'NONE',  ( 0.000000000000000000, 0.000000000000000000, -1.000000000000000000 ) ) ;
#683 = ORIENTED_EDGE ( 'NONE', *, *, #449, .T. ) ;
#684 = ORIENTED_EDGE ( 'NONE', *, *, #1050, .F. ) ;
#685 = CARTESIAN_POINT ( 'NONE',  ( 0.000000000000000000, 22.00000000000000000, 12.00000000000000000 ) ) ;
#686 = CARTESIAN_POINT ( 'NONE',  ( -330.0000000000000000, 38.00000000000000000, -38.14118508908709515 ) ) ;
#687 = VERTEX_POINT ( 'NONE', #471 ) ;
#688 = VERTEX_POINT ( 'NONE', #253 ) ;
#689 = CARTESIAN_POINT ( 'NONE',  ( -330.0000000000000000, 22.00000000000000000, 75.00000000000000000 ) ) ;
#690 = LINE ( 'NONE', #362, #194 ) ;
#691 = ORIENTED_EDGE ( 'NONE', *, *, #902, .F. ) ;
#692 = ORIENTED_EDGE ( 'NONE', *, *, #387, .F. ) ;
#693 = AXIS2_PLACEMENT_3D ( 'NONE', #271, #588, #830 ) ;
#694 = CARTESIAN_POINT ( 'NONE',  ( -272.5000000000000000, 22.00000000000000000, 0.000000000000000000 ) ) ;
#695 = VECTOR ( 'NONE', #367, 1000.000000000000000 ) ;
#696 = AXIS2_PLACEMENT_3D ( 'NONE', #115, #926, #1038 ) ;
#697 = CARTESIAN_POINT ( 'NONE',  ( -165.0000000000000000, 22.00000000000000000, 29.00000000000000000 ) ) ;
#698 = ORIENTED_EDGE ( 'NONE', *, *, #755, .T. ) ;
#699 = ORIENTED_EDGE ( 'NONE', *, *, #603, .F. ) ;
#700 = LINE ( 'NONE', #520, #760 ) ;
#701 = CARTESIAN_POINT ( 'NONE',  ( -165.0000000000000000, 22.00000000000000000, -29.00000000000000000 ) ) ;
#702 = PERSON ( '未', '未', '未', ('未'), ('未'), ('未') ) ;
#703 = DIRECTION ( 'NONE',  ( 0.000000000000000000, -0.000000000000000000, -1.000000000000000000 ) ) ;
#704 = ORIENTED_EDGE ( 'NONE', *, *, #982, .F. ) ;
#705 = VERTEX_POINT ( 'NONE', #787 ) ;
#706 = ADVANCED_FACE ( 'NONE', ( #479 ), #63, .T. ) ;
#707 = COORDINATED_UNIVERSAL_TIME_OFFSET ( 8, 0, .AHEAD. ) ;
#708 = DIRECTION ( 'NONE',  ( -0.000000000000000000, -1.000000000000000000, -0.000000000000000000 ) ) ;
#709 = DIRECTION ( 'NONE',  ( 0.000000000000000000, 0.000000000000000000, -1.000000000000000000 ) ) ;
#710 = PLANE ( 'NONE',  #1009 ) ;
#711 = CARTESIAN_POINT ( 'NONE',  ( -272.5000000000000000, 0.000000000000000000, 0.000000000000000000 ) ) ;
#712 = CARTESIAN_POINT ( 'NONE',  ( -165.0000000000000000, 0.000000000000000000, -29.00000000000000000 ) ) ;
#713 = EDGE_CURVE ( 'NONE', #218, #54, #955, .T. ) ;
#714 = PRODUCT_DEFINITION ( '�', '', #733, #347 ) ;
#715 = CARTESIAN_POINT ( 'NONE',  ( -272.5000000000000000, 38.00000000000000000, 0.000000000000000000 ) ) ;
#716 = AXIS2_PLACEMENT_3D ( 'NONE', #494, #989, #838 ) ;
#717 = LINE ( 'NONE', #574, #936 ) ;
#718 = CLOSED_SHELL ( 'NONE', ( #1031, #50, #325, #9, #133, #616, #573, #238, #706, #202, #538, #781, #818, #241, #929, #48, #199, #393, #430, #590, #839, #251, #114, #789, #872, #278, #983, #422, #216 ) ) ;
#719 = AXIS2_PLACEMENT_3D ( 'NONE', #224, #547, #869 ) ;
#720 = LINE ( 'NONE', #486, #1048 ) ;
#721 = VERTEX_POINT ( 'NONE', #811 ) ;
#722 = DATE_AND_TIME ( #626, #341 ) ;
#723 = CARTESIAN_POINT ( 'NONE',  ( -165.0000000000000000, 22.00000000000000000, 29.00000000000000000 ) ) ;
#724 = CARTESIAN_POINT ( 'NONE',  ( -272.5000000000000000, 38.00000000000000000, 0.000000000000000000 ) ) ;
#725 = CYLINDRICAL_SURFACE ( 'NONE', #1046, 68.99999999999997158 ) ;
#726 = CARTESIAN_POINT ( 'NONE',  ( 165.0000000000000000, 0.000000000000000000, 29.00000000000000000 ) ) ;
#727 = EDGE_CURVE ( 'NONE', #931, #553, #327, .T. ) ;
#728 = EDGE_CURVE ( 'NONE', #851, #912, #294, .T. ) ;
#729 = EDGE_CURVE ( 'NONE', #227, #912, #826, .T. ) ;
#730 = CARTESIAN_POINT ( 'NONE',  ( -272.5000000000000000, 0.000000000000000000, 0.000000000000000000 ) ) ;
#731 = VERTEX_POINT ( 'NONE', #500 ) ;
#732 = PERSON_AND_ORGANIZATION ( #702, #480 ) ;
#733 = PRODUCT_DEFINITION_FORMATION_WITH_SPECIFIED_SOURCE ( '�', '', #813, .NOT_KNOWN. ) ;
#734 = CC_DESIGN_SECURITY_CLASSIFICATION ( #867, ( #733 ) ) ;
#735 = DIRECTION ( 'NONE',  ( -1.000000000000000000, -0.000000000000000000, -0.000000000000000000 ) ) ;
#736 = VECTOR ( 'NONE', #297, 1000.000000000000000 ) ;
#737 = VECTOR ( 'NONE', #396, 1000.000000000000000 ) ;
#738 = APPROVAL_DATE_TIME ( #337, #968 ) ;
#739 = DIRECTION ( 'NONE',  ( 1.000000000000000000, 0.000000000000000000, 0.000000000000000000 ) ) ;
#740 = LINE ( 'NONE', #336, #417 ) ;
#741 = CARTESIAN_POINT ( 'NONE',  ( -272.5000000000000000, 38.00000000000000000, 0.000000000000000000 ) ) ;
#742 = DIRECTION ( 'NONE',  ( -0.000000000000000000, -1.000000000000000000, -0.000000000000000000 ) ) ;
#743 = ORIENTED_EDGE ( 'NONE', *, *, #508, .F. ) ;
#744 = PLANE ( 'NONE',  #250 ) ;
#745 = CARTESIAN_POINT ( 'NONE',  ( -330.0000000000000000, 22.00000000000000000, -75.00000000000000000 ) ) ;
#746 = VECTOR ( 'NONE', #846, 1000.000000000000000 ) ;
#747 = VECTOR ( 'NONE', #501, 1000.000000000000000 ) ;
#748 = ORIENTED_EDGE ( 'NONE', *, *, #167, .F. ) ;
#749 = DIRECTION ( 'NONE',  ( 0.000000000000000000, 0.000000000000000000, 1.000000000000000000 ) ) ;
#750 = CYLINDRICAL_SURFACE ( 'NONE', #970, 52.49999999999997868 ) ;
#751 = ORIENTED_EDGE ( 'NONE', *, *, #351, .T. ) ;
#752 = FACE_OUTER_BOUND ( 'NONE', #1003, .T. ) ;
#753 = EDGE_CURVE ( 'NONE', #55, #931, #906, .T. ) ;
#754 = CARTESIAN_POINT ( 'NONE',  ( 330.0000000000000000, 22.00000000000000000, 38.14118508908706673 ) ) ;
#755 = EDGE_CURVE ( 'NONE', #765, #308, #11, .T. ) ;
#756 = EDGE_LOOP ( 'NONE', ( #850, #503, #691, #310 ) ) ;
#757 = DIRECTION ( 'NONE',  ( -0.000000000000000000, -0.000000000000000000, 1.000000000000000000 ) ) ;
#758 = LINE ( 'NONE', #152, #776 ) ;
#759 = CARTESIAN_POINT ( 'NONE',  ( -180.0000000000000000, 34.00000000000000000, -12.00000000000000000 ) ) ;
#760 = VECTOR ( 'NONE', #483, 1000.000000000000000 ) ;
#761 = ORIENTED_EDGE ( 'NONE', *, *, #73, .T. ) ;
#762 = VECTOR ( 'NONE', #1045, 1000.000000000000000 ) ;
#763 = CARTESIAN_POINT ( 'NONE',  ( 165.0000000000000000, 22.00000000000000000, 29.00000000000000000 ) ) ;
#764 = LINE ( 'NONE', #759, #579 ) ;
#765 = VERTEX_POINT ( 'NONE', #900 ) ;
#766 = EDGE_LOOP ( 'NONE', ( #443, #291 ) ) ;
#767 = CARTESIAN_POINT ( 'NONE',  ( 180.0000000000000000, 34.00000000000000000, -12.00000000000000000 ) ) ;
#768 = EDGE_CURVE ( 'NONE', #687, #218, #510, .T. ) ;
#769 = DIRECTION ( 'NONE',  ( 0.000000000000000000, 0.000000000000000000, -1.000000000000000000 ) ) ;
#770 = VERTEX_POINT ( 'NONE', #1001 ) ;
#771 = ORIENTED_EDGE ( 'NONE', *, *, #338, .F. ) ;
#772 = DIRECTION ( 'NONE',  ( 0.000000000000000000, 0.000000000000000000, -1.000000000000000000 ) ) ;
#773 = PRODUCT_RELATED_PRODUCT_CATEGORY ( 'detail', '', ( #813 ) ) ;
#774 = CARTESIAN_POINT ( 'NONE',  ( -330.0000000000000000, 38.00000000000000000, 38.14118508908709515 ) ) ;
#775 = ORIENTED_EDGE ( 'NONE', *, *, #901, .F. ) ;
#776 = VECTOR ( 'NONE', #877, 1000.000000000000000 ) ;
#777 = ORIENTED_EDGE ( 'NONE', *, *, #495, .T. ) ;
#778 = DIRECTION ( 'NONE',  ( 1.000000000000000000, 0.000000000000000000, -0.000000000000000000 ) ) ;
#779 = DIRECTION ( 'NONE',  ( 0.000000000000000000, 0.000000000000000000, 1.000000000000000000 ) ) ;
#780 = AXIS2_PLACEMENT_3D ( 'NONE', #715, #33, #681 ) ;
#781 = ADVANCED_FACE ( 'NONE', ( #177 ), #427, .F. ) ;
#782 = CARTESIAN_POINT ( 'NONE',  ( -272.5000000000000000, 22.00000000000000000, 0.000000000000000000 ) ) ;
#783 = VERTEX_POINT ( 'NONE', #418 ) ;
#784 = ORIENTED_EDGE ( 'NONE', *, *, #464, .T. ) ;
#785 = DIRECTION ( 'NONE',  ( 0.000000000000000000, -1.000000000000000000, 0.000000000000000000 ) ) ;
#786 = PLANE ( 'NONE',  #834 ) ;
#787 = CARTESIAN_POINT ( 'NONE',  ( 272.5000000000000000, 22.00000000000000000, 68.99999999999997158 ) ) ;
#788 = FACE_OUTER_BOUND ( 'NONE', #174, .T. ) ;
#789 = ADVANCED_FACE ( 'NONE', ( #652, #335 ), #909, .T. ) ;
#790 = EDGE_CURVE ( 'NONE', #803, #687, #94, .T. ) ;
#791 = VERTEX_POINT ( 'NONE', #592 ) ;
#792 = ORIENTED_EDGE ( 'NONE', *, *, #870, .T. ) ;
#793 = CARTESIAN_POINT ( 'NONE',  ( 165.0000000000000000, 22.00000000000000000, 29.00000000000000000 ) ) ;
#794 = LINE ( 'NONE', #110, #252 ) ;
#795 = CARTESIAN_POINT ( 'NONE',  ( -165.0000000000000000, 22.00000000000000000, 29.00000000000000000 ) ) ;
#796 = LINE ( 'NONE', #879, #762 ) ;
#797 = EDGE_LOOP ( 'NONE', ( #1036, #205, #894, #630 ) ) ;
#798 = COORDINATED_UNIVERSAL_TIME_OFFSET ( 8, 0, .AHEAD. ) ;
#799 = CC_DESIGN_APPROVAL ( #266, ( #714 ) ) ;
#800 = CIRCLE ( 'NONE', #178, 68.99999999999998579 ) ;
#801 = CIRCLE ( 'NONE', #329, 68.99999999999997158 ) ;
#802 = CARTESIAN_POINT ( 'NONE',  ( -272.5000000000000000, 38.00000000000000000, 0.000000000000000000 ) ) ;
#803 = VERTEX_POINT ( 'NONE', #985 ) ;
#804 = EDGE_CURVE ( 'NONE', #227, #860, #88, .T. ) ;
#805 = DIRECTION ( 'NONE',  ( -0.000000000000000000, -1.000000000000000000, -0.000000000000000000 ) ) ;
#806 = EDGE_CURVE ( 'NONE', #120, #363, #13, .T. ) ;
#807 = FACE_OUTER_BOUND ( 'NONE', #221, .T. ) ;
#808 = CARTESIAN_POINT ( 'NONE',  ( -165.0000000000000000, 22.00000000000000000, 29.00000000000000000 ) ) ;
#809 = ORIENTED_EDGE ( 'NONE', *, *, #421, .F. ) ;
#810 = CARTESIAN_POINT ( 'NONE',  ( -330.0000000000000000, 22.00000000000000000, 38.14118508908709515 ) ) ;
#811 = CARTESIAN_POINT ( 'NONE',  ( 165.0000000000000000, 0.000000000000000000, -11.99999999999998579 ) ) ;
#812 = CARTESIAN_POINT ( 'NONE',  ( 272.5000000000000000, 38.00000000000000000, 68.99999999999997158 ) ) ;
#813 = PRODUCT ( 'MKH-006_upper_arm_link', 'MKH-006_upper_arm_link', '', ( #410 ) ) ;
#814 = ORIENTED_EDGE ( 'NONE', *, *, #618, .T. ) ;
#815 = PERSON_AND_ORGANIZATION ( #702, #480 ) ;
#816 = CARTESIAN_POINT ( 'NONE',  ( 272.5000000000000000, 38.00000000000000000, 0.000000000000000000 ) ) ;
#817 = VECTOR ( 'NONE', #857, 1000.000000000000000 ) ;
#818 = ADVANCED_FACE ( 'NONE', ( #264 ), #744, .F. ) ;
#819 = CARTESIAN_POINT ( 'NONE',  ( 165.0000000000000000, 22.00000000000000000, -12.00000000000000000 ) ) ;
#820 = ORIENTED_EDGE ( 'NONE', *, *, #84, .F. ) ;
#821 = DIRECTION ( 'NONE',  ( 0.000000000000000000, 1.000000000000000000, 0.000000000000000000 ) ) ;
#822 = LINE ( 'NONE', #575, #680 ) ;
#823 = APPLICATION_CONTEXT ( 'configuration controlled 3d designs of mechanical parts and assemblies' ) ;
#824 = CC_DESIGN_PERSON_AND_ORGANIZATION_ASSIGNMENT ( #836, #493, ( #867 ) ) ;
#825 = VERTEX_POINT ( 'NONE', #192 ) ;
#826 = LINE ( 'NONE', #669, #193 ) ;
#827 = DIRECTION ( 'NONE',  ( 1.000000000000000000, -0.000000000000000000, 0.000000000000000000 ) ) ;
#828 = EDGE_LOOP ( 'NONE', ( #292, #683 ) ) ;
#829 = ORIENTED_EDGE ( 'NONE', *, *, #647, .F. ) ;
#830 = DIRECTION ( 'NONE',  ( 0.000000000000000000, 0.000000000000000000, -1.000000000000000000 ) ) ;
#831 = VECTOR ( 'NONE', #953, 1000.000000000000000 ) ;
#832 = CARTESIAN_POINT ( 'NONE',  ( 272.5000000000000000, 0.000000000000000000, -52.49999999999997868 ) ) ;
#833 = VECTOR ( 'NONE', #1024, 1000.000000000000000 ) ;
#834 = AXIS2_PLACEMENT_3D ( 'NONE', #138, #460, #779 ) ;
#835 = ORIENTED_EDGE ( 'NONE', *, *, #713, .F. ) ;
#836 = PERSON_AND_ORGANIZATION ( #702, #480 ) ;
#837 = ORIENTED_EDGE ( 'NONE', *, *, #572, .F. ) ;
#838 = DIRECTION ( 'NONE',  ( 0.000000000000000000, 0.000000000000000000, 1.000000000000000000 ) ) ;
#839 = ADVANCED_FACE ( 'NONE', ( #661 ), #996, .T. ) ;
#840 = DIRECTION ( 'NONE',  ( 0.000000000000000000, 1.000000000000000000, 0.000000000000000000 ) ) ;
#841 = ORIENTED_EDGE ( 'NONE', *, *, #85, .F. ) ;
#842 = LINE ( 'NONE', #1013, #262 ) ;
#843 = LINE ( 'NONE', #441, #196 ) ;
#844 = CARTESIAN_POINT ( 'NONE',  ( -272.5000000000000000, 22.00000000000000000, 0.000000000000000000 ) ) ;
#845 = ORIENTED_EDGE ( 'NONE', *, *, #557, .T. ) ;
#846 = DIRECTION ( 'NONE',  ( 1.000000000000000000, 0.000000000000000000, 0.000000000000000000 ) ) ;
#847 = DIRECTION ( 'NONE',  ( -0.000000000000000000, -0.000000000000000000, 1.000000000000000000 ) ) ;
#848 = VECTOR ( 'NONE', #47, 1000.000000000000000 ) ;
#849 = EDGE_CURVE ( 'NONE', #263, #552, #444, .T. ) ;
#850 = ORIENTED_EDGE ( 'NONE', *, *, #790, .T. ) ;
#851 = VERTEX_POINT ( 'NONE', #22 ) ;
#852 = VECTOR ( 'NONE', #973, 1000.000000000000000 ) ;
#853 = CARTESIAN_POINT ( 'NONE',  ( -330.0000000000000000, 0.000000000000000000, -75.00000000000000000 ) ) ;
#854 = DIRECTION ( 'NONE',  ( -0.000000000000000000, -1.000000000000000000, -0.000000000000000000 ) ) ;
#855 = ORIENTED_EDGE ( 'NONE', *, *, #729, .T. ) ;
#856 = EDGE_LOOP ( 'NONE', ( #684, #987, #775, #389, #948, #514, #142, #814 ) ) ;
#857 = DIRECTION ( 'NONE',  ( 1.000000000000000000, 0.000000000000000000, 0.000000000000000000 ) ) ;
#858 = LINE ( 'NONE', #1032, #695 ) ;
#859 = ORIENTED_EDGE ( 'NONE', *, *, #914, .F. ) ;
#860 = VERTEX_POINT ( 'NONE', #350 ) ;
#861 = DIRECTION ( 'NONE',  ( 0.000000000000000000, 0.000000000000000000, -1.000000000000000000 ) ) ;
#862 = DIRECTION ( 'NONE',  ( -0.000000000000000000, 1.000000000000000000, -0.000000000000000000 ) ) ;
#863 = CARTESIAN_POINT ( 'NONE',  ( -165.0000000000000000, 0.000000000000000000, 12.00000000000000711 ) ) ;
#864 = ORIENTED_EDGE ( 'NONE', *, *, #279, .F. ) ;
#865 = VECTOR ( 'NONE', #896, 1000.000000000000000 ) ;
#866 = ORIENTED_EDGE ( 'NONE', *, *, #768, .F. ) ;
#867 = SECURITY_CLASSIFICATION ( '', '', #913 ) ;
#868 = LINE ( 'NONE', #489, #17 ) ;
#869 = DIRECTION ( 'NONE',  ( 0.000000000000000000, 0.000000000000000000, 1.000000000000000000 ) ) ;
#870 = EDGE_CURVE ( 'NONE', #995, #534, #666, .T. ) ;
#871 = VECTOR ( 'NONE', #1002, 1000.000000000000000 ) ;
#872 = ADVANCED_FACE ( 'NONE', ( #752 ), #27, .F. ) ;
#873 = DIRECTION ( 'NONE',  ( 0.000000000000000000, -0.000000000000000000, -1.000000000000000000 ) ) ;
#874 = ORIENTED_EDGE ( 'NONE', *, *, #1034, .T. ) ;
#875 = ORIENTED_EDGE ( 'NONE', *, *, #897, .F. ) ;
#876 = PERSON_AND_ORGANIZATION ( #702, #480 ) ;
#877 = DIRECTION ( 'NONE',  ( -0.000000000000000000, -1.000000000000000000, -0.000000000000000000 ) ) ;
#878 = CARTESIAN_POINT ( 'NONE',  ( -272.5000000000000000, 22.00000000000000000, 0.000000000000000000 ) ) ;
#879 = CARTESIAN_POINT ( 'NONE',  ( 330.0000000000000000, 22.00000000000000000, 75.00000000000000000 ) ) ;
#880 = DIRECTION ( 'NONE',  ( 1.000000000000000000, 0.000000000000000000, 0.000000000000000000 ) ) ;
#881 = LINE ( 'NONE', #726, #615 ) ;
#882 = CARTESIAN_POINT ( 'NONE',  ( -165.0000000000000000, 22.00000000000000000, -12.00000000000000000 ) ) ;
#883 = ADVANCED_BREP_SHAPE_REPRESENTATION ( 'MKH-006_upper_arm_link', ( #8, #594 ), #657 ) ;
#884 = EDGE_CURVE ( 'NONE', #355, #905, #933, .T. ) ;
#885 = LINE ( 'NONE', #319, #315 ) ;
#886 = VECTOR ( 'NONE', #1037, 1000.000000000000000 ) ;
#887 = DIRECTION ( 'NONE',  ( 0.000000000000000000, 1.000000000000000000, 0.000000000000000000 ) ) ;
#888 = CIRCLE ( 'NONE', #106, 68.99999999999998579 ) ;
#889 = DIRECTION ( 'NONE',  ( 0.000000000000000000, 0.000000000000000000, -1.000000000000000000 ) ) ;
#890 = ORIENTED_EDGE ( 'NONE', *, *, #585, .T. ) ;
#891 = DATE_AND_TIME ( #311, #104 ) ;
#892 = CARTESIAN_POINT ( 'NONE',  ( -165.0000000000000000, 22.00000000000000000, 29.00000000000000000 ) ) ;
#893 = FACE_OUTER_BOUND ( 'NONE', #677, .T. ) ;
#894 = ORIENTED_EDGE ( 'NONE', *, *, #525, .T. ) ;
#895 = PERSON_AND_ORGANIZATION ( #702, #480 ) ;
#896 = DIRECTION ( 'NONE',  ( -1.000000000000000000, -0.000000000000000000, -0.000000000000000000 ) ) ;
#897 = EDGE_CURVE ( 'NONE', #206, #770, #672, .T. ) ;
#898 = DIRECTION ( 'NONE',  ( -0.000000000000000000, -0.000000000000000000, 1.000000000000000000 ) ) ;
#899 = EDGE_LOOP ( 'NONE', ( #692, #25, #874, #277 ) ) ;
#900 = CARTESIAN_POINT ( 'NONE',  ( -272.5000000000000000, 38.00000000000000000, -68.99999999999998579 ) ) ;
#901 = EDGE_CURVE ( 'NONE', #668, #905, #211, .T. ) ;
#902 = EDGE_CURVE ( 'NONE', #568, #995, #940, .T. ) ;
#903 = DIRECTION ( 'NONE',  ( 0.000000000000000000, 0.000000000000000000, -1.000000000000000000 ) ) ;
#904 = AXIS2_PLACEMENT_3D ( 'NONE', #782, #628, #889 ) ;
#905 = VERTEX_POINT ( 'NONE', #200 ) ;
#906 = LINE ( 'NONE', #281, #865 ) ;
#907 = CARTESIAN_POINT ( 'NONE',  ( -180.0000000000000000, 34.00000000000000000, 12.00000000000000000 ) ) ;
#908 = ORIENTED_EDGE ( 'NONE', *, *, #768, .T. ) ;
#909 = PLANE ( 'NONE',  #643 ) ;
#910 = CARTESIAN_POINT ( 'NONE',  ( 164.9999999999998579, 0.000000000000000000, 12.00000000000000000 ) ) ;
#911 = EDGE_CURVE ( 'NONE', #81, #705, #397, .T. ) ;
#912 = VERTEX_POINT ( 'NONE', #132 ) ;
#913 = SECURITY_CLASSIFICATION_LEVEL ( 'unclassified' ) ;
#914 = EDGE_CURVE ( 'NONE', #1035, #825, #121, .T. ) ;
#915 = EDGE_CURVE ( 'NONE', #1017, #568, #842, .T. ) ;
#916 = VERTEX_POINT ( 'NONE', #524 ) ;
#917 = DIRECTION ( 'NONE',  ( -0.000000000000000000, -0.000000000000000000, 1.000000000000000000 ) ) ;
#918 = VECTOR ( 'NONE', #511, 1000.000000000000000 ) ;
#919 = DIRECTION ( 'NONE',  ( -0.000000000000000000, -1.000000000000000000, -0.000000000000000000 ) ) ;
#920 = VECTOR ( 'NONE', #275, 1000.000000000000000 ) ;
#921 = CIRCLE ( 'NONE', #213, 68.99999999999998579 ) ;
#922 = VECTOR ( 'NONE', #346, 1000.000000000000000 ) ;
#923 = ORIENTED_EDGE ( 'NONE', *, *, #911, .F. ) ;
#924 = ORIENTED_EDGE ( 'NONE', *, *, #73, .F. ) ;
#925 = DIRECTION ( 'NONE',  ( -0.000000000000000000, -1.000000000000000000, -0.000000000000000000 ) ) ;
#926 = DIRECTION ( 'NONE',  ( 0.000000000000000000, 0.000000000000000000, 1.000000000000000000 ) ) ;
#927 = LINE ( 'NONE', #380, #415 ) ;
#928 = ORIENTED_EDGE ( 'NONE', *, *, #603, .T. ) ;
#929 = ADVANCED_FACE ( 'NONE', ( #1019 ), #375, .F. ) ;
#930 = LINE ( 'NONE', #623, #330 ) ;
#931 = VERTEX_POINT ( 'NONE', #853 ) ;
#932 = ORIENTED_EDGE ( 'NONE', *, *, #984, .T. ) ;
#933 = LINE ( 'NONE', #685, #746 ) ;
#934 = CC_DESIGN_DATE_AND_TIME_ASSIGNMENT ( #651, #256, ( #867 ) ) ;
#935 = CYLINDRICAL_SURFACE ( 'NONE', #72, 68.99999999999997158 ) ;
#936 = VECTOR ( 'NONE', #560, 1000.000000000000000 ) ;
#937 = ORIENTED_EDGE ( 'NONE', *, *, #10, .T. ) ;
#938 = EDGE_LOOP ( 'NONE', ( #198, #249, #829, #859 ) ) ;
#939 = CIRCLE ( 'NONE', #465, 68.99999999999997158 ) ;
#940 = LINE ( 'NONE', #689, #833 ) ;
#941 = PLANE ( 'NONE',  #34 ) ;
#942 = ORIENTED_EDGE ( 'NONE', *, *, #806, .F. ) ;
#943 = VERTEX_POINT ( 'NONE', #614 ) ;
#944 = DIRECTION ( 'NONE',  ( 0.000000000000000000, 1.000000000000000000, 0.000000000000000000 ) ) ;
#945 = DIRECTION ( 'NONE',  ( 1.609018876268343450E-15, 0.000000000000000000, -1.000000000000000000 ) ) ;
#946 = LINE ( 'NONE', #35, #957 ) ;
#947 = ORIENTED_EDGE ( 'NONE', *, *, #605, .F. ) ;
#948 = ORIENTED_EDGE ( 'NONE', *, *, #371, .T. ) ;
#949 = APPROVAL_STATUS ( 'not_yet_approved' ) ;
#950 = EDGE_CURVE ( 'NONE', #1035, #355, #451, .T. ) ;
#951 = EDGE_CURVE ( 'NONE', #453, #518, #293, .T. ) ;
#952 = CARTESIAN_POINT ( 'NONE',  ( -272.5000000000000000, 22.00000000000000000, 52.49999999999997868 ) ) ;
#953 = DIRECTION ( 'NONE',  ( 0.000000000000000000, 0.000000000000000000, -1.000000000000000000 ) ) ;
#954 = ORIENTED_EDGE ( 'NONE', *, *, #849, .F. ) ;
#955 = CIRCLE ( 'NONE', #548, 68.99999999999997158 ) ;
#956 = ORIENTED_EDGE ( 'NONE', *, *, #508, .T. ) ;
#957 = VECTOR ( 'NONE', #847, 1000.000000000000000 ) ;
#958 = DIRECTION ( 'NONE',  ( -0.000000000000000000, -0.000000000000000000, 1.000000000000000000 ) ) ;
#959 = CARTESIAN_POINT ( 'NONE',  ( 272.5000000000000000, 38.00000000000000000, 0.000000000000000000 ) ) ;
#960 = CARTESIAN_POINT ( 'NONE',  ( -180.0000000000000000, 34.00000000000000000, 12.00000000000000000 ) ) ;
#961 = COORDINATED_UNIVERSAL_TIME_OFFSET ( 8, 0, .AHEAD. ) ;
#962 = DIRECTION ( 'NONE',  ( 0.000000000000000000, 1.000000000000000000, 0.000000000000000000 ) ) ;
#963 = DIRECTION ( 'NONE',  ( 0.000000000000000000, -1.000000000000000000, 0.000000000000000000 ) ) ;
#964 = ORIENTED_EDGE ( 'NONE', *, *, #366, .T. ) ;
#965 = PERSON_AND_ORGANIZATION_ROLE ( 'design_owner' ) ;
#966 = DIRECTION ( 'NONE',  ( -1.000000000000000000, 0.000000000000000000, -0.000000000000000000 ) ) ;
#967 = CARTESIAN_POINT ( 'NONE',  ( 165.0000000000000000, 22.00000000000000000, 29.00000000000000000 ) ) ;
#968 = APPROVAL ( #90, '未' ) ;
#969 = ORIENTED_EDGE ( 'NONE', *, *, #10, .F. ) ;
#970 = AXIS2_PLACEMENT_3D ( 'NONE', #412, #919, #272 ) ;
#971 = APPROVAL_ROLE ( '' ) ;
#972 = AXIS2_PLACEMENT_3D ( 'NONE', #741, #654, #103 ) ;
#973 = DIRECTION ( 'NONE',  ( -0.000000000000000000, -0.000000000000000000, 1.000000000000000000 ) ) ;
#974 = AXIS2_PLACEMENT_3D ( 'NONE', #844, #522, #225 ) ;
#975 = VECTOR ( 'NONE', #708, 1000.000000000000000 ) ;
#976 = CARTESIAN_POINT ( 'NONE',  ( 0.000000000000000000, 34.00000000000000000, 0.000000000000000000 ) ) ;
#977 = ORIENTED_EDGE ( 'NONE', *, *, #463, .F. ) ;
#978 = EDGE_CURVE ( 'NONE', #234, #668, #113, .T. ) ;
#979 = CARTESIAN_POINT ( 'NONE',  ( 272.5000000000000000, 38.00000000000000000, -68.99999999999997158 ) ) ;
#980 = LINE ( 'NONE', #593, #922 ) ;
#981 = EDGE_LOOP ( 'NONE', ( #977, #188, #855, #30 ) ) ;
#982 = EDGE_CURVE ( 'NONE', #596, #308, #3, .T. ) ;
#983 = ADVANCED_FACE ( 'NONE', ( #285 ), #440, .F. ) ;
#984 = EDGE_CURVE ( 'NONE', #54, #587, #300, .T. ) ;
#985 = CARTESIAN_POINT ( 'NONE',  ( -330.0000000000000000, 0.000000000000000000, 75.00000000000000000 ) ) ;
#986 = LINE ( 'NONE', #261, #1029 ) ;
#987 = ORIENTED_EDGE ( 'NONE', *, *, #884, .T. ) ;
#988 = ORIENTED_EDGE ( 'NONE', *, *, #228, .F. ) ;
#989 = DIRECTION ( 'NONE',  ( 0.000000000000000000, 1.000000000000000000, 0.000000000000000000 ) ) ;
#990 = VECTOR ( 'NONE', #78, 1000.000000000000000 ) ;
#991 = APPLICATION_CONTEXT ( 'configuration controlled 3d designs of mechanical parts and assemblies' ) ;
#992 = CARTESIAN_POINT ( 'NONE',  ( -180.0000000000000000, 22.00000000000000000, 0.000000000000000000 ) ) ;
#993 = AXIS2_PLACEMENT_3D ( 'NONE', #724, #1055, #326 ) ;
#994 = ORIENTED_EDGE ( 'NONE', *, *, #790, .F. ) ;
#995 = VERTEX_POINT ( 'NONE', #223 ) ;
#996 = CYLINDRICAL_SURFACE ( 'NONE', #693, 68.99999999999998579 ) ;
#997 = EDGE_CURVE ( 'NONE', #506, #791, #540, .T. ) ;
#998 = CARTESIAN_POINT ( 'NONE',  ( 272.5000000000000000, 38.00000000000000000, 68.99999999999997158 ) ) ;
#999 = ORIENTED_EDGE ( 'NONE', *, *, #557, .F. ) ;
#1000 = COORDINATED_UNIVERSAL_TIME_OFFSET ( 8, 0, .AHEAD. ) ;
#1001 = CARTESIAN_POINT ( 'NONE',  ( 272.5000000000000000, 38.00000000000000000, 52.49999999999997868 ) ) ;
#1002 = DIRECTION ( 'NONE',  ( 0.000000000000000000, 1.000000000000000000, -0.000000000000000000 ) ) ;
#1003 = EDGE_LOOP ( 'NONE', ( #435, #89, #59, #969 ) ) ;
#1004 = ORIENTED_EDGE ( 'NONE', *, *, #248, .T. ) ;
#1005 = DIRECTION ( 'NONE',  ( -0.000000000000000000, -0.000000000000000000, 1.000000000000000000 ) ) ;
#1006 = AXIS2_PLACEMENT_3D ( 'NONE', #289, #598, #609 ) ;
#1007 = DIRECTION ( 'NONE',  ( 1.000000000000000000, 0.000000000000000000, 0.000000000000000000 ) ) ;
#1008 = DIRECTION ( 'NONE',  ( -0.000000000000000000, -1.000000000000000000, -0.000000000000000000 ) ) ;
#1009 = AXIS2_PLACEMENT_3D ( 'NONE', #976, #558, #703 ) ;
#1010 = ORIENTED_EDGE ( 'NONE', *, *, #914, .T. ) ;
#1011 = EDGE_CURVE ( 'NONE', #382, #688, #137, .T. ) ;
#1012 = ORIENTED_EDGE ( 'NONE', *, *, #984, .F. ) ;
#1013 = CARTESIAN_POINT ( 'NONE',  ( -330.0000000000000000, 22.00000000000000000, 75.00000000000000000 ) ) ;
#1014 = EDGE_CURVE ( 'NONE', #783, #596, #700, .T. ) ;
#1015 = CARTESIAN_POINT ( 'NONE',  ( 272.5000000000000000, 22.00000000000000000, 0.000000000000000000 ) ) ;
#1016 = DIRECTION ( 'NONE',  ( -0.000000000000000000, 1.000000000000000000, -0.000000000000000000 ) ) ;
#1017 = VERTEX_POINT ( 'NONE', #810 ) ;
#1018 = ORIENTED_EDGE ( 'NONE', *, *, #167, .T. ) ;
#1019 = FACE_OUTER_BOUND ( 'NONE', #646, .T. ) ;
#1020 = APPROVAL ( #949, '未' ) ;
#1021 = CARTESIAN_POINT ( 'NONE',  ( 165.0000000000000000, 22.00000000000000000, -12.00000000000000000 ) ) ;
#1022 = ORIENTED_EDGE ( 'NONE', *, *, #806, .T. ) ;
#1023 = ORIENTED_EDGE ( 'NONE', *, *, #84, .T. ) ;
#1024 = DIRECTION ( 'NONE',  ( 1.000000000000000000, 0.000000000000000000, 0.000000000000000000 ) ) ;
#1025 = LINE ( 'NONE', #697, #736 ) ;
#1026 = LOCAL_TIME ( 23, 22, 52.00000000000000000, #707 ) ;
#1027 = ORIENTED_EDGE ( 'NONE', *, *, #1033, .F. ) ;
#1028 = ORIENTED_EDGE ( 'NONE', *, *, #189, .T. ) ;
#1029 = VECTOR ( 'NONE', #577, 1000.000000000000000 ) ;
#1030 = DIRECTION ( 'NONE',  ( 0.000000000000000000, 0.000000000000000000, 1.000000000000000000 ) ) ;
#1031 = ADVANCED_FACE ( 'NONE', ( #323 ), #725, .T. ) ;
#1032 = CARTESIAN_POINT ( 'NONE',  ( -165.0000000000000000, 22.00000000000000000, 29.00000000000000000 ) ) ;
#1033 = EDGE_CURVE ( 'NONE', #568, #803, #868, .T. ) ;
#1034 = EDGE_CURVE ( 'NONE', #665, #943, #475, .T. ) ;
#1035 = VERTEX_POINT ( 'NONE', #793 ) ;
#1036 = ORIENTED_EDGE ( 'NONE', *, *, #351, .F. ) ;
#1037 = DIRECTION ( 'NONE',  ( -0.000000000000000000, -0.000000000000000000, 1.000000000000000000 ) ) ;
#1038 = DIRECTION ( 'NONE',  ( 1.000000000000000000, 0.000000000000000000, -0.000000000000000000 ) ) ;
#1039 = PLANE ( 'NONE',  #550 ) ;
#1040 = EDGE_LOOP ( 'NONE', ( #761, #210, #226, #841 ) ) ;
#1041 = ORIENTED_EDGE ( 'NONE', *, *, #713, .T. ) ;
#1042 = CALENDAR_DATE ( 2026, 28, 7 ) ;
#1043 = CARTESIAN_POINT ( 'NONE',  ( 180.0000000000000000, 34.00000000000000000, -12.00000000000000000 ) ) ;
#1044 = LINE ( 'NONE', #333, #737 ) ;
#1045 = DIRECTION ( 'NONE',  ( 0.000000000000000000, 0.000000000000000000, -1.000000000000000000 ) ) ;
#1046 = AXIS2_PLACEMENT_3D ( 'NONE', #469, #805, #546 ) ;
#1047 = DIRECTION ( 'NONE',  ( 0.000000000000000000, 0.000000000000000000, 1.000000000000000000 ) ) ;
#1048 = VECTOR ( 'NONE', #633, 1000.000000000000000 ) ;
#1049 = FACE_OUTER_BOUND ( 'NONE', #938, .T. ) ;
#1050 = EDGE_CURVE ( 'NONE', #355, #331, #885, .T. ) ;
#1051 = FACE_OUTER_BOUND ( 'NONE', #217, .T. ) ;
#1052 = FACE_OUTER_BOUND ( 'NONE', #611, .T. ) ;
#1053 = PERSON_AND_ORGANIZATION ( #702, #480 ) ;
#1054 = DIRECTION ( 'NONE',  ( 1.000000000000000000, -0.000000000000000000, 0.000000000000000000 ) ) ;
#1055 = DIRECTION ( 'NONE',  ( 0.000000000000000000, 1.000000000000000000, 0.000000000000000000 ) ) ;
ENDSEC;
END-ISO-10303-21;
