ISO-10303-21;
HEADER;
FILE_DESCRIPTION (( 'STEP AP203' ),
    '1' );
FILE_NAME ('MKH-015_cable_bracket.STEP',
    '2026-07-28T17:13:30',
    ( '' ),
    ( '' ),
    'SwSTEP 2.0',
    'SolidWorks 2023',
    '' );
FILE_SCHEMA (( 'CONFIG_CONTROL_DESIGN' ));
ENDSEC;

DATA;
#1 = ORIENTED_EDGE ( 'NONE', *, *, #167, .T. ) ;
#2 = EDGE_CURVE ( 'NONE', #619, #57, #260, .T. ) ;
#3 = CARTESIAN_POINT ( 'NONE',  ( -105.0000000000000000, 20.00000000000000000, 8.000000000000000000 ) ) ;
#4 = DIRECTION ( 'NONE',  ( -0.000000000000000000, -0.000000000000000000, 1.000000000000000000 ) ) ;
#5 = VECTOR ( 'NONE', #412, 1000.000000000000000 ) ;
#6 = ORIENTED_EDGE ( 'NONE', *, *, #240, .T. ) ;
#7 = DIRECTION ( 'NONE',  ( 0.000000000000000000, 1.000000000000000000, 0.000000000000000000 ) ) ;
#8 = CARTESIAN_POINT ( 'NONE',  ( -75.00000000000000000, 12.00000000000000000, 8.000000000000000000 ) ) ;
#9 = ORIENTED_EDGE ( 'NONE', *, *, #586, .F. ) ;
#10 = FACE_OUTER_BOUND ( 'NONE', #914, .T. ) ;
#11 = CARTESIAN_POINT ( 'NONE',  ( -140.0000000000000000, 0.000000000000000000, -42.50000000000000000 ) ) ;
#12 = LINE ( 'NONE', #734, #654 ) ;
#13 = EDGE_CURVE ( 'NONE', #619, #645, #892, .T. ) ;
#14 = AXIS2_PLACEMENT_3D ( 'NONE', #283, #632, #435 ) ;
#15 = DIRECTION ( 'NONE',  ( 0.000000000000000000, 0.000000000000000000, 1.000000000000000000 ) ) ;
#16 = VECTOR ( 'NONE', #4, 1000.000000000000000 ) ;
#17 = DIRECTION ( 'NONE',  ( 0.000000000000000000, 0.000000000000000000, -1.000000000000000000 ) ) ;
#18 = DIRECTION ( 'NONE',  ( 0.000000000000000000, 1.000000000000000000, -0.000000000000000000 ) ) ;
#19 = CC_DESIGN_SECURITY_CLASSIFICATION ( #248, ( #640 ) ) ;
#20 = VECTOR ( 'NONE', #606, 1000.000000000000000 ) ;
#21 = VECTOR ( 'NONE', #767, 1000.000000000000000 ) ;
#22 = FACE_OUTER_BOUND ( 'NONE', #903, .T. ) ;
#23 = CARTESIAN_POINT ( 'NONE',  ( -75.00000000000000000, 12.00000000000000000, 12.00000000000000000 ) ) ;
#24 = EDGE_CURVE ( 'NONE', #551, #125, #739, .T. ) ;
#25 = CARTESIAN_POINT ( 'NONE',  ( 115.0000000000000000, 12.00000000000000000, 23.49999999999999645 ) ) ;
#26 = EDGE_CURVE ( 'NONE', #826, #690, #904, .T. ) ;
#27 = DIRECTION ( 'NONE',  ( 0.000000000000000000, 0.000000000000000000, -1.000000000000000000 ) ) ;
#28 = VERTEX_POINT ( 'NONE', #168 ) ;
#29 = VECTOR ( 'NONE', #46, 1000.000000000000000 ) ;
#30 = CARTESIAN_POINT ( 'NONE',  ( 115.0000000000000000, 0.000000000000000000, -32.50000000000000711 ) ) ;
#31 = VERTEX_POINT ( 'NONE', #242 ) ;
#32 = CARTESIAN_POINT ( 'NONE',  ( -105.0000000000000000, 20.00000000000000000, -8.000000000000000000 ) ) ;
#33 = ORIENTED_EDGE ( 'NONE', *, *, #150, .F. ) ;
#34 = EDGE_CURVE ( 'NONE', #28, #314, #477, .T. ) ;
#35 = CARTESIAN_POINT ( 'NONE',  ( -75.00000000000000000, 12.00000000000000000, 12.00000000000000000 ) ) ;
#36 = ORIENTED_EDGE ( 'NONE', *, *, #738, .T. ) ;
#37 = CARTESIAN_POINT ( 'NONE',  ( 140.0000000000000000, 0.000000000000000000, 42.50000000000000000 ) ) ;
#38 = COORDINATED_UNIVERSAL_TIME_OFFSET ( 8, 0, .AHEAD. ) ;
#39 = ORIENTED_EDGE ( 'NONE', *, *, #206, .T. ) ;
#40 = FACE_BOUND ( 'NONE', #417, .T. ) ;
#41 = ORIENTED_EDGE ( 'NONE', *, *, #758, .T. ) ;
#42 = COORDINATED_UNIVERSAL_TIME_OFFSET ( 8, 0, .AHEAD. ) ;
#43 = VERTEX_POINT ( 'NONE', #114 ) ;
#44 = DIRECTION ( 'NONE',  ( 0.000000000000000000, 0.000000000000000000, 1.000000000000000000 ) ) ;
#45 = EDGE_LOOP ( 'NONE', ( #725, #766 ) ) ;
#46 = DIRECTION ( 'NONE',  ( 0.000000000000000000, 0.000000000000000000, 1.000000000000000000 ) ) ;
#47 = ORIENTED_EDGE ( 'NONE', *, *, #272, .T. ) ;
#48 = LINE ( 'NONE', #553, #415 ) ;
#49 = DIRECTION ( 'NONE',  ( -0.000000000000000000, -0.000000000000000000, 1.000000000000000000 ) ) ;
#50 = ORIENTED_EDGE ( 'NONE', *, *, #313, .F. ) ;
#51 = CARTESIAN_POINT ( 'NONE',  ( 115.0000000000000000, 12.00000000000000000, 28.00000000000000000 ) ) ;
#52 = ORIENTED_EDGE ( 'NONE', *, *, #874, .T. ) ;
#53 = EDGE_CURVE ( 'NONE', #595, #923, #815, .T. ) ;
#54 = CARTESIAN_POINT ( 'NONE',  ( -115.0000000000000000, 12.00000000000000000, 28.00000000000000000 ) ) ;
#55 = DIRECTION ( 'NONE',  ( 0.000000000000000000, 0.000000000000000000, -1.000000000000000000 ) ) ;
#56 = ORIENTED_EDGE ( 'NONE', *, *, #599, .F. ) ;
#57 = VERTEX_POINT ( 'NONE', #547 ) ;
#58 = VECTOR ( 'NONE', #635, 1000.000000000000000 ) ;
#59 = CC_DESIGN_APPROVAL ( #425, ( #640 ) ) ;
#60 = CARTESIAN_POINT ( 'NONE',  ( -115.0000000000000000, 0.000000000000000000, -28.00000000000000000 ) ) ;
#61 = DIRECTION ( 'NONE',  ( -0.000000000000000000, -1.000000000000000000, -0.000000000000000000 ) ) ;
#62 = VERTEX_POINT ( 'NONE', #744 ) ;
#63 = LINE ( 'NONE', #350, #79 ) ;
#64 = CARTESIAN_POINT ( 'NONE',  ( 115.0000000000000000, 12.00000000000000000, 32.50000000000000711 ) ) ;
#65 = ORIENTED_EDGE ( 'NONE', *, *, #646, .T. ) ;
#66 = CARTESIAN_POINT ( 'NONE',  ( 75.00000000000000000, 12.00000000000000000, 8.000000000000000000 ) ) ;
#67 = DIRECTION ( 'NONE',  ( 0.000000000000000000, -0.000000000000000000, -1.000000000000000000 ) ) ;
#68 = VERTEX_POINT ( 'NONE', #839 ) ;
#69 = CIRCLE ( 'NONE', #218, 4.500000000000003553 ) ;
#70 = CARTESIAN_POINT ( 'NONE',  ( -75.00000000000000000, 12.00000000000000000, -12.00000000000000000 ) ) ;
#71 = CARTESIAN_POINT ( 'NONE',  ( -105.0000000000000000, 20.00000000000000000, -8.000000000000000000 ) ) ;
#72 = CARTESIAN_POINT ( 'NONE',  ( -115.0000000000000000, 0.000000000000000000, 28.00000000000000000 ) ) ;
#73 = EDGE_CURVE ( 'NONE', #467, #31, #95, .T. ) ;
#74 = PLANE ( 'NONE',  #867 ) ;
#75 = EDGE_LOOP ( 'NONE', ( #742, #872, #327, #33, #340, #182, #624, #50, #799, #56, #881, #478 ) ) ;
#76 = CYLINDRICAL_SURFACE ( 'NONE', #637, 4.500000000000007105 ) ;
#77 = LINE ( 'NONE', #367, #222 ) ;
#78 = DIRECTION ( 'NONE',  ( 0.000000000000000000, 0.000000000000000000, -1.000000000000000000 ) ) ;
#79 = VECTOR ( 'NONE', #856, 1000.000000000000000 ) ;
#80 = EDGE_LOOP ( 'NONE', ( #377, #117 ) ) ;
#81 = ORIENTED_EDGE ( 'NONE', *, *, #319, .T. ) ;
#82 = EDGE_CURVE ( 'NONE', #770, #832, #317, .T. ) ;
#83 = DIRECTION ( 'NONE',  ( 1.000000000000000000, 0.000000000000000000, 0.000000000000000000 ) ) ;
#84 = CARTESIAN_POINT ( 'NONE',  ( 140.0000000000000000, 12.00000000000000000, -42.50000000000000000 ) ) ;
#85 = DIRECTION ( 'NONE',  ( 1.000000000000000000, 0.000000000000000000, 0.000000000000000000 ) ) ;
#86 = ADVANCED_FACE ( 'NONE', ( #273 ), #720, .F. ) ;
#87 = DIRECTION ( 'NONE',  ( -1.000000000000000000, -0.000000000000000000, -0.000000000000000000 ) ) ;
#88 = DIRECTION ( 'NONE',  ( 0.000000000000000000, 0.000000000000000000, 1.000000000000000000 ) ) ;
#89 = APPROVAL_STATUS ( 'not_yet_approved' ) ;
#90 = LINE ( 'NONE', #597, #169 ) ;
#91 = VECTOR ( 'NONE', #83, 1000.000000000000000 ) ;
#92 = VERTEX_POINT ( 'NONE', #126 ) ;
#93 = AXIS2_PLACEMENT_3D ( 'NONE', #255, #543, #529 ) ;
#94 = MECHANICAL_CONTEXT ( 'NONE', #385, 'mechanical' ) ;
#95 = LINE ( 'NONE', #387, #859 ) ;
#96 = EDGE_CURVE ( 'NONE', #920, #68, #287, .T. ) ;
#97 = ORIENTED_EDGE ( 'NONE', *, *, #150, .T. ) ;
#98 = CARTESIAN_POINT ( 'NONE',  ( 75.00000000000000000, 12.00000000000000000, -12.00000000000000000 ) ) ;
#99 = EDGE_CURVE ( 'NONE', #737, #68, #383, .T. ) ;
#100 = CC_DESIGN_PERSON_AND_ORGANIZATION_ASSIGNMENT ( #534, #312, ( #640 ) ) ;
#101 = APPROVAL_STATUS ( 'not_yet_approved' ) ;
#102 = VERTEX_POINT ( 'NONE', #570 ) ;
#103 = DIRECTION ( 'NONE',  ( 0.000000000000000000, 0.000000000000000000, -1.000000000000000000 ) ) ;
#104 = APPLICATION_PROTOCOL_DEFINITION ( 'international standard', 'config_control_design', 1994, #625 ) ;
#105 = CARTESIAN_POINT ( 'NONE',  ( -105.0000000000000000, 0.000000000000000000, -8.000000000000000000 ) ) ;
#106 = DIRECTION ( 'NONE',  ( 0.000000000000000000, -1.000000000000000000, 0.000000000000000000 ) ) ;
#107 = ORIENTED_EDGE ( 'NONE', *, *, #845, .T. ) ;
#108 = LINE ( 'NONE', #691, #29 ) ;
#109 = AXIS2_PLACEMENT_3D ( 'NONE', #801, #359, #217 ) ;
#110 = VECTOR ( 'NONE', #841, 1000.000000000000000 ) ;
#111 = CC_DESIGN_APPROVAL ( #355, ( #248 ) ) ;
#112 = VECTOR ( 'NONE', #542, 1000.000000000000000 ) ;
#113 = EDGE_CURVE ( 'NONE', #698, #920, #732, .T. ) ;
#114 = CARTESIAN_POINT ( 'NONE',  ( -105.0000000000000000, 20.00000000000000000, -8.000000000000000000 ) ) ;
#115 = DIRECTION ( 'NONE',  ( 1.000000000000000000, 0.000000000000000000, 0.000000000000000000 ) ) ;
#116 = PLANE ( 'NONE',  #131 ) ;
#117 = ORIENTED_EDGE ( 'NONE', *, *, #874, .F. ) ;
#118 = CARTESIAN_POINT ( 'NONE',  ( 115.0000000000000000, 12.00000000000000000, 32.50000000000000711 ) ) ;
#119 = ORIENTED_EDGE ( 'NONE', *, *, #272, .F. ) ;
#120 = ADVANCED_FACE ( 'NONE', ( #831 ), #751, .F. ) ;
#121 = SHAPE_DEFINITION_REPRESENTATION ( #292, #335 ) ;
#122 = CARTESIAN_POINT ( 'NONE',  ( 115.0000000000000000, 12.00000000000000000, -23.49999999999999645 ) ) ;
#123 = CARTESIAN_POINT ( 'NONE',  ( 115.0000000000000000, 12.00000000000000000, -23.49999999999999645 ) ) ;
#124 = VERTEX_POINT ( 'NONE', #618 ) ;
#125 = VERTEX_POINT ( 'NONE', #912 ) ;
#126 = CARTESIAN_POINT ( 'NONE',  ( -140.0000000000000000, 12.00000000000000000, 42.50000000000000000 ) ) ;
#127 = FACE_OUTER_BOUND ( 'NONE', #850, .T. ) ;
#128 = PLANE ( 'NONE',  #580 ) ;
#129 = CARTESIAN_POINT ( 'NONE',  ( 115.0000000000000000, 12.00000000000000000, -32.50000000000000711 ) ) ;
#130 = ORIENTED_EDGE ( 'NONE', *, *, #353, .T. ) ;
#131 = AXIS2_PLACEMENT_3D ( 'NONE', #208, #354, #491 ) ;
#132 = VECTOR ( 'NONE', #908, 1000.000000000000000 ) ;
#133 = DIRECTION ( 'NONE',  ( 0.000000000000000000, 0.000000000000000000, 1.000000000000000000 ) ) ;
#134 = AXIS2_PLACEMENT_3D ( 'NONE', #508, #152, #727 ) ;
#135 = CARTESIAN_POINT ( 'NONE',  ( -115.0000000000000000, 12.00000000000000000, -28.00000000000000000 ) ) ;
#136 = CARTESIAN_POINT ( 'NONE',  ( 115.0000000000000000, 12.00000000000000000, 28.00000000000000000 ) ) ;
#137 = CARTESIAN_POINT ( 'NONE',  ( -75.00000000000000000, 0.000000000000000000, 12.00000000000000000 ) ) ;
#138 = ORIENTED_EDGE ( 'NONE', *, *, #530, .T. ) ;
#139 = DIRECTION ( 'NONE',  ( -1.000000000000000000, 0.000000000000000000, 0.000000000000000000 ) ) ;
#140 = CARTESIAN_POINT ( 'NONE',  ( -140.0000000000000000, 12.00000000000000000, -42.50000000000000000 ) ) ;
#141 = ORIENTED_EDGE ( 'NONE', *, *, #2, .F. ) ;
#142 = DIRECTION ( 'NONE',  ( 0.000000000000000000, 0.000000000000000000, 1.000000000000000000 ) ) ;
#143 = CARTESIAN_POINT ( 'NONE',  ( 140.0000000000000000, 12.00000000000000000, 42.50000000000000000 ) ) ;
#144 = CIRCLE ( 'NONE', #884, 4.500000000000003553 ) ;
#145 = ORGANIZATION ( '未', '未', '' ) ;
#146 = CARTESIAN_POINT ( 'NONE',  ( 75.00000000000000000, 12.00000000000000000, -8.000000000000000000 ) ) ;
#147 = PLANE ( 'NONE',  #296 ) ;
#148 = CARTESIAN_POINT ( 'NONE',  ( -75.00000000000000000, 12.00000000000000000, 12.00000000000000000 ) ) ;
#149 = CC_DESIGN_PERSON_AND_ORGANIZATION_ASSIGNMENT ( #163, #376, ( #600 ) ) ;
#150 = EDGE_CURVE ( 'NONE', #472, #156, #198, .T. ) ;
#151 = CARTESIAN_POINT ( 'NONE',  ( 75.00000000000000000, 0.000000000000000000, 8.000000000000000000 ) ) ;
#152 = DIRECTION ( 'NONE',  ( 1.000000000000000000, -0.000000000000000000, 0.000000000000000000 ) ) ;
#153 = ORIENTED_EDGE ( 'NONE', *, *, #158, .F. ) ;
#154 = DIRECTION ( 'NONE',  ( 0.000000000000000000, 1.000000000000000000, 0.000000000000000000 ) ) ;
#155 = CARTESIAN_POINT ( 'NONE',  ( -105.0000000000000000, 20.00000000000000000, -8.000000000000000000 ) ) ;
#156 = VERTEX_POINT ( 'NONE', #98 ) ;
#157 = EDGE_CURVE ( 'NONE', #171, #102, #389, .T. ) ;
#158 = EDGE_CURVE ( 'NONE', #893, #836, #676, .T. ) ;
#159 = VECTOR ( 'NONE', #889, 1000.000000000000000 ) ;
#160 = DIRECTION ( 'NONE',  ( 0.000000000000000000, 0.000000000000000000, -1.000000000000000000 ) ) ;
#161 = DIRECTION ( 'NONE',  ( 0.000000000000000000, 0.000000000000000000, 1.000000000000000000 ) ) ;
#162 = VECTOR ( 'NONE', #755, 1000.000000000000000 ) ;
#163 = PERSON_AND_ORGANIZATION ( #843, #145 ) ;
#164 = LINE ( 'NONE', #447, #159 ) ;
#165 = ORIENTED_EDGE ( 'NONE', *, *, #814, .T. ) ;
#166 = CALENDAR_DATE ( 2026, 29, 7 ) ;
#167 = EDGE_CURVE ( 'NONE', #178, #893, #471, .T. ) ;
#168 = CARTESIAN_POINT ( 'NONE',  ( 115.0000000000000000, 0.000000000000000000, 32.50000000000000711 ) ) ;
#169 = VECTOR ( 'NONE', #894, 1000.000000000000000 ) ;
#170 = VECTOR ( 'NONE', #61, 1000.000000000000000 ) ;
#171 = VERTEX_POINT ( 'NONE', #757 ) ;
#172 = DIRECTION ( 'NONE',  ( -0.000000000000000000, -1.000000000000000000, -0.000000000000000000 ) ) ;
#173 = LOCAL_TIME ( 1, 13, 30.00000000000000000, #924 ) ;
#174 = CC_DESIGN_PERSON_AND_ORGANIZATION_ASSIGNMENT ( #241, #677, ( #437 ) ) ;
#175 = CIRCLE ( 'NONE', #280, 4.500000000000003553 ) ;
#176 = EDGE_CURVE ( 'NONE', #31, #750, #108, .T. ) ;
#177 = LINE ( 'NONE', #32, #492 ) ;
#178 = VERTEX_POINT ( 'NONE', #613 ) ;
#179 = DIRECTION ( 'NONE',  ( 0.000000000000000000, -0.000000000000000000, -1.000000000000000000 ) ) ;
#180 = ORIENTED_EDGE ( 'NONE', *, *, #684, .F. ) ;
#181 = APPROVAL_DATE_TIME ( #828, #425 ) ;
#182 = ORIENTED_EDGE ( 'NONE', *, *, #26, .F. ) ;
#183 = CARTESIAN_POINT ( 'NONE',  ( 0.000000000000000000, 0.000000000000000000, 0.000000000000000000 ) ) ;
#184 = ORIENTED_EDGE ( 'NONE', *, *, #561, .F. ) ;
#185 = CARTESIAN_POINT ( 'NONE',  ( -140.0000000000000000, 0.000000000000000000, -42.50000000000000000 ) ) ;
#186 = EDGE_CURVE ( 'NONE', #189, #349, #235, .T. ) ;
#187 = EDGE_LOOP ( 'NONE', ( #324, #336, #535, #687 ) ) ;
#188 = DIRECTION ( 'NONE',  ( 0.000000000000000000, -0.000000000000000000, -1.000000000000000000 ) ) ;
#189 = VERTEX_POINT ( 'NONE', #118 ) ;
#190 = CARTESIAN_POINT ( 'NONE',  ( -115.0000000000000000, 0.000000000000000000, 28.00000000000000000 ) ) ;
#191 = AXIS2_PLACEMENT_3D ( 'NONE', #71, #288, #361 ) ;
#192 = EDGE_CURVE ( 'NONE', #125, #102, #795, .T. ) ;
#193 = EDGE_LOOP ( 'NONE', ( #861, #897, #239, #630 ) ) ;
#194 = ORIENTED_EDGE ( 'NONE', *, *, #73, .T. ) ;
#195 = CARTESIAN_POINT ( 'NONE',  ( 0.000000000000000000, 12.00000000000000000, 8.000000000000000000 ) ) ;
#196 = LINE ( 'NONE', #215, #16 ) ;
#197 = ORIENTED_EDGE ( 'NONE', *, *, #271, .F. ) ;
#198 = LINE ( 'NONE', #395, #820 ) ;
#199 = ORIENTED_EDGE ( 'NONE', *, *, #346, .T. ) ;
#200 = CARTESIAN_POINT ( 'NONE',  ( 115.0000000000000000, 12.00000000000000000, 28.00000000000000000 ) ) ;
#201 = FACE_OUTER_BOUND ( 'NONE', #593, .T. ) ;
#202 = DIRECTION ( 'NONE',  ( 1.000000000000000000, 0.000000000000000000, -0.000000000000000000 ) ) ;
#203 = ORIENTED_EDGE ( 'NONE', *, *, #2, .T. ) ;
#204 = ORIENTED_EDGE ( 'NONE', *, *, #629, .T. ) ;
#205 = ADVANCED_FACE ( 'NONE', ( #405 ), #699, .F. ) ;
#206 = EDGE_CURVE ( 'NONE', #585, #227, #12, .T. ) ;
#207 = FACE_OUTER_BOUND ( 'NONE', #711, .T. ) ;
#208 = CARTESIAN_POINT ( 'NONE',  ( -140.0000000000000000, 12.00000000000000000, 42.50000000000000000 ) ) ;
#209 = ORIENTED_EDGE ( 'NONE', *, *, #692, .F. ) ;
#210 = CIRCLE ( 'NONE', #682, 4.500000000000007105 ) ;
#211 = CIRCLE ( 'NONE', #731, 4.500000000000007105 ) ;
#212 = CARTESIAN_POINT ( 'NONE',  ( -115.0000000000000000, 12.00000000000000000, -23.49999999999999645 ) ) ;
#213 = VERTEX_POINT ( 'NONE', #372 ) ;
#214 = CARTESIAN_POINT ( 'NONE',  ( -115.0000000000000000, 12.00000000000000000, -23.49999999999999645 ) ) ;
#215 = CARTESIAN_POINT ( 'NONE',  ( -140.0000000000000000, 0.000000000000000000, 42.50000000000000000 ) ) ;
#216 = CARTESIAN_POINT ( 'NONE',  ( 0.000000000000000000, 12.00000000000000000, -8.000000000000000000 ) ) ;
#217 = DIRECTION ( 'NONE',  ( 0.000000000000000000, 0.000000000000000000, 1.000000000000000000 ) ) ;
#218 = AXIS2_PLACEMENT_3D ( 'NONE', #869, #582, #880 ) ;
#219 = VECTOR ( 'NONE', #330, 1000.000000000000000 ) ;
#220 = DIRECTION ( 'NONE',  ( 0.000000000000000000, 0.000000000000000000, 1.000000000000000000 ) ) ;
#221 = DIRECTION ( 'NONE',  ( -0.000000000000000000, -1.000000000000000000, -0.000000000000000000 ) ) ;
#222 = VECTOR ( 'NONE', #876, 1000.000000000000000 ) ;
#223 = DIRECTION ( 'NONE',  ( 0.000000000000000000, 1.000000000000000000, 0.000000000000000000 ) ) ;
#224 = CARTESIAN_POINT ( 'NONE',  ( 140.0000000000000000, 12.00000000000000000, -42.50000000000000000 ) ) ;
#225 = LINE ( 'NONE', #591, #444 ) ;
#226 = ORIENTED_EDGE ( 'NONE', *, *, #646, .F. ) ;
#227 = VERTEX_POINT ( 'NONE', #84 ) ;
#228 = DIRECTION ( 'NONE',  ( 0.000000000000000000, 0.000000000000000000, 1.000000000000000000 ) ) ;
#229 = DIRECTION ( 'NONE',  ( -0.000000000000000000, -1.000000000000000000, -0.000000000000000000 ) ) ;
#230 = DIRECTION ( 'NONE',  ( -0.000000000000000000, -1.000000000000000000, -0.000000000000000000 ) ) ;
#231 = AXIS2_PLACEMENT_3D ( 'NONE', #274, #568, #497 ) ;
#232 = DATE_AND_TIME ( #459, #567 ) ;
#233 =( GEOMETRIC_REPRESENTATION_CONTEXT ( 3 ) GLOBAL_UNCERTAINTY_ASSIGNED_CONTEXT ( ( #886 ) ) GLOBAL_UNIT_ASSIGNED_CONTEXT ( ( #685, #663, #896 ) ) REPRESENTATION_CONTEXT ( 'NONE', 'WORKASPACE' ) );
#234 = CARTESIAN_POINT ( 'NONE',  ( -75.00000000000000000, 0.000000000000000000, 12.00000000000000000 ) ) ;
#235 = CIRCLE ( 'NONE', #418, 4.500000000000007105 ) ;
#236 = ORIENTED_EDGE ( 'NONE', *, *, #167, .F. ) ;
#237 = PERSON_AND_ORGANIZATION_ROLE ( 'classification_officer' ) ;
#238 = CARTESIAN_POINT ( 'NONE',  ( -75.00000000000000000, 12.00000000000000000, 12.00000000000000000 ) ) ;
#239 = ORIENTED_EDGE ( 'NONE', *, *, #256, .T. ) ;
#240 = EDGE_CURVE ( 'NONE', #171, #551, #210, .T. ) ;
#241 = PERSON_AND_ORGANIZATION ( #843, #145 ) ;
#242 = CARTESIAN_POINT ( 'NONE',  ( -105.0000000000000000, 12.00000000000000000, -8.000000000000000000 ) ) ;
#243 = ORIENTED_EDGE ( 'NONE', *, *, #53, .F. ) ;
#244 = ORIENTED_EDGE ( 'NONE', *, *, #786, .F. ) ;
#245 = DATE_TIME_ROLE ( 'creation_date' ) ;
#246 = ORIENTED_EDGE ( 'NONE', *, *, #285, .F. ) ;
#247 = FACE_OUTER_BOUND ( 'NONE', #829, .T. ) ;
#248 = SECURITY_CLASSIFICATION ( '', '', #888 ) ;
#249 = DIRECTION ( 'NONE',  ( 0.000000000000000000, 0.000000000000000000, 1.000000000000000000 ) ) ;
#250 = ORIENTED_EDGE ( 'NONE', *, *, #192, .F. ) ;
#251 = CARTESIAN_POINT ( 'NONE',  ( -140.0000000000000000, 12.00000000000000000, 42.50000000000000000 ) ) ;
#252 = EDGE_CURVE ( 'NONE', #270, #213, #225, .T. ) ;
#253 = ORIENTED_EDGE ( 'NONE', *, *, #365, .T. ) ;
#254 = CARTESIAN_POINT ( 'NONE',  ( -115.0000000000000000, 12.00000000000000000, 23.49999999999999645 ) ) ;
#255 = CARTESIAN_POINT ( 'NONE',  ( 115.0000000000000000, 0.000000000000000000, 28.00000000000000000 ) ) ;
#256 = EDGE_CURVE ( 'NONE', #349, #314, #661, .T. ) ;
#257 = LINE ( 'NONE', #332, #655 ) ;
#258 = ORIENTED_EDGE ( 'NONE', *, *, #496, .T. ) ;
#259 = CARTESIAN_POINT ( 'NONE',  ( 115.0000000000000000, 12.00000000000000000, 28.00000000000000000 ) ) ;
#260 = LINE ( 'NONE', #748, #162 ) ;
#261 = CARTESIAN_POINT ( 'NONE',  ( 115.0000000000000000, 0.000000000000000000, -28.00000000000000000 ) ) ;
#262 = CARTESIAN_POINT ( 'NONE',  ( 105.0000000000000000, 12.00000000000000000, -8.000000000000000000 ) ) ;
#263 = AXIS2_PLACEMENT_3D ( 'NONE', #183, #106, #179 ) ;
#264 = EDGE_LOOP ( 'NONE', ( #803, #781, #658, #735 ) ) ;
#265 = ORIENTED_EDGE ( 'NONE', *, *, #24, .F. ) ;
#266 = CC_DESIGN_APPROVAL ( #480, ( #600 ) ) ;
#267 = CYLINDRICAL_SURFACE ( 'NONE', #805, 4.500000000000003553 ) ;
#268 = LINE ( 'NONE', #137, #707 ) ;
#269 = ORIENTED_EDGE ( 'NONE', *, *, #659, .T. ) ;
#270 = VERTEX_POINT ( 'NONE', #234 ) ;
#271 = EDGE_CURVE ( 'NONE', #331, #213, #809, .T. ) ;
#272 = EDGE_CURVE ( 'NONE', #716, #595, #915, .T. ) ;
#273 = FACE_OUTER_BOUND ( 'NONE', #555, .T. ) ;
#274 = CARTESIAN_POINT ( 'NONE',  ( -115.0000000000000000, 12.00000000000000000, -28.00000000000000000 ) ) ;
#275 = DIRECTION ( 'NONE',  ( -0.000000000000000000, -1.000000000000000000, -0.000000000000000000 ) ) ;
#276 = ORIENTED_EDGE ( 'NONE', *, *, #157, .F. ) ;
#277 = LINE ( 'NONE', #66, #58 ) ;
#278 = FACE_OUTER_BOUND ( 'NONE', #449, .T. ) ;
#279 = ORIENTED_EDGE ( 'NONE', *, *, #346, .F. ) ;
#280 = AXIS2_PLACEMENT_3D ( 'NONE', #261, #469, #898 ) ;
#281 = VECTOR ( 'NONE', #575, 1000.000000000000000 ) ;
#282 = DIRECTION ( 'NONE',  ( 0.000000000000000000, 0.000000000000000000, -1.000000000000000000 ) ) ;
#283 = CARTESIAN_POINT ( 'NONE',  ( -105.0000000000000000, 20.00000000000000000, 8.000000000000000000 ) ) ;
#284 = FACE_OUTER_BOUND ( 'NONE', #740, .T. ) ;
#285 = EDGE_CURVE ( 'NONE', #585, #178, #164, .T. ) ;
#286 = ORIENTED_EDGE ( 'NONE', *, *, #790, .T. ) ;
#287 = LINE ( 'NONE', #702, #5 ) ;
#288 = DIRECTION ( 'NONE',  ( 0.000000000000000000, 0.000000000000000000, 1.000000000000000000 ) ) ;
#289 = LINE ( 'NONE', #866, #91 ) ;
#290 = ADVANCED_FACE ( 'NONE', ( #454 ), #74, .T. ) ;
#291 = ORIENTED_EDGE ( 'NONE', *, *, #353, .F. ) ;
#292 = PRODUCT_DEFINITION_SHAPE ( 'NONE', 'NONE',  #600 ) ;
#293 = CARTESIAN_POINT ( 'NONE',  ( 105.0000000000000000, 12.00000000000000000, 8.000000000000000000 ) ) ;
#294 = EDGE_LOOP ( 'NONE', ( #460, #184, #664, #509 ) ) ;
#295 = VECTOR ( 'NONE', #674, 1000.000000000000000 ) ;
#296 = AXIS2_PLACEMENT_3D ( 'NONE', #298, #648, #78 ) ;
#297 = AXIS2_PLACEMENT_3D ( 'NONE', #754, #249, #453 ) ;
#298 = CARTESIAN_POINT ( 'NONE',  ( -75.00000000000000000, 12.00000000000000000, 12.00000000000000000 ) ) ;
#299 = LINE ( 'NONE', #155, #505 ) ;
#300 = ADVANCED_FACE ( 'NONE', ( #308 ), #577, .F. ) ;
#301 = PLANE ( 'NONE',  #759 ) ;
#302 = ORIENTED_EDGE ( 'NONE', *, *, #574, .T. ) ;
#303 = LINE ( 'NONE', #224, #416 ) ;
#304 = CARTESIAN_POINT ( 'NONE',  ( -115.0000000000000000, 12.00000000000000000, 28.00000000000000000 ) ) ;
#305 = ORIENTED_EDGE ( 'NONE', *, *, #285, .T. ) ;
#306 = CIRCLE ( 'NONE', #604, 4.500000000000003553 ) ;
#307 = CALENDAR_DATE ( 2026, 29, 7 ) ;
#308 = FACE_OUTER_BOUND ( 'NONE', #607, .T. ) ;
#309 = AXIS2_PLACEMENT_3D ( 'NONE', #200, #490, #642 ) ;
#310 = ORIENTED_EDGE ( 'NONE', *, *, #790, .F. ) ;
#311 = EDGE_CURVE ( 'NONE', #156, #57, #77, .T. ) ;
#312 = PERSON_AND_ORGANIZATION_ROLE ( 'design_supplier' ) ;
#313 = EDGE_CURVE ( 'NONE', #331, #541, #652, .T. ) ;
#314 = VERTEX_POINT ( 'NONE', #802 ) ;
#315 = ORIENTED_EDGE ( 'NONE', *, *, #358, .T. ) ;
#316 = EDGE_LOOP ( 'NONE', ( #785, #552, #226, #895 ) ) ;
#317 = LINE ( 'NONE', #601, #495 ) ;
#318 = CARTESIAN_POINT ( 'NONE',  ( -75.00000000000000000, 12.00000000000000000, 8.000000000000000000 ) ) ;
#319 = EDGE_CURVE ( 'NONE', #43, #31, #299, .T. ) ;
#320 = CALENDAR_DATE ( 2026, 29, 7 ) ;
#321 = CARTESIAN_POINT ( 'NONE',  ( -115.0000000000000000, 12.00000000000000000, 32.50000000000000711 ) ) ;
#322 = FACE_OUTER_BOUND ( 'NONE', #556, .T. ) ;
#323 = VECTOR ( 'NONE', #49, 1000.000000000000000 ) ;
#324 = ORIENTED_EDGE ( 'NONE', *, *, #506, .T. ) ;
#325 = EDGE_CURVE ( 'NONE', #451, #770, #812, .T. ) ;
#326 = PERSON_AND_ORGANIZATION_ROLE ( 'creator' ) ;
#327 = ORIENTED_EDGE ( 'NONE', *, *, #424, .F. ) ;
#328 = CARTESIAN_POINT ( 'NONE',  ( 75.00000000000000000, 12.00000000000000000, 12.00000000000000000 ) ) ;
#329 = VERTEX_POINT ( 'NONE', #443 ) ;
#330 = DIRECTION ( 'NONE',  ( -0.000000000000000000, -1.000000000000000000, -0.000000000000000000 ) ) ;
#331 = VERTEX_POINT ( 'NONE', #448 ) ;
#332 = CARTESIAN_POINT ( 'NONE',  ( -75.00000000000000000, 12.00000000000000000, -12.00000000000000000 ) ) ;
#333 = DIRECTION ( 'NONE',  ( 0.000000000000000000, 0.000000000000000000, 1.000000000000000000 ) ) ;
#334 = ORIENTED_EDGE ( 'NONE', *, *, #599, .T. ) ;
#335 = ADVANCED_BREP_SHAPE_REPRESENTATION ( 'MKH-015_cable_bracket', ( #762, #297 ), #233 ) ;
#336 = ORIENTED_EDGE ( 'NONE', *, *, #533, .T. ) ;
#337 = LINE ( 'NONE', #122, #345 ) ;
#338 = PLANE ( 'NONE',  #620 ) ;
#339 = VECTOR ( 'NONE', #442, 1000.000000000000000 ) ;
#340 = ORIENTED_EDGE ( 'NONE', *, *, #530, .F. ) ;
#341 = AXIS2_PLACEMENT_3D ( 'NONE', #793, #510, #228 ) ;
#342 = ADVANCED_FACE ( 'NONE', ( #669 ), #662, .F. ) ;
#343 = EDGE_LOOP ( 'NONE', ( #579, #315, #823, #668, #302, #165, #310, #130 ) ) ;
#344 = AXIS2_PLACEMENT_3D ( 'NONE', #190, #476, #765 ) ;
#345 = VECTOR ( 'NONE', #756, 1000.000000000000000 ) ;
#346 = EDGE_CURVE ( 'NONE', #619, #472, #511, .T. ) ;
#347 = CARTESIAN_POINT ( 'NONE',  ( 75.00000000000000000, 12.00000000000000000, 8.000000000000000000 ) ) ;
#348 = CARTESIAN_POINT ( 'NONE',  ( 75.00000000000000000, 12.00000000000000000, 12.00000000000000000 ) ) ;
#349 = VERTEX_POINT ( 'NONE', #741 ) ;
#350 = CARTESIAN_POINT ( 'NONE',  ( -140.0000000000000000, 12.00000000000000000, 42.50000000000000000 ) ) ;
#351 = LINE ( 'NONE', #633, #323 ) ;
#352 = ORIENTED_EDGE ( 'NONE', *, *, #96, .T. ) ;
#353 = EDGE_CURVE ( 'NONE', #329, #813, #90, .T. ) ;
#354 = DIRECTION ( 'NONE',  ( 0.000000000000000000, 0.000000000000000000, -1.000000000000000000 ) ) ;
#355 = APPROVAL ( #101, '未' ) ;
#356 = ORIENTED_EDGE ( 'NONE', *, *, #424, .T. ) ;
#357 = CARTESIAN_POINT ( 'NONE',  ( 115.0000000000000000, 12.00000000000000000, -28.00000000000000000 ) ) ;
#358 = EDGE_CURVE ( 'NONE', #541, #826, #730, .T. ) ;
#359 = DIRECTION ( 'NONE',  ( 0.000000000000000000, 1.000000000000000000, 0.000000000000000000 ) ) ;
#360 = ORIENTED_EDGE ( 'NONE', *, *, #845, .F. ) ;
#361 = DIRECTION ( 'NONE',  ( 1.000000000000000000, 0.000000000000000000, -0.000000000000000000 ) ) ;
#362 = DIRECTION ( 'NONE',  ( 0.000000000000000000, 0.000000000000000000, 1.000000000000000000 ) ) ;
#363 = DIRECTION ( 'NONE',  ( 0.000000000000000000, 0.000000000000000000, -1.000000000000000000 ) ) ;
#364 = ORIENTED_EDGE ( 'NONE', *, *, #176, .T. ) ;
#365 = EDGE_CURVE ( 'NONE', #923, #124, #175, .T. ) ;
#366 = LINE ( 'NONE', #657, #722 ) ;
#367 = CARTESIAN_POINT ( 'NONE',  ( 75.00000000000000000, 12.00000000000000000, -12.00000000000000000 ) ) ;
#368 = ADVANCED_FACE ( 'NONE', ( #127 ), #703, .T. ) ;
#369 = CIRCLE ( 'NONE', #855, 4.500000000000003553 ) ;
#370 = VECTOR ( 'NONE', #221, 1000.000000000000000 ) ;
#371 = CARTESIAN_POINT ( 'NONE',  ( -115.0000000000000000, 12.00000000000000000, 28.00000000000000000 ) ) ;
#372 = CARTESIAN_POINT ( 'NONE',  ( 75.00000000000000000, 0.000000000000000000, 12.00000000000000000 ) ) ;
#373 = DIRECTION ( 'NONE',  ( -0.000000000000000000, -1.000000000000000000, -0.000000000000000000 ) ) ;
#374 = DIRECTION ( 'NONE',  ( -0.000000000000000000, -1.000000000000000000, -0.000000000000000000 ) ) ;
#375 = ORIENTED_EDGE ( 'NONE', *, *, #24, .T. ) ;
#376 = PERSON_AND_ORGANIZATION_ROLE ( 'creator' ) ;
#377 = ORIENTED_EDGE ( 'NONE', *, *, #240, .F. ) ;
#378 = CC_DESIGN_DATE_AND_TIME_ASSIGNMENT ( #666, #245, ( #600 ) ) ;
#379 = AXIS2_PLACEMENT_3D ( 'NONE', #348, #768, #627 ) ;
#380 = APPROVAL_ROLE ( '' ) ;
#381 = AXIS2_PLACEMENT_3D ( 'NONE', #51, #374, #522 ) ;
#382 = ORIENTED_EDGE ( 'NONE', *, *, #800, .F. ) ;
#383 = CIRCLE ( 'NONE', #838, 4.500000000000003553 ) ;
#384 = ORIENTED_EDGE ( 'NONE', *, *, #899, .F. ) ;
#385 = APPLICATION_CONTEXT ( 'configuration controlled 3d designs of mechanical parts and assemblies' ) ;
#386 = APPROVAL_DATE_TIME ( #232, #480 ) ;
#387 = CARTESIAN_POINT ( 'NONE',  ( 0.000000000000000000, 12.00000000000000000, -8.000000000000000000 ) ) ;
#388 = ORIENTED_EDGE ( 'NONE', *, *, #313, .T. ) ;
#389 = LINE ( 'NONE', #254, #219 ) ;
#390 = APPROVAL_ROLE ( '' ) ;
#391 = DIRECTION ( 'NONE',  ( -1.000000000000000000, -0.000000000000000000, -0.000000000000000000 ) ) ;
#392 = ADVANCED_FACE ( 'NONE', ( #201 ), #267, .F. ) ;
#393 = LINE ( 'NONE', #251, #873 ) ;
#394 = EDGE_LOOP ( 'NONE', ( #592, #203, #705, #269 ) ) ;
#395 = CARTESIAN_POINT ( 'NONE',  ( 75.00000000000000000, 12.00000000000000000, 12.00000000000000000 ) ) ;
#396 = ORIENTED_EDGE ( 'NONE', *, *, #827, .T. ) ;
#397 = DIRECTION ( 'NONE',  ( -1.000000000000000000, 0.000000000000000000, 0.000000000000000000 ) ) ;
#398 = VECTOR ( 'NONE', #479, 1000.000000000000000 ) ;
#399 = EDGE_LOOP ( 'NONE', ( #291, #41, #411, #719 ) ) ;
#400 = APPROVAL_PERSON_ORGANIZATION ( #605, #480, #380 ) ;
#401 = CARTESIAN_POINT ( 'NONE',  ( 115.0000000000000000, 12.00000000000000000, -32.50000000000000711 ) ) ;
#402 = CARTESIAN_POINT ( 'NONE',  ( -105.0000000000000000, 20.00000000000000000, 8.000000000000000000 ) ) ;
#403 = LINE ( 'NONE', #140, #665 ) ;
#404 = ORIENTED_EDGE ( 'NONE', *, *, #710, .F. ) ;
#405 = FACE_OUTER_BOUND ( 'NONE', #193, .T. ) ;
#406 = EDGE_LOOP ( 'NONE', ( #388, #539, #919, #197 ) ) ;
#407 = EDGE_CURVE ( 'NONE', #716, #124, #337, .T. ) ;
#408 = DIRECTION ( 'NONE',  ( 1.000000000000000000, 0.000000000000000000, -0.000000000000000000 ) ) ;
#409 = FACE_OUTER_BOUND ( 'NONE', #316, .T. ) ;
#410 = VERTEX_POINT ( 'NONE', #35 ) ;
#411 = ORIENTED_EDGE ( 'NONE', *, *, #252, .T. ) ;
#412 = DIRECTION ( 'NONE',  ( -0.000000000000000000, -1.000000000000000000, -0.000000000000000000 ) ) ;
#413 = LINE ( 'NONE', #3, #473 ) ;
#414 = PLANE ( 'NONE',  #379 ) ;
#415 = VECTOR ( 'NONE', #846, 1000.000000000000000 ) ;
#416 = VECTOR ( 'NONE', #431, 1000.000000000000000 ) ;
#417 = EDGE_LOOP ( 'NONE', ( #9, #468 ) ) ;
#418 = AXIS2_PLACEMENT_3D ( 'NONE', #259, #546, #835 ) ;
#419 = VECTOR ( 'NONE', #229, 1000.000000000000000 ) ;
#420 = DIRECTION ( 'NONE',  ( 0.000000000000000000, 1.000000000000000000, 0.000000000000000000 ) ) ;
#421 = DIRECTION ( 'NONE',  ( 0.000000000000000000, 1.000000000000000000, 0.000000000000000000 ) ) ;
#422 = CARTESIAN_POINT ( 'NONE',  ( -75.00000000000000000, 0.000000000000000000, -8.000000000000000000 ) ) ;
#423 = VERTEX_POINT ( 'NONE', #318 ) ;
#424 = EDGE_CURVE ( 'NONE', #156, #456, #257, .T. ) ;
#425 = APPROVAL ( #590, '未' ) ;
#426 = LINE ( 'NONE', #868, #683 ) ;
#427 = CARTESIAN_POINT ( 'NONE',  ( -75.00000000000000000, 12.00000000000000000, -8.000000000000000000 ) ) ;
#428 = ORIENTED_EDGE ( 'NONE', *, *, #157, .T. ) ;
#429 = ADVANCED_FACE ( 'NONE', ( #909, #688, #549, #602, #247, #536, #824 ), #474, .T. ) ;
#430 = CARTESIAN_POINT ( 'NONE',  ( -140.0000000000000000, 0.000000000000000000, 42.50000000000000000 ) ) ;
#431 = DIRECTION ( 'NONE',  ( -0.000000000000000000, -1.000000000000000000, -0.000000000000000000 ) ) ;
#432 = EDGE_LOOP ( 'NONE', ( #461, #119 ) ) ;
#433 = LOCAL_TIME ( 1, 13, 30.00000000000000000, #811 ) ;
#434 = AXIS2_PLACEMENT_3D ( 'NONE', #135, #420, #631 ) ;
#435 = DIRECTION ( 'NONE',  ( 0.000000000000000000, 0.000000000000000000, -1.000000000000000000 ) ) ;
#436 = CARTESIAN_POINT ( 'NONE',  ( 140.0000000000000000, 0.000000000000000000, -42.50000000000000000 ) ) ;
#437 = PRODUCT ( 'MKH-015_cable_bracket', 'MKH-015_cable_bracket', '', ( #94 ) ) ;
#438 = EDGE_CURVE ( 'NONE', #57, #62, #486, .T. ) ;
#439 = DIRECTION ( 'NONE',  ( 0.000000000000000000, 0.000000000000000000, -1.000000000000000000 ) ) ;
#440 = ADVANCED_FACE ( 'NONE', ( #466 ), #761, .T. ) ;
#441 = DIRECTION ( 'NONE',  ( 0.000000000000000000, 0.000000000000000000, -1.000000000000000000 ) ) ;
#442 = DIRECTION ( 'NONE',  ( -0.000000000000000000, -1.000000000000000000, -0.000000000000000000 ) ) ;
#443 = CARTESIAN_POINT ( 'NONE',  ( -75.00000000000000000, 0.000000000000000000, 8.000000000000000000 ) ) ;
#444 = VECTOR ( 'NONE', #584, 1000.000000000000000 ) ;
#445 = AXIS2_PLACEMENT_3D ( 'NONE', #371, #504, #588 ) ;
#446 = PLANE ( 'NONE',  #341 ) ;
#447 = CARTESIAN_POINT ( 'NONE',  ( 140.0000000000000000, 12.00000000000000000, 42.50000000000000000 ) ) ;
#448 = CARTESIAN_POINT ( 'NONE',  ( 75.00000000000000000, 12.00000000000000000, 12.00000000000000000 ) ) ;
#449 = EDGE_LOOP ( 'NONE', ( #612, #528, #834, #603 ) ) ;
#450 = EDGE_CURVE ( 'NONE', #92, #585, #393, .T. ) ;
#451 = VERTEX_POINT ( 'NONE', #402 ) ;
#452 = ADVANCED_FACE ( 'NONE', ( #621, #679, #40, #917, #322, #833 ), #540, .F. ) ;
#453 = DIRECTION ( 'NONE',  ( 1.000000000000000000, 0.000000000000000000, 0.000000000000000000 ) ) ;
#454 = FACE_OUTER_BOUND ( 'NONE', #294, .T. ) ;
#455 = CARTESIAN_POINT ( 'NONE',  ( -105.0000000000000000, 20.00000000000000000, 8.000000000000000000 ) ) ;
#456 = VERTEX_POINT ( 'NONE', #696 ) ;
#457 = VECTOR ( 'NONE', #17, 1000.000000000000000 ) ;
#458 = VECTOR ( 'NONE', #139, 1000.000000000000000 ) ;
#459 = CALENDAR_DATE ( 2026, 29, 7 ) ;
#460 = ORIENTED_EDGE ( 'NONE', *, *, #252, .F. ) ;
#461 = ORIENTED_EDGE ( 'NONE', *, *, #615, .F. ) ;
#462 = DIRECTION ( 'NONE',  ( 0.000000000000000000, 0.000000000000000000, -1.000000000000000000 ) ) ;
#463 = EDGE_CURVE ( 'NONE', #770, #826, #48, .T. ) ;
#464 = DATE_TIME_ROLE ( 'classification_date' ) ;
#465 = EDGE_LOOP ( 'NONE', ( #614, #598, #680, #243 ) ) ;
#466 = FACE_OUTER_BOUND ( 'NONE', #885, .T. ) ;
#467 = VERTEX_POINT ( 'NONE', #792 ) ;
#468 = ORIENTED_EDGE ( 'NONE', *, *, #186, .F. ) ;
#469 = DIRECTION ( 'NONE',  ( 0.000000000000000000, 1.000000000000000000, 0.000000000000000000 ) ) ;
#470 = EDGE_LOOP ( 'NONE', ( #6, #375, #566, #276 ) ) ;
#471 = LINE ( 'NONE', #37, #641 ) ;
#472 = VERTEX_POINT ( 'NONE', #146 ) ;
#473 = VECTOR ( 'NONE', #708, 1000.000000000000000 ) ;
#474 = PLANE ( 'NONE',  #263 ) ;
#475 = ORIENTED_EDGE ( 'NONE', *, *, #407, .F. ) ;
#476 = DIRECTION ( 'NONE',  ( 0.000000000000000000, 1.000000000000000000, 0.000000000000000000 ) ) ;
#477 = CIRCLE ( 'NONE', #93, 4.500000000000007105 ) ;
#478 = ORIENTED_EDGE ( 'NONE', *, *, #176, .F. ) ;
#479 = DIRECTION ( 'NONE',  ( 1.000000000000000000, 0.000000000000000000, 0.000000000000000000 ) ) ;
#480 = APPROVAL ( #89, '未' ) ;
#481 = ORIENTED_EDGE ( 'NONE', *, *, #113, .T. ) ;
#482 = ORIENTED_EDGE ( 'NONE', *, *, #561, .T. ) ;
#483 = EDGE_CURVE ( 'NONE', #314, #28, #900, .T. ) ;
#484 = CLOSED_SHELL ( 'NONE', ( #913, #120, #86, #860, #452, #368, #647, #775, #864, #429, #771, #628, #300, #753, #392, #205, #516, #743, #440, #290, #825, #493, #523, #342, #752 ) ) ;
#485 = CALENDAR_DATE ( 2026, 29, 7 ) ;
#486 = LINE ( 'NONE', #840, #21 ) ;
#487 = CARTESIAN_POINT ( 'NONE',  ( -140.0000000000000000, 12.00000000000000000, -42.50000000000000000 ) ) ;
#488 = ORIENTED_EDGE ( 'NONE', *, *, #438, .F. ) ;
#489 = APPROVAL_DATE_TIME ( #693, #355 ) ;
#490 = DIRECTION ( 'NONE',  ( -0.000000000000000000, -1.000000000000000000, -0.000000000000000000 ) ) ;
#491 = DIRECTION ( 'NONE',  ( -1.000000000000000000, 0.000000000000000000, -0.000000000000000000 ) ) ;
#492 = VECTOR ( 'NONE', #87, 1000.000000000000000 ) ;
#493 = ADVANCED_FACE ( 'NONE', ( #717 ), #723, .F. ) ;
#494 = EDGE_LOOP ( 'NONE', ( #81, #364, #764, #180 ) ) ;
#495 = VECTOR ( 'NONE', #282, 1000.000000000000000 ) ;
#496 = EDGE_CURVE ( 'NONE', #906, #178, #643, .T. ) ;
#497 = DIRECTION ( 'NONE',  ( 0.000000000000000000, 0.000000000000000000, -1.000000000000000000 ) ) ;
#498 = FACE_OUTER_BOUND ( 'NONE', #560, .T. ) ;
#499 = ORIENTED_EDGE ( 'NONE', *, *, #587, .T. ) ;
#500 = DIRECTION ( 'NONE',  ( -0.000000000000000000, -0.000000000000000000, 1.000000000000000000 ) ) ;
#501 = FACE_OUTER_BOUND ( 'NONE', #524, .T. ) ;
#502 = ORIENTED_EDGE ( 'NONE', *, *, #206, .F. ) ;
#503 = LINE ( 'NONE', #214, #281 ) ;
#504 = DIRECTION ( 'NONE',  ( -0.000000000000000000, -1.000000000000000000, -0.000000000000000000 ) ) ;
#505 = VECTOR ( 'NONE', #230, 1000.000000000000000 ) ;
#506 = EDGE_CURVE ( 'NONE', #920, #698, #369, .T. ) ;
#507 = CARTESIAN_POINT ( 'NONE',  ( -140.0000000000000000, 0.000000000000000000, 42.50000000000000000 ) ) ;
#508 = CARTESIAN_POINT ( 'NONE',  ( -140.0000000000000000, 12.00000000000000000, 42.50000000000000000 ) ) ;
#509 = ORIENTED_EDGE ( 'NONE', *, *, #271, .T. ) ;
#510 = DIRECTION ( 'NONE',  ( -1.000000000000000000, 0.000000000000000000, 0.000000000000000000 ) ) ;
#511 = LINE ( 'NONE', #527, #578 ) ;
#512 = CARTESIAN_POINT ( 'NONE',  ( 105.0000000000000000, 20.00000000000000000, -8.000000000000000000 ) ) ;
#513 = CARTESIAN_POINT ( 'NONE',  ( 115.0000000000000000, 12.00000000000000000, -28.00000000000000000 ) ) ;
#514 = DIRECTION ( 'NONE',  ( 0.000000000000000000, 0.000000000000000000, -1.000000000000000000 ) ) ;
#515 = ORIENTED_EDGE ( 'NONE', *, *, #450, .F. ) ;
#516 = ADVANCED_FACE ( 'NONE', ( #207 ), #921, .F. ) ;
#517 = VECTOR ( 'NONE', #85, 1000.000000000000000 ) ;
#518 = VECTOR ( 'NONE', #773, 1000.000000000000000 ) ;
#519 = CC_DESIGN_DATE_AND_TIME_ASSIGNMENT ( #594, #464, ( #248 ) ) ;
#520 = AXIS2_PLACEMENT_3D ( 'NONE', #608, #172, #103 ) ;
#521 = COORDINATED_UNIVERSAL_TIME_OFFSET ( 8, 0, .AHEAD. ) ;
#522 = DIRECTION ( 'NONE',  ( 0.000000000000000000, 0.000000000000000000, -1.000000000000000000 ) ) ;
#523 = ADVANCED_FACE ( 'NONE', ( #10 ), #926, .F. ) ;
#524 = EDGE_LOOP ( 'NONE', ( #817, #286, #334, #482 ) ) ;
#525 = APPROVAL_ROLE ( '' ) ;
#526 = CARTESIAN_POINT ( 'NONE',  ( 75.00000000000000000, 12.00000000000000000, 12.00000000000000000 ) ) ;
#527 = CARTESIAN_POINT ( 'NONE',  ( 75.00000000000000000, 12.00000000000000000, -8.000000000000000000 ) ) ;
#528 = ORIENTED_EDGE ( 'NONE', *, *, #925, .T. ) ;
#529 = DIRECTION ( 'NONE',  ( 0.000000000000000000, 0.000000000000000000, 1.000000000000000000 ) ) ;
#530 = EDGE_CURVE ( 'NONE', #690, #472, #865, .T. ) ;
#531 = VECTOR ( 'NONE', #783, 1000.000000000000000 ) ;
#532 = CIRCLE ( 'NONE', #870, 4.500000000000007105 ) ;
#533 = EDGE_CURVE ( 'NONE', #698, #737, #503, .T. ) ;
#534 = PERSON_AND_ORGANIZATION ( #843, #145 ) ;
#535 = ORIENTED_EDGE ( 'NONE', *, *, #611, .F. ) ;
#536 = FACE_BOUND ( 'NONE', #45, .T. ) ;
#537 = AXIS2_PLACEMENT_3D ( 'NONE', #610, #905, #188 ) ;
#538 = ORIENTED_EDGE ( 'NONE', *, *, #656, .T. ) ;
#539 = ORIENTED_EDGE ( 'NONE', *, *, #573, .T. ) ;
#540 = PLANE ( 'NONE',  #537 ) ;
#541 = VERTEX_POINT ( 'NONE', #347 ) ;
#542 = DIRECTION ( 'NONE',  ( -1.000000000000000000, -0.000000000000000000, -0.000000000000000000 ) ) ;
#543 = DIRECTION ( 'NONE',  ( 0.000000000000000000, 1.000000000000000000, 0.000000000000000000 ) ) ;
#544 = DIRECTION ( 'NONE',  ( -1.000000000000000000, -0.000000000000000000, -0.000000000000000000 ) ) ;
#545 = ORIENTED_EDGE ( 'NONE', *, *, #53, .T. ) ;
#546 = DIRECTION ( 'NONE',  ( 0.000000000000000000, 1.000000000000000000, 0.000000000000000000 ) ) ;
#547 = CARTESIAN_POINT ( 'NONE',  ( 75.00000000000000000, 0.000000000000000000, -12.00000000000000000 ) ) ;
#548 = VECTOR ( 'NONE', #694, 1000.000000000000000 ) ;
#549 = FACE_BOUND ( 'NONE', #634, .T. ) ;
#550 = LINE ( 'NONE', #427, #110 ) ;
#551 = VERTEX_POINT ( 'NONE', #779 ) ;
#552 = ORIENTED_EDGE ( 'NONE', *, *, #656, .F. ) ;
#553 = CARTESIAN_POINT ( 'NONE',  ( 105.0000000000000000, 20.00000000000000000, 8.000000000000000000 ) ) ;
#554 = FACE_OUTER_BOUND ( 'NONE', #406, .T. ) ;
#555 = EDGE_LOOP ( 'NONE', ( #842, #204, #810, #890 ) ) ;
#556 = EDGE_LOOP ( 'NONE', ( #39, #65, #499, #849 ) ) ;
#557 = CARTESIAN_POINT ( 'NONE',  ( -115.0000000000000000, 0.000000000000000000, -28.00000000000000000 ) ) ;
#558 = CARTESIAN_POINT ( 'NONE',  ( -75.00000000000000000, 12.00000000000000000, 12.00000000000000000 ) ) ;
#559 = CARTESIAN_POINT ( 'NONE',  ( 0.000000000000000000, 20.00000000000000000, 0.000000000000000000 ) ) ;
#560 = EDGE_LOOP ( 'NONE', ( #475, #47, #545, #382 ) ) ;
#561 = EDGE_CURVE ( 'NONE', #410, #270, #426, .T. ) ;
#562 = DIRECTION ( 'NONE',  ( 0.000000000000000000, 1.000000000000000000, 0.000000000000000000 ) ) ;
#563 = CARTESIAN_POINT ( 'NONE',  ( -115.0000000000000000, 12.00000000000000000, -28.00000000000000000 ) ) ;
#564 = DIRECTION ( 'NONE',  ( 0.000000000000000000, -1.000000000000000000, 0.000000000000000000 ) ) ;
#565 = AXIS2_PLACEMENT_3D ( 'NONE', #513, #649, #161 ) ;
#566 = ORIENTED_EDGE ( 'NONE', *, *, #827, .F. ) ;
#567 = LOCAL_TIME ( 1, 13, 30.00000000000000000, #38 ) ;
#568 = DIRECTION ( 'NONE',  ( -0.000000000000000000, -1.000000000000000000, -0.000000000000000000 ) ) ;
#569 = CARTESIAN_POINT ( 'NONE',  ( -105.0000000000000000, 20.00000000000000000, 8.000000000000000000 ) ) ;
#570 = CARTESIAN_POINT ( 'NONE',  ( -115.0000000000000000, 0.000000000000000000, 23.49999999999999645 ) ) ;
#571 = PLANE ( 'NONE',  #837 ) ;
#572 = ORIENTED_EDGE ( 'NONE', *, *, #192, .T. ) ;
#573 = EDGE_CURVE ( 'NONE', #541, #813, #277, .T. ) ;
#574 = EDGE_CURVE ( 'NONE', #451, #750, #413, .T. ) ;
#575 = DIRECTION ( 'NONE',  ( -0.000000000000000000, -1.000000000000000000, -0.000000000000000000 ) ) ;
#576 = CARTESIAN_POINT ( 'NONE',  ( -140.0000000000000000, 12.00000000000000000, -42.50000000000000000 ) ) ;
#577 = PLANE ( 'NONE',  #134 ) ;
#578 = VECTOR ( 'NONE', #18, 1000.000000000000000 ) ;
#579 = ORIENTED_EDGE ( 'NONE', *, *, #573, .F. ) ;
#580 = AXIS2_PLACEMENT_3D ( 'NONE', #487, #333, #202 ) ;
#581 = CYLINDRICAL_SURFACE ( 'NONE', #445, 4.500000000000003553 ) ;
#582 = DIRECTION ( 'NONE',  ( 0.000000000000000000, 1.000000000000000000, 0.000000000000000000 ) ) ;
#583 = EDGE_CURVE ( 'NONE', #456, #467, #862, .T. ) ;
#584 = DIRECTION ( 'NONE',  ( 1.000000000000000000, 0.000000000000000000, 0.000000000000000000 ) ) ;
#585 = VERTEX_POINT ( 'NONE', #852 ) ;
#586 = EDGE_CURVE ( 'NONE', #349, #189, #211, .T. ) ;
#587 = EDGE_CURVE ( 'NONE', #854, #92, #63, .T. ) ;
#588 = DIRECTION ( 'NONE',  ( 0.000000000000000000, 0.000000000000000000, -1.000000000000000000 ) ) ;
#589 = EDGE_LOOP ( 'NONE', ( #253, #671 ) ) ;
#590 = APPROVAL_STATUS ( 'not_yet_approved' ) ;
#591 = CARTESIAN_POINT ( 'NONE',  ( -75.00000000000000000, 0.000000000000000000, 12.00000000000000000 ) ) ;
#592 = ORIENTED_EDGE ( 'NONE', *, *, #13, .F. ) ;
#593 = EDGE_LOOP ( 'NONE', ( #265, #52, #428, #250 ) ) ;
#594 = DATE_AND_TIME ( #166, #433 ) ;
#595 = VERTEX_POINT ( 'NONE', #129 ) ;
#596 = ORIENTED_EDGE ( 'NONE', *, *, #311, .F. ) ;
#597 = CARTESIAN_POINT ( 'NONE',  ( -105.0000000000000000, 0.000000000000000000, 8.000000000000000000 ) ) ;
#598 = ORIENTED_EDGE ( 'NONE', *, *, #407, .T. ) ;
#599 = EDGE_CURVE ( 'NONE', #423, #410, #715, .T. ) ;
#600 = PRODUCT_DEFINITION ( '�', '', #640, #681 ) ;
#601 = CARTESIAN_POINT ( 'NONE',  ( 105.0000000000000000, 20.00000000000000000, 8.000000000000000000 ) ) ;
#602 = FACE_BOUND ( 'NONE', #617, .T. ) ;
#603 = ORIENTED_EDGE ( 'NONE', *, *, #325, .T. ) ;
#604 = AXIS2_PLACEMENT_3D ( 'NONE', #557, #851, #133 ) ;
#605 = PERSON_AND_ORGANIZATION ( #843, #145 ) ;
#606 = DIRECTION ( 'NONE',  ( 0.000000000000000000, 0.000000000000000000, -1.000000000000000000 ) ) ;
#607 = EDGE_LOOP ( 'NONE', ( #700, #384, #667, #538 ) ) ;
#608 = CARTESIAN_POINT ( 'NONE',  ( -115.0000000000000000, 12.00000000000000000, -28.00000000000000000 ) ) ;
#609 = ORIENTED_EDGE ( 'NONE', *, *, #311, .T. ) ;
#610 = CARTESIAN_POINT ( 'NONE',  ( 0.000000000000000000, 12.00000000000000000, 0.000000000000000000 ) ) ;
#611 = EDGE_CURVE ( 'NONE', #68, #737, #306, .T. ) ;
#612 = ORIENTED_EDGE ( 'NONE', *, *, #82, .T. ) ;
#613 = CARTESIAN_POINT ( 'NONE',  ( 140.0000000000000000, 0.000000000000000000, 42.50000000000000000 ) ) ;
#614 = ORIENTED_EDGE ( 'NONE', *, *, #615, .T. ) ;
#615 = EDGE_CURVE ( 'NONE', #595, #716, #144, .T. ) ;
#616 = CARTESIAN_POINT ( 'NONE',  ( -75.00000000000000000, 12.00000000000000000, 12.00000000000000000 ) ) ;
#617 = EDGE_LOOP ( 'NONE', ( #396, #572 ) ) ;
#618 = CARTESIAN_POINT ( 'NONE',  ( 115.0000000000000000, 0.000000000000000000, -23.49999999999999645 ) ) ;
#619 = VERTEX_POINT ( 'NONE', #763 ) ;
#620 = AXIS2_PLACEMENT_3D ( 'NONE', #559, #564, #67 ) ;
#621 = FACE_BOUND ( 'NONE', #432, .T. ) ;
#622 = CARTESIAN_POINT ( 'NONE',  ( -140.0000000000000000, 12.00000000000000000, -42.50000000000000000 ) ) ;
#623 = ORIENTED_EDGE ( 'NONE', *, *, #659, .F. ) ;
#624 = ORIENTED_EDGE ( 'NONE', *, *, #358, .F. ) ;
#625 = APPLICATION_CONTEXT ( 'configuration controlled 3d designs of mechanical parts and assemblies' ) ;
#626 = DIRECTION ( 'NONE',  ( -0.000000000000000000, -1.000000000000000000, -0.000000000000000000 ) ) ;
#627 = DIRECTION ( 'NONE',  ( 0.000000000000000000, 0.000000000000000000, 1.000000000000000000 ) ) ;
#628 = ADVANCED_FACE ( 'NONE', ( #409 ), #128, .F. ) ;
#629 = EDGE_CURVE ( 'NONE', #189, #28, #784, .T. ) ;
#630 = ORIENTED_EDGE ( 'NONE', *, *, #34, .F. ) ;
#631 = DIRECTION ( 'NONE',  ( 0.000000000000000000, 0.000000000000000000, 1.000000000000000000 ) ) ;
#632 = DIRECTION ( 'NONE',  ( 1.000000000000000000, -0.000000000000000000, 0.000000000000000000 ) ) ;
#633 = CARTESIAN_POINT ( 'NONE',  ( -75.00000000000000000, 0.000000000000000000, 12.00000000000000000 ) ) ;
#634 = EDGE_LOOP ( 'NONE', ( #678, #879 ) ) ;
#635 = DIRECTION ( 'NONE',  ( 0.000000000000000000, -1.000000000000000000, 0.000000000000000000 ) ) ;
#636 = DIRECTION ( 'NONE',  ( -0.000000000000000000, -0.000000000000000000, 1.000000000000000000 ) ) ;
#637 = AXIS2_PLACEMENT_3D ( 'NONE', #651, #875, #441 ) ;
#638 = VECTOR ( 'NONE', #721, 1000.000000000000000 ) ;
#639 = ORIENTED_EDGE ( 'NONE', *, *, #13, .T. ) ;
#640 = PRODUCT_DEFINITION_FORMATION_WITH_SPECIFIED_SOURCE ( '�', '', #437, .NOT_KNOWN. ) ;
#641 = VECTOR ( 'NONE', #907, 1000.000000000000000 ) ;
#642 = DIRECTION ( 'NONE',  ( 0.000000000000000000, 0.000000000000000000, -1.000000000000000000 ) ) ;
#643 = LINE ( 'NONE', #430, #531 ) ;
#644 = FACE_OUTER_BOUND ( 'NONE', #470, .T. ) ;
#645 = VERTEX_POINT ( 'NONE', #422 ) ;
#646 = EDGE_CURVE ( 'NONE', #227, #854, #403, .T. ) ;
#647 = ADVANCED_FACE ( 'NONE', ( #554 ), #414, .T. ) ;
#648 = DIRECTION ( 'NONE',  ( 1.000000000000000000, -0.000000000000000000, 0.000000000000000000 ) ) ;
#649 = DIRECTION ( 'NONE',  ( 0.000000000000000000, 1.000000000000000000, 0.000000000000000000 ) ) ;
#650 = ORIENTED_EDGE ( 'NONE', *, *, #692, .T. ) ;
#651 = CARTESIAN_POINT ( 'NONE',  ( 115.0000000000000000, 12.00000000000000000, -28.00000000000000000 ) ) ;
#652 = LINE ( 'NONE', #729, #457 ) ;
#653 = VECTOR ( 'NONE', #373, 1000.000000000000000 ) ;
#654 = VECTOR ( 'NONE', #27, 1000.000000000000000 ) ;
#655 = VECTOR ( 'NONE', #544, 1000.000000000000000 ) ;
#656 = EDGE_CURVE ( 'NONE', #854, #836, #718, .T. ) ;
#657 = CARTESIAN_POINT ( 'NONE',  ( 75.00000000000000000, 0.000000000000000000, 12.00000000000000000 ) ) ;
#658 = ORIENTED_EDGE ( 'NONE', *, *, #738, .F. ) ;
#659 = EDGE_CURVE ( 'NONE', #62, #645, #351, .T. ) ;
#660 = LINE ( 'NONE', #8, #638 ) ;
#661 = LINE ( 'NONE', #25, #339 ) ;
#662 = PLANE ( 'NONE',  #821 ) ;
#663 =( NAMED_UNIT ( * ) PLANE_ANGLE_UNIT ( ) SI_UNIT ( $, .RADIAN. ) );
#664 = ORIENTED_EDGE ( 'NONE', *, *, #670, .T. ) ;
#665 = VECTOR ( 'NONE', #857, 1000.000000000000000 ) ;
#666 = DATE_AND_TIME ( #307, #858 ) ;
#667 = ORIENTED_EDGE ( 'NONE', *, *, #587, .F. ) ;
#668 = ORIENTED_EDGE ( 'NONE', *, *, #325, .F. ) ;
#669 = FACE_OUTER_BOUND ( 'NONE', #343, .T. ) ;
#670 = EDGE_CURVE ( 'NONE', #410, #331, #697, .T. ) ;
#671 = ORIENTED_EDGE ( 'NONE', *, *, #800, .T. ) ;
#672 = PERSON_AND_ORGANIZATION ( #843, #145 ) ;
#673 = DIRECTION ( 'NONE',  ( -1.000000000000000000, 0.000000000000000000, 0.000000000000000000 ) ) ;
#674 = DIRECTION ( 'NONE',  ( 1.000000000000000000, 0.000000000000000000, 0.000000000000000000 ) ) ;
#675 = ORIENTED_EDGE ( 'NONE', *, *, #533, .F. ) ;
#676 = LINE ( 'NONE', #185, #112 ) ;
#677 = PERSON_AND_ORGANIZATION_ROLE ( 'design_owner' ) ;
#678 = ORIENTED_EDGE ( 'NONE', *, *, #611, .T. ) ;
#679 = FACE_BOUND ( 'NONE', #911, .T. ) ;
#680 = ORIENTED_EDGE ( 'NONE', *, *, #365, .F. ) ;
#681 = DESIGN_CONTEXT ( 'detailed design', #625, 'design' ) ;
#682 = AXIS2_PLACEMENT_3D ( 'NONE', #304, #223, #88 ) ;
#683 = VECTOR ( 'NONE', #626, 1000.000000000000000 ) ;
#684 = EDGE_CURVE ( 'NONE', #43, #451, #910, .T. ) ;
#685 =( LENGTH_UNIT ( ) NAMED_UNIT ( * ) SI_UNIT ( .MILLI., .METRE. ) );
#686 = APPROVAL_PERSON_ORGANIZATION ( #747, #355, #390 ) ;
#687 = ORIENTED_EDGE ( 'NONE', *, *, #96, .F. ) ;
#688 = FACE_BOUND ( 'NONE', #399, .T. ) ;
#689 = PRODUCT_RELATED_PRODUCT_CATEGORY ( 'detail', '', ( #437 ) ) ;
#690 = VERTEX_POINT ( 'NONE', #262 ) ;
#691 = CARTESIAN_POINT ( 'NONE',  ( -105.0000000000000000, 12.00000000000000000, 0.000000000000000000 ) ) ;
#692 = EDGE_CURVE ( 'NONE', #467, #645, #550, .T. ) ;
#693 = DATE_AND_TIME ( #485, #173 ) ;
#694 = DIRECTION ( 'NONE',  ( -0.000000000000000000, -0.000000000000000000, 1.000000000000000000 ) ) ;
#695 = DIRECTION ( 'NONE',  ( -0.000000000000000000, -1.000000000000000000, -0.000000000000000000 ) ) ;
#696 = CARTESIAN_POINT ( 'NONE',  ( -75.00000000000000000, 12.00000000000000000, -12.00000000000000000 ) ) ;
#697 = LINE ( 'NONE', #616, #398 ) ;
#698 = VERTEX_POINT ( 'NONE', #212 ) ;
#699 = CYLINDRICAL_SURFACE ( 'NONE', #381, 4.500000000000003553 ) ;
#700 = ORIENTED_EDGE ( 'NONE', *, *, #710, .T. ) ;
#701 = DIRECTION ( 'NONE',  ( 0.000000000000000000, 1.000000000000000000, 0.000000000000000000 ) ) ;
#702 = CARTESIAN_POINT ( 'NONE',  ( -115.0000000000000000, 12.00000000000000000, -32.50000000000000711 ) ) ;
#703 = PLANE ( 'NONE',  #776 ) ;
#704 = CYLINDRICAL_SURFACE ( 'NONE', #819, 4.500000000000007105 ) ;
#705 = ORIENTED_EDGE ( 'NONE', *, *, #438, .T. ) ;
#706 = ORIENTED_EDGE ( 'NONE', *, *, #925, .F. ) ;
#707 = VECTOR ( 'NONE', #636, 1000.000000000000000 ) ;
#708 = DIRECTION ( 'NONE',  ( -0.000000000000000000, -1.000000000000000000, -0.000000000000000000 ) ) ;
#709 = CARTESIAN_POINT ( 'NONE',  ( 105.0000000000000000, 20.00000000000000000, -8.000000000000000000 ) ) ;
#710 = EDGE_CURVE ( 'NONE', #836, #906, #196, .T. ) ;
#711 = EDGE_LOOP ( 'NONE', ( #675, #481, #352, #789 ) ) ;
#712 = CC_DESIGN_PERSON_AND_ORGANIZATION_ASSIGNMENT ( #822, #237, ( #248 ) ) ;
#713 = DIRECTION ( 'NONE',  ( 0.000000000000000000, 0.000000000000000000, 1.000000000000000000 ) ) ;
#714 = CARTESIAN_POINT ( 'NONE',  ( 105.0000000000000000, 20.00000000000000000, 8.000000000000000000 ) ) ;
#715 = LINE ( 'NONE', #148, #548 ) ;
#716 = VERTEX_POINT ( 'NONE', #123 ) ;
#717 = FACE_OUTER_BOUND ( 'NONE', #494, .T. ) ;
#718 = LINE ( 'NONE', #622, #806 ) ;
#719 = ORIENTED_EDGE ( 'NONE', *, *, #848, .T. ) ;
#720 = CYLINDRICAL_SURFACE ( 'NONE', #309, 4.500000000000003553 ) ;
#721 = DIRECTION ( 'NONE',  ( 0.000000000000000000, 1.000000000000000000, 0.000000000000000000 ) ) ;
#722 = VECTOR ( 'NONE', #160, 1000.000000000000000 ) ;
#723 = PLANE ( 'NONE',  #14 ) ;
#724 = LINE ( 'NONE', #798, #370 ) ;
#725 = ORIENTED_EDGE ( 'NONE', *, *, #483, .T. ) ;
#726 = FACE_OUTER_BOUND ( 'NONE', #465, .T. ) ;
#727 = DIRECTION ( 'NONE',  ( 0.000000000000000000, 0.000000000000000000, -1.000000000000000000 ) ) ;
#728 = CARTESIAN_POINT ( 'NONE',  ( -115.0000000000000000, 12.00000000000000000, -32.50000000000000711 ) ) ;
#729 = CARTESIAN_POINT ( 'NONE',  ( 75.00000000000000000, 12.00000000000000000, 12.00000000000000000 ) ) ;
#730 = LINE ( 'NONE', #195, #295 ) ;
#731 = AXIS2_PLACEMENT_3D ( 'NONE', #136, #421, #713 ) ;
#732 = CIRCLE ( 'NONE', #434, 4.500000000000003553 ) ;
#733 = DIRECTION ( 'NONE',  ( -1.000000000000000000, 0.000000000000000000, 0.000000000000000000 ) ) ;
#734 = CARTESIAN_POINT ( 'NONE',  ( 140.0000000000000000, 12.00000000000000000, 42.50000000000000000 ) ) ;
#735 = ORIENTED_EDGE ( 'NONE', *, *, #82, .F. ) ;
#736 = DIRECTION ( 'NONE',  ( -1.000000000000000000, 0.000000000000000000, -0.000000000000000000 ) ) ;
#737 = VERTEX_POINT ( 'NONE', #863 ) ;
#738 = EDGE_CURVE ( 'NONE', #832, #690, #918, .T. ) ;
#739 = LINE ( 'NONE', #321, #887 ) ;
#740 = EDGE_LOOP ( 'NONE', ( #1, #244, #502, #305 ) ) ;
#741 = CARTESIAN_POINT ( 'NONE',  ( 115.0000000000000000, 12.00000000000000000, 23.49999999999999645 ) ) ;
#742 = ORIENTED_EDGE ( 'NONE', *, *, #73, .F. ) ;
#743 = ADVANCED_FACE ( 'NONE', ( #498 ), #704, .F. ) ;
#744 = CARTESIAN_POINT ( 'NONE',  ( -75.00000000000000000, 0.000000000000000000, -12.00000000000000000 ) ) ;
#745 = DIRECTION ( 'NONE',  ( -1.000000000000000000, 0.000000000000000000, -0.000000000000000000 ) ) ;
#746 = ORIENTED_EDGE ( 'NONE', *, *, #899, .T. ) ;
#747 = PERSON_AND_ORGANIZATION ( #843, #145 ) ;
#748 = CARTESIAN_POINT ( 'NONE',  ( 75.00000000000000000, 0.000000000000000000, 12.00000000000000000 ) ) ;
#749 = CARTESIAN_POINT ( 'NONE',  ( -75.00000000000000000, 12.00000000000000000, -12.00000000000000000 ) ) ;
#750 = VERTEX_POINT ( 'NONE', #927 ) ;
#751 = CYLINDRICAL_SURFACE ( 'NONE', #520, 4.500000000000007105 ) ;
#752 = ADVANCED_FACE ( 'NONE', ( #278 ), #338, .F. ) ;
#753 = ADVANCED_FACE ( 'NONE', ( #853 ), #116, .F. ) ;
#754 = CARTESIAN_POINT ( 'NONE',  ( 0.000000000000000000, 0.000000000000000000, 0.000000000000000000 ) ) ;
#755 = DIRECTION ( 'NONE',  ( 0.000000000000000000, 0.000000000000000000, -1.000000000000000000 ) ) ;
#756 = DIRECTION ( 'NONE',  ( -0.000000000000000000, -1.000000000000000000, -0.000000000000000000 ) ) ;
#757 = CARTESIAN_POINT ( 'NONE',  ( -115.0000000000000000, 12.00000000000000000, 23.49999999999999645 ) ) ;
#758 = EDGE_CURVE ( 'NONE', #329, #270, #268, .T. ) ;
#759 = AXIS2_PLACEMENT_3D ( 'NONE', #143, #733, #15 ) ;
#760 = ORIENTED_EDGE ( 'NONE', *, *, #319, .F. ) ;
#761 = PLANE ( 'NONE',  #818 ) ;
#762 = MANIFOLD_SOLID_BREP ( '02_Reinforcement_Boss', #484 ) ;
#763 = CARTESIAN_POINT ( 'NONE',  ( 75.00000000000000000, 0.000000000000000000, -7.999999999999996447 ) ) ;
#764 = ORIENTED_EDGE ( 'NONE', *, *, #574, .F. ) ;
#765 = DIRECTION ( 'NONE',  ( 0.000000000000000000, 0.000000000000000000, 1.000000000000000000 ) ) ;
#766 = ORIENTED_EDGE ( 'NONE', *, *, #34, .T. ) ;
#767 = DIRECTION ( 'NONE',  ( -1.000000000000000000, -0.000000000000000000, -0.000000000000000000 ) ) ;
#768 = DIRECTION ( 'NONE',  ( -1.000000000000000000, 0.000000000000000000, 0.000000000000000000 ) ) ;
#769 = ORIENTED_EDGE ( 'NONE', *, *, #113, .F. ) ;
#770 = VERTEX_POINT ( 'NONE', #714 ) ;
#771 = ADVANCED_FACE ( 'NONE', ( #284 ), #301, .F. ) ;
#772 = DIRECTION ( 'NONE',  ( 0.000000000000000000, 0.000000000000000000, 1.000000000000000000 ) ) ;
#773 = DIRECTION ( 'NONE',  ( -0.000000000000000000, -1.000000000000000000, -0.000000000000000000 ) ) ;
#774 = ORIENTED_EDGE ( 'NONE', *, *, #583, .T. ) ;
#775 = ADVANCED_FACE ( 'NONE', ( #22 ), #147, .T. ) ;
#776 = AXIS2_PLACEMENT_3D ( 'NONE', #328, #397, #772 ) ;
#777 = DIRECTION ( 'NONE',  ( 0.000000000000000000, 0.000000000000000000, 1.000000000000000000 ) ) ;
#778 = CIRCLE ( 'NONE', #109, 4.500000000000007105 ) ;
#779 = CARTESIAN_POINT ( 'NONE',  ( -115.0000000000000000, 12.00000000000000000, 32.50000000000000711 ) ) ;
#780 = DIRECTION ( 'NONE',  ( -0.000000000000000000, -1.000000000000000000, -0.000000000000000000 ) ) ;
#781 = ORIENTED_EDGE ( 'NONE', *, *, #26, .T. ) ;
#782 = DIRECTION ( 'NONE',  ( 0.000000000000000000, 0.000000000000000000, 1.000000000000000000 ) ) ;
#783 = DIRECTION ( 'NONE',  ( 1.000000000000000000, 0.000000000000000000, 0.000000000000000000 ) ) ;
#784 = LINE ( 'NONE', #64, #518 ) ;
#785 = ORIENTED_EDGE ( 'NONE', *, *, #158, .T. ) ;
#786 = EDGE_CURVE ( 'NONE', #227, #893, #303, .T. ) ;
#787 = DIRECTION ( 'NONE',  ( 0.000000000000000000, 1.000000000000000000, 0.000000000000000000 ) ) ;
#788 = DIRECTION ( 'NONE',  ( 1.000000000000000000, -0.000000000000000000, 0.000000000000000000 ) ) ;
#789 = ORIENTED_EDGE ( 'NONE', *, *, #99, .F. ) ;
#790 = EDGE_CURVE ( 'NONE', #329, #423, #660, .T. ) ;
#791 = AXIS2_PLACEMENT_3D ( 'NONE', #797, #787, #142 ) ;
#792 = CARTESIAN_POINT ( 'NONE',  ( -75.00000000000000000, 12.00000000000000000, -8.000000000000000000 ) ) ;
#793 = CARTESIAN_POINT ( 'NONE',  ( 105.0000000000000000, 20.00000000000000000, 8.000000000000000000 ) ) ;
#794 = VECTOR ( 'NONE', #500, 1000.000000000000000 ) ;
#795 = CIRCLE ( 'NONE', #344, 4.500000000000007105 ) ;
#796 = VECTOR ( 'NONE', #391, 1000.000000000000000 ) ;
#797 = CARTESIAN_POINT ( 'NONE',  ( 115.0000000000000000, 0.000000000000000000, 28.00000000000000000 ) ) ;
#798 = CARTESIAN_POINT ( 'NONE',  ( -140.0000000000000000, 12.00000000000000000, 42.50000000000000000 ) ) ;
#799 = ORIENTED_EDGE ( 'NONE', *, *, #670, .F. ) ;
#800 = EDGE_CURVE ( 'NONE', #124, #923, #69, .T. ) ;
#801 = CARTESIAN_POINT ( 'NONE',  ( -115.0000000000000000, 12.00000000000000000, 28.00000000000000000 ) ) ;
#802 = CARTESIAN_POINT ( 'NONE',  ( 115.0000000000000000, 0.000000000000000000, 23.49999999999999645 ) ) ;
#803 = ORIENTED_EDGE ( 'NONE', *, *, #463, .T. ) ;
#804 = LINE ( 'NONE', #70, #653 ) ;
#805 = AXIS2_PLACEMENT_3D ( 'NONE', #54, #902, #830 ) ;
#806 = VECTOR ( 'NONE', #780, 1000.000000000000000 ) ;
#807 = APPROVAL_PERSON_ORGANIZATION ( #891, #425, #525 ) ;
#808 = APPLICATION_PROTOCOL_DEFINITION ( 'international standard', 'config_control_design', 1994, #385 ) ;
#809 = LINE ( 'NONE', #526, #419 ) ;
#810 = ORIENTED_EDGE ( 'NONE', *, *, #483, .F. ) ;
#811 = COORDINATED_UNIVERSAL_TIME_OFFSET ( 8, 0, .AHEAD. ) ;
#812 = LINE ( 'NONE', #455, #517 ) ;
#813 = VERTEX_POINT ( 'NONE', #151 ) ;
#814 = EDGE_CURVE ( 'NONE', #750, #423, #289, .T. ) ;
#815 = LINE ( 'NONE', #401, #132 ) ;
#816 = CARTESIAN_POINT ( 'NONE',  ( -105.0000000000000000, 20.00000000000000000, 8.000000000000000000 ) ) ;
#817 = ORIENTED_EDGE ( 'NONE', *, *, #758, .F. ) ;
#818 = AXIS2_PLACEMENT_3D ( 'NONE', #749, #44, #408 ) ;
#819 = AXIS2_PLACEMENT_3D ( 'NONE', #922, #275, #55 ) ;
#820 = VECTOR ( 'NONE', #462, 1000.000000000000000 ) ;
#821 = AXIS2_PLACEMENT_3D ( 'NONE', #816, #514, #745 ) ;
#822 = PERSON_AND_ORGANIZATION ( #843, #145 ) ;
#823 = ORIENTED_EDGE ( 'NONE', *, *, #463, .F. ) ;
#824 = FACE_BOUND ( 'NONE', #589, .T. ) ;
#825 = ADVANCED_FACE ( 'NONE', ( #882 ), #446, .F. ) ;
#826 = VERTEX_POINT ( 'NONE', #293 ) ;
#827 = EDGE_CURVE ( 'NONE', #102, #125, #532, .T. ) ;
#828 = DATE_AND_TIME ( #320, #871 ) ;
#829 = EDGE_LOOP ( 'NONE', ( #236, #877, #404, #153 ) ) ;
#830 = DIRECTION ( 'NONE',  ( 0.000000000000000000, 0.000000000000000000, -1.000000000000000000 ) ) ;
#831 = FACE_OUTER_BOUND ( 'NONE', #187, .T. ) ;
#832 = VERTEX_POINT ( 'NONE', #512 ) ;
#833 = FACE_BOUND ( 'NONE', #75, .T. ) ;
#834 = ORIENTED_EDGE ( 'NONE', *, *, #684, .T. ) ;
#835 = DIRECTION ( 'NONE',  ( 0.000000000000000000, 0.000000000000000000, 1.000000000000000000 ) ) ;
#836 = VERTEX_POINT ( 'NONE', #11 ) ;
#837 = AXIS2_PLACEMENT_3D ( 'NONE', #23, #788, #439 ) ;
#838 = AXIS2_PLACEMENT_3D ( 'NONE', #60, #562, #777 ) ;
#839 = CARTESIAN_POINT ( 'NONE',  ( -115.0000000000000000, 0.000000000000000000, -32.50000000000000711 ) ) ;
#840 = CARTESIAN_POINT ( 'NONE',  ( -75.00000000000000000, 0.000000000000000000, -12.00000000000000000 ) ) ;
#841 = DIRECTION ( 'NONE',  ( -0.000000000000000000, -1.000000000000000000, 0.000000000000000000 ) ) ;
#842 = ORIENTED_EDGE ( 'NONE', *, *, #586, .T. ) ;
#843 = PERSON ( '未', '未', '未', ('未'), ('未'), ('未') ) ;
#844 = EDGE_LOOP ( 'NONE', ( #258, #246, #515, #746 ) ) ;
#845 = EDGE_CURVE ( 'NONE', #456, #62, #804, .T. ) ;
#846 = DIRECTION ( 'NONE',  ( -0.000000000000000000, -1.000000000000000000, -0.000000000000000000 ) ) ;
#847 = DIRECTION ( 'NONE',  ( -0.000000000000000000, -0.000000000000000000, 1.000000000000000000 ) ) ;
#848 = EDGE_CURVE ( 'NONE', #213, #813, #366, .T. ) ;
#849 = ORIENTED_EDGE ( 'NONE', *, *, #450, .T. ) ;
#850 = EDGE_LOOP ( 'NONE', ( #141, #199, #97, #609 ) ) ;
#851 = DIRECTION ( 'NONE',  ( 0.000000000000000000, 1.000000000000000000, 0.000000000000000000 ) ) ;
#852 = CARTESIAN_POINT ( 'NONE',  ( 140.0000000000000000, 12.00000000000000000, 42.50000000000000000 ) ) ;
#853 = FACE_OUTER_BOUND ( 'NONE', #844, .T. ) ;
#854 = VERTEX_POINT ( 'NONE', #576 ) ;
#855 = AXIS2_PLACEMENT_3D ( 'NONE', #563, #7, #220 ) ;
#856 = DIRECTION ( 'NONE',  ( -0.000000000000000000, -0.000000000000000000, 1.000000000000000000 ) ) ;
#857 = DIRECTION ( 'NONE',  ( -1.000000000000000000, -0.000000000000000000, -0.000000000000000000 ) ) ;
#858 = LOCAL_TIME ( 1, 13, 30.00000000000000000, #521 ) ;
#859 = VECTOR ( 'NONE', #673, 1000.000000000000000 ) ;
#860 = ADVANCED_FACE ( 'NONE', ( #644 ), #581, .F. ) ;
#861 = ORIENTED_EDGE ( 'NONE', *, *, #629, .F. ) ;
#862 = LINE ( 'NONE', #558, #794 ) ;
#863 = CARTESIAN_POINT ( 'NONE',  ( -115.0000000000000000, 0.000000000000000000, -23.49999999999999645 ) ) ;
#864 = ADVANCED_FACE ( 'NONE', ( #501 ), #571, .T. ) ;
#865 = LINE ( 'NONE', #216, #458 ) ;
#866 = CARTESIAN_POINT ( 'NONE',  ( 0.000000000000000000, 12.00000000000000000, 8.000000000000000000 ) ) ;
#867 = AXIS2_PLACEMENT_3D ( 'NONE', #238, #363, #736 ) ;
#868 = CARTESIAN_POINT ( 'NONE',  ( -75.00000000000000000, 12.00000000000000000, 12.00000000000000000 ) ) ;
#869 = CARTESIAN_POINT ( 'NONE',  ( 115.0000000000000000, 0.000000000000000000, -28.00000000000000000 ) ) ;
#870 = AXIS2_PLACEMENT_3D ( 'NONE', #72, #154, #362 ) ;
#871 = LOCAL_TIME ( 1, 13, 30.00000000000000000, #42 ) ;
#872 = ORIENTED_EDGE ( 'NONE', *, *, #583, .F. ) ;
#873 = VECTOR ( 'NONE', #115, 1000.000000000000000 ) ;
#874 = EDGE_CURVE ( 'NONE', #551, #171, #778, .T. ) ;
#875 = DIRECTION ( 'NONE',  ( -0.000000000000000000, -1.000000000000000000, -0.000000000000000000 ) ) ;
#876 = DIRECTION ( 'NONE',  ( -0.000000000000000000, -1.000000000000000000, -0.000000000000000000 ) ) ;
#877 = ORIENTED_EDGE ( 'NONE', *, *, #496, .F. ) ;
#878 = CC_DESIGN_PERSON_AND_ORGANIZATION_ASSIGNMENT ( #672, #326, ( #640 ) ) ;
#879 = ORIENTED_EDGE ( 'NONE', *, *, #99, .T. ) ;
#880 = DIRECTION ( 'NONE',  ( 0.000000000000000000, 0.000000000000000000, 1.000000000000000000 ) ) ;
#881 = ORIENTED_EDGE ( 'NONE', *, *, #814, .F. ) ;
#882 = FACE_OUTER_BOUND ( 'NONE', #264, .T. ) ;
#883 = ORIENTED_EDGE ( 'NONE', *, *, #506, .F. ) ;
#884 = AXIS2_PLACEMENT_3D ( 'NONE', #357, #701, #782 ) ;
#885 = EDGE_LOOP ( 'NONE', ( #488, #596, #356, #107 ) ) ;
#886 = UNCERTAINTY_MEASURE_WITH_UNIT (LENGTH_MEASURE( 1.000000000000000082E-05 ), #685, 'distance_accuracy_value', 'NONE');
#887 = VECTOR ( 'NONE', #695, 1000.000000000000000 ) ;
#888 = SECURITY_CLASSIFICATION_LEVEL ( 'unclassified' ) ;
#889 = DIRECTION ( 'NONE',  ( -0.000000000000000000, -1.000000000000000000, -0.000000000000000000 ) ) ;
#890 = ORIENTED_EDGE ( 'NONE', *, *, #256, .F. ) ;
#891 = PERSON_AND_ORGANIZATION ( #843, #145 ) ;
#892 = LINE ( 'NONE', #105, #796 ) ;
#893 = VERTEX_POINT ( 'NONE', #436 ) ;
#894 = DIRECTION ( 'NONE',  ( 1.000000000000000000, 0.000000000000000000, 0.000000000000000000 ) ) ;
#895 = ORIENTED_EDGE ( 'NONE', *, *, #786, .T. ) ;
#896 =( NAMED_UNIT ( * ) SI_UNIT ( $, .STERADIAN. ) SOLID_ANGLE_UNIT ( ) );
#897 = ORIENTED_EDGE ( 'NONE', *, *, #186, .T. ) ;
#898 = DIRECTION ( 'NONE',  ( 0.000000000000000000, 0.000000000000000000, 1.000000000000000000 ) ) ;
#899 = EDGE_CURVE ( 'NONE', #92, #906, #724, .T. ) ;
#900 = CIRCLE ( 'NONE', #791, 4.500000000000007105 ) ;
#901 = CARTESIAN_POINT ( 'NONE',  ( 105.0000000000000000, 12.00000000000000000, 0.000000000000000000 ) ) ;
#902 = DIRECTION ( 'NONE',  ( -0.000000000000000000, -1.000000000000000000, -0.000000000000000000 ) ) ;
#903 = EDGE_LOOP ( 'NONE', ( #774, #650, #623, #360 ) ) ;
#904 = LINE ( 'NONE', #901, #20 ) ;
#905 = DIRECTION ( 'NONE',  ( 0.000000000000000000, -1.000000000000000000, 0.000000000000000000 ) ) ;
#906 = VERTEX_POINT ( 'NONE', #507 ) ;
#907 = DIRECTION ( 'NONE',  ( 0.000000000000000000, 0.000000000000000000, -1.000000000000000000 ) ) ;
#908 = DIRECTION ( 'NONE',  ( -0.000000000000000000, -1.000000000000000000, -0.000000000000000000 ) ) ;
#909 = FACE_BOUND ( 'NONE', #394, .T. ) ;
#910 = LINE ( 'NONE', #569, #916 ) ;
#911 = EDGE_LOOP ( 'NONE', ( #883, #769 ) ) ;
#912 = CARTESIAN_POINT ( 'NONE',  ( -115.0000000000000000, 0.000000000000000000, 32.50000000000000711 ) ) ;
#913 = ADVANCED_FACE ( 'NONE', ( #726 ), #76, .F. ) ;
#914 = EDGE_LOOP ( 'NONE', ( #36, #138, #279, #639, #209, #194, #760, #706 ) ) ;
#915 = CIRCLE ( 'NONE', #565, 4.500000000000003553 ) ;
#916 = VECTOR ( 'NONE', #847, 1000.000000000000000 ) ;
#917 = FACE_BOUND ( 'NONE', #80, .T. ) ;
#918 = LINE ( 'NONE', #709, #170 ) ;
#919 = ORIENTED_EDGE ( 'NONE', *, *, #848, .F. ) ;
#920 = VERTEX_POINT ( 'NONE', #728 ) ;
#921 = CYLINDRICAL_SURFACE ( 'NONE', #231, 4.500000000000007105 ) ;
#922 = CARTESIAN_POINT ( 'NONE',  ( 115.0000000000000000, 12.00000000000000000, -28.00000000000000000 ) ) ;
#923 = VERTEX_POINT ( 'NONE', #30 ) ;
#924 = COORDINATED_UNIVERSAL_TIME_OFFSET ( 8, 0, .AHEAD. ) ;
#925 = EDGE_CURVE ( 'NONE', #832, #43, #177, .T. ) ;
#926 = PLANE ( 'NONE',  #191 ) ;
#927 = CARTESIAN_POINT ( 'NONE',  ( -105.0000000000000000, 12.00000000000000000, 8.000000000000000000 ) ) ;
ENDSEC;
END-ISO-10303-21;
