  0
SECTION
  2
HEADER
  9
$ACADVER
  1
AC1015
  9
$ACADMAINTVER
 70
     6
  9
$DWGCODEPAGE
  3
ANSI_936
  9
$INSBASE
 10
0.0
 20
0.0
 30
0.0
  9
$EXTMIN
 10
0.0
 20
0.0
 30
0.0
  9
$EXTMAX
 10
420.0
 20
297.0
 30
0.0
  9
$LIMMIN
 10
0.0
 20
0.0
  9
$LIMMAX
 10
420.0
 20
297.0
  9
$ORTHOMODE
 70
     0
  9
$REGENMODE
 70
     1
  9
$FILLMODE
 70
     1
  9
$QTEXTMODE
 70
     0
  9
$MIRRTEXT
 70
     1
  9
$LTSCALE
 40
1.0
  9
$ATTMODE
 70
     1
  9
$TEXTSIZE
 40
3.5
  9
$TRACEWID
 40
1.0
  9
$TEXTSTYLE
  7
Standard
  9
$CLAYER
  8
0
  9
$CELTYPE
  6
ByLayer
  9
$CECOLOR
 62
   256
  9
$CELTSCALE
 40
1.0
  9
$DISPSILH
 70
     0
  9
$DIMSCALE
 40
1.0
  9
$DIMASZ
 40
4.08
  9
$DIMEXO
 40
0.0
  9
$DIMDLI
 40
3.75
  9
$DIMRND
 40
0.0
  9
$DIMDLE
 40
0.0
  9
$DIMEXE
 40
2.0
  9
$DIMTP
 40
0.0
  9
$DIMTM
 40
0.0
  9
$DIMTXT
 40
3.5
  9
$DIMCEN
 40
2.5
  9
$DIMTSZ
 40
0.0
  9
$DIMTOL
 70
     0
  9
$DIMLIM
 70
     0
  9
$DIMTIH
 70
     1
  9
$DIMTOH
 70
     1
  9
$DIMSE1
 70
     0
  9
$DIMSE2
 70
     0
  9
$DIMTAD
 70
     1
  9
$DIMZIN
 70
     0
  9
$DIMBLK
  1

  9
$DIMASO
 70
     1
  9
$DIMSHO
 70
     1
  9
$DIMPOST
  1

  9
$DIMAPOST
  1

  9
$DIMALT
 70
     0
  9
$DIMALTD
 70
     3
  9
$DIMALTF
 40
0.0393700787
  9
$DIMLFAC
 40
20.0
  9
$DIMTOFL
 70
     1
  9
$DIMTVP
 40
0.0
  9
$DIMTIX
 70
     0
  9
$DIMSOXD
 70
     0
  9
$DIMSAH
 70
     0
  9
$DIMBLK1
  1

  9
$DIMBLK2
  1

  9
$DIMSTYLE
  2
ISO-25
  9
$DIMCLRD
 70
     0
  9
$DIMCLRE
 70
     0
  9
$DIMCLRT
 70
     0
  9
$DIMTFAC
 40
1.0
  9
$DIMGAP
 40
1.524
  9
$DIMJUST
 70
     0
  9
$DIMSD1
 70
     0
  9
$DIMSD2
 70
     0
  9
$DIMTOLJ
 70
     0
  9
$DIMTZIN
 70
     0
  9
$DIMALTZ
 70
     0
  9
$DIMALTTZ
 70
     0
  9
$DIMUPT
 70
     0
  9
$DIMDEC
 70
     2
  9
$DIMTDEC
 70
     2
  9
$DIMALTU
 70
     2
  9
$DIMALTTD
 70
     3
  9
$DIMTXSTY
  7
Standard
  9
$DIMAUNIT
 70
     0
  9
$DIMADEC
 70
     2
  9
$DIMALTRND
 40
0.0
  9
$DIMAZIN
 70
     0
  9
$DIMDSEP
 70
    44
  9
$DIMATFIT
 70
     3
  9
$DIMFRAC
 70
     0
  9
$DIMLDRBLK
  1

  9
$DIMLUNIT
 70
     2
  9
$DIMLWD
 70
    -2
  9
$DIMLWE
 70
    -2
  9
$DIMTMOVE
 70
     0
  9
$LUNITS
 70
     2
  9
$LUPREC
 70
     2
  9
$SKETCHINC
 40
1.0
  9
$FILLETRAD
 40
0.0
  9
$AUNITS
 70
     0
  9
$AUPREC
 70
     2
  9
$MENU
  1
.
  9
$ELEVATION
 40
0.0
  9
$PELEVATION
 40
0.0
  9
$THICKNESS
 40
0.0
  9
$LIMCHECK
 70
     0
  9
$CHAMFERA
 40
0.0
  9
$CHAMFERB
 40
0.0
  9
$CHAMFERC
 40
0.0
  9
$CHAMFERD
 40
0.0
  9
$SKPOLY
 70
     0
  9
$TDCREATE
 40
2461251.019546586
  9
$TDUCREATE
 40
2461250.686213252
  9
$TDUPDATE
 40
2461251.019550255
  9
$TDUUPDATE
 40
2461250.686216921
  9
$TDINDWG
 40
0.0000000116
  9
$TDUSRTIMER
 40
0.0000000116
  9
$USRTIMER
 70
     1
  9
$ANGBASE
 50
0.0
  9
$ANGDIR
 70
     0
  9
$PDMODE
 70
     0
  9
$PDSIZE
 40
-1.0
  9
$PLINEWID
 40
0.0
  9
$SPLFRAME
 70
     0
  9
$SPLINETYPE
 70
     6
  9
$SPLINESEGS
 70
     8
  9
$HANDSEED
  5
31F
  9
$SURFTAB1
 70
     6
  9
$SURFTAB2
 70
     6
  9
$SURFTYPE
 70
     6
  9
$SURFU
 70
     6
  9
$SURFV
 70
     6
  9
$UCSBASE
  2

  9
$UCSNAME
  2

  9
$UCSORG
 10
0.0
 20
0.0
 30
0.0
  9
$UCSXDIR
 10
1.0
 20
0.0
 30
0.0
  9
$UCSYDIR
 10
0.0
 20
1.0
 30
0.0
  9
$UCSORTHOREF
  2

  9
$UCSORTHOVIEW
 70
     0
  9
$UCSORGTOP
 10
0.0
 20
0.0
 30
0.0
  9
$UCSORGBOTTOM
 10
0.0
 20
0.0
 30
0.0
  9
$UCSORGLEFT
 10
0.0
 20
0.0
 30
0.0
  9
$UCSORGRIGHT
 10
0.0
 20
0.0
 30
0.0
  9
$UCSORGFRONT
 10
0.0
 20
0.0
 30
0.0
  9
$UCSORGBACK
 10
0.0
 20
0.0
 30
0.0
  9
$PUCSBASE
  2

  9
$PUCSNAME
  2

  9
$PUCSORG
 10
0.0
 20
0.0
 30
0.0
  9
$PUCSXDIR
 10
1.0
 20
0.0
 30
0.0
  9
$PUCSYDIR
 10
0.0
 20
1.0
 30
0.0
  9
$PUCSORTHOREF
  2

  9
$PUCSORTHOVIEW
 70
     0
  9
$PUCSORGTOP
 10
0.0
 20
0.0
 30
0.0
  9
$PUCSORGBOTTOM
 10
0.0
 20
0.0
 30
0.0
  9
$PUCSORGLEFT
 10
0.0
 20
0.0
 30
0.0
  9
$PUCSORGRIGHT
 10
0.0
 20
0.0
 30
0.0
  9
$PUCSORGFRONT
 10
0.0
 20
0.0
 30
0.0
  9
$PUCSORGBACK
 10
0.0
 20
0.0
 30
0.0
  9
$USERI1
 70
     0
  9
$USERI2
 70
     0
  9
$USERI3
 70
     0
  9
$USERI4
 70
     0
  9
$USERI5
 70
     0
  9
$USERR1
 40
0.0
  9
$USERR2
 40
0.0
  9
$USERR3
 40
0.0
  9
$USERR4
 40
0.0
  9
$USERR5
 40
0.0
  9
$WORLDVIEW
 70
     1
  9
$SHADEDGE
 70
     3
  9
$SHADEDIF
 70
    70
  9
$TILEMODE
 70
     1
  9
$MAXACTVP
 70
    64
  9
$PINSBASE
 10
0.0
 20
0.0
 30
0.0
  9
$PLIMCHECK
 70
     0
  9
$PEXTMIN
 10
1.0000000000E+20
 20
1.0000000000E+20
 30
1.0000000000E+20
  9
$PEXTMAX
 10
-1.0000000000E+20
 20
-1.0000000000E+20
 30
-1.0000000000E+20
  9
$PLIMMIN
 10
0.0
 20
0.0
  9
$PLIMMAX
 10
420.0
 20
297.0
  9
$UNITMODE
 70
     0
  9
$VISRETAIN
 70
     1
  9
$PLINEGEN
 70
     0
  9
$PSLTSCALE
 70
     1
  9
$TREEDEPTH
 70
  3020
  9
$CMLSTYLE
  2
Standard
  9
$CMLJUST
 70
     0
  9
$CMLSCALE
 40
20.0
  9
$PROXYGRAPHICS
 70
     1
  9
$MEASUREMENT
 70
     1
  9
$CELWEIGHT
370
    -1
  9
$ENDCAPS
280
     0
  9
$JOINSTYLE
280
     0
  9
$LWDISPLAY
290
     1
  9
$INSUNITS
 70
     4
  9
$HYPERLINKBASE
  1

  9
$STYLESHEET
  1

  9
$XEDIT
290
     1
  9
$CEPSNTYPE
380
     0
  9
$PSTYLEMODE
290
     1
  9
$FINGERPRINTGUID
  2
{dbc0711b-88dd-44a7-b670-15980765ee96}
  9
$VERSIONGUID
  2
{FAEB1C32-E019-11D5-929B-00C0DF256EC4}
  9
$EXTNAMES
290
     1
  9
$PSVPSCALE
 40
0.0
  9
$OLESTARTUP
290
     0
  0
ENDSEC
  0
SECTION
  2
CLASSES
  0
CLASS
  1
ACDBDICTIONARYWDFLT
  2
AcDbDictionaryWithDefault
  3
ObjectDBX Classes
 90
        0
280
     0
281
     0
  0
CLASS
  1
VISUALSTYLE
  2
AcDbVisualStyle
  3
ObjectDBX Classes
 90
     4095
280
     0
281
     0
  0
CLASS
  1
MATERIAL
  2
AcDbMaterial
  3
ObjectDBX Classes
 90
     1153
280
     0
281
     0
  0
CLASS
  1
SCALE
  2
AcDbScale
  3
ObjectDBX Classes
 90
     1153
280
     0
281
     0
  0
CLASS
  1
TABLESTYLE
  2
AcDbTableStyle
  3
ObjectDBX Classes
 90
     4095
280
     0
281
     0
  0
CLASS
  1
MLEADERSTYLE
  2
AcDbMLeaderStyle
  3
ACDB_MLEADERSTYLE_CLASS
 90
     4095
280
     0
281
     0
  0
CLASS
  1
SUN
  2
AcDbSun
  3
SCENEOE
 90
     1153
280
     0
281
     0
  0
CLASS
  1
ACDBPLACEHOLDER
  2
AcDbPlaceHolder
  3
ObjectDBX Classes
 90
        0
280
     0
281
     0
  0
CLASS
  1
LAYOUT
  2
AcDbLayout
  3
ObjectDBX Classes
 90
        0
280
     0
281
     0
  0
ENDSEC
  0
SECTION
  2
TABLES
  0
TABLE
  2
VPORT
  5
8
330
0
100
AcDbSymbolTable
 70
     1
  0
VPORT
  5
29
330
8
100
AcDbSymbolTableRecord
100
AcDbViewportTableRecord
  2
*Active
 70
     0
 10
0.0
 20
0.0
 11
1.0
 21
1.0
 12
210.0
 22
148.5
 13
0.0
 23
0.0
 14
10.0
 24
10.0
 15
10.0
 25
10.0
 16
0.0
 26
0.0
 36
1.0
 17
0.0
 27
0.0
 37
0.0
 40
297.0
 41
1.4141414141
 42
50.0
 43
0.0
 44
0.0
 50
0.0
 51
0.0
 71
     0
 72
  2000
 73
     1
 74
     3
 75
     0
 76
     0
 77
     0
 78
     0
281
     0
 65
     1
110
0.0
120
0.0
130
0.0
111
1.0
121
0.0
131
0.0
112
0.0
122
1.0
132
0.0
 79
     0
146
0.0
  0
ENDTAB
  0
TABLE
  2
LTYPE
  5
5
330
0
100
AcDbSymbolTable
 70
     6
  0
LTYPE
  5
14
330
5
100
AcDbSymbolTableRecord
100
AcDbLinetypeTableRecord
  2
ByBlock
 70
     0
  3

 72
    65
 73
     0
 40
0.0
  0
LTYPE
  5
15
330
5
100
AcDbSymbolTableRecord
100
AcDbLinetypeTableRecord
  2
ByLayer
 70
     0
  3

 72
    65
 73
     0
 40
0.0
  0
LTYPE
  5
16
330
5
100
AcDbSymbolTableRecord
100
AcDbLinetypeTableRecord
  2
Continuous
 70
     0
  3
Solid line
 72
    65
 73
     0
 40
0.0
  0
LTYPE
  5
5E
330
5
100
AcDbSymbolTableRecord
100
AcDbLinetypeTableRecord
  2
HIDDEN
 70
     0
  3
Hidden __ __ __ __ __ __ __ __ __ __ __ __ __ __
 72
    65
 73
     2
 40
1.905
 49
1.27
 74
     0
 49
-0.635
 74
     0
  0
LTYPE
  5
5F
330
5
100
AcDbSymbolTableRecord
100
AcDbLinetypeTableRecord
  2
PHANTOM
 70
     0
  3
Phantom ______  __  __  ______  __  __  ______
 72
    65
 73
     6
 40
12.7
 49
6.35
 74
     0
 49
-1.27
 74
     0
 49
1.27
 74
     0
 49
-1.27
 74
     0
 49
1.27
 74
     0
 49
-1.27
 74
     0
  0
LTYPE
  5
60
330
5
100
AcDbSymbolTableRecord
100
AcDbLinetypeTableRecord
  2
CENTER
 70
     0
  3
Center ____ _ ____ _ ____ _ ____ _ ____ _ ____
 72
    65
 73
     4
 40
10.16
 49
6.35
 74
     0
 49
-1.27
 74
     0
 49
1.27
 74
     0
 49
-1.27
 74
     0
  0
LTYPE
  5
61
330
5
100
AcDbSymbolTableRecord
100
AcDbLinetypeTableRecord
  2
CENTERX2
 70
     0
  3
Center (2x) ________  __  ________  __  _____
 72
    65
 73
     4
 40
20.32
 49
12.7
 74
     0
 49
-2.54
 74
     0
 49
2.54
 74
     0
 49
-2.54
 74
     0
  0
LTYPE
  5
62
330
5
100
AcDbSymbolTableRecord
100
AcDbLinetypeTableRecord
  2
DOT2
 70
     0
  3
Dot (.5x) ........................................
 72
    65
 73
     2
 40
0.635
 49
0.0
 74
     0
 49
-0.635
 74
     0
  0
ENDTAB
  0
TABLE
  2
LAYER
  5
2
330
0
100
AcDbSymbolTable
 70
    14
  0
LAYER
  5
10
330
2
100
AcDbSymbolTableRecord
100
AcDbLayerTableRecord
  2
0
 70
     0
 62
     7
  6
Continuous
370
    -3
390
F
  0
LAYER
  5
63
330
2
100
AcDbSymbolTableRecord
100
AcDbLayerTableRecord
  2
SLD-0
 70
     0
 62
     7
  6
Continuous
370
    -3
390
F
  0
LAYER
  5
64
330
2
100
AcDbSymbolTableRecord
100
AcDbLayerTableRecord
  2
5
 70
     0
 62
     7
  6
Continuous
370
    -3
390
F
  0
LAYER
  5
65
330
2
100
AcDbSymbolTableRecord
100
AcDbLayerTableRecord
  2
9
 70
     0
 62
     7
  6
Continuous
370
    -3
390
F
  0
LAYER
  5
66
330
2
100
AcDbSymbolTableRecord
100
AcDbLayerTableRecord
  2
10
 70
     0
 62
     7
  6
Continuous
370
    -3
390
F
  0
LAYER
  5
67
330
2
100
AcDbSymbolTableRecord
100
AcDbLayerTableRecord
  2
轮廓实线层
 70
     0
 62
     7
  6
Continuous
370
    50
390
F
  0
LAYER
  5
68
330
2
100
AcDbSymbolTableRecord
100
AcDbLayerTableRecord
  2
细线层
 70
     0
 62
     4
  6
Continuous
370
    25
390
F
  0
LAYER
  5
69
330
2
100
AcDbSymbolTableRecord
100
AcDbLayerTableRecord
  2
中心线层
 70
     0
 62
     1
  6
CENTERX2
370
    25
390
F
  0
LAYER
  5
6A
330
2
100
AcDbSymbolTableRecord
100
AcDbLayerTableRecord
  2
虚线层
 70
     0
 62
     6
  6
HIDDEN
370
    25
390
F
  0
LAYER
  5
6B
330
2
100
AcDbSymbolTableRecord
100
AcDbLayerTableRecord
  2
剖面线层
 70
     0
 62
     2
  6
Continuous
370
    25
390
F
  0
LAYER
  5
6C
330
2
100
AcDbSymbolTableRecord
100
AcDbLayerTableRecord
  2
文字层
 70
     0
 62
     3
  6
Continuous
370
    25
390
F
  0
LAYER
  5
6D
330
2
100
AcDbSymbolTableRecord
100
AcDbLayerTableRecord
  2
标注层
 70
     0
 62
     4
  6
Continuous
370
    25
390
F
  0
LAYER
  5
6E
330
2
100
AcDbSymbolTableRecord
100
AcDbLayerTableRecord
  2
符号标注层
 70
     0
 62
    31
  6
Continuous
370
    25
390
F
  0
LAYER
  5
6F
330
2
100
AcDbSymbolTableRecord
100
AcDbLayerTableRecord
  2
双点划线层
 70
     0
 62
     6
  6
PHANTOM
370
    25
390
F
  0
ENDTAB
  0
TABLE
  2
STYLE
  5
3
330
0
100
AcDbSymbolTable
 70
     6
  0
STYLE
  5
11
330
3
100
AcDbSymbolTableRecord
100
AcDbTextStyleTableRecord
  2
Standard
 70
     0
 40
0.0
 41
1.0
 50
0.0
 71
     0
 42
3.5
  3
txt
  4

  0
STYLE
  5
BE
330
3
100
AcDbSymbolTableRecord
100
AcDbTextStyleTableRecord
  2
SLDTEXTSTYLE0
 70
     0
 40
0.0
 41
0.7
 50
0.0
 71
     0
 42
3.5
  3
TXT
  4
bigfont
  0
STYLE
  5
C7
330
3
100
AcDbSymbolTableRecord
100
AcDbTextStyleTableRecord
  2
SLDTEXTSTYLE1
 70
     0
 40
0.0
 41
0.62
 50
0.0
 71
     0
 42
3.5
  3
TXT
  4
bigfont
  0
STYLE
  5
CC
330
3
100
AcDbSymbolTableRecord
100
AcDbTextStyleTableRecord
  2
SLDTEXTSTYLE2
 70
     0
 40
0.0
 41
0.6142857143
 50
0.0
 71
     0
 42
3.5
  3
TXT
  4
bigfont
  0
STYLE
  5
CE
330
3
100
AcDbSymbolTableRecord
100
AcDbTextStyleTableRecord
  2
SLDTEXTSTYLE3
 70
     0
 40
0.0
 41
0.6
 50
0.0
 71
     0
 42
3.5
  3
TXT
  4
bigfont
  0
STYLE
  5
DF
330
3
100
AcDbSymbolTableRecord
100
AcDbTextStyleTableRecord
  2
SLDTEXTSTYLE4
 70
     0
 40
0.0
 41
0.7
 50
0.0
 71
     0
 42
3.5
  3
TXT
  4

  0
ENDTAB
  0
TABLE
  2
VIEW
  5
6
330
0
100
AcDbSymbolTable
 70
     0
  0
ENDTAB
  0
TABLE
  2
UCS
  5
7
330
0
100
AcDbSymbolTable
 70
     0
  0
ENDTAB
  0
TABLE
  2
APPID
  5
9
330
0
100
AcDbSymbolTable
 70
     1
  0
APPID
  5
12
330
9
100
AcDbSymbolTableRecord
100
AcDbRegAppTableRecord
  2
ACAD
 70
     0
  0
ENDTAB
  0
TABLE
  2
DIMSTYLE
  5
A
330
0
100
AcDbSymbolTable
 70
     1
100
AcDbDimStyleTable
  0
DIMSTYLE
105
27
330
A
100
AcDbSymbolTableRecord
100
AcDbDimStyleTableRecord
  2
ISO-25
 70
     0
 41
2.5
 42
0.625
 43
3.75
 44
1.25
 73
     0
 74
     0
 77
     1
 78
     8
140
2.5
141
2.5
143
0.0393700787
147
0.625
171
     3
172
     1
178
     0
271
     2
272
     2
274
     3
278
    44
283
     0
284
     8
340
11
  0
ENDTAB
  0
TABLE
  2
BLOCK_RECORD
  5
1
330
0
100
AcDbSymbolTable
 70
     1
  0
BLOCK_RECORD
  5
1F
330
1
100
AcDbSymbolTableRecord
100
AcDbBlockTableRecord
  2
*Model_Space
340
22
  0
BLOCK_RECORD
  5
1B
330
1
100
AcDbSymbolTableRecord
100
AcDbBlockTableRecord
  2
*Paper_Space
340
1E
  0
BLOCK_RECORD
  5
23
330
1
100
AcDbSymbolTableRecord
100
AcDbBlockTableRecord
  2
*Paper_Space0
340
26
  0
ENDTAB
  0
ENDSEC
  0
SECTION
  2
BLOCKS
  0
BLOCK
  5
20
330
1F
100
AcDbEntity
  8
0
100
AcDbBlockBegin
  2
*Model_Space
 70
     0
 10
0.0
 20
0.0
 30
0.0
  3
*Model_Space
  1

  0
ENDBLK
  5
21
330
1F
100
AcDbEntity
  8
0
100
AcDbBlockEnd
  0
BLOCK
  5
1C
330
1B
100
AcDbEntity
 67
     1
  8
0
100
AcDbBlockBegin
  2
*Paper_Space
 70
     0
 10
0.0
 20
0.0
 30
0.0
  3
*Paper_Space
  1

  0
ENDBLK
  5
1D
330
1B
100
AcDbEntity
 67
     1
  8
0
100
AcDbBlockEnd
  0
BLOCK
  5
24
330
23
100
AcDbEntity
  8
0
100
AcDbBlockBegin
  2
*Paper_Space0
 70
     0
 10
0.0
 20
0.0
 30
0.0
  3
*Paper_Space0
  1

  0
ENDBLK
  5
25
330
23
100
AcDbEntity
  8
0
100
AcDbBlockEnd
  0
ENDSEC
  0
SECTION
  2
ENTITIES
  0
LINE
  5
70
330
1F
100
AcDbEntity
  8
5
 62
     7
370
    25
100
AcDbLine
 10
0.0
 20
5.0
 30
0.0
 11
415.0
 21
5.0
 31
0.0
  0
LINE
  5
71
330
1F
100
AcDbEntity
  8
5
 62
     7
370
    25
100
AcDbLine
 10
415.0
 20
5.0
 30
0.0
 11
415.0
 21
292.0
 31
0.0
  0
LINE
  5
72
330
1F
100
AcDbEntity
  8
5
 62
     7
370
    25
100
AcDbLine
 10
415.0
 20
292.0
 30
0.0
 11
25.0
 21
292.0
 31
0.0
  0
LINE
  5
73
330
1F
100
AcDbEntity
  8
5
 62
     7
370
    25
100
AcDbLine
 10
25.0
 20
292.0
 30
0.0
 11
25.0
 21
5.0
 31
0.0
  0
LINE
  5
74
330
1F
100
AcDbEntity
  8
5
 62
     7
370
    25
100
AcDbLine
 10
25.0
 20
280.0
 30
0.0
 11
85.0
 21
280.0
 31
0.0
  0
LINE
  5
75
330
1F
100
AcDbEntity
  8
5
 62
     7
370
    25
100
AcDbLine
 10
85.0
 20
280.0
 30
0.0
 11
85.0
 21
292.0
 31
0.0
  0
LINE
  5
76
330
1F
100
AcDbEntity
  8
9
 62
     7
100
AcDbLine
 10
0.0
 20
0.0
 30
0.0
 11
420.0
 21
0.0
 31
0.0
  0
LINE
  5
77
330
1F
100
AcDbEntity
  8
5
100
AcDbLine
 10
70.0
 20
297.0
 30
0.0
 11
70.0
 21
292.0
 31
0.0
  0
LINE
  5
78
330
1F
100
AcDbEntity
  8
5
100
AcDbLine
 10
120.0
 20
297.0
 30
0.0
 11
120.0
 21
292.0
 31
0.0
  0
LINE
  5
79
330
1F
100
AcDbEntity
  8
5
100
AcDbLine
 10
170.0
 20
297.0
 30
0.0
 11
170.0
 21
292.0
 31
0.0
  0
LINE
  5
7A
330
1F
100
AcDbEntity
  8
5
370
    25
100
AcDbLine
 10
220.0
 20
297.0
 30
0.0
 11
220.0
 21
287.0
 31
0.0
  0
LINE
  5
7B
330
1F
100
AcDbEntity
  8
9
 62
     7
100
AcDbLine
 10
420.0
 20
0.0
 30
0.0
 11
420.0
 21
148.5
 31
0.0
  0
LINE
  5
7C
330
1F
100
AcDbEntity
  8
9
 62
     7
100
AcDbLine
 10
420.0
 20
148.5
 30
0.0
 11
420.0
 21
297.0
 31
0.0
  0
LINE
  5
7D
330
1F
100
AcDbEntity
  8
9
 62
     7
100
AcDbLine
 10
420.0
 20
297.0
 30
0.0
 11
0.0
 21
297.0
 31
0.0
  0
LINE
  5
7E
330
1F
100
AcDbEntity
  8
5
100
AcDbLine
 10
270.0
 20
297.0
 30
0.0
 11
270.0
 21
292.0
 31
0.0
  0
LINE
  5
7F
330
1F
100
AcDbEntity
  8
5
100
AcDbLine
 10
320.0
 20
297.0
 30
0.0
 11
320.0
 21
292.0
 31
0.0
  0
LINE
  5
80
330
1F
100
AcDbEntity
  8
5
100
AcDbLine
 10
370.0
 20
297.0
 30
0.0
 11
370.0
 21
292.0
 31
0.0
  0
LINE
  5
81
330
1F
100
AcDbEntity
  8
5
100
AcDbLine
 10
420.0
 20
248.5
 30
0.0
 11
415.0
 21
248.5
 31
0.0
  0
LINE
  5
82
330
1F
100
AcDbEntity
  8
5
100
AcDbLine
 10
420.0
 20
198.5
 30
0.0
 11
415.0
 21
198.5
 31
0.0
  0
LINE
  5
83
330
1F
100
AcDbEntity
  8
5
370
    25
100
AcDbLine
 10
420.0
 20
148.5
 30
0.0
 11
410.0
 21
148.5
 31
0.0
  0
LINE
  5
84
330
1F
100
AcDbEntity
  8
9
 62
     7
100
AcDbLine
 10
0.0
 20
297.0
 30
0.0
 11
0.0
 21
0.0
 31
0.0
  0
LINE
  5
85
330
1F
100
AcDbEntity
  8
5
100
AcDbLine
 10
420.0
 20
98.5
 30
0.0
 11
415.0
 21
98.5
 31
0.0
  0
LINE
  5
86
330
1F
100
AcDbEntity
  8
5
100
AcDbLine
 10
420.0
 20
48.5
 30
0.0
 11
415.0
 21
48.5
 31
0.0
  0
LINE
  5
87
330
1F
100
AcDbEntity
  8
10
 62
     7
100
AcDbLine
 10
0.0
 20
91.0
 30
0.0
 11
25.0
 21
91.0
 31
0.0
  0
LINE
  5
88
330
1F
100
AcDbEntity
  8
10
 62
     7
100
AcDbLine
 10
0.0
 20
96.0
 30
0.0
 11
25.0
 21
96.0
 31
0.0
  0
LINE
  5
89
330
1F
100
AcDbEntity
  8
10
 62
     7
100
AcDbLine
 10
0.0
 20
78.0
 30
0.0
 11
25.0
 21
78.0
 31
0.0
  0
LINE
  5
8A
330
1F
100
AcDbEntity
  8
10
 62
     7
100
AcDbLine
 10
0.0
 20
83.0
 30
0.0
 11
25.0
 21
83.0
 31
0.0
  0
LINE
  5
8B
330
1F
100
AcDbEntity
  8
10
 62
     7
100
AcDbLine
 10
0.0
 20
65.0
 30
0.0
 11
25.0
 21
65.0
 31
0.0
  0
LINE
  5
8C
330
1F
100
AcDbEntity
  8
10
 62
     7
100
AcDbLine
 10
0.0
 20
70.0
 30
0.0
 11
25.0
 21
70.0
 31
0.0
  0
LINE
  5
8D
330
1F
100
AcDbEntity
  8
10
 62
     7
100
AcDbLine
 10
0.0
 20
52.0
 30
0.0
 11
25.0
 21
52.0
 31
0.0
  0
LINE
  5
8E
330
1F
100
AcDbEntity
  8
10
 62
     7
100
AcDbLine
 10
0.0
 20
57.0
 30
0.0
 11
25.0
 21
57.0
 31
0.0
  0
LINE
  5
8F
330
1F
100
AcDbEntity
  8
10
 62
     7
100
AcDbLine
 10
0.0
 20
39.0
 30
0.0
 11
25.0
 21
39.0
 31
0.0
  0
LINE
  5
90
330
1F
100
AcDbEntity
  8
10
 62
     7
100
AcDbLine
 10
0.0
 20
44.0
 30
0.0
 11
25.0
 21
44.0
 31
0.0
  0
LINE
  5
91
330
1F
100
AcDbEntity
  8
10
 62
     7
100
AcDbLine
 10
0.0
 20
26.0
 30
0.0
 11
25.0
 21
26.0
 31
0.0
  0
LINE
  5
92
330
1F
100
AcDbEntity
  8
10
 62
     7
100
AcDbLine
 10
0.0
 20
31.0
 30
0.0
 11
25.0
 21
31.0
 31
0.0
  0
LINE
  5
93
330
1F
100
AcDbEntity
  8
10
 62
     7
100
AcDbLine
 10
0.0
 20
18.0
 30
0.0
 11
25.0
 21
18.0
 31
0.0
  0
LINE
  5
94
330
1F
100
AcDbEntity
  8
10
 62
     7
100
AcDbLine
 10
0.0
 20
13.0
 30
0.0
 11
25.0
 21
13.0
 31
0.0
  0
LINE
  5
95
330
1F
100
AcDbEntity
  8
10
 62
     7
370
    25
100
AcDbLine
 10
365.0
 20
33.0
 30
0.0
 11
365.0
 21
5.0
 31
0.0
  0
LINE
  5
96
330
1F
100
AcDbEntity
  8
10
 62
     7
370
    25
100
AcDbLine
 10
353.0
 20
43.0
 30
0.0
 11
353.0
 21
23.0
 31
0.0
  0
LINE
  5
97
330
1F
100
AcDbEntity
  8
10
 62
     7
370
    25
100
AcDbLine
 10
340.9862173219
 20
43.0
 30
0.0
 11
340.9862173219
 21
23.0
 31
0.0
  0
LINE
  5
98
330
1F
100
AcDbEntity
  8
SLD-0
370
    25
100
AcDbLine
 10
340.9862173219
 20
14.0
 30
0.0
 11
340.9862173219
 21
5.0
 31
0.0
  0
LINE
  5
99
330
1F
100
AcDbEntity
  8
SLD-0
100
AcDbLine
 10
328.0
 20
33.0
 30
0.0
 11
328.0
 21
23.0
 31
0.0
  0
LINE
  5
9A
330
1F
100
AcDbEntity
  8
SLD-0
100
AcDbLine
 10
321.5
 20
33.0
 30
0.0
 11
321.5
 21
23.0
 31
0.0
  0
LINE
  5
9B
330
1F
100
AcDbEntity
  8
10
 62
     7
370
    25
100
AcDbLine
 10
315.0
 20
43.0
 30
0.0
 11
415.0
 21
43.0
 31
0.0
  0
LINE
  5
9C
330
1F
100
AcDbEntity
  8
10
 62
     7
370
    25
100
AcDbLine
 10
315.0
 20
23.0
 30
0.0
 11
415.0
 21
23.0
 31
0.0
  0
LINE
  5
9D
330
1F
100
AcDbEntity
  8
10
 62
     7
370
    25
100
AcDbLine
 10
315.0
 20
14.0
 30
0.0
 11
415.0
 21
14.0
 31
0.0
  0
LINE
  5
9E
330
1F
100
AcDbEntity
  8
10
 62
     7
370
    25
100
AcDbLine
 10
271.0
 20
61.0
 30
0.0
 11
271.0
 21
33.0
 31
0.0
  0
LINE
  5
9F
330
1F
100
AcDbEntity
  8
10
 62
     7
370
    25
100
AcDbLine
 10
255.0
 20
61.0
 30
0.0
 11
255.0
 21
33.0
 31
0.0
  0
LINE
  5
A0
330
1F
100
AcDbEntity
  8
10
 62
     7
370
    25
100
AcDbLine
 10
245.0
 20
61.0
 30
0.0
 11
245.0
 21
33.0
 31
0.0
  0
LINE
  5
A1
330
1F
100
AcDbEntity
  8
10
 62
     7
370
    25
100
AcDbLine
 10
365.0
 20
61.0
 30
0.0
 11
365.0
 21
33.0
 31
0.0
  0
LINE
  5
A2
330
1F
100
AcDbEntity
  8
10
 62
     7
370
    25
100
AcDbLine
 10
315.0
 20
61.0
 30
0.0
 11
315.0
 21
5.0
 31
0.0
  0
LINE
  5
A3
330
1F
100
AcDbEntity
  8
10
 62
     7
370
    25
100
AcDbLine
 10
299.0
 20
61.0
 30
0.0
 11
299.0
 21
5.0
 31
0.0
  0
LINE
  5
A4
330
1F
100
AcDbEntity
  8
10
 62
     7
370
    25
100
AcDbLine
 10
287.0
 20
61.0
 30
0.0
 11
287.0
 21
5.0
 31
0.0
  0
LINE
  5
A5
330
1F
100
AcDbEntity
  8
10
 62
     7
370
    25
100
AcDbLine
 10
275.0
 20
33.0
 30
0.0
 11
275.0
 21
5.0
 31
0.0
  0
LINE
  5
A6
330
1F
100
AcDbEntity
  8
10
 62
     7
370
    25
100
AcDbLine
 10
259.0
 20
33.0
 30
0.0
 11
259.0
 21
5.0
 31
0.0
  0
LINE
  5
A7
330
1F
100
AcDbEntity
  8
10
 62
     7
100
AcDbLine
 10
235.0
 20
54.0
 30
0.0
 11
315.0
 21
54.0
 31
0.0
  0
LINE
  5
A8
330
1F
100
AcDbEntity
  8
10
 62
     7
100
AcDbLine
 10
235.0
 20
47.0
 30
0.0
 11
315.0
 21
47.0
 31
0.0
  0
LINE
  5
A9
330
1F
100
AcDbEntity
  8
10
 62
     7
370
    25
100
AcDbLine
 10
235.0
 20
40.0
 30
0.0
 11
315.0
 21
40.0
 31
0.0
  0
LINE
  5
AA
330
1F
100
AcDbEntity
  8
10
 62
     7
370
    25
100
AcDbLine
 10
235.0
 20
33.0
 30
0.0
 11
365.0
 21
33.0
 31
0.0
  0
LINE
  5
AB
330
1F
100
AcDbEntity
  8
10
 62
     7
370
    25
100
AcDbLine
 10
235.0
 20
26.0
 30
0.0
 11
315.0
 21
26.0
 31
0.0
  0
LINE
  5
AC
330
1F
100
AcDbEntity
  8
10
 62
     7
370
    25
100
AcDbLine
 10
235.0
 20
19.0
 30
0.0
 11
315.0
 21
19.0
 31
0.0
  0
LINE
  5
AD
330
1F
100
AcDbEntity
  8
10
 62
     7
370
    25
100
AcDbLine
 10
235.0
 20
12.0
 30
0.0
 11
315.0
 21
12.0
 31
0.0
  0
LINE
  5
AE
330
1F
100
AcDbEntity
  8
5
 62
     7
370
    25
100
AcDbLine
 10
235.0
 20
61.0
 30
0.0
 11
415.0
 21
61.0
 31
0.0
  0
LINE
  5
AF
330
1F
100
AcDbEntity
  8
5
 62
     7
370
    25
100
AcDbLine
 10
235.0
 20
61.0
 30
0.0
 11
235.0
 21
5.0
 31
0.0
  0
LINE
  5
B0
330
1F
100
AcDbEntity
  8
10
 62
     7
100
AcDbLine
 10
0.0
 20
104.0
 30
0.0
 11
25.0
 21
104.0
 31
0.0
  0
LINE
  5
B1
330
1F
100
AcDbEntity
  8
10
 62
     7
100
AcDbLine
 10
0.0
 20
109.0
 30
0.0
 11
25.0
 21
109.0
 31
0.0
  0
LINE
  5
B2
330
1F
100
AcDbEntity
  8
10
 62
     7
370
    25
100
AcDbLine
 10
247.0
 20
33.0
 30
0.0
 11
247.0
 21
5.0
 31
0.0
  0
LINE
  5
B3
330
1F
100
AcDbEntity
  8
SLD-0
100
AcDbLine
 10
334.5
 20
33.0
 30
0.0
 11
334.5
 21
23.0
 31
0.0
  0
LINE
  5
B4
330
1F
100
AcDbEntity
  8
5
100
AcDbLine
 10
370.0
 20
0.0
 30
0.0
 11
370.0
 21
5.0
 31
0.0
  0
LINE
  5
B5
330
1F
100
AcDbEntity
  8
5
100
AcDbLine
 10
320.0
 20
0.0
 30
0.0
 11
320.0
 21
5.0
 31
0.0
  0
LINE
  5
B6
330
1F
100
AcDbEntity
  8
5
100
AcDbLine
 10
270.0
 20
0.0
 30
0.0
 11
270.0
 21
5.0
 31
0.0
  0
LINE
  5
B7
330
1F
100
AcDbEntity
  8
5
370
    25
100
AcDbLine
 10
220.0
 20
0.0
 30
0.0
 11
220.0
 21
10.0
 31
0.0
  0
LINE
  5
B8
330
1F
100
AcDbEntity
  8
5
100
AcDbLine
 10
170.0
 20
0.0
 30
0.0
 11
170.0
 21
5.0
 31
0.0
  0
LINE
  5
B9
330
1F
100
AcDbEntity
  8
5
100
AcDbLine
 10
120.0
 20
0.0
 30
0.0
 11
120.0
 21
5.0
 31
0.0
  0
LINE
  5
BA
330
1F
100
AcDbEntity
  8
5
100
AcDbLine
 10
70.0
 20
0.0
 30
0.0
 11
70.0
 21
5.0
 31
0.0
  0
LINE
  5
BB
330
1F
100
AcDbEntity
  8
5
370
    25
100
AcDbLine
 10
0.0
 20
148.5
 30
0.0
 11
30.0
 21
148.5
 31
0.0
  0
LINE
  5
BC
330
1F
100
AcDbEntity
  8
5
100
AcDbLine
 10
0.0
 20
198.5
 30
0.0
 11
25.0
 21
198.5
 31
0.0
  0
LINE
  5
BD
330
1F
100
AcDbEntity
  8
5
100
AcDbLine
 10
0.0
 20
248.5
 30
0.0
 11
25.0
 21
248.5
 31
0.0
  0
MTEXT
  5
BF
330
1F
100
AcDbEntity
  8
10
 62
     7
100
AcDbMText
 10
283.2344421183
 20
17.3301059492
 30
0.0
 40
3.5
 41
0.0
 71
     2
 72
     1
  1
审\U+6838
  7
SLDTEXTSTYLE0
 73
     1
 44
1.0
  0
MTEXT
  5
C0
330
1F
100
AcDbEntity
  8
10
 62
     7
100
AcDbMText
 10
243.1494560629
 20
24.5560872287
 30
0.0
 40
3.5
 41
0.0
 71
     2
 72
     1
  1
\U+6821\U+6838
  7
SLDTEXTSTYLE0
 73
     1
 44
1.0
  0
MTEXT
  5
C1
330
1F
100
AcDbEntity
  8
10
 62
     7
100
AcDbMText
 10
243.1503675949
 20
31.7343342659
 30
0.0
 40
3.5
 41
0.0
 71
     2
 72
     1
  1
设计
  7
SLDTEXTSTYLE0
 73
     1
 44
1.0
  0
MTEXT
  5
C2
330
1F
100
AcDbEntity
  8
10
 62
     7
100
AcDbMText
 10
241.7106904377
 20
38.7166395877
 30
0.0
 40
3.5
 41
0.0
 71
     2
 72
     1
  1
标记
  7
SLDTEXTSTYLE0
 73
     1
 44
1.0
  0
MTEXT
  5
C3
330
1F
100
AcDbEntity
  8
10
 62
     7
100
AcDbMText
 10
251.8861379005
 20
38.7166395877
 30
0.0
 40
3.5
 41
0.0
 71
     2
 72
     1
  1
处\U+6570
  7
SLDTEXTSTYLE0
 73
     1
 44
1.0
  0
MTEXT
  5
C4
330
1F
100
AcDbEntity
  8
10
 62
     7
100
AcDbMText
 10
264.6827371007
 20
38.7166395877
 30
0.0
 40
3.5
 41
0.0
 71
     2
 72
     1
  1
\U+5206\U+533A
  7
SLDTEXTSTYLE0
 73
     1
 44
1.0
  0
MTEXT
  5
C5
330
1F
100
AcDbEntity
  8
10
 62
     7
100
AcDbMText
 10
283.5292877819
 20
38.7166395877
 30
0.0
 40
3.5
 41
0.0
 71
     2
 72
     1
  1
\U+66F4\U+6539\U+6587\U+4EF6\U+53F7
  7
SLDTEXTSTYLE0
 73
     1
 44
1.0
  0
MTEXT
  5
C6
330
1F
100
AcDbEntity
  8
10
 62
     7
100
AcDbMText
 10
295.1872263456
 20
38.7166395877
 30
0.0
 40
3.5
 41
0.0
 71
     2
 72
     1
  1
签\U+540D
  7
SLDTEXTSTYLE0
 73
     1
 44
1.0
  0
MTEXT
  5
C8
330
1F
100
AcDbEntity
  8
10
 62
     7
100
AcDbMText
 10
310.0410486219
 20
38.7166395877
 30
0.0
 40
3.5
 41
0.0
 71
     2
 72
     1
  1
\U+5E74 \U+6708 \U+65E5
  7
SLDTEXTSTYLE1
 73
     1
 44
1.0
  0
MTEXT
  5
C9
330
1F
100
AcDbEntity
  8
10
 62
     7
100
AcDbMText
 10
283.2350498063
 20
24.5985276096
 30
0.0
 40
3.5
 41
0.0
 71
     2
 72
     1
  1
\U+5DE5艺
  7
SLDTEXTSTYLE0
 73
     1
 44
1.0
  0
MTEXT
  5
CA
330
1F
100
AcDbEntity
  8
10
 62
     7
100
AcDbMText
 10
284.1212910262
 20
31.7343342659
 30
0.0
 40
3.5
 41
0.0
 71
     2
 72
     1
  1
标\U+51C6\U+5316
  7
SLDTEXTSTYLE0
 73
     1
 44
1.0
  0
MTEXT
  5
CB
330
1F
100
AcDbEntity
  8
10
 62
     7
100
AcDbMText
 10
283.2165167199
 20
10.441054188
 30
0.0
 40
3.5
 41
0.0
 71
     2
 72
     1
  1
\U+6279\U+51C6
  7
SLDTEXTSTYLE0
 73
     1
 44
1.0
  0
MTEXT
  5
CD
330
1F
100
AcDbEntity
  8
10
 62
     7
100
AcDbMText
 10
331.1254637622
 20
39.9940596377
 30
0.0
 40
3.5
 41
0.0
 71
     2
 72
     1
  1
阶 \U+6BB5 标 记
  7
SLDTEXTSTYLE2
 73
     1
 44
1.0
  0
MTEXT
  5
CF
330
1F
100
AcDbEntity
  8
10
 62
     7
100
AcDbMText
 10
323.1782338696
 20
11.2009950786
 30
0.0
 40
3.5
 41
0.0
 71
     2
 72
     1
  1
\U+5171  张
  7
SLDTEXTSTYLE3
 73
     1
 44
1.0
  0
MTEXT
  5
D0
330
1F
100
AcDbEntity
  8
10
 62
     7
100
AcDbMText
 10
336.4417087603
 20
11.2009950786
 30
0.0
 40
3.5
 41
0.0
 71
     2
 72
     1
  1
\U+7B2C  张
  7
SLDTEXTSTYLE3
 73
     1
 44
1.0
  0
MTEXT
  5
D1
330
1F
100
AcDbEntity
  8
10
 62
     7
100
AcDbMText
 10
348.8504808167
 20
39.9940596377
 30
0.0
 40
3.5
 41
0.0
 71
     2
 72
     1
  1
\U+91CD\U+91CF
  7
SLDTEXTSTYLE0
 73
     1
 44
1.0
  0
MTEXT
  5
D2
330
1F
100
AcDbEntity
  8
10
 62
     7
100
AcDbMText
 10
360.9420390036
 20
39.9940596377
 30
0.0
 40
3.5
 41
0.0
 71
     2
 72
     1
  1
\U+6BD4\U+4F8B
  7
SLDTEXTSTYLE0
 73
     1
 44
1.0
  0
MTEXT
  5
D3
330
1F
100
AcDbEntity
  8
10
 62
     7
100
AcDbMText
 10
13.8810374408
 20
17.4367572972
 30
0.0
 40
3.5
 41
0.0
 71
     2
 72
     1
  1
\U+65E5\U+671F
  7
SLDTEXTSTYLE0
 73
     1
 44
1.0
  0
MTEXT
  5
D4
330
1F
100
AcDbEntity
  8
10
 62
     7
100
AcDbMText
 10
13.8038671209
 20
30.5369013609
 30
0.0
 40
3.5
 41
0.0
 71
     2
 72
     1
  1
签\U+5B57
  7
SLDTEXTSTYLE0
 73
     1
 44
1.0
  0
MTEXT
  5
D5
330
1F
100
AcDbEntity
  8
10
 62
     7
100
AcDbMText
 10
6.4999999478
 20
43.4863381068
 30
0.0
 40
3.5
 41
0.0
 71
     1
 72
     1
  1
\U+5E95图总\U+53F7
  7
SLDTEXTSTYLE0
 73
     1
 44
1.0
  0
MTEXT
  5
D6
330
1F
100
AcDbEntity
  8
10
 62
     7
100
AcDbMText
 10
4.999999702
 20
56.4875163884
 30
0.0
 40
3.5
 41
0.0
 71
     1
 72
     1
  1
\U+65E7\U+5E95图总\U+53F7
  7
SLDTEXTSTYLE0
 73
     1
 44
1.0
  0
MTEXT
  5
D7
330
1F
100
AcDbEntity
  8
10
 62
     7
100
AcDbMText
 10
14.2976996284
 20
69.5170574376
 30
0.0
 40
3.5
 41
0.0
 71
     2
 72
     1
  1
\U+63CF\U+6821
  7
SLDTEXTSTYLE0
 73
     1
 44
1.0
  0
MTEXT
  5
D8
330
1F
100
AcDbEntity
  8
10
 62
     7
100
AcDbMText
 10
14.3302083742
 20
82.5525317133
 30
0.0
 40
3.5
 41
0.0
 71
     2
 72
     1
  1
\U+63CF图
  7
SLDTEXTSTYLE0
 73
     1
 44
1.0
  0
MTEXT
  5
D9
330
1F
100
AcDbEntity
  8
10
 62
     7
100
AcDbMText
 10
2.4737490341
 20
95.4991764407
 30
0.0
 40
3.5
 41
0.0
 71
     1
 72
     1
  1
\U+501F(\U+901A)\U+7528\U+4EF6\U+767B记
  7
SLDTEXTSTYLE0
 73
     1
 44
1.0
  0
MTEXT
  5
DA
330
1F
100
AcDbEntity
  8
10
 62
     7
100
AcDbMText
 10
4.0231242776
 20
108.594753017
 30
0.0
 40
3.5
 41
0.0
 71
     1
 72
     1
  1
\U+96F6 \U+4EF6 \U+4EE3 \U+53F7
  7
SLDTEXTSTYLE2
 73
     1
 44
1.0
  0
MTEXT
  5
DB
330
1F
100
AcDbEntity
  8
10
 62
     7
100
AcDbMText
 10
346.9605974766
 20
11.2009947875
 30
0.0
 40
3.5
 41
0.0
 71
     2
 72
     1
  1
\U+7248\U+672C
  7
SLDTEXTSTYLE0
 73
     1
 44
1.0
  0
MTEXT
  5
DC
330
1F
100
AcDbEntity
  8
10
 62
     7
100
AcDbMText
 10
244.5305977765
 20
17.3301056582
 30
0.0
 40
3.5
 41
0.0
 71
     2
 72
     1
  1
\U+4E3B\U+7BA1设计
  7
SLDTEXTSTYLE0
 73
     1
 44
1.0
  0
MTEXT
  5
DD
330
1F
100
AcDbEntity
  8
SLD-0
100
AcDbMText
 10
366.5608758906
 20
11.2009947875
 30
0.0
 40
3.5
 41
0.0
 71
     1
 72
     1
  1
\U+66FF\U+4EE3
  7
SLDTEXTSTYLE0
 73
     1
 44
1.0
  0
MTEXT
  5
DE
330
1F
100
AcDbEntity
  8
SLD-0
100
AcDbMText
 10
54.4238939136
 20
285.0232919684
 30
0.0
 40
3.5
 41
0.0
 71
     2
 72
     1
  1
\U+201C图样\U+4EE3\U+53F7\U+201D
  7
SLDTEXTSTYLE0
 11
-1.0
 21
-6.982962677686267E-15
 31
0.0
 73
     1
 44
1.0
  0
MTEXT
  5
E0
330
1F
100
AcDbEntity
  8
10
100
AcDbMText
 10
360.6288012062
 20
29.9049374378
 30
0.0
 40
3.5
 41
0.0
 71
     2
 72
     1
  1
1:20
  7
SLDTEXTSTYLE4
 73
     1
 44
1.0
  0
MTEXT
  5
E1
330
1F
100
AcDbEntity
  8
10
100
AcDbMText
 10
321.1423442751
 20
11.2009950786
 30
0.0
 40
3.5
 41
0.0
 71
     1
 72
     1
  1
1
  7
SLDTEXTSTYLE4
 73
     1
 44
1.0
  0
MTEXT
  5
E2
330
1F
100
AcDbEntity
  8
10
100
AcDbMText
 10
334.4794716171
 20
11.2009950786
 30
0.0
 40
3.5
 41
0.0
 71
     1
 72
     1
  1
1
  7
SLDTEXTSTYLE4
 73
     1
 44
1.0
  0
MTEXT
  5
E3
330
1F
100
AcDbEntity
  8
10
100
AcDbMText
 10
349.6419301624
 20
29.9049374378
 30
0.0
 40
3.5
 41
0.0
 71
     2
 72
     1
  1
85.933
  7
SLDTEXTSTYLE4
 73
     1
 44
1.0
  0
MTEXT
  5
E4
330
1F
100
AcDbEntity
  8
10
100
AcDbMText
 10
392.6876328292
 20
35.7909010283
 30
0.0
 40
3.5
 41
0.0
 71
     2
 72
     1
  1
\U+201C图样\U+540D\U+79F0\U+201D
  7
SLDTEXTSTYLE0
 73
     1
 44
1.0
  0
MTEXT
  5
E5
330
1F
100
AcDbEntity
  8
10
100
AcDbMText
 10
392.6900626498
 20
21.0496532158
 30
0.0
 40
3.5
 41
0.0
 71
     2
 72
     1
  1
\U+201C图样\U+4EE3\U+53F7\U+201D
  7
SLDTEXTSTYLE0
 73
     1
 44
1.0
  0
MTEXT
  5
E6
330
1F
100
AcDbEntity
  8
10
100
AcDbMText
 10
35.5444444427
 20
4.4472672869
 30
0.0
 40
3.5
 41
0.0
 71
     2
 72
     1
  1
1
  7
SLDTEXTSTYLE4
 73
     1
 44
1.0
  0
MTEXT
  5
E7
330
1F
100
AcDbEntity
  8
10
100
AcDbMText
 10
95.5444444427
 20
4.4472672869
 30
0.0
 40
3.5
 41
0.0
 71
     2
 72
     1
  1
2
  7
SLDTEXTSTYLE4
 73
     1
 44
1.0
  0
MTEXT
  5
E8
330
1F
100
AcDbEntity
  8
10
100
AcDbMText
 10
345.54687502
 20
4.4472672869
 30
0.0
 40
3.5
 41
0.0
 71
     2
 72
     1
  1
7
  7
SLDTEXTSTYLE4
 73
     1
 44
1.0
  0
MTEXT
  5
E9
330
1F
100
AcDbEntity
  8
10
100
AcDbMText
 10
295.54687502
 20
4.4472672869
 30
0.0
 40
3.5
 41
0.0
 71
     2
 72
     1
  1
6
  7
SLDTEXTSTYLE4
 73
     1
 44
1.0
  0
MTEXT
  5
EA
330
1F
100
AcDbEntity
  8
10
100
AcDbMText
 10
245.5444444427
 20
4.4472672869
 30
0.0
 40
3.5
 41
0.0
 71
     2
 72
     1
  1
5
  7
SLDTEXTSTYLE4
 73
     1
 44
1.0
  0
MTEXT
  5
EB
330
1F
100
AcDbEntity
  8
10
100
AcDbMText
 10
195.5444444427
 20
4.4472672869
 30
0.0
 40
3.5
 41
0.0
 71
     2
 72
     1
  1
4
  7
SLDTEXTSTYLE4
 73
     1
 44
1.0
  0
MTEXT
  5
EC
330
1F
100
AcDbEntity
  8
10
100
AcDbMText
 10
145.5444444427
 20
4.4472672869
 30
0.0
 40
3.5
 41
0.0
 71
     2
 72
     1
  1
3
  7
SLDTEXTSTYLE4
 73
     1
 44
1.0
  0
MTEXT
  5
ED
330
1F
100
AcDbEntity
  8
10
100
AcDbMText
 10
395.54687502
 20
4.4472672869
 30
0.0
 40
3.5
 41
0.0
 71
     2
 72
     1
  1
8
  7
SLDTEXTSTYLE4
 73
     1
 44
1.0
  0
MTEXT
  5
EE
330
1F
100
AcDbEntity
  8
10
100
AcDbMText
 10
395.54687502
 20
296.5189005247
 30
0.0
 40
3.5
 41
0.0
 71
     2
 72
     1
  1
8
  7
SLDTEXTSTYLE4
 73
     1
 44
1.0
  0
MTEXT
  5
EF
330
1F
100
AcDbEntity
  8
10
100
AcDbMText
 10
345.54687502
 20
296.5189005247
 30
0.0
 40
3.5
 41
0.0
 71
     2
 72
     1
  1
7
  7
SLDTEXTSTYLE4
 73
     1
 44
1.0
  0
MTEXT
  5
F0
330
1F
100
AcDbEntity
  8
10
100
AcDbMText
 10
195.5444444427
 20
296.5189005247
 30
0.0
 40
3.5
 41
0.0
 71
     2
 72
     1
  1
4
  7
SLDTEXTSTYLE4
 73
     1
 44
1.0
  0
MTEXT
  5
F1
330
1F
100
AcDbEntity
  8
10
100
AcDbMText
 10
245.5444444427
 20
296.5189005247
 30
0.0
 40
3.5
 41
0.0
 71
     2
 72
     1
  1
5
  7
SLDTEXTSTYLE4
 73
     1
 44
1.0
  0
MTEXT
  5
F2
330
1F
100
AcDbEntity
  8
10
100
AcDbMText
 10
145.5444444427
 20
296.5189005247
 30
0.0
 40
3.5
 41
0.0
 71
     2
 72
     1
  1
3
  7
SLDTEXTSTYLE4
 73
     1
 44
1.0
  0
MTEXT
  5
F3
330
1F
100
AcDbEntity
  8
10
100
AcDbMText
 10
295.54687502
 20
296.5189005247
 30
0.0
 40
3.5
 41
0.0
 71
     2
 72
     1
  1
6
  7
SLDTEXTSTYLE4
 73
     1
 44
1.0
  0
MTEXT
  5
F4
330
1F
100
AcDbEntity
  8
10
100
AcDbMText
 10
95.5444444427
 20
296.5189005247
 30
0.0
 40
3.5
 41
0.0
 71
     2
 72
     1
  1
2
  7
SLDTEXTSTYLE4
 73
     1
 44
1.0
  0
MTEXT
  5
F5
330
1F
100
AcDbEntity
  8
10
100
AcDbMText
 10
35.5444444427
 20
296.5189005247
 30
0.0
 40
3.5
 41
0.0
 71
     2
 72
     1
  1
1
  7
SLDTEXTSTYLE4
 73
     1
 44
1.0
  0
MTEXT
  5
F6
330
1F
100
AcDbEntity
  8
10
100
AcDbMText
 10
418.224305544
 20
26.2689005247
 30
0.0
 40
3.5
 41
0.0
 71
     2
 72
     1
  1
F
  7
SLDTEXTSTYLE4
 73
     1
 44
1.0
  0
MTEXT
  5
F7
330
1F
100
AcDbEntity
  8
10
100
AcDbMText
 10
418.3178819427
 20
75.5189005247
 30
0.0
 40
3.5
 41
0.0
 71
     2
 72
     1
  1
E
  7
SLDTEXTSTYLE4
 73
     1
 44
1.0
  0
MTEXT
  5
F8
330
1F
100
AcDbEntity
  8
10
100
AcDbMText
 10
418.42968752
 20
125.5189005247
 30
0.0
 40
3.5
 41
0.0
 71
     2
 72
     1
  1
D
  7
SLDTEXTSTYLE4
 73
     1
 44
1.0
  0
MTEXT
  5
F9
330
1F
100
AcDbEntity
  8
10
100
AcDbMText
 10
418.4272569427
 20
175.5189005247
 30
0.0
 40
3.5
 41
0.0
 71
     2
 72
     1
  1
C
  7
SLDTEXTSTYLE4
 73
     1
 44
1.0
  0
MTEXT
  5
FA
330
1F
100
AcDbEntity
  8
10
100
AcDbMText
 10
418.32031252
 20
225.5189005247
 30
0.0
 40
3.5
 41
0.0
 71
     2
 72
     1
  1
B
  7
SLDTEXTSTYLE4
 73
     1
 44
1.0
  0
MTEXT
  5
FB
330
1F
100
AcDbEntity
  8
10
100
AcDbMText
 10
418.32031252
 20
274.7689005247
 30
0.0
 40
3.5
 41
0.0
 71
     2
 72
     1
  1
A
  7
SLDTEXTSTYLE4
 73
     1
 44
1.0
  0
MTEXT
  5
FC
330
1F
100
AcDbEntity
  8
10
100
AcDbMText
 10
13.32031252
 20
274.7689005247
 30
0.0
 40
3.5
 41
0.0
 71
     2
 72
     1
  1
A
  7
SLDTEXTSTYLE4
 73
     1
 44
1.0
  0
MTEXT
  5
FD
330
1F
100
AcDbEntity
  8
10
100
AcDbMText
 10
13.32031252
 20
225.5189005247
 30
0.0
 40
3.5
 41
0.0
 71
     2
 72
     1
  1
B
  7
SLDTEXTSTYLE4
 73
     1
 44
1.0
  0
MTEXT
  5
FE
330
1F
100
AcDbEntity
  8
10
100
AcDbMText
 10
13.4272569427
 20
175.5189005247
 30
0.0
 40
3.5
 41
0.0
 71
     2
 72
     1
  1
C
  7
SLDTEXTSTYLE4
 73
     1
 44
1.0
  0
MTEXT
  5
FF
330
1F
100
AcDbEntity
  8
10
100
AcDbMText
 10
13.42968752
 20
125.5189005247
 30
0.0
 40
3.5
 41
0.0
 71
     2
 72
     1
  1
D
  7
SLDTEXTSTYLE4
 73
     1
 44
1.0
  0
LINE
  5
100
330
1F
100
AcDbEntity
  8
0
  6
Continuous
 62
     7
370
    25
100
AcDbLine
 10
130.375
 20
129.79
 30
0.0
 11
131.125
 21
129.79
 31
0.0
  0
LINE
  5
101
330
1F
100
AcDbEntity
  8
0
  6
Continuous
 62
     7
370
    25
100
AcDbLine
 10
131.125
 20
131.59
 30
0.0
 11
128.875
 21
131.59
 31
0.0
  0
LINE
  5
102
330
1F
100
AcDbEntity
  8
0
  6
Continuous
 62
     7
370
    25
100
AcDbLine
 10
127.625
 20
127.815
 30
0.0
 11
128.875
 21
127.815
 31
0.0
  0
LINE
  5
103
330
1F
100
AcDbEntity
  8
0
  6
Continuous
 62
     7
370
    25
100
AcDbLine
 10
128.875
 20
133.565
 30
0.0
 11
127.625
 21
133.565
 31
0.0
  0
LINE
  5
104
330
1F
100
AcDbEntity
  8
0
  6
Continuous
 62
     7
370
    25
100
AcDbLine
 10
75.125
 20
86.19
 30
0.0
 11
75.125
 21
88.29
 31
0.0
  0
LINE
  5
105
330
1F
100
AcDbEntity
  8
0
  6
Continuous
 62
     7
370
    25
100
AcDbLine
 10
58.625
 20
88.29
 30
0.0
 11
58.625
 21
86.19
 31
0.0
  0
LINE
  5
106
330
1F
100
AcDbEntity
  8
0
  6
Continuous
 62
     7
370
    25
100
AcDbLine
 10
73.375
 20
88.29
 30
0.0
 11
73.375
 21
102.94
 31
0.0
  0
LINE
  5
107
330
1F
100
AcDbEntity
  8
0
  6
Continuous
 62
     7
370
    25
100
AcDbLine
 10
60.375
 20
102.94
 30
0.0
 11
60.375
 21
88.29
 31
0.0
  0
LINE
  5
108
330
1F
100
AcDbEntity
  8
0
  6
Continuous
 62
     7
370
    25
100
AcDbLine
 10
75.875
 20
84.69
 30
0.0
 11
75.875
 21
86.19
 31
0.0
  0
LINE
  5
109
330
1F
100
AcDbEntity
  8
0
  6
Continuous
 62
     7
370
    25
100
AcDbLine
 10
57.875
 20
86.19
 30
0.0
 11
57.875
 21
84.69
 31
0.0
  0
ARC
  5
10A
330
1F
100
AcDbEntity
  8
0
  6
Continuous
 62
     7
370
    25
100
AcDbCircle
 10
120.975
 20
129.44
 30
0.0
 40
0.3750000000000016
100
AcDbArc
 50
241.5873834701
 51
50.3207418172
  0
LINE
  5
10B
330
1F
100
AcDbEntity
  8
0
  6
Continuous
 62
     7
370
    25
100
AcDbLine
 10
119.375
 20
128.24
 30
0.0
 11
119.375
 21
128.403627327
 31
0.0
  0
LINE
  5
10C
330
1F
100
AcDbEntity
  8
0
  6
Continuous
 62
     7
370
    25
100
AcDbLine
 10
127.625
 20
129.815
 30
0.0
 11
127.825
 21
129.815
 31
0.0
  0
LINE
  5
10D
330
1F
100
AcDbEntity
  8
0
  6
Continuous
 62
     7
370
    25
100
AcDbLine
 10
127.825
 20
129.065
 30
0.0
 11
127.625
 21
129.065
 31
0.0
  0
LINE
  5
10E
330
1F
100
AcDbEntity
  8
0
  6
Continuous
 62
     7
370
    25
100
AcDbLine
 10
127.825
 20
129.065
 30
0.0
 11
127.825
 21
129.815
 31
0.0
  0
LINE
  5
10F
330
1F
100
AcDbEntity
  8
0
  6
Continuous
 62
     7
370
    25
100
AcDbLine
 10
130.375
 20
130.64
 30
0.0
 11
130.375
 21
128.24
 31
0.0
  0
LINE
  5
110
330
1F
100
AcDbEntity
  8
0
  6
Continuous
 62
     7
370
    25
100
AcDbLine
 10
121.4244564575
 20
130.64
 30
0.0
 11
121.625
 21
130.64
 31
0.0
  0
LINE
  5
111
330
1F
100
AcDbEntity
  8
0
  6
Continuous
 62
     7
370
    25
100
AcDbLine
 10
127.625
 20
130.64
 30
0.0
 11
130.375
 21
130.64
 31
0.0
  0
LINE
  5
112
330
1F
100
AcDbEntity
  8
0
  6
Continuous
 62
     7
370
    25
100
AcDbLine
 10
130.375
 20
128.24
 30
0.0
 11
127.625
 21
128.24
 31
0.0
  0
LINE
  5
113
330
1F
100
AcDbEntity
  8
0
  6
Continuous
 62
     7
370
    25
100
AcDbLine
 10
121.625
 20
128.24
 30
0.0
 11
119.375
 21
128.24
 31
0.0
  0
LINE
  5
114
330
1F
100
AcDbEntity
  8
0
  6
Continuous
 62
     7
370
    25
100
AcDbLine
 10
131.125
 20
130.69
 30
0.0
 11
131.125
 21
129.79
 31
0.0
  0
LINE
  5
115
330
1F
100
AcDbEntity
  8
0
  6
Continuous
 62
     7
370
    25
100
AcDbLine
 10
131.125
 20
131.59
 30
0.0
 11
131.125
 21
130.69
 31
0.0
  0
LINE
  5
116
330
1F
100
AcDbEntity
  8
0
  6
Continuous
 62
     7
370
    25
100
AcDbLine
 10
127.625
 20
136.69
 30
0.0
 11
121.625
 21
136.69
 31
0.0
  0
LINE
  5
117
330
1F
100
AcDbEntity
  8
0
  6
Continuous
 62
     7
370
    25
100
AcDbLine
 10
127.625
 20
136.69
 30
0.0
 11
127.625
 21
124.69
 31
0.0
  0
LINE
  5
118
330
1F
100
AcDbEntity
  8
0
  6
Continuous
 62
     7
370
    25
100
AcDbLine
 10
127.625
 20
124.69
 30
0.0
 11
121.625
 21
124.69
 31
0.0
  0
LINE
  5
119
330
1F
100
AcDbEntity
  8
0
  6
Continuous
 62
     7
370
    25
100
AcDbLine
 10
121.625
 20
136.69
 30
0.0
 11
121.625
 21
124.69
 31
0.0
  0
LINE
  5
11A
330
1F
100
AcDbEntity
  8
0
  6
Continuous
 62
     7
370
    25
100
AcDbLine
 10
128.875
 20
130.69
 30
0.0
 11
128.875
 21
130.64
 31
0.0
  0
LINE
  5
11B
330
1F
100
AcDbEntity
  8
0
  6
Continuous
 62
     7
370
    25
100
AcDbLine
 10
128.875
 20
128.24
 30
0.0
 11
128.875
 21
127.815
 31
0.0
  0
LINE
  5
11C
330
1F
100
AcDbEntity
  8
0
  6
Continuous
 62
     7
370
    25
100
AcDbLine
 10
128.875
 20
133.565
 30
0.0
 11
128.875
 21
130.69
 31
0.0
  0
CIRCLE
  5
11D
330
1F
100
AcDbEntity
  8
0
  6
Continuous
 62
     7
370
    25
100
AcDbCircle
 10
120.6940020727
 20
126.9020939167
 30
0.0
 40
0.3499999999999943
  0
CIRCLE
  5
11E
330
1F
100
AcDbEntity
  8
0
  6
Continuous
 62
     7
370
    25
100
AcDbCircle
 10
117.5559979273
 20
126.9020939167
 30
0.0
 40
0.3499999999999943
  0
ARC
  5
11F
330
1F
100
AcDbEntity
  8
0
  6
Continuous
 62
     7
370
    25
100
AcDbCircle
 10
115.3370939167
 20
129.1209979273
 30
0.0
 40
0.3500000000000227
100
AcDbArc
 50
232.1268649698
 51
90.0
  0
CIRCLE
  5
120
330
1F
100
AcDbEntity
  8
0
  6
Continuous
 62
     7
370
    25
100
AcDbCircle
 10
115.3370939167
 20
132.2590020727
 30
0.0
 40
0.3499999999999943
  0
CIRCLE
  5
121
330
1F
100
AcDbEntity
  8
0
  6
Continuous
 62
     7
370
    25
100
AcDbCircle
 10
117.5559979273
 20
134.4779060833
 30
0.0
 40
0.3499999999999943
  0
CIRCLE
  5
122
330
1F
100
AcDbEntity
  8
0
  6
Continuous
 62
     7
370
    25
100
AcDbCircle
 10
120.6940020727
 20
134.4779060833
 30
0.0
 40
0.3499999999999943
  0
ARC
  5
123
330
1F
100
AcDbEntity
  8
0
  6
Continuous
 62
     7
370
    25
100
AcDbCircle
 10
119.125
 20
130.69
 30
0.0
 40
5.750000000000028
100
AcDbArc
 50
64.2285382594
 51
90.0
  0
ARC
  5
124
330
1F
100
AcDbEntity
  8
0
  6
Continuous
 62
     7
370
    25
100
AcDbCircle
 10
119.125
 20
130.69
 30
0.0
 40
5.749999999999988
100
AcDbArc
 50
251.4103634974
 51
295.7714617406
  0
ARC
  5
125
330
1F
100
AcDbEntity
  8
0
  6
Continuous
 62
     7
370
    25
100
AcDbCircle
 10
119.125
 20
130.69
 30
0.0
 40
5.750000000000028
100
AcDbArc
 50
90.0
 51
170.4901365999
  0
LINE
  5
126
330
1F
100
AcDbEntity
  8
0
  6
Continuous
 62
     7
370
    25
100
AcDbLine
 10
99.8891243186
 20
131.64
 30
0.0
 11
99.8891243186
 21
133.065
 31
0.0
  0
LINE
  5
127
330
1F
100
AcDbEntity
  8
0
  6
Continuous
 62
     7
370
    25
100
AcDbLine
 10
99.8891243186
 20
133.065
 30
0.0
 11
100.0036097159
 21
133.065
 31
0.0
  0
LINE
  5
128
330
1F
100
AcDbEntity
  8
0
  6
Continuous
 62
     7
370
    25
100
AcDbLine
 10
100.0036097159
 20
131.64
 30
0.0
 11
100.0036097159
 21
133.065
 31
0.0
  0
ARC
  5
129
330
1F
100
AcDbEntity
  8
0
  6
Continuous
 62
     7
370
    25
100
AcDbCircle
 10
112.5193563048
 20
129.5393207664
 30
0.0
 40
0.2219960137533813
100
AcDbArc
 50
153.0303666292
 51
26.9696333708
  0
LWPOLYLINE
  5
12A
330
1F
100
AcDbEntity
  8
0
  6
Continuous
 62
     7
370
    25
100
AcDbPolyline
 90
       23
 70
   128
 43
0.0
 10
112.5193563048
 20
132.565
 10
112.5815814805
 20
132.5558859191
 10
112.6387655425
 20
132.5292820449
 10
112.6862757782
 20
132.4873436651
 10
112.7202631909
 20
132.4334683779
 10
112.7379743225
 20
132.3720208386
 10
112.7379743225
 20
132.3079791614
 10
112.7202631909
 20
132.2465316221
 10
112.6862757782
 20
132.1926563349
 10
112.6387655425
 20
132.1507179551
 10
112.5815814805
 20
132.1241140809
 10
112.5193563048
 20
132.115
 10
112.4571311292
 20
132.1241140809
 10
112.3999470672
 20
132.1507179551
 10
112.3524368315
 20
132.1926563349
 10
112.3184494188
 20
132.2465316221
 10
112.3007382871
 20
132.3079791614
 10
112.3007382871
 20
132.3720208386
 10
112.3184494188
 20
132.4334683779
 10
112.3524368315
 20
132.4873436651
 10
112.3999470672
 20
132.5292820449
 10
112.4571311292
 20
132.5558859191
 10
112.5193563048
 20
132.565
  0
LINE
  5
12B
330
1F
100
AcDbEntity
  8
0
  6
Continuous
 62
     7
370
    25
100
AcDbLine
 10
113.7463902841
 20
133.065
 30
0.0
 11
113.7463902841
 21
132.7229922588
 31
0.0
  0
LWPOLYLINE
  5
12C
330
1F
100
AcDbEntity
  8
0
  6
Continuous
 62
     7
370
    25
100
AcDbPolyline
 90
       23
 70
   128
 43
0.0
 10
101.2306436952
 20
132.565
 10
101.2928688708
 20
132.5558859191
 10
101.3500529328
 20
132.5292820449
 10
101.3975631685
 20
132.4873436651
 10
101.4315505812
 20
132.4334683779
 10
101.4492617129
 20
132.3720208386
 10
101.4492617129
 20
132.3079791614
 10
101.4315505812
 20
132.2465316221
 10
101.3975631685
 20
132.1926563349
 10
101.3500529328
 20
132.1507179551
 10
101.2928688708
 20
132.1241140809
 10
101.2306436952
 20
132.115
 10
101.1684185195
 20
132.1241140809
 10
101.1112344575
 20
132.1507179551
 10
101.0637242218
 20
132.1926563349
 10
101.0297368091
 20
132.2465316221
 10
101.0120256775
 20
132.3079791614
 10
101.0120256775
 20
132.3720208386
 10
101.0297368091
 20
132.4334683779
 10
101.0637242218
 20
132.4873436651
 10
101.1112344575
 20
132.5292820449
 10
101.1684185195
 20
132.5558859191
 10
101.2306436952
 20
132.565
  0
LINE
  5
12D
330
1F
100
AcDbEntity
  8
0
  6
Continuous
 62
     7
370
    25
100
AcDbLine
 10
100.0036097159
 20
133.065
 30
0.0
 11
113.7463902841
 21
133.065
 31
0.0
  0
ARC
  5
12E
330
1F
100
AcDbEntity
  8
0
  6
Continuous
 62
     7
370
    25
100
AcDbCircle
 10
101.1118970843
 20
132.34
 30
0.0
 40
0.2258477314622921
100
AcDbArc
 50
285.8026460736
 51
74.1973539264
  0
ARC
  5
12F
330
1F
100
AcDbEntity
  8
0
  6
Continuous
 62
     7
370
    25
100
AcDbCircle
 10
112.400609694
 20
132.34
 30
0.0
 40
0.2258477314620758
100
AcDbArc
 50
285.8026460682
 51
74.1973539318
  0
ARC
  5
130
330
1F
100
AcDbEntity
  8
0
  6
Continuous
 62
     7
370
    25
100
AcDbCircle
 10
112.4002232174
 20
129.539923983
 30
0.0
 40
0.2258801757563282
100
AcDbArc
 50
285.9022240228
 51
26.2985905337
  0
LWPOLYLINE
  5
131
330
1F
100
AcDbEntity
  8
0
  6
Continuous
 62
     7
370
    25
100
AcDbPolyline
 90
       23
 70
   128
 43
0.0
 10
92.9519486589
 20
119.515
 10
93.0079185526
 20
119.5058859191
 10
93.0593540983
 20
119.4792820449
 10
93.1020882941
 20
119.4373436651
 10
93.1326590696
 20
119.3834683779
 10
93.1485897623
 20
119.3220208386
 10
93.1485897623
 20
119.2579791614
 10
93.1326590696
 20
119.1965316221
 10
93.1020882941
 20
119.1426563349
 10
93.0593540983
 20
119.1007179551
 10
93.0079185526
 20
119.0741140809
 10
92.9519486589
 20
119.065
 10
92.8959787653
 20
119.0741140809
 10
92.8445432196
 20
119.1007179551
 10
92.8018090238
 20
119.1426563349
 10
92.7712382483
 20
119.1965316221
 10
92.7553075556
 20
119.2579791614
 10
92.7553075556
 20
119.3220208386
 10
92.7712382483
 20
119.3834683779
 10
92.8018090238
 20
119.4373436651
 10
92.8445432196
 20
119.4792820449
 10
92.8959787653
 20
119.5058859191
 10
92.9519486589
 20
119.515
  0
LINE
  5
132
330
1F
100
AcDbEntity
  8
0
  6
Continuous
 62
     7
370
    25
100
AcDbLine
 10
81.69436685
 20
119.04
 30
0.0
 11
81.69436685
 21
119.89
 31
0.0
  0
LINE
  5
133
330
1F
100
AcDbEntity
  8
0
  6
Continuous
 62
     7
370
    25
100
AcDbLine
 10
81.69436685
 20
122.19
 30
0.0
 11
81.69436685
 21
122.815
 31
0.0
  0
LINE
  5
134
330
1F
100
AcDbEntity
  8
0
  6
Continuous
 62
     7
370
    25
100
AcDbLine
 10
94.05563315
 20
120.3992803127
 30
0.0
 11
94.05563315
 21
118.565
 31
0.0
  0
ARC
  5
135
330
1F
100
AcDbEntity
  8
0
  6
Continuous
 62
     7
370
    25
100
AcDbCircle
 10
82.7916653488
 20
122.1167237742
 30
0.0
 40
0.1983790377612057
100
AcDbArc
 50
21.6770673709
 51
88.1552807659
  0
ARC
  5
136
330
1F
100
AcDbEntity
  8
0
  6
Continuous
 62
     7
370
    25
100
AcDbCircle
 10
82.8044373333
 20
122.1167237742
 30
0.0
 40
0.1983790377612294
100
AcDbArc
 50
91.8447192341
 51
158.3229326291
  0
LWPOLYLINE
  5
137
330
1F
100
AcDbEntity
  8
0
  6
Continuous
 62
     7
370
    25
100
AcDbPolyline
 90
       23
 70
   128
 43
0.0
 10
82.7980513411
 20
119.515
 10
82.8540212347
 20
119.5058859191
 10
82.9054567804
 20
119.4792820449
 10
82.9481909762
 20
119.4373436651
 10
82.9787617517
 20
119.3834683779
 10
82.9946924444
 20
119.3220208386
 10
82.9946924444
 20
119.2579791614
 10
82.9787617517
 20
119.1965316221
 10
82.9481909762
 20
119.1426563349
 10
82.9054567804
 20
119.1007179551
 10
82.8540212347
 20
119.0741140809
 10
82.7980513411
 20
119.065
 10
82.7420814474
 20
119.0741140809
 10
82.6906459017
 20
119.1007179551
 10
82.6479117059
 20
119.1426563349
 10
82.6173409304
 20
119.1965316221
 10
82.6014102377
 20
119.2579791614
 10
82.6014102377
 20
119.3220208386
 10
82.6173409304
 20
119.3834683779
 10
82.6479117059
 20
119.4373436651
 10
82.6906459017
 20
119.4792820449
 10
82.7420814474
 20
119.5058859191
 10
82.7980513411
 20
119.515
  0
LINE
  5
138
330
1F
100
AcDbEntity
  8
0
  6
Continuous
 62
     7
370
    25
100
AcDbLine
 10
81.69436685
 20
122.815
 30
0.0
 11
90.625
 21
122.815
 31
0.0
  0
LINE
  5
139
330
1F
100
AcDbEntity
  8
0
  6
Continuous
 62
     7
370
    25
100
AcDbLine
 10
94.05563315
 20
118.565
 30
0.0
 11
91.0900528331
 21
118.565
 31
0.0
  0
LINE
  5
13A
330
1F
100
AcDbEntity
  8
0
  6
Continuous
 62
     7
370
    25
100
AcDbLine
 10
81.4126839123
 20
119.04
 30
0.0
 11
81.4126839123
 21
119.89
 31
0.0
  0
LINE
  5
13B
330
1F
100
AcDbEntity
  8
0
  6
Continuous
 62
     7
370
    25
100
AcDbLine
 10
81.4126839123
 20
122.19
 30
0.0
 11
81.4126839123
 21
122.815
 31
0.0
  0
LINE
  5
13C
330
1F
100
AcDbEntity
  8
0
  6
Continuous
 62
     7
370
    25
100
AcDbLine
 10
81.4126839123
 20
122.815
 30
0.0
 11
81.69436685
 21
122.815
 31
0.0
  0
LWPOLYLINE
  5
13D
330
1F
100
AcDbEntity
  8
0
  6
Continuous
 62
     7
370
    25
100
AcDbPolyline
 90
        3
 70
   128
 43
0.0
 10
82.6572098722
 20
122.248684143
 10
82.6665080386
 20
122.2373436651
 10
82.6943321802
 20
122.19
  0
ARC
  5
13E
330
1F
100
AcDbEntity
  8
0
  6
Continuous
 62
     7
370
    25
100
AcDbCircle
 10
82.4716044748
 20
119.29
 30
0.0
 40
0.2441925895285302
100
AcDbArc
 50
319.4710683118
 51
40.5289316882
  0
ARC
  5
13F
330
1F
100
AcDbEntity
  8
0
  6
Continuous
 62
     7
370
    25
100
AcDbCircle
 10
92.6255017927
 20
119.29
 30
0.0
 40
0.2441925895285887
100
AcDbArc
 50
319.4710683118
 51
40.5289316882
  0
CIRCLE
  5
140
330
1F
100
AcDbEntity
  8
0
  6
Continuous
 62
     7
370
    25
100
AcDbCircle
 10
119.125
 20
130.69
 30
0.0
 40
2.30000000000004
  0
LWPOLYLINE
  5
141
330
1F
100
AcDbEntity
  8
0
  6
Continuous
 62
     7
370
    25
100
AcDbPolyline
 90
       51
 70
   128
 43
0.0
 10
119.3955838035
 20
128.24
 10
119.3849814897
 20
128.1446868152
 10
119.3503810269
 20
127.9504539453
 10
119.2988288424
 20
127.7601626124
 10
119.2307400042
 20
127.5753449304
 10
119.1466627235
 20
127.3974889426
 10
119.0472739411
 20
127.2280266408
 10
118.9333738771
 20
127.0683224359
 10
118.8058795878
 20
126.9196621722
 10
118.6658175823
 20
126.7832427748
 10
118.5143155575
 20
126.6601626124
 10
118.3525933185
 20
126.5514126541
 10
118.1819529579
 20
126.4578684906
 10
118.0037683714
 20
126.3802832846
 10
117.8194741965
 20
126.3192817065
 10
117.6305542616
 20
126.2753549051
 10
117.4385296389
 20
126.2488565532
 10
117.2449463978
 20
126.24
 10
117.0513631567
 20
126.2488565532
 10
116.859338534
 20
126.2753549051
 10
116.6704185991
 20
126.3192817065
 10
116.4861244242
 20
126.3802832846
 10
116.3079398377
 20
126.4578684906
 10
116.137299477
 20
126.5514126541
 10
115.9755772381
 20
126.6601626124
 10
115.8240752133
 20
126.7832427748
 10
115.6840132077
 20
126.9196621722
 10
115.5565189184
 20
127.0683224359
 10
115.4426188544
 20
127.2280266408
 10
115.3432300721
 20
127.3974889426
 10
115.2591527913
 20
127.5753449304
 10
115.1910639531
 20
127.7601626124
 10
115.1395117687
 20
127.9504539453
 10
115.1049113059
 20
128.1446868152
 10
115.0875411474
 20
128.3412973732
 10
115.0875411474
 20
128.5387026268
 10
115.1049113059
 20
128.7353131848
 10
115.1395117687
 20
128.9295460547
 10
115.1910639531
 20
129.1198373876
 10
115.2591527913
 20
129.3046550696
 10
115.3432300721
 20
129.4825110574
 10
115.4426188544
 20
129.6519733592
 10
115.5565189184
 20
129.8116775641
 10
115.6840132077
 20
129.9603378278
 10
115.8240752133
 20
130.0967572252
 10
115.9755772381
 20
130.2198373876
 10
116.137299477
 20
130.3285873459
 10
116.3079398377
 20
130.4221315094
 10
116.4861244242
 20
130.4997167154
 10
116.6704185991
 20
130.5607182935
 10
116.8268258747
 20
130.5983720024
  0
LINE
  5
142
330
1F
100
AcDbEntity
  8
0
  6
Continuous
 62
     7
370
    25
100
AcDbLine
 10
119.6499329972
 20
126.8883879351
 30
0.0
 11
119.6499329972
 21
125.24
 31
0.0
  0
LINE
  5
143
330
1F
100
AcDbEntity
  8
0
  6
Continuous
 62
     7
370
    25
100
AcDbLine
 10
119.6499329972
 20
125.24
 30
0.0
 11
101.125
 21
125.24
 31
0.0
  0
LINE
  5
144
330
1F
100
AcDbEntity
  8
0
  6
Continuous
 62
     7
370
    25
100
AcDbLine
 10
95.6000670028
 20
130.94
 30
0.0
 11
95.6000670028
 21
131.64
 31
0.0
  0
LINE
  5
145
330
1F
100
AcDbEntity
  8
0
  6
Continuous
 62
     7
370
    25
100
AcDbLine
 10
95.6000670028
 20
131.64
 30
0.0
 11
117.0303639934
 21
131.64
 31
0.0
  0
ARC
  5
146
330
1F
100
AcDbEntity
  8
0
  6
Continuous
 62
     7
370
    25
100
AcDbCircle
 10
117.1547493196
 20
128.437139381
 30
0.0
 40
2.936762269247531
100
AcDbArc
 50
328.1722757787
 51
356.1509465851
  0
LINE
  5
147
330
1F
100
AcDbEntity
  8
0
  6
Continuous
 62
     7
370
    25
100
AcDbLine
 10
113.3920597028
 20
129.64
 30
0.0
 11
113.3920597028
 21
128.99
 31
0.0
  0
LINE
  5
148
330
1F
100
AcDbEntity
  8
0
  6
Continuous
 62
     7
370
    25
100
AcDbLine
 10
101.8579402972
 20
129.64
 30
0.0
 11
113.3920597028
 21
129.64
 31
0.0
  0
LINE
  5
149
330
1F
100
AcDbEntity
  8
0
  6
Continuous
 62
     7
370
    25
100
AcDbLine
 10
101.8579402972
 20
128.99
 30
0.0
 11
101.8579402972
 21
129.64
 31
0.0
  0
LINE
  5
14A
330
1F
100
AcDbEntity
  8
0
  6
Continuous
 62
     7
370
    25
100
AcDbLine
 10
101.8579402972
 20
128.99
 30
0.0
 11
113.3920597028
 21
128.99
 31
0.0
  0
LINE
  5
14B
330
1F
100
AcDbEntity
  8
0
  6
Continuous
 62
     7
370
    25
100
AcDbLine
 10
101.8579402972
 20
127.24
 30
0.0
 11
101.8579402972
 21
127.89
 31
0.0
  0
LINE
  5
14C
330
1F
100
AcDbEntity
  8
0
  6
Continuous
 62
     7
370
    25
100
AcDbLine
 10
113.3920597028
 20
127.24
 30
0.0
 11
101.8579402972
 21
127.24
 31
0.0
  0
LINE
  5
14D
330
1F
100
AcDbEntity
  8
0
  6
Continuous
 62
     7
370
    25
100
AcDbLine
 10
113.3920597028
 20
127.89
 30
0.0
 11
113.3920597028
 21
127.24
 31
0.0
  0
LINE
  5
14E
330
1F
100
AcDbEntity
  8
0
  6
Continuous
 62
     7
370
    25
100
AcDbLine
 10
113.3920597028
 20
127.89
 30
0.0
 11
101.8579402972
 21
127.89
 31
0.0
  0
LINE
  5
14F
330
1F
100
AcDbEntity
  8
0
  6
Continuous
 62
     7
370
    25
100
AcDbLine
 10
95.4092580074
 20
130.94
 30
0.0
 11
95.4092580074
 21
131.64
 31
0.0
  0
LINE
  5
150
330
1F
100
AcDbEntity
  8
0
  6
Continuous
 62
     7
370
    25
100
AcDbLine
 10
95.4092580074
 20
131.64
 30
0.0
 11
95.6000670028
 21
131.64
 31
0.0
  0
LINE
  5
151
330
1F
100
AcDbEntity
  8
0
  6
Continuous
 62
     7
370
    25
100
AcDbLine
 10
113.2012507074
 20
127.89
 30
0.0
 11
113.2012507074
 21
127.24
 31
0.0
  0
LINE
  5
152
330
1F
100
AcDbEntity
  8
0
  6
Continuous
 62
     7
370
    25
100
AcDbLine
 10
113.2012507074
 20
129.64
 30
0.0
 11
113.2012507074
 21
128.99
 31
0.0
  0
ARC
  5
153
330
1F
100
AcDbEntity
  8
0
  6
Continuous
 62
     7
370
    25
100
AcDbCircle
 10
95.875
 20
126.19
 30
0.0
 40
3.624999999999991
100
AcDbArc
 50
241.1649693789
 51
253.8350306211
  0
LINE
  5
154
330
1F
100
AcDbEntity
  8
0
  6
Continuous
 62
     7
370
    25
100
AcDbLine
 10
90.625
 20
121.44
 30
0.0
 11
90.625
 21
130.94
 31
0.0
  0
LINE
  5
155
330
1F
100
AcDbEntity
  8
0
  6
Continuous
 62
     7
370
    25
100
AcDbLine
 10
90.625
 20
130.94
 30
0.0
 11
101.125
 21
130.94
 31
0.0
  0
ARC
  5
156
330
1F
100
AcDbEntity
  8
0
  6
Continuous
 62
     7
370
    25
100
AcDbCircle
 10
95.875
 20
126.19
 30
0.0
 40
3.624999999999997
100
AcDbArc
 50
286.1649693789
 51
298.8350306211
  0
ARC
  5
157
330
1F
100
AcDbEntity
  8
0
  6
Continuous
 62
     7
370
    25
100
AcDbCircle
 10
95.875
 20
126.19
 30
0.0
 40
3.625000000000005
100
AcDbArc
 50
331.1649693789
 51
343.8350306211
  0
ARC
  5
158
330
1F
100
AcDbEntity
  8
0
  6
Continuous
 62
     7
370
    25
100
AcDbCircle
 10
95.875
 20
126.19
 30
0.0
 40
3.625000000000013
100
AcDbArc
 50
16.1649693789
 51
28.8350306211
  0
ARC
  5
159
330
1F
100
AcDbEntity
  8
0
  6
Continuous
 62
     7
370
    25
100
AcDbCircle
 10
95.875
 20
126.19
 30
0.0
 40
3.625000000000023
100
AcDbArc
 50
61.1649693789
 51
73.8350306211
  0
ARC
  5
15A
330
1F
100
AcDbEntity
  8
0
  6
Continuous
 62
     7
370
    25
100
AcDbCircle
 10
94.4973396435
 20
129.515966317
 30
0.0
 40
0.4000000000000128
100
AcDbArc
 50
22.9103248451
 51
202.0896751549
  0
ARC
  5
15B
330
1F
100
AcDbEntity
  8
0
  6
Continuous
 62
     7
370
    25
100
AcDbCircle
 10
95.875
 20
126.19
 30
0.0
 40
3.625000000000016
100
AcDbArc
 50
106.1649693789
 51
118.8350306211
  0
ARC
  5
15C
330
1F
100
AcDbEntity
  8
0
  6
Continuous
 62
     7
370
    25
100
AcDbCircle
 10
92.549033683
 20
127.5676603565
 30
0.0
 40
0.4000000000000074
100
AcDbArc
 50
67.9103248451
 51
247.0896751549
  0
ARC
  5
15D
330
1F
100
AcDbEntity
  8
0
  6
Continuous
 62
     7
370
    25
100
AcDbCircle
 10
95.875
 20
126.19
 30
0.0
 40
3.624999999999999
100
AcDbArc
 50
151.1649693789
 51
163.8350306211
  0
ARC
  5
15E
330
1F
100
AcDbEntity
  8
0
  6
Continuous
 62
     7
370
    25
100
AcDbCircle
 10
95.875
 20
126.19
 30
0.0
 40
3.624999999999991
100
AcDbArc
 50
196.1649693789
 51
208.8350306211
  0
ARC
  5
15F
330
1F
100
AcDbEntity
  8
0
  6
Continuous
 62
     7
370
    25
100
AcDbCircle
 10
99.200966317
 20
124.8123396435
 30
0.0
 40
0.4000000000000036
100
AcDbArc
 50
247.9103248451
 51
67.0896751549
  0
ARC
  5
160
330
1F
100
AcDbEntity
  8
0
  6
Continuous
 62
     7
370
    25
100
AcDbCircle
 10
99.200966317
 20
127.5676603565
 30
0.0
 40
0.4000000000000074
100
AcDbArc
 50
292.9103248451
 51
112.0896751549
  0
ARC
  5
161
330
1F
100
AcDbEntity
  8
0
  6
Continuous
 62
     7
370
    25
100
AcDbCircle
 10
97.2526603565
 20
129.515966317
 30
0.0
 40
0.4000000000000128
100
AcDbArc
 50
337.9103248451
 51
157.0896751549
  0
ARC
  5
162
330
1F
100
AcDbEntity
  8
0
  6
Continuous
 62
     7
370
    25
100
AcDbCircle
 10
97.2526603565
 20
122.864033683
 30
0.0
 40
0.4000000000000074
100
AcDbArc
 50
202.9103248451
 51
22.0896751549
  0
LINE
  5
163
330
1F
100
AcDbEntity
  8
0
  6
Continuous
 62
     7
370
    25
100
AcDbLine
 10
101.125
 20
130.94
 30
0.0
 11
101.125
 21
121.44
 31
0.0
  0
LINE
  5
164
330
1F
100
AcDbEntity
  8
0
  6
Continuous
 62
     7
370
    25
100
AcDbLine
 10
101.125
 20
121.44
 30
0.0
 11
90.625
 21
121.44
 31
0.0
  0
ARC
  5
165
330
1F
100
AcDbEntity
  8
0
  6
Continuous
 62
     7
370
    25
100
AcDbCircle
 10
94.4973396435
 20
122.864033683
 30
0.0
 40
0.4000000000000074
100
AcDbArc
 50
157.9103248451
 51
337.0896751549
  0
ARC
  5
166
330
1F
100
AcDbEntity
  8
0
  6
Continuous
 62
     7
370
    25
100
AcDbCircle
 10
92.549033683
 20
124.8123396435
 30
0.0
 40
0.4000000000000036
100
AcDbArc
 50
112.9103248451
 51
292.0896751549
  0
LINE
  5
167
330
1F
100
AcDbEntity
  8
0
  6
Continuous
 62
     7
370
    25
100
AcDbLine
 10
66.2899459988
 20
116.5329407455
 30
0.0
 11
66.8063647178
 21
116.5329407455
 31
0.0
  0
LINE
  5
168
330
1F
100
AcDbEntity
  8
0
  6
Continuous
 62
     7
370
    25
100
AcDbLine
 10
66.8063647178
 20
120.3470592545
 30
0.0
 11
66.2899459988
 21
120.3470592545
 31
0.0
  0
ARC
  5
169
330
1F
100
AcDbEntity
  8
0
  6
Continuous
 62
     7
370
    25
100
AcDbCircle
 10
70.1220488477
 20
118.44
 30
0.0
 40
3.825001470456681
100
AcDbArc
 50
150.094074494
 51
209.905925506
  0
LWPOLYLINE
  5
16A
330
1F
100
AcDbEntity
  8
0
  6
Continuous
 62
     7
370
    25
100
AcDbPolyline
 90
       23
 70
   128
 43
0.0
 10
66.2899459988
 20
116.0106377715
 10
66.1507020052
 20
116.1807304679
 10
66.0142590103
 20
116.3724920505
 10
65.8902424808
 20
116.5747891798
 10
65.7792843766
 20
116.7865909958
 10
65.6819501146
 20
117.0068182051
 10
65.5987356881
 20
117.2343485804
 10
65.5300651386
 20
117.4680226789
 10
65.4762883955
 20
117.706649751
 10
65.4376794928
 20
117.949013808
 10
65.4144351726
 20
118.193879818
 10
65.4066738826
 20
118.44
 10
65.4144351726
 20
118.686120182
 10
65.4376794928
 20
118.930986192
 10
65.4762883955
 20
119.173350249
 10
65.5300651386
 20
119.4119773211
 10
65.5987356881
 20
119.6456514196
 10
65.6819501146
 20
119.8731817949
 10
65.7792843766
 20
120.0934090042
 10
65.8902424808
 20
120.3052108202
 10
66.0142590103
 20
120.5075079495
 10
66.1507020052
 20
120.6992695321
 10
66.2899459988
 20
120.8693622285
  0
LWPOLYLINE
  5
16B
330
1F
100
AcDbEntity
  8
0
  6
Continuous
 62
     7
370
    25
100
AcDbPolyline
 90
       77
 70
   128
 43
0.0
 10
69.3448390473
 20
121.065
 10
69.5362362873
 20
121.0560342941
 10
69.7263260902
 20
121.0291984214
 10
69.9138099497
 20
120.9846756981
 10
70.097407161
 20
120.9227702595
 10
70.275863569
 20
120.8439049825
 10
70.4479601354
 20
120.7486185969
 10
70.6125212663
 20
120.6375620054
 10
70.7684228423
 20
120.5114938372
 10
70.9145998974
 20
120.3712752655
 10
71.0500538941
 20
120.2178641255
 10
71.1738595444
 20
120.0523083708
 10
71.2851711302
 20
119.8757389151
 10
71.3832282803
 20
119.6893619067
 10
71.467361165
 20
119.4944504897
 10
71.5369950715
 20
119.2923361067
 10
71.5916543295
 20
119.0843994037
 10
71.6309655609
 20
118.8720607995
 10
71.6546602301
 20
118.6567707819
 10
71.6625764786
 20
118.44
 10
71.6546602301
 20
118.2232292181
 10
71.6309655609
 20
118.0079392005
 10
71.5916543295
 20
117.7956005963
 10
71.5369950715
 20
117.5876638933
 10
71.467361165
 20
117.3855495103
 10
71.3832282803
 20
117.1906380933
 10
71.2851711302
 20
117.0042610849
 10
71.1738595444
 20
116.8276916292
 10
71.0500538941
 20
116.6621358745
 10
70.9145998974
 20
116.5087247345
 10
70.7684228423
 20
116.3685061628
 10
70.6125212663
 20
116.2424379946
 10
70.4479601354
 20
116.1313814031
 10
70.275863569
 20
116.0360950175
 10
70.097407161
 20
115.9572297405
 10
69.9138099497
 20
115.8953243019
 10
69.7263260902
 20
115.8508015786
 10
69.5362362873
 20
115.8239657059
 10
69.3448390473
 20
115.815
 10
69.1534418072
 20
115.8239657059
 10
68.9633520044
 20
115.8508015786
 10
68.7758681449
 20
115.8953243019
 10
68.5922709336
 20
115.9572297405
 10
68.4138145256
 20
116.0360950175
 10
68.2417179591
 20
116.1313814031
 10
68.0771568283
 20
116.2424379946
 10
67.9212552523
 20
116.3685061628
 10
67.7750781972
 20
116.5087247345
 10
67.6396242005
 20
116.6621358745
 10
67.5158185501
 20
116.8276916292
 10
67.4045069644
 20
117.0042610849
 10
67.3064498143
 20
117.1906380933
 10
67.2223169296
 20
117.3855495103
 10
67.1526830231
 20
117.5876638933
 10
67.0980237651
 20
117.7956005963
 10
67.0587125337
 20
118.0079392005
 10
67.0350178644
 20
118.2232292181
 10
67.027101616
 20
118.44
 10
67.0350178644
 20
118.6567707819
 10
67.0587125337
 20
118.8720607995
 10
67.0980237651
 20
119.0843994037
 10
67.1526830231
 20
119.2923361067
 10
67.2223169296
 20
119.4944504897
 10
67.3064498143
 20
119.6893619067
 10
67.4045069644
 20
119.8757389151
 10
67.5158185501
 20
120.0523083708
 10
67.6396242005
 20
120.2178641255
 10
67.7750781972
 20
120.3712752655
 10
67.9212552523
 20
120.5114938372
 10
68.0771568283
 20
120.6375620054
 10
68.2417179591
 20
120.7486185969
 10
68.4138145256
 20
120.8439049825
 10
68.5922709336
 20
120.9227702595
 10
68.7758681449
 20
120.9846756981
 10
68.9633520044
 20
121.0291984214
 10
69.1534418072
 20
121.0560342941
 10
69.3448390473
 20
121.065
  0
LWPOLYLINE
  5
16C
330
1F
100
AcDbEntity
  8
0
  6
Continuous
 62
     7
370
    25
100
AcDbPolyline
 90
       77
 70
   128
 43
0.0
 10
93.4051609527
 20
121.065
 10
93.5965581928
 20
121.0560342941
 10
93.7866479956
 20
121.0291984214
 10
93.9741318551
 20
120.9846756981
 10
94.1577290664
 20
120.9227702595
 10
94.3361854744
 20
120.8439049825
 10
94.5082820409
 20
120.7486185969
 10
94.6728431717
 20
120.6375620054
 10
94.8287447477
 20
120.5114938372
 10
94.9749218028
 20
120.3712752655
 10
95.1103757995
 20
120.2178641255
 10
95.2341814499
 20
120.0523083708
 10
95.3454930356
 20
119.8757389151
 10
95.4435501857
 20
119.6893619067
 10
95.5276830704
 20
119.4944504897
 10
95.5973169769
 20
119.2923361067
 10
95.6519762349
 20
119.0843994037
 10
95.6912874663
 20
118.8720607995
 10
95.7149821356
 20
118.6567707819
 10
95.722898384
 20
118.44
 10
95.7149821356
 20
118.2232292181
 10
95.6912874663
 20
118.0079392005
 10
95.6519762349
 20
117.7956005963
 10
95.5973169769
 20
117.5876638933
 10
95.5276830704
 20
117.3855495103
 10
95.4435501857
 20
117.1906380933
 10
95.3454930356
 20
117.0042610849
 10
95.2341814499
 20
116.8276916292
 10
95.1103757995
 20
116.6621358745
 10
94.9749218028
 20
116.5087247345
 10
94.8287447477
 20
116.3685061628
 10
94.6728431717
 20
116.2424379946
 10
94.5082820409
 20
116.1313814031
 10
94.3361854744
 20
116.0360950175
 10
94.1577290664
 20
115.9572297405
 10
93.9741318551
 20
115.8953243019
 10
93.7866479956
 20
115.8508015786
 10
93.5965581928
 20
115.8239657059
 10
93.4051609527
 20
115.815
 10
93.2137637127
 20
115.8239657059
 10
93.0236739098
 20
115.8508015786
 10
92.8361900503
 20
115.8953243019
 10
92.652592839
 20
115.9572297405
 10
92.474136431
 20
116.0360950175
 10
92.3020398646
 20
116.1313814031
 10
92.1374787337
 20
116.2424379946
 10
91.9815771577
 20
116.3685061628
 10
91.8354001026
 20
116.5087247345
 10
91.6999461059
 20
116.6621358745
 10
91.5761404556
 20
116.8276916292
 10
91.4648288698
 20
117.0042610849
 10
91.3667717197
 20
117.1906380933
 10
91.282638835
 20
117.3855495103
 10
91.2130049285
 20
117.5876638933
 10
91.1583456705
 20
117.7956005963
 10
91.1190344391
 20
118.0079392005
 10
91.0953397699
 20
118.2232292181
 10
91.0874235214
 20
118.44
 10
91.0953397699
 20
118.6567707819
 10
91.1190344391
 20
118.8720607995
 10
91.1583456705
 20
119.0843994037
 10
91.2130049285
 20
119.2923361067
 10
91.282638835
 20
119.4944504897
 10
91.3667717197
 20
119.6893619067
 10
91.4648288698
 20
119.8757389151
 10
91.5761404556
 20
120.0523083708
 10
91.6999461059
 20
120.2178641255
 10
91.8354001026
 20
120.3712752655
 10
91.9815771577
 20
120.5114938372
 10
92.1374787337
 20
120.6375620054
 10
92.3020398646
 20
120.7486185969
 10
92.474136431
 20
120.8439049825
 10
92.652592839
 20
120.9227702595
 10
92.8361900503
 20
120.9846756981
 10
93.0236739098
 20
121.0291984214
 10
93.2137637127
 20
121.0560342941
 10
93.4051609527
 20
121.065
  0
LINE
  5
16D
330
1F
100
AcDbEntity
  8
0
  6
Continuous
 62
     7
370
    25
100
AcDbLine
 10
95.9436352822
 20
116.5329407455
 30
0.0
 11
95.9436352822
 21
114.69
 31
0.0
  0
LINE
  5
16E
330
1F
100
AcDbEntity
  8
0
  6
Continuous
 62
     7
370
    25
100
AcDbLine
 10
95.9436352822
 20
114.69
 30
0.0
 11
66.8063647178
 21
114.69
 31
0.0
  0
LINE
  5
16F
330
1F
100
AcDbEntity
  8
0
  6
Continuous
 62
     7
370
    25
100
AcDbLine
 10
66.8063647178
 20
114.69
 30
0.0
 11
66.8063647178
 21
116.5329407455
 31
0.0
  0
LINE
  5
170
330
1F
100
AcDbEntity
  8
0
  6
Continuous
 62
     7
370
    25
100
AcDbLine
 10
66.8063647178
 20
120.3470592545
 30
0.0
 11
66.8063647178
 21
122.19
 31
0.0
  0
LINE
  5
171
330
1F
100
AcDbEntity
  8
0
  6
Continuous
 62
     7
370
    25
100
AcDbLine
 10
66.8063647178
 20
122.19
 30
0.0
 11
90.625
 21
122.19
 31
0.0
  0
LINE
  5
172
330
1F
100
AcDbEntity
  8
0
  6
Continuous
 62
     7
370
    25
100
AcDbLine
 10
95.9436352822
 20
121.44
 30
0.0
 11
95.9436352822
 21
120.3470592545
 31
0.0
  0
ARC
  5
173
330
1F
100
AcDbEntity
  8
0
  6
Continuous
 62
     7
370
    25
100
AcDbCircle
 10
92.6279511523
 20
118.44
 30
0.0
 40
3.825001470456669
100
AcDbArc
 50
330.094074494
 51
29.905925506
  0
LINE
  5
174
330
1F
100
AcDbEntity
  8
0
  6
Continuous
 62
     7
370
    25
100
AcDbLine
 10
88.6593176411
 20
119.89
 30
0.0
 11
88.6593176411
 21
119.04
 31
0.0
  0
LINE
  5
175
330
1F
100
AcDbEntity
  8
0
  6
Continuous
 62
     7
370
    25
100
AcDbLine
 10
74.0906823589
 20
119.89
 30
0.0
 11
88.6593176411
 21
119.89
 31
0.0
  0
LINE
  5
176
330
1F
100
AcDbEntity
  8
0
  6
Continuous
 62
     7
370
    25
100
AcDbLine
 10
74.0906823589
 20
119.04
 30
0.0
 11
74.0906823589
 21
119.89
 31
0.0
  0
LINE
  5
177
330
1F
100
AcDbEntity
  8
0
  6
Continuous
 62
     7
370
    25
100
AcDbLine
 10
74.0906823589
 20
119.04
 30
0.0
 11
88.6593176411
 21
119.04
 31
0.0
  0
LINE
  5
178
330
1F
100
AcDbEntity
  8
0
  6
Continuous
 62
     7
370
    25
100
AcDbLine
 10
74.0906823589
 20
116.99
 30
0.0
 11
74.0906823589
 21
117.84
 31
0.0
  0
LINE
  5
179
330
1F
100
AcDbEntity
  8
0
  6
Continuous
 62
     7
370
    25
100
AcDbLine
 10
88.6593176411
 20
116.99
 30
0.0
 11
74.0906823589
 21
116.99
 31
0.0
  0
LINE
  5
17A
330
1F
100
AcDbEntity
  8
0
  6
Continuous
 62
     7
370
    25
100
AcDbLine
 10
88.6593176411
 20
117.84
 30
0.0
 11
88.6593176411
 21
116.99
 31
0.0
  0
LINE
  5
17B
330
1F
100
AcDbEntity
  8
0
  6
Continuous
 62
     7
370
    25
100
AcDbLine
 10
88.6593176411
 20
117.84
 30
0.0
 11
74.0906823589
 21
117.84
 31
0.0
  0
LINE
  5
17C
330
1F
100
AcDbEntity
  8
0
  6
Continuous
 62
     7
370
    25
100
AcDbLine
 10
66.2899459988
 20
120.3470592545
 30
0.0
 11
66.2899459988
 21
122.19
 31
0.0
  0
LINE
  5
17D
330
1F
100
AcDbEntity
  8
0
  6
Continuous
 62
     7
370
    25
100
AcDbLine
 10
66.2899459988
 20
122.19
 30
0.0
 11
66.8063647178
 21
122.19
 31
0.0
  0
LINE
  5
17E
330
1F
100
AcDbEntity
  8
0
  6
Continuous
 62
     7
370
    25
100
AcDbLine
 10
66.2899459988
 20
114.69
 30
0.0
 11
66.2899459988
 21
116.5329407455
 31
0.0
  0
LINE
  5
17F
330
1F
100
AcDbEntity
  8
0
  6
Continuous
 62
     7
370
    25
100
AcDbLine
 10
66.2899459988
 20
114.69
 30
0.0
 11
66.8063647178
 21
114.69
 31
0.0
  0
LWPOLYLINE
  5
180
330
1F
100
AcDbEntity
  8
0
  6
Continuous
 62
     7
370
    25
100
AcDbPolyline
 90
       35
 70
   128
 43
0.0
 10
68.8988410627
 20
121.0159415337
 10
69.0218139804
 20
120.9846756981
 10
69.2054111917
 20
120.9227702595
 10
69.3838675997
 20
120.8439049825
 10
69.5559641662
 20
120.7486185969
 10
69.720525297
 20
120.6375620054
 10
69.876426873
 20
120.5114938372
 10
70.0226039281
 20
120.3712752655
 10
70.1580579248
 20
120.2178641255
 10
70.2818635752
 20
120.0523083708
 10
70.3931751609
 20
119.8757389151
 10
70.491232311
 20
119.6893619067
 10
70.5753651957
 20
119.4944504897
 10
70.6449991022
 20
119.2923361067
 10
70.6996583602
 20
119.0843994037
 10
70.7389695916
 20
118.8720607995
 10
70.7626642609
 20
118.6567707819
 10
70.7705805093
 20
118.44
 10
70.7626642609
 20
118.2232292181
 10
70.7389695916
 20
118.0079392005
 10
70.6996583602
 20
117.7956005963
 10
70.6449991022
 20
117.5876638933
 10
70.5753651957
 20
117.3855495103
 10
70.491232311
 20
117.1906380933
 10
70.3931751609
 20
117.0042610849
 10
70.2818635752
 20
116.8276916292
 10
70.1580579248
 20
116.6621358745
 10
70.0226039281
 20
116.5087247345
 10
69.876426873
 20
116.3685061628
 10
69.720525297
 20
116.2424379946
 10
69.5559641662
 20
116.1313814031
 10
69.3838675997
 20
116.0360950175
 10
69.2054111917
 20
115.9572297405
 10
69.0218139804
 20
115.8953243019
 10
68.8988410627
 20
115.8640584663
  0
LINE
  5
181
330
1F
100
AcDbEntity
  8
0
  6
Continuous
 62
     7
370
    25
100
AcDbLine
 10
88.142898922
 20
119.89
 30
0.0
 11
88.142898922
 21
119.04
 31
0.0
  0
LINE
  5
182
330
1F
100
AcDbEntity
  8
0
  6
Continuous
 62
     7
370
    25
100
AcDbLine
 10
88.142898922
 20
117.84
 30
0.0
 11
88.142898922
 21
116.99
 31
0.0
  0
LWPOLYLINE
  5
183
330
1F
100
AcDbEntity
  8
0
  6
Continuous
 62
     7
370
    25
100
AcDbPolyline
 90
       35
 70
   128
 43
0.0
 10
92.9591629681
 20
121.0159415337
 10
93.0821358858
 20
120.9846756981
 10
93.2657330971
 20
120.9227702595
 10
93.4441895051
 20
120.8439049825
 10
93.6162860716
 20
120.7486185969
 10
93.7808472024
 20
120.6375620054
 10
93.9367487784
 20
120.5114938372
 10
94.0829258335
 20
120.3712752655
 10
94.2183798302
 20
120.2178641255
 10
94.3421854806
 20
120.0523083708
 10
94.4534970663
 20
119.8757389151
 10
94.5515542164
 20
119.6893619067
 10
94.6356871011
 20
119.4944504897
 10
94.7053210076
 20
119.2923361067
 10
94.7599802656
 20
119.0843994037
 10
94.799291497
 20
118.8720607995
 10
94.8229861663
 20
118.6567707819
 10
94.8309024147
 20
118.44
 10
94.8229861663
 20
118.2232292181
 10
94.799291497
 20
118.0079392005
 10
94.7599802656
 20
117.7956005963
 10
94.7053210076
 20
117.5876638933
 10
94.6356871011
 20
117.3855495103
 10
94.5515542164
 20
117.1906380933
 10
94.4534970663
 20
117.0042610849
 10
94.3421854806
 20
116.8276916292
 10
94.2183798302
 20
116.6621358745
 10
94.0829258335
 20
116.5087247345
 10
93.9367487784
 20
116.3685061628
 10
93.7808472024
 20
116.2424379946
 10
93.6162860716
 20
116.1313814031
 10
93.4441895051
 20
116.0360950175
 10
93.2657330971
 20
115.9572297405
 10
93.0821358858
 20
115.8953243019
 10
92.9591629681
 20
115.8640584663
  0
CIRCLE
  5
184
330
1F
100
AcDbEntity
  8
0
  6
Continuous
 62
     7
370
    25
100
AcDbCircle
 10
66.875
 20
110.69
 30
0.0
 40
3.449999999999989
  0
LINE
  5
185
330
1F
100
AcDbEntity
  8
0
  6
Continuous
 62
     7
370
    25
100
AcDbLine
 10
66.2899459988
 20
115.64
 30
0.0
 11
64.25
 21
115.64
 31
0.0
  0
CIRCLE
  5
186
330
1F
100
AcDbEntity
  8
0
  6
Continuous
 62
     7
370
    25
100
AcDbCircle
 10
73.625
 20
105.44
 30
0.0
 40
0.4500000000000028
  0
LINE
  5
187
330
1F
100
AcDbEntity
  8
0
  6
Continuous
 62
     7
370
    25
100
AcDbLine
 10
75.875
 20
102.94
 30
0.0
 11
70.175
 21
102.94
 31
0.0
  0
LINE
  5
188
330
1F
100
AcDbEntity
  8
0
  6
Continuous
 62
     7
370
    25
100
AcDbLine
 10
63.575
 20
102.94
 30
0.0
 11
57.875
 21
102.94
 31
0.0
  0
CIRCLE
  5
189
330
1F
100
AcDbEntity
  8
0
  6
Continuous
 62
     7
370
    25
100
AcDbCircle
 10
60.125
 20
105.44
 30
0.0
 40
0.4500000000000028
  0
LINE
  5
18A
330
1F
100
AcDbEntity
  8
0
  6
Continuous
 62
     7
370
    25
100
AcDbLine
 10
75.875
 20
117.84
 30
0.0
 11
75.875
 21
116.99
 31
0.0
  0
LINE
  5
18B
330
1F
100
AcDbEntity
  8
0
  6
Continuous
 62
     7
370
    25
100
AcDbLine
 10
75.875
 20
114.69
 30
0.0
 11
75.875
 21
102.94
 31
0.0
  0
LINE
  5
18C
330
1F
100
AcDbEntity
  8
0
  6
Continuous
 62
     7
370
    25
100
AcDbLine
 10
69.5
 20
117.24
 30
0.0
 11
69.5
 21
116.0981887703
 31
0.0
  0
LINE
  5
18D
330
1F
100
AcDbEntity
  8
0
  6
Continuous
 62
     7
370
    25
100
AcDbLine
 10
57.875
 20
118.44
 30
0.0
 11
65.4066738826
 21
118.44
 31
0.0
  0
LINE
  5
18E
330
1F
100
AcDbEntity
  8
0
  6
Continuous
 62
     7
370
    25
100
AcDbLine
 10
67.027101616
 20
118.44
 30
0.0
 11
70.7705805093
 21
118.44
 31
0.0
  0
LINE
  5
18F
330
1F
100
AcDbEntity
  8
0
  6
Continuous
 62
     7
370
    25
100
AcDbLine
 10
57.875
 20
102.94
 30
0.0
 11
57.875
 21
118.44
 31
0.0
  0
LINE
  5
190
330
1F
100
AcDbEntity
  8
0
  6
Continuous
 62
     7
370
    25
100
AcDbLine
 10
64.25
 20
117.24
 30
0.0
 11
65.5968795145
 21
117.24
 31
0.0
  0
LINE
  5
191
330
1F
100
AcDbEntity
  8
0
  6
Continuous
 62
     7
370
    25
100
AcDbLine
 10
67.283458949
 20
117.24
 30
0.0
 11
69.5
 21
117.24
 31
0.0
  0
CIRCLE
  5
192
330
1F
100
AcDbEntity
  8
0
  6
Continuous
 62
     7
370
    25
100
AcDbCircle
 10
60.125
 20
115.94
 30
0.0
 40
0.4500000000000028
  0
LINE
  5
193
330
1F
100
AcDbEntity
  8
0
  6
Continuous
 62
     7
370
    25
100
AcDbLine
 10
64.25
 20
115.64
 30
0.0
 11
64.25
 21
117.24
 31
0.0
  0
LINE
  5
194
330
1F
100
AcDbEntity
  8
0
  6
Continuous
 62
     7
370
    25
100
AcDbLine
 10
72.875
 20
101.29
 30
0.0
 11
72.875
 21
88.29
 31
0.0
  0
LINE
  5
195
330
1F
100
AcDbEntity
  8
0
  6
Continuous
 62
     7
370
    25
100
AcDbLine
 10
60.875
 20
101.29
 30
0.0
 11
63.4108983849
 21
101.29
 31
0.0
  0
LINE
  5
196
330
1F
100
AcDbEntity
  8
0
  6
Continuous
 62
     7
370
    25
100
AcDbLine
 10
70.3391016151
 20
101.29
 30
0.0
 11
72.875
 21
101.29
 31
0.0
  0
LINE
  5
197
330
1F
100
AcDbEntity
  8
0
  6
Continuous
 62
     7
370
    25
100
AcDbLine
 10
60.875
 20
101.29
 30
0.0
 11
60.875
 21
88.29
 31
0.0
  0
LINE
  5
198
330
1F
100
AcDbEntity
  8
0
  6
Continuous
 62
     7
370
    25
100
AcDbLine
 10
66.875
 20
88.29
 30
0.0
 11
75.125
 21
88.29
 31
0.0
  0
LINE
  5
199
330
1F
100
AcDbEntity
  8
0
  6
Continuous
 62
     7
370
    25
100
AcDbLine
 10
58.625
 20
88.29
 30
0.0
 11
66.875
 21
88.29
 31
0.0
  0
LINE
  5
19A
330
1F
100
AcDbEntity
  8
0
  6
Continuous
 62
     7
370
    25
100
AcDbLine
 10
66.875
 20
104.19
 30
0.0
 11
70.175
 21
104.19
 31
0.0
  0
LINE
  5
19B
330
1F
100
AcDbEntity
  8
0
  6
Continuous
 62
     7
370
    25
100
AcDbLine
 10
63.575
 20
104.19
 30
0.0
 11
66.875
 21
104.19
 31
0.0
  0
LINE
  5
19C
330
1F
100
AcDbEntity
  8
0
  6
Continuous
 62
     7
370
    25
100
AcDbLine
 10
66.875
 20
84.69
 30
0.0
 11
75.875
 21
84.69
 31
0.0
  0
LINE
  5
19D
330
1F
100
AcDbEntity
  8
0
  6
Continuous
 62
     7
370
    25
100
AcDbLine
 10
57.875
 20
84.69
 30
0.0
 11
66.875
 21
84.69
 31
0.0
  0
LINE
  5
19E
330
1F
100
AcDbEntity
  8
0
  6
Continuous
 62
     7
370
    25
100
AcDbLine
 10
66.875
 20
86.19
 30
0.0
 11
75.875
 21
86.19
 31
0.0
  0
LINE
  5
19F
330
1F
100
AcDbEntity
  8
0
  6
Continuous
 62
     7
370
    25
100
AcDbLine
 10
57.875
 20
86.19
 30
0.0
 11
66.875
 21
86.19
 31
0.0
  0
LINE
  5
1A0
330
1F
100
AcDbEntity
  8
0
  6
Continuous
 62
     7
370
    25
100
AcDbLine
 10
128.875
 20
234.3068865327
 30
0.0
 11
131.125
 21
234.3068865327
 31
0.0
  0
LINE
  5
1A1
330
1F
100
AcDbEntity
  8
0
  6
Continuous
 62
     7
370
    25
100
AcDbLine
 10
131.125
 20
236.1068865327
 30
0.0
 11
129.925
 21
236.1068865327
 31
0.0
  0
LINE
  5
1A2
330
1F
100
AcDbEntity
  8
0
  6
Continuous
 62
     7
370
    25
100
AcDbLine
 10
127.625
 20
232.3318865327
 30
0.0
 11
128.875
 21
232.3318865327
 31
0.0
  0
LINE
  5
1A3
330
1F
100
AcDbEntity
  8
0
  6
Continuous
 62
     7
370
    25
100
AcDbLine
 10
113.375
 20
235.2068865327
 30
0.0
 11
113.375
 21
233.7068865327
 31
0.0
  0
LINE
  5
1A4
330
1F
100
AcDbEntity
  8
0
  6
Continuous
 62
     7
370
    25
100
AcDbLine
 10
115.875
 20
233.7068865327
 30
0.0
 11
115.875
 21
232.7068865327
 31
0.0
  0
LINE
  5
1A5
330
1F
100
AcDbEntity
  8
0
  6
Continuous
 62
     7
370
    25
100
AcDbLine
 10
116.825
 20
239.8068865327
 30
0.0
 11
116.825
 21
238.0068865327
 31
0.0
  0
LINE
  5
1A6
330
1F
100
AcDbEntity
  8
0
  6
Continuous
 62
     7
370
    25
100
AcDbLine
 10
121.425
 20
238.1068865327
 30
0.0
 11
121.425
 21
239.8068865327
 31
0.0
  0
LINE
  5
1A7
330
1F
100
AcDbEntity
  8
0
  6
Continuous
 62
     7
370
    25
100
AcDbLine
 10
117.425
 20
238.0068865327
 30
0.0
 11
117.425
 21
236.2019595032
 31
0.0
  0
LINE
  5
1A8
330
1F
100
AcDbEntity
  8
0
  6
Continuous
 62
     7
370
    25
100
AcDbLine
 10
117.425
 20
232.7068865327
 30
0.0
 11
117.425
 21
230.5568865327
 31
0.0
  0
LINE
  5
1A9
330
1F
100
AcDbEntity
  8
0
  6
Continuous
 62
     7
370
    25
100
AcDbLine
 10
120.825
 20
230.5568865327
 30
0.0
 11
120.825
 21
230.9068865327
 31
0.0
  0
LINE
  5
1AA
330
1F
100
AcDbEntity
  8
0
  6
Continuous
 62
     7
370
    25
100
AcDbLine
 10
120.825
 20
232.3068865327
 30
0.0
 11
120.825
 21
232.7068865327
 31
0.0
  0
LINE
  5
1AB
330
1F
100
AcDbEntity
  8
0
  6
Continuous
 62
     7
370
    25
100
AcDbLine
 10
120.825
 20
235.2068865327
 30
0.0
 11
120.825
 21
236.7068865327
 31
0.0
  0
LINE
  5
1AC
330
1F
100
AcDbEntity
  8
0
  6
Continuous
 62
     7
370
    25
100
AcDbLine
 10
117.875
 20
230.5568865327
 30
0.0
 11
117.875
 21
230.3144883641
 31
0.0
  0
LINE
  5
1AD
330
1F
100
AcDbEntity
  8
0
  6
Continuous
 62
     7
370
    25
100
AcDbLine
 10
117.875
 20
228.5826699826
 30
0.0
 11
117.875
 21
228.5568865327
 31
0.0
  0
LINE
  5
1AE
330
1F
100
AcDbEntity
  8
0
  6
Continuous
 62
     7
370
    25
100
AcDbLine
 10
120.375
 20
228.5568865327
 30
0.0
 11
120.375
 21
230.5568865327
 31
0.0
  0
LINE
  5
1AF
330
1F
100
AcDbEntity
  8
0
  6
Continuous
 62
     7
370
    25
100
AcDbLine
 10
114.2074185704
 20
235.8086772812
 30
0.0
 11
114.0904422987
 21
235.2068865327
 31
0.0
  0
LINE
  5
1B0
330
1F
100
AcDbEntity
  8
0
  6
Continuous
 62
     7
370
    25
100
AcDbLine
 10
119.9989991294
 20
235.2068865327
 30
0.0
 11
120.0916652298
 21
235.6836122914
 31
0.0
  0
LINE
  5
1B1
330
1F
100
AcDbEntity
  8
0
  6
Continuous
 62
     7
370
    25
100
AcDbLine
 10
114.2074185704
 20
230.0086772812
 30
0.0
 11
114.0738522736
 21
229.3215382528
 31
0.0
  0
LINE
  5
1B2
330
1F
100
AcDbEntity
  8
0
  6
Continuous
 62
     7
370
    25
100
AcDbLine
 10
119.7672899376
 20
228.2148460796
 30
0.0
 11
120.0916652298
 21
229.8836122914
 31
0.0
  0
LINE
  5
1B3
330
1F
100
AcDbEntity
  8
0
  6
Continuous
 62
     7
370
    25
100
AcDbLine
 10
100.5273971421
 20
231.954702389
 30
0.0
 11
100.5764167739
 21
232.2068865327
 31
0.0
  0
LINE
  5
1B4
330
1F
100
AcDbEntity
  8
0
  6
Continuous
 62
     7
370
    25
100
AcDbLine
 10
93.675
 20
230.114977427
 30
0.0
 11
93.675
 21
229.5568865327
 31
0.0
  0
LINE
  5
1B5
330
1F
100
AcDbEntity
  8
0
  6
Continuous
 62
     7
370
    25
100
AcDbLine
 10
98.075
 20
229.5568865327
 30
0.0
 11
98.075
 21
230.9568865327
 31
0.0
  0
LINE
  5
1B6
330
1F
100
AcDbEntity
  8
0
  6
Continuous
 62
     7
370
    25
100
AcDbLine
 10
94.25
 20
229.5568865327
 30
0.0
 11
94.25
 21
227.3068865327
 31
0.0
  0
LINE
  5
1B7
330
1F
100
AcDbEntity
  8
0
  6
Continuous
 62
     7
370
    25
100
AcDbLine
 10
97.5
 20
227.3068865327
 30
0.0
 11
97.5
 21
229.5568865327
 31
0.0
  0
LINE
  5
1B8
330
1F
100
AcDbEntity
  8
0
  6
Continuous
 62
     7
370
    25
100
AcDbLine
 10
99.5
 20
230.9568865327
 30
0.0
 11
99.5
 21
232.2068865327
 31
0.0
  0
LINE
  5
1B9
330
1F
100
AcDbEntity
  8
0
  6
Continuous
 62
     7
370
    25
100
AcDbLine
 10
63.25
 20
215.4068865327
 30
0.0
 11
63.25
 21
214.1568865327
 31
0.0
  0
LINE
  5
1BA
330
1F
100
AcDbEntity
  8
0
  6
Continuous
 62
     7
370
    25
100
AcDbLine
 10
70.5
 20
214.1568865327
 30
0.0
 11
70.5
 21
215.4068865327
 31
0.0
  0
LINE
  5
1BB
330
1F
100
AcDbEntity
  8
0
  6
Continuous
 62
     7
370
    25
100
AcDbLine
 10
65.375
 20
214.1568865327
 30
0.0
 11
65.375
 21
212.1568865327
 31
0.0
  0
LINE
  5
1BC
330
1F
100
AcDbEntity
  8
0
  6
Continuous
 62
     7
370
    25
100
AcDbLine
 10
68.375
 20
212.1568865327
 30
0.0
 11
68.375
 21
214.1568865327
 31
0.0
  0
LINE
  5
1BD
330
1F
100
AcDbEntity
  8
0
  6
Continuous
 62
     7
370
    25
100
AcDbLine
 10
89.8425730383
 20
225.8587710292
 30
0.0
 11
89.466995788
 21
225.1524129549
 31
0.0
  0
LINE
  5
1BE
330
1F
100
AcDbEntity
  8
0
  6
Continuous
 62
     7
370
    25
100
AcDbLine
 10
95.5593341788
 20
221.9130591717
 30
0.0
 11
96.4513301481
 21
223.5906595981
 31
0.0
  0
LINE
  5
1BF
330
1F
100
AcDbEntity
  8
0
  6
Continuous
 62
     7
370
    25
100
AcDbLine
 10
89.8425730383
 20
233.0587710292
 30
0.0
 11
89.466995788
 21
232.3524129549
 31
0.0
  0
LINE
  5
1C0
330
1F
100
AcDbEntity
  8
0
  6
Continuous
 62
     7
370
    25
100
AcDbLine
 10
95.5593341788
 20
229.1130591717
 30
0.0
 11
96.4513301481
 21
230.7906595981
 31
0.0
  0
LINE
  5
1C1
330
1F
100
AcDbEntity
  8
0
  6
Continuous
 62
     7
370
    25
100
AcDbLine
 10
66.2986698519
 20
246.8231134673
 30
0.0
 11
65.4066738826
 21
245.1455130409
 31
0.0
  0
LINE
  5
1C2
330
1F
100
AcDbEntity
  8
0
  6
Continuous
 62
     7
370
    25
100
AcDbLine
 10
62.125
 20
227.562444107
 30
0.0
 11
62.125
 21
227.5068865327
 31
0.0
  0
LINE
  5
1C3
330
1F
100
AcDbEntity
  8
0
  6
Continuous
 62
     7
370
    25
100
AcDbLine
 10
71.625
 20
227.5068865327
 30
0.0
 11
71.625
 21
227.562444107
 31
0.0
  0
LINE
  5
1C4
330
1F
100
AcDbEntity
  8
0
  6
Continuous
 62
     7
370
    25
100
AcDbLine
 10
130.375
 20
232.3068865327
 30
0.0
 11
127.625
 21
232.3068865327
 31
0.0
  0
LINE
  5
1C5
330
1F
100
AcDbEntity
  8
0
  6
Continuous
 62
     7
370
    25
100
AcDbLine
 10
121.625
 20
232.3068865327
 30
0.0
 11
119.375
 21
232.3068865327
 31
0.0
  0
LINE
  5
1C6
330
1F
100
AcDbEntity
  8
0
  6
Continuous
 62
     7
370
    25
100
AcDbLine
 10
130.375
 20
230.9068865327
 30
0.0
 11
129.925
 21
230.9068865327
 31
0.0
  0
LINE
  5
1C7
330
1F
100
AcDbEntity
  8
0
  6
Continuous
 62
     7
370
    25
100
AcDbLine
 10
129.925
 20
230.2068865327
 30
0.0
 11
129.925
 21
230.9068865327
 31
0.0
  0
LINE
  5
1C8
330
1F
100
AcDbEntity
  8
0
  6
Continuous
 62
     7
370
    25
100
AcDbLine
 10
119.375
 20
230.9068865327
 30
0.0
 11
119.375
 21
232.3068865327
 31
0.0
  0
LINE
  5
1C9
330
1F
100
AcDbEntity
  8
0
  6
Continuous
 62
     7
370
    25
100
AcDbLine
 10
127.825
 20
230.2068865327
 30
0.0
 11
127.825
 21
230.9068865327
 31
0.0
  0
LINE
  5
1CA
330
1F
100
AcDbEntity
  8
0
  6
Continuous
 62
     7
370
    25
100
AcDbLine
 10
130.375
 20
230.9068865327
 30
0.0
 11
130.375
 21
232.3068865327
 31
0.0
  0
LINE
  5
1CB
330
1F
100
AcDbEntity
  8
0
  6
Continuous
 62
     7
370
    25
100
AcDbLine
 10
127.825
 20
230.9068865327
 30
0.0
 11
127.625
 21
230.9068865327
 31
0.0
  0
LINE
  5
1CC
330
1F
100
AcDbEntity
  8
0
  6
Continuous
 62
     7
370
    25
100
AcDbLine
 10
121.625
 20
230.9068865327
 30
0.0
 11
119.375
 21
230.9068865327
 31
0.0
  0
LINE
  5
1CD
330
1F
100
AcDbEntity
  8
0
  6
Continuous
 62
     7
370
    25
100
AcDbLine
 10
129.925
 20
230.2068865327
 30
0.0
 11
127.825
 21
230.2068865327
 31
0.0
  0
LINE
  5
1CE
330
1F
100
AcDbEntity
  8
0
  6
Continuous
 62
     7
370
    25
100
AcDbLine
 10
119.375
 20
236.7068865327
 30
0.0
 11
119.375
 21
238.1068865327
 31
0.0
  0
LINE
  5
1CF
330
1F
100
AcDbEntity
  8
0
  6
Continuous
 62
     7
370
    25
100
AcDbLine
 10
130.375
 20
238.1068865327
 30
0.0
 11
127.625
 21
238.1068865327
 31
0.0
  0
LINE
  5
1D0
330
1F
100
AcDbEntity
  8
0
  6
Continuous
 62
     7
370
    25
100
AcDbLine
 10
121.625
 20
238.1068865327
 30
0.0
 11
119.375
 21
238.1068865327
 31
0.0
  0
LINE
  5
1D1
330
1F
100
AcDbEntity
  8
0
  6
Continuous
 62
     7
370
    25
100
AcDbLine
 10
130.375
 20
236.7068865327
 30
0.0
 11
130.375
 21
238.1068865327
 31
0.0
  0
LINE
  5
1D2
330
1F
100
AcDbEntity
  8
0
  6
Continuous
 62
     7
370
    25
100
AcDbLine
 10
129.925
 20
236.0068865327
 30
0.0
 11
129.925
 21
236.7068865327
 31
0.0
  0
LINE
  5
1D3
330
1F
100
AcDbEntity
  8
0
  6
Continuous
 62
     7
370
    25
100
AcDbLine
 10
129.925
 20
236.0068865327
 30
0.0
 11
128.875
 21
236.0068865327
 31
0.0
  0
LINE
  5
1D4
330
1F
100
AcDbEntity
  8
0
  6
Continuous
 62
     7
370
    25
100
AcDbLine
 10
121.625
 20
236.7068865327
 30
0.0
 11
119.375
 21
236.7068865327
 31
0.0
  0
LINE
  5
1D5
330
1F
100
AcDbEntity
  8
0
  6
Continuous
 62
     7
370
    25
100
AcDbLine
 10
130.375
 20
236.7068865327
 30
0.0
 11
129.925
 21
236.7068865327
 31
0.0
  0
LINE
  5
1D6
330
1F
100
AcDbEntity
  8
0
  6
Continuous
 62
     7
370
    25
100
AcDbLine
 10
131.125
 20
236.1068865327
 30
0.0
 11
131.125
 21
234.3068865327
 31
0.0
  0
LINE
  5
1D7
330
1F
100
AcDbEntity
  8
0
  6
Continuous
 62
     7
370
    25
100
AcDbLine
 10
127.625
 20
239.7068865327
 30
0.0
 11
121.625
 21
239.7068865327
 31
0.0
  0
LINE
  5
1D8
330
1F
100
AcDbEntity
  8
0
  6
Continuous
 62
     7
370
    25
100
AcDbLine
 10
127.625
 20
239.7068865327
 30
0.0
 11
127.625
 21
230.7068865327
 31
0.0
  0
LINE
  5
1D9
330
1F
100
AcDbEntity
  8
0
  6
Continuous
 62
     7
370
    25
100
AcDbLine
 10
127.625
 20
230.7068865327
 30
0.0
 11
121.625
 21
230.7068865327
 31
0.0
  0
LINE
  5
1DA
330
1F
100
AcDbEntity
  8
0
  6
Continuous
 62
     7
370
    25
100
AcDbLine
 10
121.625
 20
239.7068865327
 30
0.0
 11
121.625
 21
230.7068865327
 31
0.0
  0
LINE
  5
1DB
330
1F
100
AcDbEntity
  8
0
  6
Continuous
 62
     7
370
    25
100
AcDbLine
 10
128.875
 20
236.711255171
 30
0.0
 11
128.875
 21
232.3318865327
 31
0.0
  0
LINE
  5
1DC
330
1F
100
AcDbEntity
  8
0
  6
Continuous
 62
     7
370
    25
100
AcDbLine
 10
121.625
 20
235.2068865327
 30
0.0
 11
116.4523194568
 21
235.2068865327
 31
0.0
  0
LINE
  5
1DD
330
1F
100
AcDbEntity
  8
0
  6
Continuous
 62
     7
370
    25
100
AcDbLine
 10
114.1695095586
 20
235.2068865327
 30
0.0
 11
113.375
 21
235.2068865327
 31
0.0
  0
LINE
  5
1DE
330
1F
100
AcDbEntity
  8
0
  6
Continuous
 62
     7
370
    25
100
AcDbLine
 10
121.625
 20
233.7068865327
 30
0.0
 11
113.375
 21
233.7068865327
 31
0.0
  0
LINE
  5
1DF
330
1F
100
AcDbEntity
  8
0
  6
Continuous
 62
     7
370
    25
100
AcDbLine
 10
121.625
 20
232.7068865327
 30
0.0
 11
115.875
 21
232.7068865327
 31
0.0
  0
LINE
  5
1E0
330
1F
100
AcDbEntity
  8
0
  6
Continuous
 62
     7
370
    25
100
AcDbLine
 10
113.6319048869
 20
228.382247255
 30
0.0
 11
113.7463902841
 21
228.9712235651
 31
0.0
  0
LINE
  5
1E1
330
1F
100
AcDbEntity
  8
0
  6
Continuous
 62
     7
370
    25
100
AcDbLine
 10
99.8891243186
 20
231.0535731903
 30
0.0
 11
100.0036097159
 21
231.6425495004
 31
0.0
  0
LINE
  5
1E2
330
1F
100
AcDbEntity
  8
0
  6
Continuous
 62
     7
370
    25
100
AcDbLine
 10
113.7463902841
 20
228.9712235651
 30
0.0
 11
100.0036097159
 21
231.6425495004
 31
0.0
  0
LINE
  5
1E3
330
1F
100
AcDbEntity
  8
0
  6
Continuous
 62
     7
370
    25
100
AcDbLine
 10
113.6319048869
 20
228.382247255
 30
0.0
 11
99.8891243186
 21
231.0535731903
 31
0.0
  0
LINE
  5
1E4
330
1F
100
AcDbEntity
  8
0
  6
Continuous
 62
     7
370
    25
100
AcDbLine
 10
111.8377337177
 20
228.3235121235
 30
0.0
 11
101.5306482915
 21
230.327006575
 31
0.0
  0
LINE
  5
1E5
330
1F
100
AcDbEntity
  8
0
  6
Continuous
 62
     7
370
    25
100
AcDbLine
 10
101.5306482915
 20
230.327006575
 30
0.0
 11
101.6069718897
 21
230.7196574484
 31
0.0
  0
LINE
  5
1E6
330
1F
100
AcDbEntity
  8
0
  6
Continuous
 62
     7
370
    25
100
AcDbLine
 10
111.8377337177
 20
228.3235121235
 30
0.0
 11
111.9140573159
 21
228.7161629969
 31
0.0
  0
LINE
  5
1E7
330
1F
100
AcDbEntity
  8
0
  6
Continuous
 62
     7
370
    25
100
AcDbLine
 10
93.7739502123
 20
225.6408170375
 30
0.0
 11
94.05563315
 21
226.1705855932
 31
0.0
  0
LINE
  5
1E8
330
1F
100
AcDbEntity
  8
0
  6
Continuous
 62
     7
370
    25
100
AcDbLine
 10
93.7739502123
 20
225.6408170375
 30
0.0
 11
81.4126839123
 21
232.2134189165
 31
0.0
  0
LINE
  5
1E9
330
1F
100
AcDbEntity
  8
0
  6
Continuous
 62
     7
370
    25
100
AcDbLine
 10
81.4126839123
 20
232.2134189165
 30
0.0
 11
81.69436685
 21
232.7431874722
 31
0.0
  0
LINE
  5
1EA
330
1F
100
AcDbEntity
  8
0
  6
Continuous
 62
     7
370
    25
100
AcDbLine
 10
94.05563315
 20
226.1705855932
 30
0.0
 11
81.69436685
 21
232.7431874722
 31
0.0
  0
LINE
  5
1EB
330
1F
100
AcDbEntity
  8
0
  6
Continuous
 62
     7
370
    25
100
AcDbLine
 10
92.0410032997
 20
226.1092132352
 30
0.0
 11
82.7700535747
 21
231.0386646445
 31
0.0
  0
LINE
  5
1EC
330
1F
100
AcDbEntity
  8
0
  6
Continuous
 62
     7
370
    25
100
AcDbLine
 10
82.7700535747
 20
231.0386646445
 30
0.0
 11
82.9578421998
 21
231.3918436816
 31
0.0
  0
LINE
  5
1ED
330
1F
100
AcDbEntity
  8
0
  6
Continuous
 62
     7
370
    25
100
AcDbLine
 10
92.0410032997
 20
226.1092132352
 30
0.0
 11
92.2287919248
 21
226.4623922724
 31
0.0
  0
LINE
  5
1EE
330
1F
100
AcDbEntity
  8
0
  6
Continuous
 62
     7
370
    25
100
AcDbLine
 10
121.425
 20
239.8068865327
 30
0.0
 11
116.825
 21
239.8068865327
 31
0.0
  0
LINE
  5
1EF
330
1F
100
AcDbEntity
  8
0
  6
Continuous
 62
     7
370
    25
100
AcDbLine
 10
119.375
 20
238.0068865327
 30
0.0
 11
116.825
 21
238.0068865327
 31
0.0
  0
LINE
  5
1F0
330
1F
100
AcDbEntity
  8
0
  6
Continuous
 62
     7
370
    25
100
AcDbLine
 10
120.825
 20
230.5568865327
 30
0.0
 11
117.425
 21
230.5568865327
 31
0.0
  0
LINE
  5
1F1
330
1F
100
AcDbEntity
  8
0
  6
Continuous
 62
     7
370
    25
100
AcDbLine
 10
120.375
 20
228.5568865327
 30
0.0
 11
119.8337758667
 21
228.5568865327
 31
0.0
  0
LINE
  5
1F2
330
1F
100
AcDbEntity
  8
0
  6
Continuous
 62
     7
370
    25
100
AcDbLine
 10
118.0076443508
 20
228.5568865327
 30
0.0
 11
117.875
 21
228.5568865327
 31
0.0
  0
LINE
  5
1F3
330
1F
100
AcDbEntity
  8
0
  6
Continuous
 62
     7
370
    25
100
AcDbLine
 10
119.5405766167
 20
235.2068865327
 30
0.0
 11
119.6499329972
 21
235.7694763394
 31
0.0
  0
LINE
  5
1F4
330
1F
100
AcDbEntity
  8
0
  6
Continuous
 62
     7
370
    25
100
AcDbLine
 10
119.6499329972
 20
235.7694763394
 30
0.0
 11
101.125
 21
239.3703585421
 31
0.0
  0
LINE
  5
1F5
330
1F
100
AcDbEntity
  8
0
  6
Continuous
 62
     7
370
    25
100
AcDbLine
 10
117.3033635821
 20
235.2068865327
 30
0.0
 11
101.125
 21
238.3516418472
 31
0.0
  0
LINE
  5
1F6
330
1F
100
AcDbEntity
  8
0
  6
Continuous
 62
     7
370
    25
100
AcDbLine
 10
116.5064512933
 20
234.6486889033
 30
0.0
 11
114.1380189923
 21
235.1090655061
 31
0.0
  0
LINE
  5
1F7
330
1F
100
AcDbEntity
  8
0
  6
Continuous
 62
     7
370
    25
100
AcDbLine
 10
120.0916652298
 20
235.6836122914
 30
0.0
 11
119.6499329972
 21
235.7694763394
 31
0.0
  0
LINE
  5
1F8
330
1F
100
AcDbEntity
  8
0
  6
Continuous
 62
     7
370
    25
100
AcDbLine
 10
113.9552295454
 20
235.2974036796
 30
0.0
 11
114.0601744929
 21
235.8372986305
 31
0.0
  0
LINE
  5
1F9
330
1F
100
AcDbEntity
  8
0
  6
Continuous
 62
     7
370
    25
100
AcDbLine
 10
113.9552295454
 20
235.2974036796
 30
0.0
 11
101.125
 21
237.7913476649
 31
0.0
  0
LINE
  5
1FA
330
1F
100
AcDbEntity
  8
0
  6
Continuous
 62
     7
370
    25
100
AcDbLine
 10
119.6499329972
 20
229.9694763394
 30
0.0
 11
101.125
 21
233.5703585421
 31
0.0
  0
LINE
  5
1FB
330
1F
100
AcDbEntity
  8
0
  6
Continuous
 62
     7
370
    25
100
AcDbLine
 10
119.4591240019
 20
228.9878491559
 30
0.0
 11
119.6499329972
 21
229.9694763394
 31
0.0
  0
LINE
  5
1FC
330
1F
100
AcDbEntity
  8
0
  6
Continuous
 62
     7
370
    25
100
AcDbLine
 10
119.4591240019
 20
228.9878491559
 30
0.0
 11
101.125
 21
232.5516418472
 31
0.0
  0
LINE
  5
1FD
330
1F
100
AcDbEntity
  8
0
  6
Continuous
 62
     7
370
    25
100
AcDbLine
 10
119.7672899376
 20
228.2148460796
 30
0.0
 11
114.0738522736
 21
229.3215382528
 31
0.0
  0
LINE
  5
1FE
330
1F
100
AcDbEntity
  8
0
  6
Continuous
 62
     7
370
    25
100
AcDbLine
 10
120.0916652298
 20
229.8836122914
 30
0.0
 11
119.6499329972
 21
229.9694763394
 31
0.0
  0
LINE
  5
1FF
330
1F
100
AcDbEntity
  8
0
  6
Continuous
 62
     7
370
    25
100
AcDbLine
 10
100.5273971421
 20
231.954702389
 30
0.0
 11
99.5
 21
232.154408163
 31
0.0
  0
LINE
  5
200
330
1F
100
AcDbEntity
  8
0
  6
Continuous
 62
     7
370
    25
100
AcDbLine
 10
113.9552295454
 20
229.4974036796
 30
0.0
 11
100.7032625689
 21
232.0733251172
 31
0.0
  0
LINE
  5
201
330
1F
100
AcDbEntity
  8
0
  6
Continuous
 62
     7
370
    25
100
AcDbLine
 10
100.7032625689
 20
232.0733251172
 30
0.0
 11
100.7292242781
 21
232.2068865327
 31
0.0
  0
LINE
  5
202
330
1F
100
AcDbEntity
  8
0
  6
Continuous
 62
     7
370
    25
100
AcDbLine
 10
113.9552295454
 20
229.4974036796
 30
0.0
 11
114.0601744929
 21
230.0372986305
 31
0.0
  0
LINE
  5
203
330
1F
100
AcDbEntity
  8
0
  6
Continuous
 62
     7
370
    25
100
AcDbLine
 10
98.075
 20
229.5568865327
 30
0.0
 11
95.7953213726
 21
229.5568865327
 31
0.0
  0
LINE
  5
204
330
1F
100
AcDbEntity
  8
0
  6
Continuous
 62
     7
370
    25
100
AcDbLine
 10
94.7246163149
 20
229.5568865327
 30
0.0
 11
93.675
 21
229.5568865327
 31
0.0
  0
LINE
  5
205
330
1F
100
AcDbEntity
  8
0
  6
Continuous
 62
     7
370
    25
100
AcDbLine
 10
97.5
 20
227.3068865327
 30
0.0
 11
94.25
 21
227.3068865327
 31
0.0
  0
LINE
  5
206
330
1F
100
AcDbEntity
  8
0
  6
Continuous
 62
     7
370
    25
100
AcDbLine
 10
101.125
 20
232.2068865327
 30
0.0
 11
101.125
 21
243.2068865327
 31
0.0
  0
LINE
  5
207
330
1F
100
AcDbEntity
  8
0
  6
Continuous
 62
     7
370
    25
100
AcDbLine
 10
101.125
 20
232.2068865327
 30
0.0
 11
93.7877946713
 21
232.2068865327
 31
0.0
  0
LINE
  5
208
330
1F
100
AcDbEntity
  8
0
  6
Continuous
 62
     7
370
    25
100
AcDbLine
 10
90.625
 20
233.8885742898
 30
0.0
 11
90.625
 21
243.2068865327
 31
0.0
  0
LINE
  5
209
330
1F
100
AcDbEntity
  8
0
  6
Continuous
 62
     7
370
    25
100
AcDbLine
 10
101.125
 20
243.2068865327
 30
0.0
 11
90.625
 21
243.2068865327
 31
0.0
  0
LINE
  5
20A
330
1F
100
AcDbEntity
  8
0
  6
Continuous
 62
     7
370
    25
100
AcDbLine
 10
99.5
 20
230.9568865327
 30
0.0
 11
96.138702753
 21
230.9568865327
 31
0.0
  0
LINE
  5
20B
330
1F
100
AcDbEntity
  8
0
  6
Continuous
 62
     7
370
    25
100
AcDbLine
 10
72.125
 20
215.4068865327
 30
0.0
 11
72.125
 21
226.4068865327
 31
0.0
  0
LINE
  5
20C
330
1F
100
AcDbEntity
  8
0
  6
Continuous
 62
     7
370
    25
100
AcDbLine
 10
61.625
 20
215.4068865327
 30
0.0
 11
61.625
 21
226.4068865327
 31
0.0
  0
LINE
  5
20D
330
1F
100
AcDbEntity
  8
0
  6
Continuous
 62
     7
370
    25
100
AcDbLine
 10
72.125
 20
226.4068865327
 30
0.0
 11
68.7617962264
 21
226.4068865327
 31
0.0
  0
LINE
  5
20E
330
1F
100
AcDbEntity
  8
0
  6
Continuous
 62
     7
370
    25
100
AcDbLine
 10
64.9882037736
 20
226.4068865327
 30
0.0
 11
61.625
 21
226.4068865327
 31
0.0
  0
LINE
  5
20F
330
1F
100
AcDbEntity
  8
0
  6
Continuous
 62
     7
370
    25
100
AcDbLine
 10
72.125
 20
215.4068865327
 30
0.0
 11
61.625
 21
215.4068865327
 31
0.0
  0
LINE
  5
210
330
1F
100
AcDbEntity
  8
0
  6
Continuous
 62
     7
370
    25
100
AcDbLine
 10
70.5
 20
214.1568865327
 30
0.0
 11
63.25
 21
214.1568865327
 31
0.0
  0
LINE
  5
211
330
1F
100
AcDbEntity
  8
0
  6
Continuous
 62
     7
370
    25
100
AcDbLine
 10
68.375
 20
212.1568865327
 30
0.0
 11
65.375
 21
212.1568865327
 31
0.0
  0
LINE
  5
212
330
1F
100
AcDbEntity
  8
0
  6
Continuous
 62
     7
370
    25
100
AcDbLine
 10
95.4272165631
 20
222.8893633946
 30
0.0
 11
95.9436352822
 21
223.8606057467
 31
0.0
  0
LINE
  5
213
330
1F
100
AcDbEntity
  8
0
  6
Continuous
 62
     7
370
    25
100
AcDbLine
 10
95.9436352822
 20
223.8606057467
 30
0.0
 11
75.8505749957
 21
234.544275412
 31
0.0
  0
LINE
  5
214
330
1F
100
AcDbEntity
  8
0
  6
Continuous
 62
     7
370
    25
100
AcDbLine
 10
95.4272165631
 20
222.8893633946
 30
0.0
 11
75.6885808201
 21
233.3845821873
 31
0.0
  0
LINE
  5
215
330
1F
100
AcDbEntity
  8
0
  6
Continuous
 62
     7
370
    25
100
AcDbLine
 10
95.5593341788
 20
221.9130591717
 30
0.0
 11
89.466995788
 21
225.1524129549
 31
0.0
  0
LINE
  5
216
330
1F
100
AcDbEntity
  8
0
  6
Continuous
 62
     7
370
    25
100
AcDbLine
 10
96.4513301481
 20
223.5906595981
 30
0.0
 11
95.9436352822
 21
223.8606057467
 31
0.0
  0
LINE
  5
217
330
1F
100
AcDbEntity
  8
0
  6
Continuous
 62
     7
370
    25
100
AcDbLine
 10
88.523426679
 20
225.8806315598
 30
0.0
 11
75.5423907742
 21
232.7827707831
 31
0.0
  0
LINE
  5
218
330
1F
100
AcDbEntity
  8
0
  6
Continuous
 62
     7
370
    25
100
AcDbLine
 10
88.523426679
 20
225.8806315598
 30
0.0
 11
88.8051096167
 21
226.4104001155
 31
0.0
  0
LINE
  5
219
330
1F
100
AcDbEntity
  8
0
  6
Continuous
 62
     7
370
    25
100
AcDbLine
 10
95.4272165631
 20
230.0893633946
 30
0.0
 11
75.875
 21
240.4854613511
 31
0.0
  0
LINE
  5
21A
330
1F
100
AcDbEntity
  8
0
  6
Continuous
 62
     7
370
    25
100
AcDbLine
 10
75.2704871543
 20
240.8068865327
 30
0.0
 11
72.3077740941
 21
242.3821890101
 31
0.0
  0
LINE
  5
21B
330
1F
100
AcDbEntity
  8
0
  6
Continuous
 62
     7
370
    25
100
AcDbLine
 10
69.7856266286
 20
243.7232386056
 30
0.0
 11
66.2899459988
 21
245.5819249665
 31
0.0
  0
LINE
  5
21C
330
1F
100
AcDbEntity
  8
0
  6
Continuous
 62
     7
370
    25
100
AcDbLine
 10
66.2899459988
 20
245.5819249665
 30
0.0
 11
66.8063647178
 21
246.5531673187
 31
0.0
  0
LINE
  5
21D
330
1F
100
AcDbEntity
  8
0
  6
Continuous
 62
     7
370
    25
100
AcDbLine
 10
95.9436352822
 20
231.0606057467
 30
0.0
 11
66.8063647178
 21
246.5531673187
 31
0.0
  0
LINE
  5
21E
330
1F
100
AcDbEntity
  8
0
  6
Continuous
 62
     7
370
    25
100
AcDbLine
 10
95.4272165631
 20
230.0893633946
 30
0.0
 11
95.9436352822
 21
231.0606057467
 31
0.0
  0
LINE
  5
21F
330
1F
100
AcDbEntity
  8
0
  6
Continuous
 62
     7
370
    25
100
AcDbLine
 10
95.5593341788
 20
229.1130591717
 30
0.0
 11
89.466995788
 21
232.3524129549
 31
0.0
  0
LINE
  5
220
330
1F
100
AcDbEntity
  8
0
  6
Continuous
 62
     7
370
    25
100
AcDbLine
 10
96.4513301481
 20
230.7906595981
 30
0.0
 11
95.9436352822
 21
231.0606057467
 31
0.0
  0
LINE
  5
221
330
1F
100
AcDbEntity
  8
0
  6
Continuous
 62
     7
370
    25
100
AcDbLine
 10
67.181811987
 20
244.2016553682
 30
0.0
 11
65.4066738826
 21
245.1455130409
 31
0.0
  0
LINE
  5
222
330
1F
100
AcDbEntity
  8
0
  6
Continuous
 62
     7
370
    25
100
AcDbLine
 10
66.8063647178
 20
246.5531673187
 30
0.0
 11
66.2986698519
 21
246.8231134673
 31
0.0
  0
LINE
  5
223
330
1F
100
AcDbEntity
  8
0
  6
Continuous
 62
     7
370
    25
100
AcDbLine
 10
88.523426679
 20
233.0806315598
 30
0.0
 11
75.875
 21
239.8059193207
 31
0.0
  0
LINE
  5
224
330
1F
100
AcDbEntity
  8
0
  6
Continuous
 62
     7
370
    25
100
AcDbLine
 10
73.9924544734
 20
240.8068865327
 30
0.0
 11
73.8670485977
 21
240.8735660196
 31
0.0
  0
LINE
  5
225
330
1F
100
AcDbEntity
  8
0
  6
Continuous
 62
     7
370
    25
100
AcDbLine
 10
72.847537686
 20
241.9395526903
 30
0.0
 11
72.9120529452
 21
242.0608882456
 31
0.0
  0
LINE
  5
226
330
1F
100
AcDbEntity
  8
0
  6
Continuous
 62
     7
370
    25
100
AcDbLine
 10
88.523426679
 20
233.0806315598
 30
0.0
 11
88.8051096167
 21
233.6104001155
 31
0.0
  0
LINE
  5
227
330
1F
100
AcDbEntity
  8
0
  6
Continuous
 62
     7
370
    25
100
AcDbLine
 10
75.875
 20
228.2068865327
 30
0.0
 11
72.5318542495
 21
228.2068865327
 31
0.0
  0
LINE
  5
228
330
1F
100
AcDbEntity
  8
0
  6
Continuous
 62
     7
370
    25
100
AcDbLine
 10
61.2181457505
 20
228.2068865327
 30
0.0
 11
57.875
 21
228.2068865327
 31
0.0
  0
LINE
  5
229
330
1F
100
AcDbEntity
  8
0
  6
Continuous
 62
     7
370
    25
100
AcDbLine
 10
57.875
 20
228.2068865327
 30
0.0
 11
57.875
 21
229.6068865327
 31
0.0
  0
LINE
  5
22A
330
1F
100
AcDbEntity
  8
0
  6
Continuous
 62
     7
370
    25
100
AcDbLine
 10
75.875
 20
229.6068865327
 30
0.0
 11
73.9205659815
 21
229.6068865327
 31
0.0
  0
LINE
  5
22B
330
1F
100
AcDbEntity
  8
0
  6
Continuous
 62
     7
370
    25
100
AcDbLine
 10
59.8294340185
 20
229.6068865327
 30
0.0
 11
57.875
 21
229.6068865327
 31
0.0
  0
LINE
  5
22C
330
1F
100
AcDbEntity
  8
0
  6
Continuous
 62
     7
370
    25
100
AcDbLine
 10
75.875
 20
228.2068865327
 30
0.0
 11
75.875
 21
229.6068865327
 31
0.0
  0
LINE
  5
22D
330
1F
100
AcDbEntity
  8
0
  6
Continuous
 62
     7
370
    25
100
AcDbLine
 10
71.625
 20
227.5068865327
 30
0.0
 11
71.5343991029
 21
227.5068865327
 31
0.0
  0
LINE
  5
22E
330
1F
100
AcDbEntity
  8
0
  6
Continuous
 62
     7
370
    25
100
AcDbLine
 10
62.2156008971
 20
227.5068865327
 30
0.0
 11
62.125
 21
227.5068865327
 31
0.0
  0
LINE
  5
22F
330
1F
100
AcDbEntity
  8
0
  6
Continuous
 62
     7
370
    25
100
AcDbLine
 10
75.875
 20
239.4068865327
 30
0.0
 11
74.8348994969
 21
239.4068865327
 31
0.0
  0
LINE
  5
230
330
1F
100
AcDbEntity
  8
0
  6
Continuous
 62
     7
370
    25
100
AcDbLine
 10
58.9151005031
 20
239.4068865327
 30
0.0
 11
57.875
 21
239.4068865327
 31
0.0
  0
LINE
  5
231
330
1F
100
AcDbEntity
  8
0
  6
Continuous
 62
     7
370
    25
100
AcDbLine
 10
57.875
 20
239.4068865327
 30
0.0
 11
57.875
 21
240.8068865327
 31
0.0
  0
LINE
  5
232
330
1F
100
AcDbEntity
  8
0
  6
Continuous
 62
     7
370
    25
100
AcDbLine
 10
75.875
 20
240.8068865327
 30
0.0
 11
73.9205659815
 21
240.8068865327
 31
0.0
  0
LINE
  5
233
330
1F
100
AcDbEntity
  8
0
  6
Continuous
 62
     7
370
    25
100
AcDbLine
 10
59.8294340185
 20
240.8068865327
 30
0.0
 11
57.875
 21
240.8068865327
 31
0.0
  0
LINE
  5
234
330
1F
100
AcDbEntity
  8
0
  6
Continuous
 62
     7
370
    25
100
AcDbLine
 10
75.875
 20
239.4068865327
 30
0.0
 11
75.875
 21
240.8068865327
 31
0.0
  0
CIRCLE
  5
235
330
1F
100
AcDbEntity
  8
0
  6
Continuous
 62
     7
370
    25
100
AcDbCircle
 10
73.5731266107
 20
232.4324316481
 30
0.0
 40
0.4500000000000171
  0
CIRCLE
  5
236
330
1F
100
AcDbEntity
  8
0
  6
Continuous
 62
     7
370
    25
100
AcDbCircle
 10
69.6494548846
 20
228.508759922
 30
0.0
 40
0.4500000000000171
  0
CIRCLE
  5
237
330
1F
100
AcDbEntity
  8
0
  6
Continuous
 62
     7
370
    25
100
AcDbCircle
 10
64.1005451154
 20
228.508759922
 30
0.0
 40
0.4500000000000171
  0
CIRCLE
  5
238
330
1F
100
AcDbEntity
  8
0
  6
Continuous
 62
     7
370
    25
100
AcDbCircle
 10
60.1768733893
 20
232.4324316481
 30
0.0
 40
0.4500000000000171
  0
CIRCLE
  5
239
330
1F
100
AcDbEntity
  8
0
  6
Continuous
 62
     7
370
    25
100
AcDbCircle
 10
60.1768733893
 20
237.9813414174
 30
0.0
 40
0.4499999999999886
  0
CIRCLE
  5
23A
330
1F
100
AcDbEntity
  8
0
  6
Continuous
 62
     7
370
    25
100
AcDbCircle
 10
64.1005451154
 20
241.9050131434
 30
0.0
 40
0.4499999999999886
  0
CIRCLE
  5
23B
330
1F
100
AcDbEntity
  8
0
  6
Continuous
 62
     7
370
    25
100
AcDbCircle
 10
69.6494548846
 20
241.9050131434
 30
0.0
 40
0.4499999999999886
  0
CIRCLE
  5
23C
330
1F
100
AcDbEntity
  8
0
  6
Continuous
 62
     7
370
    25
100
AcDbCircle
 10
73.5731266107
 20
237.9813414174
 30
0.0
 40
0.4499999999999886
  0
CIRCLE
  5
23D
330
1F
100
AcDbEntity
  8
0
  6
Continuous
 62
     7
370
    25
100
AcDbCircle
 10
66.875
 20
235.2068865327
 30
0.0
 40
3.0
  0
CIRCLE
  5
23E
330
1F
100
AcDbEntity
  8
0
  6
Continuous
 62
     7
370
    25
100
AcDbCircle
 10
66.875
 20
235.2068865327
 30
0.0
 40
9.0
  0
LINE
  5
23F
330
1F
100
AcDbEntity
  8
0
  6
Continuous
 62
     7
370
    25
100
AcDbLine
 10
247.2168865327
 20
136.44
 30
0.0
 11
245.7168865327
 21
136.44
 31
0.0
  0
LINE
  5
240
330
1F
100
AcDbEntity
  8
0
  6
Continuous
 62
     7
370
    25
100
AcDbLine
 10
245.7168865327
 20
133.94
 30
0.0
 11
244.7168865327
 21
133.94
 31
0.0
  0
LINE
  5
241
330
1F
100
AcDbEntity
  8
0
  6
Continuous
 62
     7
370
    25
100
AcDbLine
 10
251.8168865327
 20
132.99
 30
0.0
 11
250.0168865327
 21
132.99
 31
0.0
  0
LINE
  5
242
330
1F
100
AcDbEntity
  8
0
  6
Continuous
 62
     7
370
    25
100
AcDbLine
 10
250.0168865327
 20
132.39
 30
0.0
 11
247.2168865327
 21
132.39
 31
0.0
  0
LINE
  5
243
330
1F
100
AcDbEntity
  8
0
  6
Continuous
 62
     7
370
    25
100
AcDbLine
 10
244.7168865327
 20
132.39
 30
0.0
 11
243.6525495004
 21
132.39
 31
0.0
  0
LINE
  5
244
330
1F
100
AcDbEntity
  8
0
  6
Continuous
 62
     7
370
    25
100
AcDbLine
 10
251.005187504
 20
131.34
 30
0.0
 11
250.3180484755
 21
131.34
 31
0.0
  0
LINE
  5
245
330
1F
100
AcDbEntity
  8
0
  6
Continuous
 62
     7
370
    25
100
AcDbLine
 10
247.2653311946
 20
131.34
 30
0.0
 11
247.2168865327
 21
131.34
 31
0.0
  0
LINE
  5
246
330
1F
100
AcDbEntity
  8
0
  6
Continuous
 62
     7
370
    25
100
AcDbLine
 10
245.205187504
 20
131.34
 30
0.0
 11
244.5180484755
 21
131.34
 31
0.0
  0
LINE
  5
247
330
1F
100
AcDbEntity
  8
0
  6
Continuous
 62
     7
370
    25
100
AcDbLine
 10
242.9668865327
 20
128.39
 30
0.0
 11
241.5668865327
 21
128.39
 31
0.0
  0
LINE
  5
248
330
1F
100
AcDbEntity
  8
0
  6
Continuous
 62
     7
370
    25
100
AcDbLine
 10
241.5668865327
 20
123.99
 30
0.0
 11
242.9668865327
 21
123.99
 31
0.0
  0
LINE
  5
249
330
1F
100
AcDbEntity
  8
0
  6
Continuous
 62
     7
370
    25
100
AcDbLine
 10
241.5668865327
 20
127.815
 30
0.0
 11
239.3168865327
 21
127.815
 31
0.0
  0
LINE
  5
24A
330
1F
100
AcDbEntity
  8
0
  6
Continuous
 62
     7
370
    25
100
AcDbLine
 10
239.3168865327
 20
124.565
 30
0.0
 11
241.5668865327
 21
124.565
 31
0.0
  0
LINE
  5
24B
330
1F
100
AcDbEntity
  8
0
  6
Continuous
 62
     7
370
    25
100
AcDbLine
 10
244.2168865327
 20
129.815
 30
0.0
 11
242.9668865327
 21
129.815
 31
0.0
  0
LINE
  5
24C
330
1F
100
AcDbEntity
  8
0
  6
Continuous
 62
     7
370
    25
100
AcDbLine
 10
227.4168865327
 20
114.315
 30
0.0
 11
226.1668865327
 21
114.315
 31
0.0
  0
LINE
  5
24D
330
1F
100
AcDbEntity
  8
0
  6
Continuous
 62
     7
370
    25
100
AcDbLine
 10
226.1668865327
 20
107.065
 30
0.0
 11
227.4168865327
 21
107.065
 31
0.0
  0
LINE
  5
24E
330
1F
100
AcDbEntity
  8
0
  6
Continuous
 62
     7
370
    25
100
AcDbLine
 10
226.1668865327
 20
112.19
 30
0.0
 11
224.1668865327
 21
112.19
 31
0.0
  0
LINE
  5
24F
330
1F
100
AcDbEntity
  8
0
  6
Continuous
 62
     7
370
    25
100
AcDbLine
 10
224.1668865327
 20
109.19
 30
0.0
 11
226.1668865327
 21
109.19
 31
0.0
  0
LINE
  5
250
330
1F
100
AcDbEntity
  8
0
  6
Continuous
 62
     7
370
    25
100
AcDbLine
 10
249.0421942235
 20
121.89
 30
0.0
 11
248.3358361492
 21
121.89
 31
0.0
  0
LINE
  5
251
330
1F
100
AcDbEntity
  8
0
  6
Continuous
 62
     7
370
    25
100
AcDbLine
 10
248.3358361492
 20
114.99
 30
0.0
 11
249.0421942235
 21
114.99
 31
0.0
  0
LINE
  5
252
330
1F
100
AcDbEntity
  8
0
  6
Continuous
 62
     7
370
    25
100
AcDbLine
 10
236.2490941376
 20
121.89
 30
0.0
 11
235.5427360633
 21
121.89
 31
0.0
  0
LINE
  5
253
330
1F
100
AcDbEntity
  8
0
  6
Continuous
 62
     7
370
    25
100
AcDbLine
 10
256.2421942235
 20
121.89
 30
0.0
 11
255.5358361492
 21
121.89
 31
0.0
  0
LINE
  5
254
330
1F
100
AcDbEntity
  8
0
  6
Continuous
 62
     7
370
    25
100
AcDbLine
 10
255.5358361492
 20
114.99
 30
0.0
 11
256.2421942235
 21
114.99
 31
0.0
  0
LINE
  5
255
330
1F
100
AcDbEntity
  8
0
  6
Continuous
 62
     7
370
    25
100
AcDbLine
 10
253.8168865327
 20
114.14
 30
0.0
 11
252.8168865327
 21
114.14
 31
0.0
  0
LINE
  5
256
330
1F
100
AcDbEntity
  8
0
  6
Continuous
 62
     7
370
    25
100
AcDbLine
 10
252.8168865327
 20
107.24
 30
0.0
 11
253.8168865327
 21
107.24
 31
0.0
  0
LINE
  5
257
330
1F
100
AcDbEntity
  8
0
  6
Continuous
 62
     7
370
    25
100
AcDbLine
 10
250.7168865327
 20
113.315
 30
0.0
 11
241.6168865327
 21
113.315
 31
0.0
  0
LINE
  5
258
330
1F
100
AcDbEntity
  8
0
  6
Continuous
 62
     7
370
    25
100
AcDbLine
 10
241.6168865327
 20
108.065
 30
0.0
 11
250.7168865327
 21
108.065
 31
0.0
  0
LINE
  5
259
330
1F
100
AcDbEntity
  8
0
  6
Continuous
 62
     7
370
    25
100
AcDbLine
 10
239.5168865327
 20
112.64
 30
0.0
 11
238.5668865327
 21
112.64
 31
0.0
  0
LINE
  5
25A
330
1F
100
AcDbEntity
  8
0
  6
Continuous
 62
     7
370
    25
100
AcDbLine
 10
238.5668865327
 20
108.74
 30
0.0
 11
239.5168865327
 21
108.74
 31
0.0
  0
LINE
  5
25B
330
1F
100
AcDbEntity
  8
0
  6
Continuous
 62
     7
370
    25
100
AcDbLine
 10
240.2168865327
 20
115.44
 30
0.0
 11
239.5168865327
 21
115.44
 31
0.0
  0
LINE
  5
25C
330
1F
100
AcDbEntity
  8
0
  6
Continuous
 62
     7
370
    25
100
AcDbLine
 10
239.5168865327
 20
105.94
 30
0.0
 11
240.2168865327
 21
105.94
 31
0.0
  0
LINE
  5
25D
330
1F
100
AcDbEntity
  8
0
  6
Continuous
 62
     7
370
    25
100
AcDbLine
 10
251.4168865327
 20
115.44
 30
0.0
 11
251.3631673187
 21
115.44
 31
0.0
  0
LINE
  5
25E
330
1F
100
AcDbEntity
  8
0
  6
Continuous
 62
     7
370
    25
100
AcDbLine
 10
255.4668865327
 20
86.19
 30
0.0
 11
255.4668865327
 21
88.29
 31
0.0
  0
LINE
  5
25F
330
1F
100
AcDbEntity
  8
0
  6
Continuous
 62
     7
370
    25
100
AcDbLine
 10
238.9668865327
 20
88.29
 30
0.0
 11
238.9668865327
 21
86.19
 31
0.0
  0
LINE
  5
260
330
1F
100
AcDbEntity
  8
0
  6
Continuous
 62
     7
370
    25
100
AcDbLine
 10
253.7168865327
 20
88.29
 30
0.0
 11
253.7168865327
 21
104.19
 31
0.0
  0
LINE
  5
261
330
1F
100
AcDbEntity
  8
0
  6
Continuous
 62
     7
370
    25
100
AcDbLine
 10
240.7168865327
 20
102.94
 30
0.0
 11
240.7168865327
 21
88.29
 31
0.0
  0
LINE
  5
262
330
1F
100
AcDbEntity
  8
0
  6
Continuous
 62
     7
370
    25
100
AcDbLine
 10
242.4668865327
 20
106.69
 30
0.0
 11
242.4668865327
 21
104.19
 31
0.0
  0
LINE
  5
263
330
1F
100
AcDbEntity
  8
0
  6
Continuous
 62
     7
370
    25
100
AcDbLine
 10
256.2168865327
 20
84.69
 30
0.0
 11
256.2168865327
 21
86.19
 31
0.0
  0
LINE
  5
264
330
1F
100
AcDbEntity
  8
0
  6
Continuous
 62
     7
370
    25
100
AcDbLine
 10
238.2168865327
 20
86.19
 30
0.0
 11
238.2168865327
 21
84.69
 31
0.0
  0
LINE
  5
265
330
1F
100
AcDbEntity
  8
0
  6
Continuous
 62
     7
370
    25
100
AcDbLine
 10
250.4668865327
 20
135.1849489743
 30
0.0
 11
250.4668865327
 21
134.6950510257
 31
0.0
  0
LINE
  5
266
330
1F
100
AcDbEntity
  8
0
  6
Continuous
 62
     7
370
    25
100
AcDbLine
 10
243.9668865327
 20
134.6950510257
 30
0.0
 11
243.9668865327
 21
135.1849489743
 31
0.0
  0
LINE
  5
267
330
1F
100
AcDbEntity
  8
0
  6
Continuous
 62
     7
370
    25
100
AcDbLine
 10
242.7168865327
 20
133.065
 30
0.0
 11
242.7168865327
 21
136.69
 31
0.0
  0
LINE
  5
268
330
1F
100
AcDbEntity
  8
0
  6
Continuous
 62
     7
370
    25
100
AcDbLine
 10
251.7168865327
 20
136.69
 30
0.0
 11
251.7168865327
 21
132.99
 31
0.0
  0
CIRCLE
  5
269
330
1F
100
AcDbEntity
  8
0
  6
Continuous
 62
     7
370
    25
100
AcDbCircle
 10
250.2168865327
 20
134.94
 30
0.0
 40
0.3499999999999659
  0
CIRCLE
  5
26A
330
1F
100
AcDbEntity
  8
0
  6
Continuous
 62
     7
370
    25
100
AcDbCircle
 10
244.2168865327
 20
134.94
 30
0.0
 40
0.3500000000000227
  0
LINE
  5
26B
330
1F
100
AcDbEntity
  8
0
  6
Continuous
 62
     7
370
    25
100
AcDbLine
 10
242.7168865327
 20
136.69
 30
0.0
 11
251.7168865327
 21
136.69
 31
0.0
  0
LINE
  5
26C
330
1F
100
AcDbEntity
  8
0
  6
Continuous
 62
     7
370
    25
100
AcDbLine
 10
247.2168865327
 20
130.94
 30
0.0
 11
247.2168865327
 21
136.44
 31
0.0
  0
LINE
  5
26D
330
1F
100
AcDbEntity
  8
0
  6
Continuous
 62
     7
370
    25
100
AcDbLine
 10
245.7168865327
 20
131.64
 30
0.0
 11
245.7168865327
 21
136.44
 31
0.0
  0
LINE
  5
26E
330
1F
100
AcDbEntity
  8
0
  6
Continuous
 62
     7
370
    25
100
AcDbLine
 10
244.7168865327
 20
131.64
 30
0.0
 11
244.7168865327
 21
133.94
 31
0.0
  0
LINE
  5
26F
330
1F
100
AcDbEntity
  8
0
  6
Continuous
 62
     7
370
    25
100
AcDbLine
 10
242.7296574484
 20
130.54
 30
0.0
 11
242.7296574484
 21
131.34
 31
0.0
  0
LINE
  5
270
330
1F
100
AcDbEntity
  8
0
  6
Continuous
 62
     7
370
    25
100
AcDbLine
 10
242.4434439553
 20
131.34
 30
0.0
 11
242.4434439553
 21
131.54
 31
0.0
  0
LINE
  5
271
330
1F
100
AcDbEntity
  8
0
  6
Continuous
 62
     7
370
    25
100
AcDbLine
 10
242.4434439553
 20
131.54
 30
0.0
 11
241.01237649
 21
131.54
 31
0.0
  0
LINE
  5
272
330
1F
100
AcDbEntity
  8
0
  6
Continuous
 62
     7
370
    25
100
AcDbLine
 10
241.01237649
 20
131.54
 30
0.0
 11
241.01237649
 21
131.34
 31
0.0
  0
LINE
  5
273
330
1F
100
AcDbEntity
  8
0
  6
Continuous
 62
     7
370
    25
100
AcDbLine
 10
241.01237649
 20
130.54
 30
0.0
 11
241.01237649
 21
130.34
 31
0.0
  0
LINE
  5
274
330
1F
100
AcDbEntity
  8
0
  6
Continuous
 62
     7
370
    25
100
AcDbLine
 10
241.01237649
 20
130.34
 30
0.0
 11
242.4434439553
 21
130.34
 31
0.0
  0
LINE
  5
275
330
1F
100
AcDbEntity
  8
0
  6
Continuous
 62
     7
370
    25
100
AcDbLine
 10
242.4434439553
 20
130.34
 30
0.0
 11
242.4434439553
 21
130.54
 31
0.0
  0
LINE
  5
276
330
1F
100
AcDbEntity
  8
0
  6
Continuous
 62
     7
370
    25
100
AcDbLine
 10
243.0635731903
 20
129.815
 30
0.0
 11
243.0635731903
 21
133.065
 31
0.0
  0
LINE
  5
277
330
1F
100
AcDbEntity
  8
0
  6
Continuous
 62
     7
370
    25
100
AcDbLine
 10
240.392247255
 20
133.065
 30
0.0
 11
240.392247255
 21
131.34
 31
0.0
  0
LINE
  5
278
330
1F
100
AcDbEntity
  8
0
  6
Continuous
 62
     7
370
    25
100
AcDbLine
 10
240.392247255
 20
130.54
 30
0.0
 11
240.392247255
 21
128.815
 31
0.0
  0
LWPOLYLINE
  5
279
330
1F
100
AcDbEntity
  8
0
  6
Continuous
 62
     7
370
    25
100
AcDbPolyline
 90
       23
 70
   128
 43
0.0
 10
242.8250619461
 20
132.565
 10
242.8129665972
 20
132.5558859191
 10
242.8018511415
 20
132.5292820449
 10
242.7926160872
 20
132.4873436651
 10
242.7860096034
 20
132.4334683779
 10
242.7825669082
 20
132.3720208386
 10
242.7825669082
 20
132.3079791614
 10
242.7860096034
 20
132.2465316221
 10
242.7926160872
 20
132.1926563349
 10
242.8018511415
 20
132.1507179551
 10
242.8129665972
 20
132.1241140809
 10
242.8250619461
 20
132.115
 10
242.8371572949
 20
132.1241140809
 10
242.8482727506
 20
132.1507179551
 10
242.8575078049
 20
132.1926563349
 10
242.8641142887
 20
132.2465316221
 10
242.8675569839
 20
132.3079791614
 10
242.8675569839
 20
132.3720208386
 10
242.8641142887
 20
132.4334683779
 10
242.8575078049
 20
132.4873436651
 10
242.8482727506
 20
132.5292820449
 10
242.8371572949
 20
132.5558859191
 10
242.8250619461
 20
132.565
  0
LWPOLYLINE
  5
27A
330
1F
100
AcDbEntity
  8
0
  6
Continuous
 62
     7
370
    25
100
AcDbPolyline
 90
       23
 70
   128
 43
0.0
 10
240.6307584992
 20
132.565
 10
240.6186631504
 20
132.5558859191
 10
240.6075476947
 20
132.5292820449
 10
240.5983126404
 20
132.4873436651
 10
240.5917061566
 20
132.4334683779
 10
240.5882634614
 20
132.3720208386
 10
240.5882634614
 20
132.3079791614
 10
240.5917061566
 20
132.2465316221
 10
240.5983126404
 20
132.1926563349
 10
240.6075476947
 20
132.1507179551
 10
240.6186631504
 20
132.1241140809
 10
240.6307584992
 20
132.115
 10
240.6428538481
 20
132.1241140809
 10
240.6539693038
 20
132.1507179551
 10
240.6632043581
 20
132.1926563349
 10
240.6698108419
 20
132.2465316221
 10
240.6732535371
 20
132.3079791614
 10
240.6732535371
 20
132.3720208386
 10
240.6698108419
 20
132.4334683779
 10
240.6632043581
 20
132.4873436651
 10
240.6539693038
 20
132.5292820449
 10
240.6428538481
 20
132.5558859191
 10
240.6307584992
 20
132.565
  0
LWPOLYLINE
  5
27B
330
1F
100
AcDbEntity
  8
0
  6
Continuous
 62
     7
370
    25
100
AcDbPolyline
 90
       23
 70
   128
 43
0.0
 10
242.8250619461
 20
129.765
 10
242.8129665972
 20
129.7558859191
 10
242.8018511415
 20
129.7292820449
 10
242.7926160872
 20
129.6873436651
 10
242.7860096034
 20
129.6334683779
 10
242.7825669082
 20
129.5720208386
 10
242.7825669082
 20
129.5079791614
 10
242.7860096034
 20
129.4465316221
 10
242.7926160872
 20
129.3926563349
 10
242.8018511415
 20
129.3507179551
 10
242.8129665972
 20
129.3241140809
 10
242.8250619461
 20
129.315
 10
242.8371572949
 20
129.3241140809
 10
242.8482727506
 20
129.3507179551
 10
242.8575078049
 20
129.3926563349
 10
242.8641142887
 20
129.4465316221
 10
242.8675569839
 20
129.5079791614
 10
242.8675569839
 20
129.5720208386
 10
242.8641142887
 20
129.6334683779
 10
242.8575078049
 20
129.6873436651
 10
242.8482727506
 20
129.7292820449
 10
242.8371572949
 20
129.7558859191
 10
242.8250619461
 20
129.765
  0
LWPOLYLINE
  5
27C
330
1F
100
AcDbEntity
  8
0
  6
Continuous
 62
     7
370
    25
100
AcDbPolyline
 90
       23
 70
   128
 43
0.0
 10
240.6307584992
 20
129.765
 10
240.6186631504
 20
129.7558859191
 10
240.6075476947
 20
129.7292820449
 10
240.5983126404
 20
129.6873436651
 10
240.5917061566
 20
129.6334683779
 10
240.5882634614
 20
129.5720208386
 10
240.5882634614
 20
129.5079791614
 10
240.5917061566
 20
129.4465316221
 10
240.5983126404
 20
129.3926563349
 10
240.6075476947
 20
129.3507179551
 10
240.6186631504
 20
129.3241140809
 10
240.6307584992
 20
129.315
 10
240.6428538481
 20
129.3241140809
 10
240.6539693038
 20
129.3507179551
 10
240.6632043581
 20
129.3926563349
 10
240.6698108419
 20
129.4465316221
 10
240.6732535371
 20
129.5079791614
 10
240.6732535371
 20
129.5720208386
 10
240.6698108419
 20
129.6334683779
 10
240.6632043581
 20
129.6873436651
 10
240.6539693038
 20
129.7292820449
 10
240.6428538481
 20
129.7558859191
 10
240.6307584992
 20
129.765
  0
LINE
  5
27D
330
1F
100
AcDbEntity
  8
0
  6
Continuous
 62
     7
370
    25
100
AcDbLine
 10
243.0635731903
 20
133.065
 30
0.0
 11
240.392247255
 21
133.065
 31
0.0
  0
LINE
  5
27E
330
1F
100
AcDbEntity
  8
0
  6
Continuous
 62
     7
370
    25
100
AcDbLine
 10
240.392247255
 20
128.815
 30
0.0
 11
242.9668865327
 21
128.815
 31
0.0
  0
LINE
  5
27F
330
1F
100
AcDbEntity
  8
0
  6
Continuous
 62
     7
370
    25
100
AcDbLine
 10
243.6525495004
 20
129.815
 30
0.0
 11
243.6525495004
 21
133.065
 31
0.0
  0
LINE
  5
280
330
1F
100
AcDbEntity
  8
0
  6
Continuous
 62
     7
370
    25
100
AcDbLine
 10
243.0635731903
 20
133.065
 30
0.0
 11
243.6525495004
 21
133.065
 31
0.0
  0
LINE
  5
281
330
1F
100
AcDbEntity
  8
0
  6
Continuous
 62
     7
370
    25
100
AcDbLine
 10
242.337006575
 20
130.54
 30
0.0
 11
242.337006575
 21
131.34
 31
0.0
  0
LINE
  5
282
330
1F
100
AcDbEntity
  8
0
  6
Continuous
 62
     7
370
    25
100
AcDbLine
 10
242.337006575
 20
131.34
 30
0.0
 11
242.7296574484
 21
131.34
 31
0.0
  0
LINE
  5
283
330
1F
100
AcDbEntity
  8
0
  6
Continuous
 62
     7
370
    25
100
AcDbLine
 10
242.337006575
 20
130.54
 30
0.0
 11
242.7296574484
 21
130.54
 31
0.0
  0
LINE
  5
284
330
1F
100
AcDbEntity
  8
0
  6
Continuous
 62
     7
370
    25
100
AcDbLine
 10
240.3335121235
 20
131.34
 30
0.0
 11
240.3335121235
 21
130.54
 31
0.0
  0
LINE
  5
285
330
1F
100
AcDbEntity
  8
0
  6
Continuous
 62
     7
370
    25
100
AcDbLine
 10
242.337006575
 20
131.34
 30
0.0
 11
240.3335121235
 21
131.34
 31
0.0
  0
LINE
  5
286
330
1F
100
AcDbEntity
  8
0
  6
Continuous
 62
     7
370
    25
100
AcDbLine
 10
240.3335121235
 20
130.54
 30
0.0
 11
242.337006575
 21
130.54
 31
0.0
  0
LINE
  5
287
330
1F
100
AcDbEntity
  8
0
  6
Continuous
 62
     7
370
    25
100
AcDbLine
 10
241.6013528001
 20
131.54
 30
0.0
 11
241.6013528001
 21
131.34
 31
0.0
  0
LINE
  5
288
330
1F
100
AcDbEntity
  8
0
  6
Continuous
 62
     7
370
    25
100
AcDbLine
 10
241.6013528001
 20
130.54
 30
0.0
 11
241.6013528001
 21
130.34
 31
0.0
  0
LINE
  5
289
330
1F
100
AcDbEntity
  8
0
  6
Continuous
 62
     7
370
    25
100
AcDbLine
 10
244.2234189165
 20
122.815
 30
0.0
 11
237.6508170375
 21
122.815
 31
0.0
  0
LINE
  5
28A
330
1F
100
AcDbEntity
  8
0
  6
Continuous
 62
     7
370
    25
100
AcDbLine
 10
244.2234189165
 20
119.04
 30
0.0
 11
244.2234189165
 21
119.89
 31
0.0
  0
LINE
  5
28B
330
1F
100
AcDbEntity
  8
0
  6
Continuous
 62
     7
370
    25
100
AcDbLine
 10
244.2234189165
 20
122.19
 30
0.0
 11
244.2234189165
 21
122.815
 31
0.0
  0
LINE
  5
28C
330
1F
100
AcDbEntity
  8
0
  6
Continuous
 62
     7
370
    25
100
AcDbLine
 10
237.6508170375
 20
122.815
 30
0.0
 11
237.6508170375
 21
122.19
 31
0.0
  0
ARC
  5
28D
330
1F
100
AcDbEntity
  8
0
  6
Continuous
 62
     7
370
    25
100
AcDbCircle
 10
243.6790614964
 20
122.1845255178
 30
0.0
 40
0.1372163024682674
100
AcDbArc
 50
108.0350675109
 51
177.7134787111
  0
ARC
  5
28E
330
1F
100
AcDbEntity
  8
0
  6
Continuous
 62
     7
370
    25
100
AcDbCircle
 10
243.5940974296
 20
122.1845255178
 30
0.0
 40
0.1372163024682674
100
AcDbArc
 50
2.2865212889
 51
71.9649324891
  0
ARC
  5
28F
330
1F
100
AcDbEntity
  8
0
  6
Continuous
 62
     7
370
    25
100
AcDbCircle
 10
238.2801385244
 20
122.1845255178
 30
0.0
 40
0.1372163024683249
100
AcDbArc
 50
108.0350675109
 51
177.7134787111
  0
ARC
  5
290
330
1F
100
AcDbEntity
  8
0
  6
Continuous
 62
     7
370
    25
100
AcDbCircle
 10
238.1951744576
 20
122.1845255178
 30
0.0
 40
0.1372163024682963
100
AcDbArc
 50
2.2865212889
 51
71.9649324891
  0
LWPOLYLINE
  5
291
330
1F
100
AcDbEntity
  8
0
  6
Continuous
 62
     7
370
    25
100
AcDbPolyline
 90
       23
 70
   128
 43
0.0
 10
243.636579463
 20
119.515
 10
243.6068197427
 20
119.5058859191
 10
243.5794709779
 20
119.4792820449
 10
243.5567488029
 20
119.4373436651
 10
243.5404940333
 20
119.3834683779
 10
243.5320235337
 20
119.3220208386
 10
243.5320235337
 20
119.2579791614
 10
243.5404940333
 20
119.1965316221
 10
243.5567488029
 20
119.1426563349
 10
243.5794709779
 20
119.1007179551
 10
243.6068197427
 20
119.0741140809
 10
243.636579463
 20
119.065
 10
243.6663391834
 20
119.0741140809
 10
243.6936879482
 20
119.1007179551
 10
243.7164101231
 20
119.1426563349
 10
243.7326648928
 20
119.1965316221
 10
243.7411353923
 20
119.2579791614
 10
243.7411353923
 20
119.3220208386
 10
243.7326648928
 20
119.3834683779
 10
243.7164101231
 20
119.4373436651
 10
243.6936879482
 20
119.4792820449
 10
243.6663391834
 20
119.5058859191
 10
243.636579463
 20
119.515
  0
LINE
  5
292
330
1F
100
AcDbEntity
  8
0
  6
Continuous
 62
     7
370
    25
100
AcDbLine
 10
244.2234189165
 20
122.815
 30
0.0
 11
244.7531874722
 21
122.815
 31
0.0
  0
LINE
  5
293
330
1F
100
AcDbEntity
  8
0
  6
Continuous
 62
     7
370
    25
100
AcDbLine
 10
244.7531874722
 20
119.04
 30
0.0
 11
244.7531874722
 21
119.89
 31
0.0
  0
LINE
  5
294
330
1F
100
AcDbEntity
  8
0
  6
Continuous
 62
     7
370
    25
100
AcDbLine
 10
244.7531874722
 20
122.19
 30
0.0
 11
244.7531874722
 21
122.815
 31
0.0
  0
LINE
  5
295
330
1F
100
AcDbEntity
  8
0
  6
Continuous
 62
     7
370
    25
100
AcDbLine
 10
251.8168865327
 20
131.64
 30
0.0
 11
251.8168865327
 21
132.99
 31
0.0
  0
LINE
  5
296
330
1F
100
AcDbEntity
  8
0
  6
Continuous
 62
     7
370
    25
100
AcDbLine
 10
250.0168865327
 20
131.64
 30
0.0
 11
250.0168865327
 21
132.99
 31
0.0
  0
LWPOLYLINE
  5
297
330
1F
100
AcDbEntity
  8
0
  6
Continuous
 62
     7
370
    25
100
AcDbPolyline
 90
        8
 70
   128
 43
0.0
 10
250.3180484755
 20
131.34
 10
250.274633442
 20
131.3310602678
 10
250.2314860765
 20
131.3042961877
 10
250.188872397
 20
131.2598727692
 10
250.147055131
 20
131.1980638973
 10
250.1062920958
 20
131.1192506443
 10
250.0668346092
 20
131.0239189201
 10
250.0376176693
 20
130.94
  0
LWPOLYLINE
  5
298
330
1F
100
AcDbEntity
  8
0
  6
Continuous
 62
     7
370
    25
100
AcDbPolyline
 90
        8
 70
   128
 43
0.0
 10
250.5984792817
 20
130.94
 10
250.5692623419
 20
131.0239189201
 10
250.5298048552
 20
131.1192506443
 10
250.4890418201
 20
131.1980638973
 10
250.4472245541
 20
131.2598727692
 10
250.4046108746
 20
131.3042961877
 10
250.3614635091
 20
131.3310602678
 10
250.3180484755
 20
131.34
  0
LWPOLYLINE
  5
299
330
1F
100
AcDbEntity
  8
0
  6
Continuous
 62
     7
370
    25
100
AcDbPolyline
 90
        8
 70
   128
 43
0.0
 10
251.2856183102
 20
130.94
 10
251.2506451925
 20
131.0390693716
 10
251.2112085907
 20
131.131504354
 10
251.1705162333
 20
131.2075338721
 10
251.1288161516
 20
131.266694505
 10
251.086362519
 20
131.3086256521
 10
251.0434141022
 20
131.3330717315
 10
251.005187504
 20
131.34
  0
LINE
  5
29A
330
1F
100
AcDbEntity
  8
0
  6
Continuous
 62
     7
370
    25
100
AcDbLine
 10
251.4726695426
 20
130.94
 30
0.0
 11
251.4726695426
 21
131.64
 31
0.0
  0
LINE
  5
29B
330
1F
100
AcDbEntity
  8
0
  6
Continuous
 62
     7
370
    25
100
AcDbLine
 10
251.4726695426
 20
131.64
 30
0.0
 11
252.4542967261
 21
131.64
 31
0.0
  0
LINE
  5
29C
330
1F
100
AcDbEntity
  8
0
  6
Continuous
 62
     7
370
    25
100
AcDbLine
 10
252.4542967261
 20
130.94
 30
0.0
 11
252.4542967261
 21
131.64
 31
0.0
  0
LWPOLYLINE
  5
29D
330
1F
100
AcDbEntity
  8
0
  6
Continuous
 62
     7
370
    25
100
AcDbPolyline
 90
        9
 70
   128
 43
0.0
 10
247.5457620008
 20
130.94
 10
247.5196304911
 20
131.0156158261
 10
247.4805160618
 20
131.1117372005
 10
247.4400900212
 20
131.191573597
 10
247.3985987771
 20
131.2546383905
 10
247.3562952302
 20
131.3005471836
 10
247.3134372324
 20
131.3290201495
 10
247.2702860149
 20
131.3398837377
 10
247.2653311946
 20
131.34
  0
LINE
  5
29E
330
1F
100
AcDbEntity
  8
0
  6
Continuous
 62
     7
370
    25
100
AcDbLine
 10
251.4726695426
 20
131.64
 30
0.0
 11
247.2168865327
 21
131.64
 31
0.0
  0
LWPOLYLINE
  5
29F
330
1F
100
AcDbEntity
  8
0
  6
Continuous
 62
     7
370
    25
100
AcDbPolyline
 90
        3
 70
   128
 43
0.0
 10
244.2168865327
 20
129.9725909494
 10
244.2146337995
 20
129.9603378278
 10
244.1903579821
 20
129.815
  0
LWPOLYLINE
  5
2A0
330
1F
100
AcDbEntity
  8
0
  6
Continuous
 62
     7
370
    25
100
AcDbPolyline
 90
        8
 70
   128
 43
0.0
 10
244.5180484755
 20
131.34
 10
244.474633442
 20
131.3310602678
 10
244.4314860765
 20
131.3042961877
 10
244.388872397
 20
131.2598727692
 10
244.347055131
 20
131.1980638973
 10
244.3062920958
 20
131.1192506443
 10
244.2668346092
 20
131.0239189201
 10
244.2376176693
 20
130.94
  0
ARC
  5
2A1
330
1F
100
AcDbEntity
  8
0
  6
Continuous
 62
     7
370
    25
100
AcDbCircle
 10
250.3698718883
 20
129.2455364211
 30
0.0
 40
6.364544684137157
100
AcDbArc
 50
165.185723179
 51
174.8666317125
  0
LWPOLYLINE
  5
2A2
330
1F
100
AcDbEntity
  8
0
  6
Continuous
 62
     7
370
    25
100
AcDbPolyline
 90
        8
 70
   128
 43
0.0
 10
244.7984792817
 20
130.94
 10
244.7692623419
 20
131.0239189201
 10
244.7298048552
 20
131.1192506443
 10
244.6890418201
 20
131.1980638973
 10
244.6472245541
 20
131.2598727692
 10
244.6046108746
 20
131.3042961877
 10
244.5614635091
 20
131.3310602678
 10
244.5180484755
 20
131.34
  0
LWPOLYLINE
  5
2A3
330
1F
100
AcDbEntity
  8
0
  6
Continuous
 62
     7
370
    25
100
AcDbPolyline
 90
        8
 70
   128
 43
0.0
 10
245.4856183102
 20
130.94
 10
245.4506451925
 20
131.0390693716
 10
245.4112085907
 20
131.131504354
 10
245.3705162333
 20
131.2075338721
 10
245.3288161516
 20
131.266694505
 10
245.286362519
 20
131.3086256521
 10
245.2434141022
 20
131.3330717315
 10
245.205187504
 20
131.34
  0
LINE
  5
2A4
330
1F
100
AcDbEntity
  8
0
  6
Continuous
 62
     7
370
    25
100
AcDbLine
 10
245.6726695426
 20
130.94
 30
0.0
 11
245.6726695426
 21
131.64
 31
0.0
  0
LINE
  5
2A5
330
1F
100
AcDbEntity
  8
0
  6
Continuous
 62
     7
370
    25
100
AcDbLine
 10
245.6726695426
 20
131.64
 30
0.0
 11
246.6542967261
 21
131.64
 31
0.0
  0
LINE
  5
2A6
330
1F
100
AcDbEntity
  8
0
  6
Continuous
 62
     7
370
    25
100
AcDbLine
 10
246.6542967261
 20
130.94
 30
0.0
 11
246.6542967261
 21
131.64
 31
0.0
  0
LWPOLYLINE
  5
2A7
330
1F
100
AcDbEntity
  8
0
  6
Continuous
 62
     7
370
    25
100
AcDbPolyline
 90
        3
 70
   128
 43
0.0
 10
241.8833727583
 20
130.34
 10
241.8583538542
 20
130.481408146
 10
241.8469491853
 20
130.54
  0
LINE
  5
2A8
330
1F
100
AcDbEntity
  8
0
  6
Continuous
 62
     7
370
    25
100
AcDbLine
 10
245.6726695426
 20
131.64
 30
0.0
 11
243.6525495004
 21
131.64
 31
0.0
  0
LINE
  5
2A9
330
1F
100
AcDbEntity
  8
0
  6
Continuous
 62
     7
370
    25
100
AcDbLine
 10
241.5074036796
 20
128.815
 30
0.0
 11
241.5074036796
 21
127.89
 31
0.0
  0
LINE
  5
2AA
330
1F
100
AcDbEntity
  8
0
  6
Continuous
 62
     7
370
    25
100
AcDbLine
 10
241.5074036796
 20
127.89
 30
0.0
 11
241.5668865327
 21
127.89
 31
0.0
  0
ARC
  5
2AB
330
1F
100
AcDbEntity
  8
0
  6
Continuous
 62
     7
370
    25
100
AcDbCircle
 10
251.3987694772
 20
128.437923335
 30
0.0
 40
11.04064801645769
100
AcDbArc
 50
175.4939743461
 51
183.2343972099
  0
ARC
  5
2AC
330
1F
100
AcDbEntity
  8
0
  6
Continuous
 62
     7
370
    25
100
AcDbCircle
 10
229.9213082425
 20
128.4406355553
 30
0.0
 40
11.27673624081013
100
AcDbArc
 50
356.8195858236
 51
1.9024515698
  0
ARC
  5
2AD
330
1F
100
AcDbEntity
  8
0
  6
Continuous
 62
     7
370
    25
100
AcDbCircle
 10
252.4886099387
 20
128.4712628655
 30
0.0
 40
12.26832537648861
100
AcDbArc
 50
170.3955898154
 51
183.0663555658
  0
ARC
  5
2AE
330
1F
100
AcDbEntity
  8
0
  6
Continuous
 62
     7
370
    25
100
AcDbCircle
 10
226.309718859
 20
128.4404758357
 30
0.0
 40
15.02184313402706
100
AcDbArc
 50
357.6136424476
 51
1.4286447741
  0
LINE
  5
2AF
330
1F
100
AcDbEntity
  8
0
  6
Continuous
 62
     7
370
    25
100
AcDbLine
 10
241.5668865327
 20
123.99
 30
0.0
 11
241.5668865327
 21
128.39
 31
0.0
  0
LINE
  5
2B0
330
1F
100
AcDbEntity
  8
0
  6
Continuous
 62
     7
370
    25
100
AcDbLine
 10
239.3168865327
 20
124.565
 30
0.0
 11
239.3168865327
 21
127.815
 31
0.0
  0
LINE
  5
2B1
330
1F
100
AcDbEntity
  8
0
  6
Continuous
 62
     7
370
    25
100
AcDbLine
 10
244.2168865327
 20
122.815
 30
0.0
 11
244.2168865327
 21
130.94
 31
0.0
  0
LINE
  5
2B2
330
1F
100
AcDbEntity
  8
0
  6
Continuous
 62
     7
370
    25
100
AcDbLine
 10
244.2168865327
 20
130.94
 30
0.0
 11
255.2168865327
 21
130.94
 31
0.0
  0
LINE
  5
2B3
330
1F
100
AcDbEntity
  8
0
  6
Continuous
 62
     7
370
    25
100
AcDbLine
 10
255.2168865327
 20
122.19
 30
0.0
 11
255.2168865327
 21
130.94
 31
0.0
  0
LINE
  5
2B4
330
1F
100
AcDbEntity
  8
0
  6
Continuous
 62
     7
370
    25
100
AcDbLine
 10
242.9668865327
 20
122.815
 30
0.0
 11
242.9668865327
 21
129.815
 31
0.0
  0
LINE
  5
2B5
330
1F
100
AcDbEntity
  8
0
  6
Continuous
 62
     7
370
    25
100
AcDbLine
 10
227.4168865327
 20
105.94
 30
0.0
 11
238.4168865327
 21
105.94
 31
0.0
  0
LINE
  5
2B6
330
1F
100
AcDbEntity
  8
0
  6
Continuous
 62
     7
370
    25
100
AcDbLine
 10
227.4168865327
 20
105.94
 30
0.0
 11
227.4168865327
 21
115.44
 31
0.0
  0
LINE
  5
2B7
330
1F
100
AcDbEntity
  8
0
  6
Continuous
 62
     7
370
    25
100
AcDbLine
 10
227.4168865327
 20
115.44
 30
0.0
 11
238.4168865327
 21
115.44
 31
0.0
  0
LINE
  5
2B8
330
1F
100
AcDbEntity
  8
0
  6
Continuous
 62
     7
370
    25
100
AcDbLine
 10
238.4168865327
 20
105.94
 30
0.0
 11
238.4168865327
 21
115.44
 31
0.0
  0
LINE
  5
2B9
330
1F
100
AcDbEntity
  8
0
  6
Continuous
 62
     7
370
    25
100
AcDbLine
 10
226.1668865327
 20
107.065
 30
0.0
 11
226.1668865327
 21
114.315
 31
0.0
  0
LINE
  5
2BA
330
1F
100
AcDbEntity
  8
0
  6
Continuous
 62
     7
370
    25
100
AcDbLine
 10
224.1668865327
 20
109.19
 30
0.0
 11
224.1668865327
 21
112.19
 31
0.0
  0
LINE
  5
2BB
330
1F
100
AcDbEntity
  8
0
  6
Continuous
 62
     7
370
    25
100
AcDbLine
 10
250.3919249665
 20
116.5329407455
 30
0.0
 11
251.3631673187
 21
116.5329407455
 31
0.0
  0
LWPOLYLINE
  5
2BC
330
1F
100
AcDbEntity
  8
0
  6
Continuous
 62
     7
370
    25
100
AcDbPolyline
 90
       15
 70
   128
 43
0.0
 10
250.3919249665
 20
120.3470592545
 10
250.3240239209
 20
120.548932346
 10
250.2494812227
 20
120.7398782482
 10
250.1686831065
 20
120.9189075971
 10
250.0820482184
 20
121.0850927728
 10
249.9900254469
 20
121.2375727059
 10
249.8930915975
 20
121.3755573393
 10
249.7917489216
 20
121.4983317216
 10
249.6865225148
 20
121.6052597115
 10
249.5779575953
 20
121.695787274
 10
249.4666166798
 20
121.769445351
 10
249.3530766685
 20
121.8258522917
 10
249.2379258556
 20
121.86471583
 10
249.121760882
 20
121.885834599
 10
249.0421942235
 20
121.89
  0
LWPOLYLINE
  5
2BD
330
1F
100
AcDbEntity
  8
0
  6
Continuous
 62
     7
370
    25
100
AcDbPolyline
 90
       15
 70
   128
 43
0.0
 10
249.0421942235
 20
114.99
 10
249.121760882
 20
114.994165401
 10
249.2379258556
 20
115.01528417
 10
249.3530766685
 20
115.0541477083
 10
249.4666166798
 20
115.110554649
 10
249.5779575953
 20
115.184212726
 10
249.6865225148
 20
115.2747402885
 10
249.7917489216
 20
115.3816682784
 10
249.8930915975
 20
115.5044426607
 10
249.9900254469
 20
115.6424272941
 10
250.0820482184
 20
115.7949072272
 10
250.1686831065
 20
115.9610924029
 10
250.2494812227
 20
116.1401217518
 10
250.3240239209
 20
116.331067654
 10
250.3919249665
 20
116.5329407455
  0
LINE
  5
2BE
330
1F
100
AcDbEntity
  8
0
  6
Continuous
 62
     7
370
    25
100
AcDbLine
 10
251.3631673187
 20
120.3470592545
 30
0.0
 11
250.3919249665
 21
120.3470592545
 31
0.0
  0
LINE
  5
2BF
330
1F
100
AcDbEntity
  8
0
  6
Continuous
 62
     7
370
    25
100
AcDbLine
 10
251.3631673187
 20
116.5329407455
 30
0.0
 11
251.4168865327
 21
116.7178388418
 31
0.0
  0
ARC
  5
2C0
330
1F
100
AcDbEntity
  8
0
  6
Continuous
 62
     7
370
    25
100
AcDbCircle
 10
245.1184808551
 20
118.4904824264
 30
0.0
 40
6.51482820548046
100
AcDbArc
 50
359.5560191574
 51
16.557479557
  0
LWPOLYLINE
  5
2C1
330
1F
100
AcDbEntity
  8
0
  6
Continuous
 62
     7
370
    25
100
AcDbPolyline
 90
       89
 70
   128
 43
0.0
 10
248.3358361492
 20
121.89
 10
248.2202897227
 20
121.8812097954
 10
248.1053320944
 20
121.8548839745
 10
247.9915490618
 20
121.8111566876
 10
247.8795204373
 20
121.750250759
 10
247.7698170931
 20
121.6724765512
 10
247.6629980523
 20
121.578230384
 10
247.5596076401
 20
121.467992514
 10
247.4601727105
 20
121.3423246883
 10
247.3651999611
 20
121.2018672812
 10
247.2751733512
 20
121.0473360315
 10
247.1905516359
 20
120.8795183951
 10
247.1117660278
 20
120.6992695321
 10
247.0392180005
 20
120.5075079495
 10
246.9732772421
 20
120.3052108202
 10
246.9142797716
 20
120.0934090042
 10
246.8625262265
 20
119.8731817949
 10
246.8182803311
 20
119.6456514196
 10
246.7817675522
 20
119.4119773211
 10
246.7531739507
 20
119.173350249
 10
246.732645233
 20
118.930986192
 10
246.7202860087
 20
118.686120182
 10
246.7161592576
 20
118.44
 10
246.7202860087
 20
118.193879818
 10
246.732645233
 20
117.949013808
 10
246.7531739507
 20
117.706649751
 10
246.7817675522
 20
117.4680226789
 10
246.8182803311
 20
117.2343485804
 10
246.8625262265
 20
117.0068182051
 10
246.9142797716
 20
116.7865909958
 10
246.9732772421
 20
116.5747891798
 10
247.0392180005
 20
116.3724920505
 10
247.1117660278
 20
116.1807304679
 10
247.1905516359
 20
116.0004816049
 10
247.2751733512
 20
115.8326639685
 10
247.3651999611
 20
115.6781327188
 10
247.4601727105
 20
115.5376753117
 10
247.5596076401
 20
115.412007486
 10
247.6629980523
 20
115.301769616
 10
247.7698170931
 20
115.2075234488
 10
247.8795204373
 20
115.129749241
 10
247.9915490618
 20
115.0688433124
 10
248.1053320944
 20
115.0251160255
 10
248.2202897227
 20
114.9987902046
 10
248.3358361492
 20
114.99
 10
248.4513825757
 20
114.9987902046
 10
248.5663402041
 20
115.0251160255
 10
248.6801232367
 20
115.0688433124
 10
248.7921518612
 20
115.129749241
 10
248.9018552054
 20
115.2075234488
 10
249.0086742462
 20
115.301769616
 10
249.1120646584
 20
115.412007486
 10
249.2114995879
 20
115.5376753117
 10
249.3064723373
 20
115.6781327188
 10
249.3964989472
 20
115.8326639685
 10
249.4811206626
 20
116.0004816049
 10
249.5599062707
 20
116.1807304679
 10
249.6324542979
 20
116.3724920505
 10
249.6983950564
 20
116.5747891798
 10
249.7573925269
 20
116.7865909958
 10
249.809146072
 20
117.0068182051
 10
249.8533919674
 20
117.2343485804
 10
249.8899047463
 20
117.4680226789
 10
249.9184983478
 20
117.706649751
 10
249.9390270655
 20
117.949013808
 10
249.9513862898
 20
118.193879818
 10
249.9555130409
 20
118.44
 10
249.9513862898
 20
118.686120182
 10
249.9390270655
 20
118.930986192
 10
249.9184983478
 20
119.173350249
 10
249.8899047463
 20
119.4119773211
 10
249.8533919674
 20
119.6456514196
 10
249.809146072
 20
119.8731817949
 10
249.7573925269
 20
120.0934090042
 10
249.6983950564
 20
120.3052108202
 10
249.6324542979
 20
120.5075079495
 10
249.5599062707
 20
120.6992695321
 10
249.4811206626
 20
120.8795183951
 10
249.3964989472
 20
121.0473360315
 10
249.3064723373
 20
121.2018672812
 10
249.2114995879
 20
121.3423246883
 10
249.1120646584
 20
121.467992514
 10
249.0086742462
 20
121.578230384
 10
248.9018552054
 20
121.6724765512
 10
248.7921518612
 20
121.750250759
 10
248.6801232367
 20
121.8111566876
 10
248.5663402041
 20
121.8548839745
 10
248.4513825757
 20
121.8812097954
 10
248.3358361492
 20
121.89
  0
LWPOLYLINE
  5
2C2
330
1F
100
AcDbEntity
  8
0
  6
Continuous
 62
     7
370
    25
100
AcDbPolyline
 90
       77
 70
   128
 43
0.0
 10
248.3358361492
 20
121.065
 10
248.2340684315
 20
121.0560342941
 10
248.1329958905
 20
121.0291984214
 10
248.0333089541
 20
120.9846756981
 10
247.9356885852
 20
120.9227702595
 10
247.84080163
 20
120.8439049825
 10
247.7492962624
 20
120.7486185969
 10
247.661797557
 20
120.6375620054
 10
247.5789032187
 20
120.5114938372
 10
247.5011794998
 20
120.3712752655
 10
247.4291573322
 20
120.2178641255
 10
247.3633287002
 20
120.0523083708
 10
247.3041432802
 20
119.8757389151
 10
247.2520053687
 20
119.6893619067
 10
247.2072711203
 20
119.4944504897
 10
247.1702461155
 20
119.2923361067
 10
247.1411832725
 20
119.0843994037
 10
247.12028112
 20
118.8720607995
 10
247.1076824409
 20
118.6567707819
 10
247.1034732969
 20
118.44
 10
247.1076824409
 20
118.2232292181
 10
247.12028112
 20
118.0079392005
 10
247.1411832725
 20
117.7956005963
 10
247.1702461155
 20
117.5876638933
 10
247.2072711203
 20
117.3855495103
 10
247.2520053687
 20
117.1906380933
 10
247.3041432802
 20
117.0042610849
 10
247.3633287002
 20
116.8276916292
 10
247.4291573322
 20
116.6621358745
 10
247.5011794998
 20
116.5087247345
 10
247.5789032187
 20
116.3685061628
 10
247.661797557
 20
116.2424379946
 10
247.7492962624
 20
116.1313814031
 10
247.84080163
 20
116.0360950175
 10
247.9356885852
 20
115.9572297405
 10
248.0333089541
 20
115.8953243019
 10
248.1329958905
 20
115.8508015786
 10
248.2340684315
 20
115.8239657059
 10
248.3358361492
 20
115.815
 10
248.437603867
 20
115.8239657059
 10
248.538676408
 20
115.8508015786
 10
248.6383633444
 20
115.8953243019
 10
248.7359837133
 20
115.9572297405
 10
248.8308706685
 20
116.0360950175
 10
248.9223760361
 20
116.1313814031
 10
249.0098747415
 20
116.2424379946
 10
249.0927690798
 20
116.3685061628
 10
249.1704927987
 20
116.5087247345
 10
249.2425149663
 20
116.6621358745
 10
249.3083435983
 20
116.8276916292
 10
249.3675290183
 20
117.0042610849
 10
249.4196669298
 20
117.1906380933
 10
249.4644011782
 20
117.3855495103
 10
249.501426183
 20
117.5876638933
 10
249.530489026
 20
117.7956005963
 10
249.5513911785
 20
118.0079392005
 10
249.5639898576
 20
118.2232292181
 10
249.5681990016
 20
118.44
 10
249.5639898576
 20
118.6567707819
 10
249.5513911785
 20
118.8720607995
 10
249.530489026
 20
119.0843994037
 10
249.501426183
 20
119.2923361067
 10
249.4644011782
 20
119.4944504897
 10
249.4196669298
 20
119.6893619067
 10
249.3675290183
 20
119.8757389151
 10
249.3083435983
 20
120.0523083708
 10
249.2425149663
 20
120.2178641255
 10
249.1704927987
 20
120.3712752655
 10
249.0927690798
 20
120.5114938372
 10
249.0098747415
 20
120.6375620054
 10
248.9223760361
 20
120.7486185969
 10
248.8308706685
 20
120.8439049825
 10
248.7359837133
 20
120.9227702595
 10
248.6383633444
 20
120.9846756981
 10
248.538676408
 20
121.0291984214
 10
248.437603867
 20
121.0560342941
 10
248.3358361492
 20
121.065
  0
LWPOLYLINE
  5
2C3
330
1F
100
AcDbEntity
  8
0
  6
Continuous
 62
     7
370
    25
100
AcDbPolyline
 90
       21
 70
   128
 43
0.0
 10
249.1746363625
 20
120.3631129286
 10
249.1067577586
 20
120.2178641255
 10
249.0409291266
 20
120.0523083708
 10
248.9817437067
 20
119.8757389151
 10
248.9296057951
 20
119.6893619067
 10
248.8848715468
 20
119.4944504897
 10
248.8478465419
 20
119.2923361067
 10
248.8187836989
 20
119.0843994037
 10
248.7978815464
 20
118.8720607995
 10
248.7852828673
 20
118.6567707819
 10
248.7810737234
 20
118.44
 10
248.7852828673
 20
118.2232292181
 10
248.7978815464
 20
118.0079392005
 10
248.8187836989
 20
117.7956005963
 10
248.8478465419
 20
117.5876638933
 10
248.8848715468
 20
117.3855495103
 10
248.9296057951
 20
117.1906380933
 10
248.9817437067
 20
117.0042610849
 10
249.0409291266
 20
116.8276916292
 10
249.1067577586
 20
116.6621358745
 10
249.1746363625
 20
116.5168870714
  0
LINE
  5
2C4
330
1F
100
AcDbEntity
  8
0
  6
Continuous
 62
     7
370
    25
100
AcDbLine
 10
246.5187845736
 20
119.04
 30
0.0
 11
246.5187845736
 21
119.89
 31
0.0
  0
LINE
  5
2C5
330
1F
100
AcDbEntity
  8
0
  6
Continuous
 62
     7
370
    25
100
AcDbLine
 10
246.5187845736
 20
119.89
 30
0.0
 11
238.7725037876
 21
119.89
 31
0.0
  0
LINE
  5
2C6
330
1F
100
AcDbEntity
  8
0
  6
Continuous
 62
     7
370
    25
100
AcDbLine
 10
238.7725037876
 20
119.89
 30
0.0
 11
238.7725037876
 21
119.04
 31
0.0
  0
LINE
  5
2C7
330
1F
100
AcDbEntity
  8
0
  6
Continuous
 62
     7
370
    25
100
AcDbLine
 10
238.7725037876
 20
117.84
 30
0.0
 11
238.7725037876
 21
116.99
 31
0.0
  0
LINE
  5
2C8
330
1F
100
AcDbEntity
  8
0
  6
Continuous
 62
     7
370
    25
100
AcDbLine
 10
238.7725037876
 20
116.99
 30
0.0
 11
240.2168865327
 21
116.99
 31
0.0
  0
LINE
  5
2C9
330
1F
100
AcDbEntity
  8
0
  6
Continuous
 62
     7
370
    25
100
AcDbLine
 10
241.6168865327
 20
116.99
 30
0.0
 11
246.5187845736
 21
116.99
 31
0.0
  0
LINE
  5
2CA
330
1F
100
AcDbEntity
  8
0
  6
Continuous
 62
     7
370
    25
100
AcDbLine
 10
246.5187845736
 20
116.99
 30
0.0
 11
246.5187845736
 21
117.84
 31
0.0
  0
LINE
  5
2CB
330
1F
100
AcDbEntity
  8
0
  6
Continuous
 62
     7
370
    25
100
AcDbLine
 10
234.8993633946
 20
122.19
 30
0.0
 11
234.8993633946
 21
121.6061415377
 31
0.0
  0
LINE
  5
2CC
330
1F
100
AcDbEntity
  8
0
  6
Continuous
 62
     7
370
    25
100
AcDbLine
 10
250.3919249665
 20
122.19
 30
0.0
 11
234.8993633946
 21
122.19
 31
0.0
  0
LINE
  5
2CD
330
1F
100
AcDbEntity
  8
0
  6
Continuous
 62
     7
370
    25
100
AcDbLine
 10
250.3919249665
 20
120.3470592545
 30
0.0
 11
250.3919249665
 21
122.19
 31
0.0
  0
LINE
  5
2CE
330
1F
100
AcDbEntity
  8
0
  6
Continuous
 62
     7
370
    25
100
AcDbLine
 10
250.3919249665
 20
114.69
 30
0.0
 11
250.3919249665
 21
116.5329407455
 31
0.0
  0
LWPOLYLINE
  5
2CF
330
1F
100
AcDbEntity
  8
0
  6
Continuous
 62
     7
370
    25
100
AcDbPolyline
 90
       39
 70
   128
 43
0.0
 10
237.0489199304
 20
115.44
 10
237.0634667011
 20
115.4578092098
 10
237.162070058
 20
115.5903181095
 10
237.2559429357
 20
115.7375923067
 10
237.3445989428
 20
115.898868717
 10
237.4275787182
 20
116.0733117054
 10
237.504452312
 20
116.2600174157
 10
237.5748214125
 20
116.4580184538
 10
237.6383214104
 20
116.6662889003
 10
237.6946232876
 20
116.8837496258
 10
237.7434353226
 20
117.1092738828
 10
237.7845046015
 20
117.3416931435
 10
237.8176183285
 20
117.5798031542
 10
237.8426049286
 20
117.8223701754
 10
237.8593349367
 20
118.0681373742
 10
237.8677216682
 20
118.3158313362
 10
237.8677216682
 20
118.5641686638
 10
237.8593349367
 20
118.8118626258
 10
237.8426049286
 20
119.0576298246
 10
237.8176183285
 20
119.3001968458
 10
237.7845046015
 20
119.5383068565
 10
237.7434353226
 20
119.7707261172
 10
237.6946232876
 20
119.9962503742
 10
237.6383214104
 20
120.2137110997
 10
237.5748214125
 20
120.4219815462
 10
237.504452312
 20
120.6199825843
 10
237.4275787182
 20
120.8066882946
 10
237.3445989428
 20
120.981131283
 10
237.2559429357
 20
121.1424076933
 10
237.162070058
 20
121.2896818905
 10
237.0634667011
 20
121.4221907902
 10
236.9606437668
 20
121.539247813
 10
236.8541340203
 20
121.6402464414
 10
236.7444893296
 20
121.7246633626
 10
236.632277806
 20
121.7920611803
 10
236.5180808605
 20
121.8420906803
 10
236.4024901914
 20
121.8744926406
 10
236.2861047183
 20
121.8890991742
 10
236.2490941376
 20
121.89
  0
LINE
  5
2D0
330
1F
100
AcDbEntity
  8
0
  6
Continuous
 62
     7
370
    25
100
AcDbLine
 10
238.4168865327
 20
114.69
 30
0.0
 11
239.5168865327
 21
114.69
 31
0.0
  0
LINE
  5
2D1
330
1F
100
AcDbEntity
  8
0
  6
Continuous
 62
     7
370
    25
100
AcDbLine
 10
241.6168865327
 20
114.69
 30
0.0
 11
250.3919249665
 21
114.69
 31
0.0
  0
LINE
  5
2D2
330
1F
100
AcDbEntity
  8
0
  6
Continuous
 62
     7
370
    25
100
AcDbLine
 10
251.3631673187
 20
120.3470592545
 30
0.0
 11
251.3631673187
 21
122.19
 31
0.0
  0
LINE
  5
2D3
330
1F
100
AcDbEntity
  8
0
  6
Continuous
 62
     7
370
    25
100
AcDbLine
 10
250.3919249665
 20
122.19
 30
0.0
 11
251.3631673187
 21
122.19
 31
0.0
  0
LINE
  5
2D4
330
1F
100
AcDbEntity
  8
0
  6
Continuous
 62
     7
370
    25
100
AcDbLine
 10
251.3631673187
 20
115.4395041002
 30
0.0
 11
251.3631673187
 21
116.5329407455
 31
0.0
  0
LINE
  5
2D5
330
1F
100
AcDbEntity
  8
0
  6
Continuous
 62
     7
370
    25
100
AcDbLine
 10
250.3919249665
 20
114.69
 30
0.0
 11
250.7168865327
 21
114.69
 31
0.0
  0
LINE
  5
2D6
330
1F
100
AcDbEntity
  8
0
  6
Continuous
 62
     7
370
    25
100
AcDbLine
 10
246.3411196899
 20
117.84
 30
0.0
 11
246.3411196899
 21
119.04
 31
0.0
  0
LINE
  5
2D7
330
1F
100
AcDbEntity
  8
0
  6
Continuous
 62
     7
370
    25
100
AcDbLine
 10
246.3411196899
 20
117.84
 30
0.0
 11
246.7408414922
 21
117.84
 31
0.0
  0
LINE
  5
2D8
330
1F
100
AcDbEntity
  8
0
  6
Continuous
 62
     7
370
    25
100
AcDbLine
 10
246.3411196899
 20
119.04
 30
0.0
 11
246.7408414922
 21
119.04
 31
0.0
  0
LINE
  5
2D9
330
1F
100
AcDbEntity
  8
0
  6
Continuous
 62
     7
370
    25
100
AcDbLine
 10
237.8906315598
 20
119.04
 30
0.0
 11
237.8906315598
 21
117.84
 31
0.0
  0
LINE
  5
2DA
330
1F
100
AcDbEntity
  8
0
  6
Continuous
 62
     7
370
    25
100
AcDbLine
 10
237.8906315598
 20
117.84
 30
0.0
 11
240.2168865327
 21
117.84
 31
0.0
  0
LINE
  5
2DB
330
1F
100
AcDbEntity
  8
0
  6
Continuous
 62
     7
370
    25
100
AcDbLine
 10
241.6168865327
 20
117.84
 30
0.0
 11
246.3411196899
 21
117.84
 31
0.0
  0
LINE
  5
2DC
330
1F
100
AcDbEntity
  8
0
  6
Continuous
 62
     7
370
    25
100
AcDbLine
 10
246.3411196899
 20
119.04
 30
0.0
 11
237.8906315598
 21
119.04
 31
0.0
  0
LINE
  5
2DD
330
1F
100
AcDbEntity
  8
0
  6
Continuous
 62
     7
370
    25
100
AcDbLine
 10
239.7437461397
 20
119.89
 30
0.0
 11
239.7437461397
 21
119.04
 31
0.0
  0
LINE
  5
2DE
330
1F
100
AcDbEntity
  8
0
  6
Continuous
 62
     7
370
    25
100
AcDbLine
 10
239.7437461397
 20
117.84
 30
0.0
 11
239.7437461397
 21
116.99
 31
0.0
  0
LWPOLYLINE
  5
2DF
330
1F
100
AcDbEntity
  8
0
  6
Continuous
 62
     7
370
    25
100
AcDbPolyline
 90
       38
 70
   128
 43
0.0
 10
235.5427360633
 20
121.89
 10
235.4271896368
 20
121.8812097954
 10
235.3122320084
 20
121.8548839745
 10
235.1984489759
 20
121.8111566876
 10
235.0864203514
 20
121.750250759
 10
234.9767170072
 20
121.6724765512
 10
234.8698979663
 20
121.578230384
 10
234.7665075542
 20
121.467992514
 10
234.6670726246
 20
121.3423246883
 10
234.5720998752
 20
121.2018672812
 10
234.4820732653
 20
121.0473360315
 10
234.3974515499
 20
120.8795183951
 10
234.3186659419
 20
120.6992695321
 10
234.2461179146
 20
120.5075079495
 10
234.1801771562
 20
120.3052108202
 10
234.1211796857
 20
120.0934090042
 10
234.0694261406
 20
119.8731817949
 10
234.0251802451
 20
119.6456514196
 10
233.9886674663
 20
119.4119773211
 10
233.9600738648
 20
119.173350249
 10
233.9395451471
 20
118.930986192
 10
233.9271859228
 20
118.686120182
 10
233.9230591717
 20
118.44
 10
233.9271859228
 20
118.193879818
 10
233.9395451471
 20
117.949013808
 10
233.9600738648
 20
117.706649751
 10
233.9886674663
 20
117.4680226789
 10
234.0251802451
 20
117.2343485804
 10
234.0694261406
 20
117.0068182051
 10
234.1211796857
 20
116.7865909958
 10
234.1801771562
 20
116.5747891798
 10
234.2461179146
 20
116.3724920505
 10
234.3186659419
 20
116.1807304679
 10
234.3974515499
 20
116.0004816049
 10
234.4820732653
 20
115.8326639685
 10
234.5720998752
 20
115.6781327188
 10
234.6670726246
 20
115.5376753117
 10
234.7429102705
 20
115.44
  0
LWPOLYLINE
  5
2E0
330
1F
100
AcDbEntity
  8
0
  6
Continuous
 62
     7
370
    25
100
AcDbPolyline
 90
       38
 70
   128
 43
0.0
 10
236.3425618561
 20
115.44
 10
236.418399502
 20
115.5376753117
 10
236.5133722514
 20
115.6781327188
 10
236.6033988613
 20
115.8326639685
 10
236.6880205767
 20
116.0004816049
 10
236.7668061848
 20
116.1807304679
 10
236.839354212
 20
116.3724920505
 10
236.9052949704
 20
116.5747891798
 10
236.964292441
 20
116.7865909958
 10
237.0160459861
 20
117.0068182051
 10
237.0602918815
 20
117.2343485804
 10
237.0968046604
 20
117.4680226789
 10
237.1253982618
 20
117.706649751
 10
237.1459269796
 20
117.949013808
 10
237.1582862038
 20
118.193879818
 10
237.1624129549
 20
118.44
 10
237.1582862038
 20
118.686120182
 10
237.1459269796
 20
118.930986192
 10
237.1253982618
 20
119.173350249
 10
237.0968046604
 20
119.4119773211
 10
237.0602918815
 20
119.6456514196
 10
237.0160459861
 20
119.8731817949
 10
236.964292441
 20
120.0934090042
 10
236.9052949704
 20
120.3052108202
 10
236.839354212
 20
120.5075079495
 10
236.7668061848
 20
120.6992695321
 10
236.6880205767
 20
120.8795183951
 10
236.6033988613
 20
121.0473360315
 10
236.5133722514
 20
121.2018672812
 10
236.418399502
 20
121.3423246883
 10
236.3189645724
 20
121.467992514
 10
236.2155741603
 20
121.578230384
 10
236.1087551195
 20
121.6724765512
 10
235.9990517753
 20
121.750250759
 10
235.8870231508
 20
121.8111566876
 10
235.7732401182
 20
121.8548839745
 10
235.6582824898
 20
121.8812097954
 10
235.5427360633
 20
121.89
  0
LWPOLYLINE
  5
2E1
330
1F
100
AcDbEntity
  8
0
  6
Continuous
 62
     7
370
    25
100
AcDbPolyline
 90
       77
 70
   128
 43
0.0
 10
235.5427360633
 20
121.065
 10
235.4409683456
 20
121.0560342941
 10
235.3398958046
 20
121.0291984214
 10
235.2402088682
 20
120.9846756981
 10
235.1425884993
 20
120.9227702595
 10
235.047701544
 20
120.8439049825
 10
234.9561961765
 20
120.7486185969
 10
234.8686974711
 20
120.6375620054
 10
234.7858031328
 20
120.5114938372
 10
234.7080794139
 20
120.3712752655
 10
234.6360572463
 20
120.2178641255
 10
234.5702286143
 20
120.0523083708
 10
234.5110431943
 20
119.8757389151
 10
234.4589052828
 20
119.6893619067
 10
234.4141710344
 20
119.4944504897
 10
234.3771460296
 20
119.2923361067
 10
234.3480831866
 20
119.0843994037
 10
234.3271810341
 20
118.8720607995
 10
234.314582355
 20
118.6567707819
 10
234.310373211
 20
118.44
 10
234.314582355
 20
118.2232292181
 10
234.3271810341
 20
118.0079392005
 10
234.3480831866
 20
117.7956005963
 10
234.3771460296
 20
117.5876638933
 10
234.4141710344
 20
117.3855495103
 10
234.4589052828
 20
117.1906380933
 10
234.5110431943
 20
117.0042610849
 10
234.5702286143
 20
116.8276916292
 10
234.6360572463
 20
116.6621358745
 10
234.7080794139
 20
116.5087247345
 10
234.7858031328
 20
116.3685061628
 10
234.8686974711
 20
116.2424379946
 10
234.9561961765
 20
116.1313814031
 10
235.047701544
 20
116.0360950175
 10
235.1425884993
 20
115.9572297405
 10
235.2402088682
 20
115.8953243019
 10
235.3398958046
 20
115.8508015786
 10
235.4409683456
 20
115.8239657059
 10
235.5427360633
 20
115.815
 10
235.6445037811
 20
115.8239657059
 10
235.7455763221
 20
115.8508015786
 10
235.8452632585
 20
115.8953243019
 10
235.9428836273
 20
115.9572297405
 10
236.0377705826
 20
116.0360950175
 10
236.1292759502
 20
116.1313814031
 10
236.2167746555
 20
116.2424379946
 10
236.2996689939
 20
116.3685061628
 10
236.3773927128
 20
116.5087247345
 10
236.4494148804
 20
116.6621358745
 10
236.5152435124
 20
116.8276916292
 10
236.5744289323
 20
117.0042610849
 10
236.6265668439
 20
117.1906380933
 10
236.6713010922
 20
117.3855495103
 10
236.7083260971
 20
117.5876638933
 10
236.7373889401
 20
117.7956005963
 10
236.7582910926
 20
118.0079392005
 10
236.7708897717
 20
118.2232292181
 10
236.7750989156
 20
118.44
 10
236.7708897717
 20
118.6567707819
 10
236.7582910926
 20
118.8720607995
 10
236.7373889401
 20
119.0843994037
 10
236.7083260971
 20
119.2923361067
 10
236.6713010922
 20
119.4944504897
 10
236.6265668439
 20
119.6893619067
 10
236.5744289323
 20
119.8757389151
 10
236.5152435124
 20
120.0523083708
 10
236.4494148804
 20
120.2178641255
 10
236.3773927128
 20
120.3712752655
 10
236.2996689939
 20
120.5114938372
 10
236.2167746555
 20
120.6375620054
 10
236.1292759502
 20
120.7486185969
 10
236.0377705826
 20
120.8439049825
 10
235.9428836273
 20
120.9227702595
 10
235.8452632585
 20
120.9846756981
 10
235.7455763221
 20
121.0291984214
 10
235.6445037811
 20
121.0560342941
 10
235.5427360633
 20
121.065
  0
LWPOLYLINE
  5
2E2
330
1F
100
AcDbEntity
  8
0
  6
Continuous
 62
     7
370
    25
100
AcDbPolyline
 90
       21
 70
   128
 43
0.0
 10
236.3815362765
 20
120.3631129286
 10
236.3136576727
 20
120.2178641255
 10
236.2478290407
 20
120.0523083708
 10
236.1886436207
 20
119.8757389151
 10
236.1365057092
 20
119.6893619067
 10
236.0917714608
 20
119.4944504897
 10
236.054746456
 20
119.2923361067
 10
236.025683613
 20
119.0843994037
 10
236.0047814605
 20
118.8720607995
 10
235.9921827814
 20
118.6567707819
 10
235.9879736374
 20
118.44
 10
235.9921827814
 20
118.2232292181
 10
236.0047814605
 20
118.0079392005
 10
236.025683613
 20
117.7956005963
 10
236.054746456
 20
117.5876638933
 10
236.0917714608
 20
117.3855495103
 10
236.1365057092
 20
117.1906380933
 10
236.1886436207
 20
117.0042610849
 10
236.2478290407
 20
116.8276916292
 10
236.3136576727
 20
116.6621358745
 10
236.3815362765
 20
116.5168870714
  0
LINE
  5
2E3
330
1F
100
AcDbEntity
  8
0
  6
Continuous
 62
     7
370
    25
100
AcDbLine
 10
257.5919249665
 20
116.5329407455
 30
0.0
 11
258.5631673187
 21
116.5329407455
 31
0.0
  0
LWPOLYLINE
  5
2E4
330
1F
100
AcDbEntity
  8
0
  6
Continuous
 62
     7
370
    25
100
AcDbPolyline
 90
       15
 70
   128
 43
0.0
 10
257.5919249665
 20
120.3470592545
 10
257.5240239209
 20
120.548932346
 10
257.4494812227
 20
120.7398782482
 10
257.3686831065
 20
120.9189075971
 10
257.2820482184
 20
121.0850927728
 10
257.1900254469
 20
121.2375727059
 10
257.0930915975
 20
121.3755573393
 10
256.9917489216
 20
121.4983317216
 10
256.8865225148
 20
121.6052597115
 10
256.7779575953
 20
121.695787274
 10
256.6666166798
 20
121.769445351
 10
256.5530766685
 20
121.8258522917
 10
256.4379258556
 20
121.86471583
 10
256.321760882
 20
121.885834599
 10
256.2421942235
 20
121.89
  0
LWPOLYLINE
  5
2E5
330
1F
100
AcDbEntity
  8
0
  6
Continuous
 62
     7
370
    25
100
AcDbPolyline
 90
       15
 70
   128
 43
0.0
 10
256.2421942235
 20
114.99
 10
256.321760882
 20
114.994165401
 10
256.4379258556
 20
115.01528417
 10
256.5530766685
 20
115.0541477083
 10
256.6666166798
 20
115.110554649
 10
256.7779575953
 20
115.184212726
 10
256.8865225148
 20
115.2747402885
 10
256.9917489216
 20
115.3816682784
 10
257.0930915975
 20
115.5044426607
 10
257.1900254469
 20
115.6424272941
 10
257.2820482184
 20
115.7949072272
 10
257.3686831065
 20
115.9610924029
 10
257.4494812227
 20
116.1401217518
 10
257.5240239209
 20
116.331067654
 10
257.5919249665
 20
116.5329407455
  0
LINE
  5
2E6
330
1F
100
AcDbEntity
  8
0
  6
Continuous
 62
     7
370
    25
100
AcDbLine
 10
258.5631673187
 20
120.3470592545
 30
0.0
 11
257.5919249665
 21
120.3470592545
 31
0.0
  0
ARC
  5
2E7
330
1F
100
AcDbEntity
  8
0
  6
Continuous
 62
     7
370
    25
100
AcDbCircle
 10
252.043143327
 20
118.44
 30
0.0
 40
6.79320159072368
100
AcDbArc
 50
343.6961886431
 51
16.3038113569
  0
LWPOLYLINE
  5
2E8
330
1F
100
AcDbEntity
  8
0
  6
Continuous
 62
     7
370
    25
100
AcDbPolyline
 90
       89
 70
   128
 43
0.0
 10
255.5358361492
 20
121.89
 10
255.4202897227
 20
121.8812097954
 10
255.3053320944
 20
121.8548839745
 10
255.1915490618
 20
121.8111566876
 10
255.0795204373
 20
121.750250759
 10
254.9698170931
 20
121.6724765512
 10
254.8629980523
 20
121.578230384
 10
254.7596076401
 20
121.467992514
 10
254.6601727105
 20
121.3423246883
 10
254.5651999611
 20
121.2018672812
 10
254.4751733512
 20
121.0473360315
 10
254.3905516359
 20
120.8795183951
 10
254.3117660278
 20
120.6992695321
 10
254.2392180005
 20
120.5075079495
 10
254.1732772421
 20
120.3052108202
 10
254.1142797716
 20
120.0934090042
 10
254.0625262265
 20
119.8731817949
 10
254.0182803311
 20
119.6456514196
 10
253.9817675522
 20
119.4119773211
 10
253.9531739507
 20
119.173350249
 10
253.932645233
 20
118.930986192
 10
253.9202860087
 20
118.686120182
 10
253.9161592576
 20
118.44
 10
253.9202860087
 20
118.193879818
 10
253.932645233
 20
117.949013808
 10
253.9531739507
 20
117.706649751
 10
253.9817675522
 20
117.4680226789
 10
254.0182803311
 20
117.2343485804
 10
254.0625262265
 20
117.0068182051
 10
254.1142797716
 20
116.7865909958
 10
254.1732772421
 20
116.5747891798
 10
254.2392180005
 20
116.3724920505
 10
254.3117660278
 20
116.1807304679
 10
254.3905516359
 20
116.0004816049
 10
254.4751733512
 20
115.8326639685
 10
254.5651999611
 20
115.6781327188
 10
254.6601727105
 20
115.5376753117
 10
254.7596076401
 20
115.412007486
 10
254.8629980523
 20
115.301769616
 10
254.9698170931
 20
115.2075234488
 10
255.0795204373
 20
115.129749241
 10
255.1915490618
 20
115.0688433124
 10
255.3053320944
 20
115.0251160255
 10
255.4202897227
 20
114.9987902046
 10
255.5358361492
 20
114.99
 10
255.6513825757
 20
114.9987902046
 10
255.7663402041
 20
115.0251160255
 10
255.8801232367
 20
115.0688433124
 10
255.9921518612
 20
115.129749241
 10
256.1018552054
 20
115.2075234488
 10
256.2086742462
 20
115.301769616
 10
256.3120646584
 20
115.412007486
 10
256.4114995879
 20
115.5376753117
 10
256.5064723373
 20
115.6781327188
 10
256.5964989472
 20
115.8326639685
 10
256.6811206626
 20
116.0004816049
 10
256.7599062707
 20
116.1807304679
 10
256.8324542979
 20
116.3724920505
 10
256.8983950564
 20
116.5747891798
 10
256.9573925269
 20
116.7865909958
 10
257.009146072
 20
117.0068182051
 10
257.0533919674
 20
117.2343485804
 10
257.0899047463
 20
117.4680226789
 10
257.1184983478
 20
117.706649751
 10
257.1390270655
 20
117.949013808
 10
257.1513862898
 20
118.193879818
 10
257.1555130409
 20
118.44
 10
257.1513862898
 20
118.686120182
 10
257.1390270655
 20
118.930986192
 10
257.1184983478
 20
119.173350249
 10
257.0899047463
 20
119.4119773211
 10
257.0533919674
 20
119.6456514196
 10
257.009146072
 20
119.8731817949
 10
256.9573925269
 20
120.0934090042
 10
256.8983950564
 20
120.3052108202
 10
256.8324542979
 20
120.5075079495
 10
256.7599062707
 20
120.6992695321
 10
256.6811206626
 20
120.8795183951
 10
256.5964989472
 20
121.0473360315
 10
256.5064723373
 20
121.2018672812
 10
256.4114995879
 20
121.3423246883
 10
256.3120646584
 20
121.467992514
 10
256.2086742462
 20
121.578230384
 10
256.1018552054
 20
121.6724765512
 10
255.9921518612
 20
121.750250759
 10
255.8801232367
 20
121.8111566876
 10
255.7663402041
 20
121.8548839745
 10
255.6513825757
 20
121.8812097954
 10
255.5358361492
 20
121.89
  0
LWPOLYLINE
  5
2E9
330
1F
100
AcDbEntity
  8
0
  6
Continuous
 62
     7
370
    25
100
AcDbPolyline
 90
       77
 70
   128
 43
0.0
 10
255.5358361492
 20
121.065
 10
255.4340684315
 20
121.0560342941
 10
255.3329958905
 20
121.0291984214
 10
255.2333089541
 20
120.9846756981
 10
255.1356885852
 20
120.9227702595
 10
255.04080163
 20
120.8439049825
 10
254.9492962624
 20
120.7486185969
 10
254.861797557
 20
120.6375620054
 10
254.7789032187
 20
120.5114938372
 10
254.7011794998
 20
120.3712752655
 10
254.6291573322
 20
120.2178641255
 10
254.5633287002
 20
120.0523083708
 10
254.5041432802
 20
119.8757389151
 10
254.4520053687
 20
119.6893619067
 10
254.4072711203
 20
119.4944504897
 10
254.3702461155
 20
119.2923361067
 10
254.3411832725
 20
119.0843994037
 10
254.32028112
 20
118.8720607995
 10
254.3076824409
 20
118.6567707819
 10
254.3034732969
 20
118.44
 10
254.3076824409
 20
118.2232292181
 10
254.32028112
 20
118.0079392005
 10
254.3411832725
 20
117.7956005963
 10
254.3702461155
 20
117.5876638933
 10
254.4072711203
 20
117.3855495103
 10
254.4520053687
 20
117.1906380933
 10
254.5041432802
 20
117.0042610849
 10
254.5633287002
 20
116.8276916292
 10
254.6291573322
 20
116.6621358745
 10
254.7011794998
 20
116.5087247345
 10
254.7789032187
 20
116.3685061628
 10
254.861797557
 20
116.2424379946
 10
254.9492962624
 20
116.1313814031
 10
255.04080163
 20
116.0360950175
 10
255.1356885852
 20
115.9572297405
 10
255.2333089541
 20
115.8953243019
 10
255.3329958905
 20
115.8508015786
 10
255.4340684315
 20
115.8239657059
 10
255.5358361492
 20
115.815
 10
255.637603867
 20
115.8239657059
 10
255.738676408
 20
115.8508015786
 10
255.8383633444
 20
115.8953243019
 10
255.9359837133
 20
115.9572297405
 10
256.0308706685
 20
116.0360950175
 10
256.1223760361
 20
116.1313814031
 10
256.2098747415
 20
116.2424379946
 10
256.2927690798
 20
116.3685061628
 10
256.3704927987
 20
116.5087247345
 10
256.4425149663
 20
116.6621358745
 10
256.5083435983
 20
116.8276916292
 10
256.5675290183
 20
117.0042610849
 10
256.6196669298
 20
117.1906380933
 10
256.6644011782
 20
117.3855495103
 10
256.701426183
 20
117.5876638933
 10
256.730489026
 20
117.7956005963
 10
256.7513911785
 20
118.0079392005
 10
256.7639898576
 20
118.2232292181
 10
256.7681990016
 20
118.44
 10
256.7639898576
 20
118.6567707819
 10
256.7513911785
 20
118.8720607995
 10
256.730489026
 20
119.0843994037
 10
256.701426183
 20
119.2923361067
 10
256.6644011782
 20
119.4944504897
 10
256.6196669298
 20
119.6893619067
 10
256.5675290183
 20
119.8757389151
 10
256.5083435983
 20
120.0523083708
 10
256.4425149663
 20
120.2178641255
 10
256.3704927987
 20
120.3712752655
 10
256.2927690798
 20
120.5114938372
 10
256.2098747415
 20
120.6375620054
 10
256.1223760361
 20
120.7486185969
 10
256.0308706685
 20
120.8439049825
 10
255.9359837133
 20
120.9227702595
 10
255.8383633444
 20
120.9846756981
 10
255.738676408
 20
121.0291984214
 10
255.637603867
 20
121.0560342941
 10
255.5358361492
 20
121.065
  0
LWPOLYLINE
  5
2EA
330
1F
100
AcDbEntity
  8
0
  6
Continuous
 62
     7
370
    25
100
AcDbPolyline
 90
       21
 70
   128
 43
0.0
 10
256.3746363625
 20
120.3631129286
 10
256.3067577586
 20
120.2178641255
 10
256.2409291266
 20
120.0523083708
 10
256.1817437067
 20
119.8757389151
 10
256.1296057951
 20
119.6893619067
 10
256.0848715468
 20
119.4944504897
 10
256.0478465419
 20
119.2923361067
 10
256.0187836989
 20
119.0843994037
 10
255.9978815464
 20
118.8720607995
 10
255.9852828673
 20
118.6567707819
 10
255.9810737234
 20
118.44
 10
255.9852828673
 20
118.2232292181
 10
255.9978815464
 20
118.0079392005
 10
256.0187836989
 20
117.7956005963
 10
256.0478465419
 20
117.5876638933
 10
256.0848715468
 20
117.3855495103
 10
256.1296057951
 20
117.1906380933
 10
256.1817437067
 20
117.0042610849
 10
256.2409291266
 20
116.8276916292
 10
256.3067577586
 20
116.6621358745
 10
256.3746363625
 20
116.5168870714
  0
LINE
  5
2EB
330
1F
100
AcDbEntity
  8
0
  6
Continuous
 62
     7
370
    25
100
AcDbLine
 10
253.7187845736
 20
119.04
 30
0.0
 11
253.7187845736
 21
119.89
 31
0.0
  0
LINE
  5
2EC
330
1F
100
AcDbEntity
  8
0
  6
Continuous
 62
     7
370
    25
100
AcDbLine
 10
253.7187845736
 20
119.89
 30
0.0
 11
251.4831150347
 21
119.89
 31
0.0
  0
LINE
  5
2ED
330
1F
100
AcDbEntity
  8
0
  6
Continuous
 62
     7
370
    25
100
AcDbLine
 10
249.3631237134
 20
119.89
 30
0.0
 11
248.9861490115
 21
119.89
 31
0.0
  0
LINE
  5
2EE
330
1F
100
AcDbEntity
  8
0
  6
Continuous
 62
     7
370
    25
100
AcDbLine
 10
245.9725037876
 20
119.89
 30
0.0
 11
245.9725037876
 21
119.04
 31
0.0
  0
LINE
  5
2EF
330
1F
100
AcDbEntity
  8
0
  6
Continuous
 62
     7
370
    25
100
AcDbLine
 10
245.9725037876
 20
117.84
 30
0.0
 11
245.9725037876
 21
116.99
 31
0.0
  0
LINE
  5
2F0
330
1F
100
AcDbEntity
  8
0
  6
Continuous
 62
     7
370
    25
100
AcDbLine
 10
248.9861490115
 20
116.99
 30
0.0
 11
249.3631237134
 21
116.99
 31
0.0
  0
LINE
  5
2F1
330
1F
100
AcDbEntity
  8
0
  6
Continuous
 62
     7
370
    25
100
AcDbLine
 10
252.8168865327
 20
116.99
 30
0.0
 11
253.7187845736
 21
116.99
 31
0.0
  0
LINE
  5
2F2
330
1F
100
AcDbEntity
  8
0
  6
Continuous
 62
     7
370
    25
100
AcDbLine
 10
253.7187845736
 20
116.99
 30
0.0
 11
253.7187845736
 21
117.84
 31
0.0
  0
LINE
  5
2F3
330
1F
100
AcDbEntity
  8
0
  6
Continuous
 62
     7
370
    25
100
AcDbLine
 10
257.5919249665
 20
120.3470592545
 30
0.0
 11
257.5919249665
 21
122.19
 31
0.0
  0
LINE
  5
2F4
330
1F
100
AcDbEntity
  8
0
  6
Continuous
 62
     7
370
    25
100
AcDbLine
 10
257.5919249665
 20
114.69
 30
0.0
 11
257.5919249665
 21
116.5329407455
 31
0.0
  0
LINE
  5
2F5
330
1F
100
AcDbEntity
  8
0
  6
Continuous
 62
     7
370
    25
100
AcDbLine
 10
252.8168865327
 20
114.69
 30
0.0
 11
257.5919249665
 21
114.69
 31
0.0
  0
ARC
  5
2F6
330
1F
100
AcDbEntity
  8
0
  6
Continuous
 62
     7
370
    25
100
AcDbCircle
 10
238.4626197958
 20
118.3760736436
 30
0.0
 40
6.603265035815749
100
AcDbArc
 50
347.8830791894
 51
355.3434253817
  0
ARC
  5
2F7
330
1F
100
AcDbEntity
  8
0
  6
Continuous
 62
     7
370
    25
100
AcDbCircle
 10
238.4992260421
 20
118.5093232453
 30
0.0
 40
6.566341924310221
100
AcDbArc
 50
4.6355695945
 51
12.1379258343
  0
LINE
  5
2F8
330
1F
100
AcDbEntity
  8
0
  6
Continuous
 62
     7
370
    25
100
AcDbLine
 10
257.5919249665
 20
122.19
 30
0.0
 11
251.3631673187
 21
122.19
 31
0.0
  0
LINE
  5
2F9
330
1F
100
AcDbEntity
  8
0
  6
Continuous
 62
     7
370
    25
100
AcDbLine
 10
258.5631673187
 20
114.69
 30
0.0
 11
258.5631673187
 21
116.5329407455
 31
0.0
  0
LINE
  5
2FA
330
1F
100
AcDbEntity
  8
0
  6
Continuous
 62
     7
370
    25
100
AcDbLine
 10
257.5919249665
 20
114.69
 30
0.0
 11
258.5631673187
 21
114.69
 31
0.0
  0
LINE
  5
2FB
330
1F
100
AcDbEntity
  8
0
  6
Continuous
 62
     7
370
    25
100
AcDbLine
 10
258.5631673187
 20
120.3470592545
 30
0.0
 11
258.5631673187
 21
122.19
 31
0.0
  0
LINE
  5
2FC
330
1F
100
AcDbEntity
  8
0
  6
Continuous
 62
     7
370
    25
100
AcDbLine
 10
257.5919249665
 20
122.19
 30
0.0
 11
258.5631673187
 21
122.19
 31
0.0
  0
LINE
  5
2FD
330
1F
100
AcDbEntity
  8
0
  6
Continuous
 62
     7
370
    25
100
AcDbLine
 10
253.5411196899
 20
117.84
 30
0.0
 11
253.5411196899
 21
119.04
 31
0.0
  0
LINE
  5
2FE
330
1F
100
AcDbEntity
  8
0
  6
Continuous
 62
     7
370
    25
100
AcDbLine
 10
253.5411196899
 20
119.04
 30
0.0
 11
253.9408414922
 21
119.04
 31
0.0
  0
LINE
  5
2FF
330
1F
100
AcDbEntity
  8
0
  6
Continuous
 62
     7
370
    25
100
AcDbLine
 10
253.5411196899
 20
117.84
 30
0.0
 11
253.9408414922
 21
117.84
 31
0.0
  0
LINE
  5
300
330
1F
100
AcDbEntity
  8
0
  6
Continuous
 62
     7
370
    25
100
AcDbLine
 10
253.5411196899
 20
119.04
 30
0.0
 11
251.6084312327
 21
119.04
 31
0.0
  0
LINE
  5
301
330
1F
100
AcDbEntity
  8
0
  6
Continuous
 62
     7
370
    25
100
AcDbLine
 10
249.5355748385
 20
119.04
 30
0.0
 11
248.8136978865
 21
119.04
 31
0.0
  0
LINE
  5
302
330
1F
100
AcDbEntity
  8
0
  6
Continuous
 62
     7
370
    25
100
AcDbLine
 10
248.8136978865
 20
117.84
 30
0.0
 11
249.5355748385
 21
117.84
 31
0.0
  0
LINE
  5
303
330
1F
100
AcDbEntity
  8
0
  6
Continuous
 62
     7
370
    25
100
AcDbLine
 10
252.8168865327
 20
117.84
 30
0.0
 11
253.5411196899
 21
117.84
 31
0.0
  0
ARC
  5
304
330
1F
100
AcDbEntity
  8
0
  6
Continuous
 62
     7
370
    25
100
AcDbCircle
 10
245.6140664608
 20
118.1986243192
 30
0.0
 40
4.081665684050128
100
AcDbArc
 50
191.6778431401
 51
197.2241434712
  0
ARC
  5
305
330
1F
100
AcDbEntity
  8
0
  6
Continuous
 62
     7
370
    25
100
AcDbCircle
 10
239.422772565
 20
118.3144800373
 30
0.0
 40
4.544539489322705
100
AcDbArc
 50
343.0555572698
 51
354.0070191358
  0
ARC
  5
306
330
1F
100
AcDbEntity
  8
0
  6
Continuous
 62
     7
370
    25
100
AcDbCircle
 10
237.8072289342
 20
118.3685595056
 30
0.0
 40
6.551856891705152
100
AcDbArc
 50
347.8537690447
 51
355.3727355265
  0
ARC
  5
307
330
1F
100
AcDbEntity
  8
0
  6
Continuous
 62
     7
370
    25
100
AcDbCircle
 10
247.7402999881
 20
118.3144800373
 30
0.0
 40
4.544539489313681
100
AcDbArc
 50
185.9929808642
 51
196.9444427302
  0
LINE
  5
308
330
1F
100
AcDbEntity
  8
0
  6
Continuous
 62
     7
370
    25
100
AcDbLine
 10
253.8168865327
 20
107.24
 30
0.0
 11
253.8168865327
 21
114.14
 31
0.0
  0
LINE
  5
309
330
1F
100
AcDbEntity
  8
0
  6
Continuous
 62
     7
370
    25
100
AcDbLine
 10
238.5668865327
 20
108.74
 30
0.0
 11
238.5668865327
 21
112.64
 31
0.0
  0
LINE
  5
30A
330
1F
100
AcDbEntity
  8
0
  6
Continuous
 62
     7
370
    25
100
AcDbLine
 10
240.2168865327
 20
118.44
 30
0.0
 11
241.6168865327
 21
118.44
 31
0.0
  0
LINE
  5
30B
330
1F
100
AcDbEntity
  8
0
  6
Continuous
 62
     7
370
    25
100
AcDbLine
 10
241.6168865327
 20
102.94
 30
0.0
 11
241.6168865327
 21
118.44
 31
0.0
  0
LINE
  5
30C
330
1F
100
AcDbEntity
  8
0
  6
Continuous
 62
     7
370
    25
100
AcDbLine
 10
240.2168865327
 20
102.94
 30
0.0
 11
241.6168865327
 21
102.94
 31
0.0
  0
LINE
  5
30D
330
1F
100
AcDbEntity
  8
0
  6
Continuous
 62
     7
370
    25
100
AcDbLine
 10
240.2168865327
 20
102.94
 30
0.0
 11
240.2168865327
 21
118.44
 31
0.0
  0
LINE
  5
30E
330
1F
100
AcDbEntity
  8
0
  6
Continuous
 62
     7
370
    25
100
AcDbLine
 10
239.5168865327
 20
105.94
 30
0.0
 11
239.5168865327
 21
115.44
 31
0.0
  0
LINE
  5
30F
330
1F
100
AcDbEntity
  8
0
  6
Continuous
 62
     7
370
    25
100
AcDbLine
 10
251.4168865327
 20
102.94
 30
0.0
 11
251.4168865327
 21
118.44
 31
0.0
  0
LINE
  5
310
330
1F
100
AcDbEntity
  8
0
  6
Continuous
 62
     7
370
    25
100
AcDbLine
 10
251.4168865327
 20
118.44
 30
0.0
 11
252.8168865327
 21
118.44
 31
0.0
  0
LINE
  5
311
330
1F
100
AcDbEntity
  8
0
  6
Continuous
 62
     7
370
    25
100
AcDbLine
 10
252.8168865327
 20
102.94
 30
0.0
 11
252.8168865327
 21
118.44
 31
0.0
  0
LINE
  5
312
330
1F
100
AcDbEntity
  8
0
  6
Continuous
 62
     7
370
    25
100
AcDbLine
 10
251.4168865327
 20
102.94
 30
0.0
 11
252.8168865327
 21
102.94
 31
0.0
  0
LINE
  5
313
330
1F
100
AcDbEntity
  8
0
  6
Continuous
 62
     7
370
    25
100
AcDbLine
 10
250.7168865327
 20
106.69
 30
0.0
 11
250.7168865327
 21
115.4220750604
 31
0.0
  0
LINE
  5
314
330
1F
100
AcDbEntity
  8
0
  6
Continuous
 62
     7
370
    25
100
AcDbLine
 10
241.7168865327
 20
101.29
 30
0.0
 11
241.7168865327
 21
88.29
 31
0.0
  0
LINE
  5
315
330
1F
100
AcDbEntity
  8
0
  6
Continuous
 62
     7
370
    25
100
AcDbLine
 10
241.7168865327
 20
101.29
 30
0.0
 11
244.7168865327
 21
101.29
 31
0.0
  0
LINE
  5
316
330
1F
100
AcDbEntity
  8
0
  6
Continuous
 62
     7
370
    25
100
AcDbLine
 10
249.7168865327
 20
101.29
 30
0.0
 11
252.7168865327
 21
101.29
 31
0.0
  0
LINE
  5
317
330
1F
100
AcDbEntity
  8
0
  6
Continuous
 62
     7
370
    25
100
AcDbLine
 10
252.7168865327
 20
101.29
 30
0.0
 11
252.7168865327
 21
88.29
 31
0.0
  0
LINE
  5
318
330
1F
100
AcDbEntity
  8
0
  6
Continuous
 62
     7
370
    25
100
AcDbLine
 10
238.9668865327
 20
88.29
 30
0.0
 11
255.4668865327
 21
88.29
 31
0.0
  0
LINE
  5
319
330
1F
100
AcDbEntity
  8
0
  6
Continuous
 62
     7
370
    25
100
AcDbLine
 10
241.6168865327
 20
104.19
 30
0.0
 11
251.4168865327
 21
104.19
 31
0.0
  0
LINE
  5
31A
330
1F
100
AcDbEntity
  8
0
  6
Continuous
 62
     7
370
    25
100
AcDbLine
 10
252.8168865327
 20
104.19
 30
0.0
 11
253.7168865327
 21
104.19
 31
0.0
  0
LINE
  5
31B
330
1F
100
AcDbEntity
  8
0
  6
Continuous
 62
     7
370
    25
100
AcDbLine
 10
242.4668865327
 20
106.69
 30
0.0
 11
251.2168865327
 21
106.69
 31
0.0
  0
LINE
  5
31C
330
1F
100
AcDbEntity
  8
0
  6
Continuous
 62
     7
370
    25
100
AcDbLine
 10
238.2168865327
 20
84.69
 30
0.0
 11
256.2168865327
 21
84.69
 31
0.0
  0
LINE
  5
31D
330
1F
100
AcDbEntity
  8
0
  6
Continuous
 62
     7
370
    25
100
AcDbLine
 10
238.2168865327
 20
86.19
 30
0.0
 11
256.2168865327
 21
86.19
 31
0.0
  0
ENDSEC
  0
SECTION
  2
OBJECTS
  0
DICTIONARY
  5
C
330
0
100
AcDbDictionary
281
     1
  3
ACAD_GROUP
350
D
  3
ACAD_LAYOUT
350
1A
  3
ACAD_MLINESTYLE
350
17
  3
ACAD_PLOTSETTINGS
350
19
  3
ACAD_PLOTSTYLENAME
350
E
  3
ACAD_SCALELIST
350
47
  3
DWGPROPS
350
31E
  0
DICTIONARY
  5
D
102
{ACAD_REACTORS
330
C
102
}
330
C
100
AcDbDictionary
281
     1
  0
DICTIONARY
  5
1A
102
{ACAD_REACTORS
330
C
102
}
330
C
100
AcDbDictionary
281
     1
  3
Layout1
350
1E
  3
Layout2
350
26
  3
Model
350
22
  0
DICTIONARY
  5
17
102
{ACAD_REACTORS
330
C
102
}
330
C
100
AcDbDictionary
281
     1
  3
Standard
350
18
  0
DICTIONARY
  5
19
102
{ACAD_REACTORS
330
C
102
}
330
C
100
AcDbDictionary
281
     1
  0
ACDBDICTIONARYWDFLT
  5
E
102
{ACAD_REACTORS
330
C
102
}
330
C
100
AcDbDictionary
281
     1
  3
Normal
350
F
100
AcDbDictionaryWithDefault
340
F
  0
DICTIONARY
  5
47
102
{ACAD_REACTORS
330
C
102
}
330
C
100
AcDbDictionary
281
     1
  3
A0
350
48
  3
A1
350
49
  3
A2
350
4A
  3
A3
350
4B
  3
A4
350
4C
  3
A5
350
4D
  3
A6
350
4E
  3
A7
350
4F
  3
A8
350
50
  3
A9
350
51
  3
B0
350
52
  3
B1
350
53
  3
B2
350
54
  3
B3
350
55
  3
B4
350
56
  3
B5
350
57
  3
B6
350
58
  0
XRECORD
  5
31E
102
{ACAD_REACTORS
330
C
102
}
330
C
100
AcDbXrecord
280
     1
  1
DWGPROPS COOKIE
  2

  3

  4

  6

  7

  8
Administrator
  9

300
=
301
=
302
=
303
=
304
=
305
=
306
=
307
=
308
=
309
=
 40
0.0
 41
2461250.686213252
 42
2461250.686216921
  1

 90
        0
  0
LAYOUT
  5
1E
102
{ACAD_REACTORS
330
1A
102
}
330
1A
100
AcDbPlotSettings
  1

  2
none_device
  4

  6

 40
0.0
 41
0.0
 42
0.0
 43
0.0
 44
0.0
 45
0.0
 46
0.0
 47
0.0
 48
0.0
 49
0.0
140
0.0
141
0.0
142
1.0
143
1.0
 70
   688
 72
     1
 73
     0
 74
     5
  7

 75
    16
147
1.0
148
0.0
149
0.0
100
AcDbLayout
  1
Layout1
 70
     1
 71
     1
 10
0.0
 20
0.0
 11
420.0
 21
297.0
 12
0.0
 22
0.0
 32
0.0
 14
1.0000000000E+20
 24
1.0000000000E+20
 34
1.0000000000E+20
 15
-1.0000000000E+20
 25
-1.0000000000E+20
 35
-1.0000000000E+20
146
0.0
 13
0.0
 23
0.0
 33
0.0
 16
1.0
 26
0.0
 36
0.0
 17
0.0
 27
1.0
 37
0.0
 76
     0
330
1B
  0
LAYOUT
  5
26
102
{ACAD_REACTORS
330
1A
102
}
330
1A
100
AcDbPlotSettings
  1

  2
none_device
  4

  6

 40
0.0
 41
0.0
 42
0.0
 43
0.0
 44
0.0
 45
0.0
 46
0.0
 47
0.0
 48
0.0
 49
0.0
140
0.0
141
0.0
142
1.0
143
1.0
 70
   688
 72
     1
 73
     0
 74
     5
  7

 75
    16
147
1.0
148
0.0
149
0.0
100
AcDbLayout
  1
Layout2
 70
     1
 71
     2
 10
0.0
 20
0.0
 11
0.0
 21
0.0
 12
0.0
 22
0.0
 32
0.0
 14
0.0
 24
0.0
 34
0.0
 15
0.0
 25
0.0
 35
0.0
146
0.0
 13
0.0
 23
0.0
 33
0.0
 16
1.0
 26
0.0
 36
0.0
 17
0.0
 27
1.0
 37
0.0
 76
     0
330
23
  0
LAYOUT
  5
22
102
{ACAD_REACTORS
330
1A
102
}
330
1A
100
AcDbPlotSettings
  1

  2
none_device
  4
Letter_(8.50_x_11.00_Inches)
  6

 40
6.35
 41
6.35
 42
6.35000508
 43
6.35000508
 44
215.9
 45
279.4
 46
0.0
 47
0.0
 48
0.0
 49
0.0
140
0.0
141
0.0
142
1.0
143
1.0
 70
  1712
 72
     1
 73
     0
 74
     0
  7

 75
     0
147
1.0
148
0.0
149
0.0
100
AcDbLayout
  1
Model
 70
     1
 71
     0
 10
0.0
 20
0.0
 11
420.0
 21
297.0
 12
0.0
 22
0.0
 32
0.0
 14
0.0
 24
0.0
 34
0.0
 15
420.0
 25
297.0
 35
0.0
146
0.0
 13
0.0
 23
0.0
 33
0.0
 16
1.0
 26
0.0
 36
0.0
 17
0.0
 27
1.0
 37
0.0
 76
     0
330
1F
331
29
  0
MLINESTYLE
  5
18
102
{ACAD_REACTORS
330
17
102
}
330
17
100
AcDbMlineStyle
  2
Standard
 70
     0
  3

 62
   256
 51
90.0
 52
90.0
 71
     2
 49
0.5
 62
   256
  6
BYLAYER
 49
-0.5
 62
   256
  6
BYLAYER
  0
ACDBPLACEHOLDER
  5
F
102
{ACAD_REACTORS
330
E
102
}
330
E
  0
SCALE
  5
48
102
{ACAD_REACTORS
330
47
102
}
330
47
100
AcDbScale
 70
     0
300
1:1
140
1.0
141
1.0
290
     1
  0
SCALE
  5
49
102
{ACAD_REACTORS
330
47
102
}
330
47
100
AcDbScale
 70
     0
300
1:2
140
1.0
141
2.0
290
     0
  0
SCALE
  5
4A
102
{ACAD_REACTORS
330
47
102
}
330
47
100
AcDbScale
 70
     0
300
1:4
140
1.0
141
4.0
290
     0
  0
SCALE
  5
4B
102
{ACAD_REACTORS
330
47
102
}
330
47
100
AcDbScale
 70
     0
300
1:5
140
1.0
141
5.0
290
     0
  0
SCALE
  5
4C
102
{ACAD_REACTORS
330
47
102
}
330
47
100
AcDbScale
 70
     0
300
1:8
140
1.0
141
8.0
290
     0
  0
SCALE
  5
4D
102
{ACAD_REACTORS
330
47
102
}
330
47
100
AcDbScale
 70
     0
300
1:10
140
1.0
141
10.0
290
     0
  0
SCALE
  5
4E
102
{ACAD_REACTORS
330
47
102
}
330
47
100
AcDbScale
 70
     0
300
1:16
140
1.0
141
16.0
290
     0
  0
SCALE
  5
4F
102
{ACAD_REACTORS
330
47
102
}
330
47
100
AcDbScale
 70
     0
300
1:20
140
1.0
141
20.0
290
     0
  0
SCALE
  5
50
102
{ACAD_REACTORS
330
47
102
}
330
47
100
AcDbScale
 70
     0
300
1:30
140
1.0
141
30.0
290
     0
  0
SCALE
  5
51
102
{ACAD_REACTORS
330
47
102
}
330
47
100
AcDbScale
 70
     0
300
1:40
140
1.0
141
40.0
290
     0
  0
SCALE
  5
52
102
{ACAD_REACTORS
330
47
102
}
330
47
100
AcDbScale
 70
     0
300
1:50
140
1.0
141
50.0
290
     0
  0
SCALE
  5
53
102
{ACAD_REACTORS
330
47
102
}
330
47
100
AcDbScale
 70
     0
300
1:100
140
1.0
141
100.0
290
     0
  0
SCALE
  5
54
102
{ACAD_REACTORS
330
47
102
}
330
47
100
AcDbScale
 70
     0
300
2:1
140
2.0
141
1.0
290
     0
  0
SCALE
  5
55
102
{ACAD_REACTORS
330
47
102
}
330
47
100
AcDbScale
 70
     0
300
4:1
140
4.0
141
1.0
290
     0
  0
SCALE
  5
56
102
{ACAD_REACTORS
330
47
102
}
330
47
100
AcDbScale
 70
     0
300
8:1
140
8.0
141
1.0
290
     0
  0
SCALE
  5
57
102
{ACAD_REACTORS
330
47
102
}
330
47
100
AcDbScale
 70
     0
300
10:1
140
10.0
141
1.0
290
     0
  0
SCALE
  5
58
102
{ACAD_REACTORS
330
47
102
}
330
47
100
AcDbScale
 70
     0
300
100:1
140
100.0
141
1.0
290
     0
  0
ENDSEC
  0
EOF
